<?xml version="1.0" encoding="utf-8" standalone="no"?>
<!DOCTYPE svg PUBLIC "-//W3C//DTD SVG 1.1//EN"
  "http://www.w3.org/Graphics/SVG/1.1/DTD/svg11.dtd">
<svg xmlns:xlink="http://www.w3.org/1999/xlink" width="408.10125pt" height="310.86825pt" viewBox="0 0 408.10125 310.86825" xmlns="http://www.w3.org/2000/svg" version="1.1">
 <metadata>
  <rdf:RDF xmlns:dc="http://purl.org/dc/elements/1.1/" xmlns:cc="http://creativecommons.org/ns#" xmlns:rdf="http://www.w3.org/1999/02/22-rdf-syntax-ns#">
   <cc:Work>
    <dc:type rdf:resource="http://purl.org/dc/dcmitype/StillImage"/>
    <dc:date>2022-05-26T20:12:33.121161</dc:date>
    <dc:format>image/svg+xml</dc:format>
    <dc:creator>
     <cc:Agent>
      <dc:title>Matplotlib v3.5.2, https://matplotlib.org/</dc:title>
     </cc:Agent>
    </dc:creator>
   </cc:Work>
  </rdf:RDF>
 </metadata>
 <defs>
  <style type="text/css">*{stroke-linejoin: round; stroke-linecap: butt}</style>
 </defs>
 <g id="figure_1">
  <g id="patch_1">
   <path d="M 0 310.86825 
L 408.10125 310.86825 
L 408.10125 0 
L 0 0 
z
" style="fill: #ffffff"/>
  </g>
  <g id="axes_1">
   <g id="patch_2">
    <path d="M 43.78125 273.312 
L 400.90125 273.312 
L 400.90125 7.2 
L 43.78125 7.2 
z
" style="fill: #ffffff"/>
   </g>
   <g id="patch_3">
    <path d="M 61.270777 273.312 
L 62.884594 273.312 
L 62.884594 269.483601 
L 61.270777 269.483601 
z
" clip-path="url(#p86380377d8)" style="fill: #1f77b4"/>
   </g>
   <g id="patch_4">
    <path d="M 62.884594 273.312 
L 64.498412 273.312 
L 64.498412 259.529764 
L 62.884594 259.529764 
z
" clip-path="url(#p86380377d8)" style="fill: #1f77b4"/>
   </g>
   <g id="patch_5">
    <path d="M 64.498412 273.312 
L 66.112229 273.312 
L 66.112229 259.529764 
L 64.498412 259.529764 
z
" clip-path="url(#p86380377d8)" style="fill: #1f77b4"/>
   </g>
   <g id="patch_6">
    <path d="M 66.112229 273.312 
L 67.726046 273.312 
L 67.726046 258.764085 
L 66.112229 258.764085 
z
" clip-path="url(#p86380377d8)" style="fill: #1f77b4"/>
   </g>
   <g id="patch_7">
    <path d="M 67.726046 273.312 
L 69.339863 273.312 
L 69.339863 248.810248 
L 67.726046 248.810248 
z
" clip-path="url(#p86380377d8)" style="fill: #1f77b4"/>
   </g>
   <g id="patch_8">
    <path d="M 69.339863 273.312 
L 70.953681 273.312 
L 70.953681 252.638647 
L 69.339863 252.638647 
z
" clip-path="url(#p86380377d8)" style="fill: #1f77b4"/>
   </g>
   <g id="patch_9">
    <path d="M 70.953681 273.312 
L 72.567498 273.312 
L 72.567498 248.044568 
L 70.953681 248.044568 
z
" clip-path="url(#p86380377d8)" style="fill: #1f77b4"/>
   </g>
   <g id="patch_10">
    <path d="M 72.567498 273.312 
L 74.181315 273.312 
L 74.181315 247.278888 
L 72.567498 247.278888 
z
" clip-path="url(#p86380377d8)" style="fill: #1f77b4"/>
   </g>
   <g id="patch_11">
    <path d="M 74.181315 273.312 
L 75.795133 273.312 
L 75.795133 236.559372 
L 74.181315 236.559372 
z
" clip-path="url(#p86380377d8)" style="fill: #1f77b4"/>
   </g>
   <g id="patch_12">
    <path d="M 75.795133 273.312 
L 77.40895 273.312 
L 77.40895 239.622091 
L 75.795133 239.622091 
z
" clip-path="url(#p86380377d8)" style="fill: #1f77b4"/>
   </g>
   <g id="patch_13">
    <path d="M 77.40895 273.312 
L 79.022767 273.312 
L 79.022767 235.028012 
L 77.40895 235.028012 
z
" clip-path="url(#p86380377d8)" style="fill: #1f77b4"/>
   </g>
   <g id="patch_14">
    <path d="M 79.022767 273.312 
L 80.636584 273.312 
L 80.636584 223.542816 
L 79.022767 223.542816 
z
" clip-path="url(#p86380377d8)" style="fill: #1f77b4"/>
   </g>
   <g id="patch_15">
    <path d="M 80.636584 273.312 
L 82.250402 273.312 
L 82.250402 224.308495 
L 80.636584 224.308495 
z
" clip-path="url(#p86380377d8)" style="fill: #1f77b4"/>
   </g>
   <g id="patch_16">
    <path d="M 82.250402 273.312 
L 83.864219 273.312 
L 83.864219 222.011456 
L 82.250402 222.011456 
z
" clip-path="url(#p86380377d8)" style="fill: #1f77b4"/>
   </g>
   <g id="patch_17">
    <path d="M 83.864219 273.312 
L 85.478036 273.312 
L 85.478036 219.714417 
L 83.864219 219.714417 
z
" clip-path="url(#p86380377d8)" style="fill: #1f77b4"/>
   </g>
   <g id="patch_18">
    <path d="M 85.478036 273.312 
L 87.091853 273.312 
L 87.091853 215.120338 
L 85.478036 215.120338 
z
" clip-path="url(#p86380377d8)" style="fill: #1f77b4"/>
   </g>
   <g id="patch_19">
    <path d="M 87.091853 273.312 
L 88.705671 273.312 
L 88.705671 192.915625 
L 87.091853 192.915625 
z
" clip-path="url(#p86380377d8)" style="fill: #1f77b4"/>
   </g>
   <g id="patch_20">
    <path d="M 88.705671 273.312 
L 90.319488 273.312 
L 90.319488 204.400822 
L 88.705671 204.400822 
z
" clip-path="url(#p86380377d8)" style="fill: #1f77b4"/>
   </g>
   <g id="patch_21">
    <path d="M 90.319488 273.312 
L 91.933305 273.312 
L 91.933305 197.509704 
L 90.319488 197.509704 
z
" clip-path="url(#p86380377d8)" style="fill: #1f77b4"/>
   </g>
   <g id="patch_22">
    <path d="M 91.933305 273.312 
L 93.547122 273.312 
L 93.547122 205.932181 
L 91.933305 205.932181 
z
" clip-path="url(#p86380377d8)" style="fill: #1f77b4"/>
   </g>
   <g id="patch_23">
    <path d="M 93.547122 273.312 
L 95.16094 273.312 
L 95.16094 199.806743 
L 93.547122 199.806743 
z
" clip-path="url(#p86380377d8)" style="fill: #1f77b4"/>
   </g>
   <g id="patch_24">
    <path d="M 95.16094 273.312 
L 96.774757 273.312 
L 96.774757 194.446985 
L 95.16094 194.446985 
z
" clip-path="url(#p86380377d8)" style="fill: #1f77b4"/>
   </g>
   <g id="patch_25">
    <path d="M 96.774757 273.312 
L 98.388574 273.312 
L 98.388574 185.258828 
L 96.774757 185.258828 
z
" clip-path="url(#p86380377d8)" style="fill: #1f77b4"/>
   </g>
   <g id="patch_26">
    <path d="M 98.388574 273.312 
L 100.002391 273.312 
L 100.002391 186.024508 
L 98.388574 186.024508 
z
" clip-path="url(#p86380377d8)" style="fill: #1f77b4"/>
   </g>
   <g id="patch_27">
    <path d="M 100.002391 273.312 
L 101.616209 273.312 
L 101.616209 177.60203 
L 100.002391 177.60203 
z
" clip-path="url(#p86380377d8)" style="fill: #1f77b4"/>
   </g>
   <g id="patch_28">
    <path d="M 101.616209 273.312 
L 103.230026 273.312 
L 103.230026 182.196109 
L 101.616209 182.196109 
z
" clip-path="url(#p86380377d8)" style="fill: #1f77b4"/>
   </g>
   <g id="patch_29">
    <path d="M 103.230026 273.312 
L 104.843843 273.312 
L 104.843843 190.618586 
L 103.230026 190.618586 
z
" clip-path="url(#p86380377d8)" style="fill: #1f77b4"/>
   </g>
   <g id="patch_30">
    <path d="M 104.843843 273.312 
L 106.45766 273.312 
L 106.45766 169.945233 
L 104.843843 169.945233 
z
" clip-path="url(#p86380377d8)" style="fill: #1f77b4"/>
   </g>
   <g id="patch_31">
    <path d="M 106.45766 273.312 
L 108.071478 273.312 
L 108.071478 171.476592 
L 106.45766 171.476592 
z
" clip-path="url(#p86380377d8)" style="fill: #1f77b4"/>
   </g>
   <g id="patch_32">
    <path d="M 108.071478 273.312 
L 109.685295 273.312 
L 109.685295 159.225716 
L 108.071478 159.225716 
z
" clip-path="url(#p86380377d8)" style="fill: #1f77b4"/>
   </g>
   <g id="patch_33">
    <path d="M 109.685295 273.312 
L 111.299112 273.312 
L 111.299112 146.20916 
L 109.685295 146.20916 
z
" clip-path="url(#p86380377d8)" style="fill: #1f77b4"/>
   </g>
   <g id="patch_34">
    <path d="M 111.299112 273.312 
L 112.912929 273.312 
L 112.912929 145.44348 
L 111.299112 145.44348 
z
" clip-path="url(#p86380377d8)" style="fill: #1f77b4"/>
   </g>
   <g id="patch_35">
    <path d="M 112.912929 273.312 
L 114.526747 273.312 
L 114.526747 148.506199 
L 112.912929 148.506199 
z
" clip-path="url(#p86380377d8)" style="fill: #1f77b4"/>
   </g>
   <g id="patch_36">
    <path d="M 114.526747 273.312 
L 116.140564 273.312 
L 116.140564 166.882514 
L 114.526747 166.882514 
z
" clip-path="url(#p86380377d8)" style="fill: #1f77b4"/>
   </g>
   <g id="patch_37">
    <path d="M 116.140564 273.312 
L 117.754381 273.312 
L 117.754381 143.912121 
L 116.140564 143.912121 
z
" clip-path="url(#p86380377d8)" style="fill: #1f77b4"/>
   </g>
   <g id="patch_38">
    <path d="M 117.754381 273.312 
L 119.368199 273.312 
L 119.368199 131.661245 
L 117.754381 131.661245 
z
" clip-path="url(#p86380377d8)" style="fill: #1f77b4"/>
   </g>
   <g id="patch_39">
    <path d="M 119.368199 273.312 
L 120.982016 273.312 
L 120.982016 143.912121 
L 119.368199 143.912121 
z
" clip-path="url(#p86380377d8)" style="fill: #1f77b4"/>
   </g>
   <g id="patch_40">
    <path d="M 120.982016 273.312 
L 122.595833 273.312 
L 122.595833 143.912121 
L 120.982016 143.912121 
z
" clip-path="url(#p86380377d8)" style="fill: #1f77b4"/>
   </g>
   <g id="patch_41">
    <path d="M 122.595833 273.312 
L 124.20965 273.312 
L 124.20965 121.707408 
L 122.595833 121.707408 
z
" clip-path="url(#p86380377d8)" style="fill: #1f77b4"/>
   </g>
   <g id="patch_42">
    <path d="M 124.20965 273.312 
L 125.823468 273.312 
L 125.823468 128.598526 
L 124.20965 128.598526 
z
" clip-path="url(#p86380377d8)" style="fill: #1f77b4"/>
   </g>
   <g id="patch_43">
    <path d="M 125.823468 273.312 
L 127.437285 273.312 
L 127.437285 143.146441 
L 125.823468 143.146441 
z
" clip-path="url(#p86380377d8)" style="fill: #1f77b4"/>
   </g>
   <g id="patch_44">
    <path d="M 127.437285 273.312 
L 129.051102 273.312 
L 129.051102 123.238767 
L 127.437285 123.238767 
z
" clip-path="url(#p86380377d8)" style="fill: #1f77b4"/>
   </g>
   <g id="patch_45">
    <path d="M 129.051102 273.312 
L 130.664919 273.312 
L 130.664919 147.74052 
L 129.051102 147.74052 
z
" clip-path="url(#p86380377d8)" style="fill: #1f77b4"/>
   </g>
   <g id="patch_46">
    <path d="M 130.664919 273.312 
L 132.278737 273.312 
L 132.278737 125.535807 
L 130.664919 125.535807 
z
" clip-path="url(#p86380377d8)" style="fill: #1f77b4"/>
   </g>
   <g id="patch_47">
    <path d="M 132.278737 273.312 
L 133.892554 273.312 
L 133.892554 114.05061 
L 132.278737 114.05061 
z
" clip-path="url(#p86380377d8)" style="fill: #1f77b4"/>
   </g>
   <g id="patch_48">
    <path d="M 133.892554 273.312 
L 135.506371 273.312 
L 135.506371 106.393813 
L 133.892554 106.393813 
z
" clip-path="url(#p86380377d8)" style="fill: #1f77b4"/>
   </g>
   <g id="patch_49">
    <path d="M 135.506371 273.312 
L 137.120188 273.312 
L 137.120188 101.034054 
L 135.506371 101.034054 
z
" clip-path="url(#p86380377d8)" style="fill: #1f77b4"/>
   </g>
   <g id="patch_50">
    <path d="M 137.120188 273.312 
L 138.734006 273.312 
L 138.734006 110.222211 
L 137.120188 110.222211 
z
" clip-path="url(#p86380377d8)" style="fill: #1f77b4"/>
   </g>
   <g id="patch_51">
    <path d="M 138.734006 273.312 
L 140.347823 273.312 
L 140.347823 123.238767 
L 138.734006 123.238767 
z
" clip-path="url(#p86380377d8)" style="fill: #1f77b4"/>
   </g>
   <g id="patch_52">
    <path d="M 140.347823 273.312 
L 141.96164 273.312 
L 141.96164 102.565414 
L 140.347823 102.565414 
z
" clip-path="url(#p86380377d8)" style="fill: #1f77b4"/>
   </g>
   <g id="patch_53">
    <path d="M 141.96164 273.312 
L 143.575457 273.312 
L 143.575457 104.862453 
L 141.96164 104.862453 
z
" clip-path="url(#p86380377d8)" style="fill: #1f77b4"/>
   </g>
   <g id="patch_54">
    <path d="M 143.575457 273.312 
L 145.189275 273.312 
L 145.189275 71.172544 
L 143.575457 71.172544 
z
" clip-path="url(#p86380377d8)" style="fill: #1f77b4"/>
   </g>
   <g id="patch_55">
    <path d="M 145.189275 273.312 
L 146.803092 273.312 
L 146.803092 91.845897 
L 145.189275 91.845897 
z
" clip-path="url(#p86380377d8)" style="fill: #1f77b4"/>
   </g>
   <g id="patch_56">
    <path d="M 146.803092 273.312 
L 148.416909 273.312 
L 148.416909 90.314538 
L 146.803092 90.314538 
z
" clip-path="url(#p86380377d8)" style="fill: #1f77b4"/>
   </g>
   <g id="patch_57">
    <path d="M 148.416909 273.312 
L 150.030726 273.312 
L 150.030726 96.439976 
L 148.416909 96.439976 
z
" clip-path="url(#p86380377d8)" style="fill: #1f77b4"/>
   </g>
   <g id="patch_58">
    <path d="M 150.030726 273.312 
L 151.644544 273.312 
L 151.644544 85.720459 
L 150.030726 85.720459 
z
" clip-path="url(#p86380377d8)" style="fill: #1f77b4"/>
   </g>
   <g id="patch_59">
    <path d="M 151.644544 273.312 
L 153.258361 273.312 
L 153.258361 81.89206 
L 151.644544 81.89206 
z
" clip-path="url(#p86380377d8)" style="fill: #1f77b4"/>
   </g>
   <g id="patch_60">
    <path d="M 153.258361 273.312 
L 154.872178 273.312 
L 154.872178 81.89206 
L 153.258361 81.89206 
z
" clip-path="url(#p86380377d8)" style="fill: #1f77b4"/>
   </g>
   <g id="patch_61">
    <path d="M 154.872178 273.312 
L 156.485995 273.312 
L 156.485995 93.377257 
L 154.872178 93.377257 
z
" clip-path="url(#p86380377d8)" style="fill: #1f77b4"/>
   </g>
   <g id="patch_62">
    <path d="M 156.485995 273.312 
L 158.099813 273.312 
L 158.099813 84.1891 
L 156.485995 84.1891 
z
" clip-path="url(#p86380377d8)" style="fill: #1f77b4"/>
   </g>
   <g id="patch_63">
    <path d="M 158.099813 273.312 
L 159.71363 273.312 
L 159.71363 93.377257 
L 158.099813 93.377257 
z
" clip-path="url(#p86380377d8)" style="fill: #1f77b4"/>
   </g>
   <g id="patch_64">
    <path d="M 159.71363 273.312 
L 161.327447 273.312 
L 161.327447 92.611577 
L 159.71363 92.611577 
z
" clip-path="url(#p86380377d8)" style="fill: #1f77b4"/>
   </g>
   <g id="patch_65">
    <path d="M 161.327447 273.312 
L 162.941264 273.312 
L 162.941264 58.921668 
L 161.327447 58.921668 
z
" clip-path="url(#p86380377d8)" style="fill: #1f77b4"/>
   </g>
   <g id="patch_66">
    <path d="M 162.941264 273.312 
L 164.555082 273.312 
L 164.555082 84.954779 
L 162.941264 84.954779 
z
" clip-path="url(#p86380377d8)" style="fill: #1f77b4"/>
   </g>
   <g id="patch_67">
    <path d="M 164.555082 273.312 
L 166.168899 273.312 
L 166.168899 40.545353 
L 164.555082 40.545353 
z
" clip-path="url(#p86380377d8)" style="fill: #1f77b4"/>
   </g>
   <g id="patch_68">
    <path d="M 166.168899 273.312 
L 167.782716 273.312 
L 167.782716 75.000943 
L 166.168899 75.000943 
z
" clip-path="url(#p86380377d8)" style="fill: #1f77b4"/>
   </g>
   <g id="patch_69">
    <path d="M 167.782716 273.312 
L 169.396534 273.312 
L 169.396534 65.047106 
L 167.782716 65.047106 
z
" clip-path="url(#p86380377d8)" style="fill: #1f77b4"/>
   </g>
   <g id="patch_70">
    <path d="M 169.396534 273.312 
L 171.010351 273.312 
L 171.010351 66.578465 
L 169.396534 66.578465 
z
" clip-path="url(#p86380377d8)" style="fill: #1f77b4"/>
   </g>
   <g id="patch_71">
    <path d="M 171.010351 273.312 
L 172.624168 273.312 
L 172.624168 76.532302 
L 171.010351 76.532302 
z
" clip-path="url(#p86380377d8)" style="fill: #1f77b4"/>
   </g>
   <g id="patch_72">
    <path d="M 172.624168 273.312 
L 174.237985 273.312 
L 174.237985 62.750066 
L 172.624168 62.750066 
z
" clip-path="url(#p86380377d8)" style="fill: #1f77b4"/>
   </g>
   <g id="patch_73">
    <path d="M 174.237985 273.312 
L 175.851803 273.312 
L 175.851803 47.436471 
L 174.237985 47.436471 
z
" clip-path="url(#p86380377d8)" style="fill: #1f77b4"/>
   </g>
   <g id="patch_74">
    <path d="M 175.851803 273.312 
L 177.46562 273.312 
L 177.46562 68.109825 
L 175.851803 68.109825 
z
" clip-path="url(#p86380377d8)" style="fill: #1f77b4"/>
   </g>
   <g id="patch_75">
    <path d="M 177.46562 273.312 
L 179.079437 273.312 
L 179.079437 65.047106 
L 177.46562 65.047106 
z
" clip-path="url(#p86380377d8)" style="fill: #1f77b4"/>
   </g>
   <g id="patch_76">
    <path d="M 179.079437 273.312 
L 180.693254 273.312 
L 180.693254 75.000943 
L 179.079437 75.000943 
z
" clip-path="url(#p86380377d8)" style="fill: #1f77b4"/>
   </g>
   <g id="patch_77">
    <path d="M 180.693254 273.312 
L 182.307072 273.312 
L 182.307072 44.373752 
L 180.693254 44.373752 
z
" clip-path="url(#p86380377d8)" style="fill: #1f77b4"/>
   </g>
   <g id="patch_78">
    <path d="M 182.307072 273.312 
L 183.920889 273.312 
L 183.920889 67.344145 
L 182.307072 67.344145 
z
" clip-path="url(#p86380377d8)" style="fill: #1f77b4"/>
   </g>
   <g id="patch_79">
    <path d="M 183.920889 273.312 
L 185.534706 273.312 
L 185.534706 50.49919 
L 183.920889 50.49919 
z
" clip-path="url(#p86380377d8)" style="fill: #1f77b4"/>
   </g>
   <g id="patch_80">
    <path d="M 185.534706 273.312 
L 187.148523 273.312 
L 187.148523 48.202151 
L 185.534706 48.202151 
z
" clip-path="url(#p86380377d8)" style="fill: #1f77b4"/>
   </g>
   <g id="patch_81">
    <path d="M 187.148523 273.312 
L 188.762341 273.312 
L 188.762341 52.03055 
L 187.148523 52.03055 
z
" clip-path="url(#p86380377d8)" style="fill: #1f77b4"/>
   </g>
   <g id="patch_82">
    <path d="M 188.762341 273.312 
L 190.376158 273.312 
L 190.376158 19.872 
L 188.762341 19.872 
z
" clip-path="url(#p86380377d8)" style="fill: #1f77b4"/>
   </g>
   <g id="patch_83">
    <path d="M 190.376158 273.312 
L 191.989975 273.312 
L 191.989975 29.825837 
L 190.376158 29.825837 
z
" clip-path="url(#p86380377d8)" style="fill: #1f77b4"/>
   </g>
   <g id="patch_84">
    <path d="M 191.989975 273.312 
L 193.603792 273.312 
L 193.603792 44.373752 
L 191.989975 44.373752 
z
" clip-path="url(#p86380377d8)" style="fill: #1f77b4"/>
   </g>
   <g id="patch_85">
    <path d="M 193.603792 273.312 
L 195.21761 273.312 
L 195.21761 22.934719 
L 193.603792 22.934719 
z
" clip-path="url(#p86380377d8)" style="fill: #1f77b4"/>
   </g>
   <g id="patch_86">
    <path d="M 195.21761 273.312 
L 196.831427 273.312 
L 196.831427 28.294477 
L 195.21761 28.294477 
z
" clip-path="url(#p86380377d8)" style="fill: #1f77b4"/>
   </g>
   <g id="patch_87">
    <path d="M 196.831427 273.312 
L 198.445244 273.312 
L 198.445244 29.825837 
L 196.831427 29.825837 
z
" clip-path="url(#p86380377d8)" style="fill: #1f77b4"/>
   </g>
   <g id="patch_88">
    <path d="M 198.445244 273.312 
L 200.059061 273.312 
L 200.059061 32.888556 
L 198.445244 32.888556 
z
" clip-path="url(#p86380377d8)" style="fill: #1f77b4"/>
   </g>
   <g id="patch_89">
    <path d="M 200.059061 273.312 
L 201.672879 273.312 
L 201.672879 56.624628 
L 200.059061 56.624628 
z
" clip-path="url(#p86380377d8)" style="fill: #1f77b4"/>
   </g>
   <g id="patch_90">
    <path d="M 201.672879 273.312 
L 203.286696 273.312 
L 203.286696 46.670792 
L 201.672879 46.670792 
z
" clip-path="url(#p86380377d8)" style="fill: #1f77b4"/>
   </g>
   <g id="patch_91">
    <path d="M 203.286696 273.312 
L 204.900513 273.312 
L 204.900513 29.060157 
L 203.286696 29.060157 
z
" clip-path="url(#p86380377d8)" style="fill: #1f77b4"/>
   </g>
   <g id="patch_92">
    <path d="M 204.900513 273.312 
L 206.51433 273.312 
L 206.51433 50.49919 
L 204.900513 50.49919 
z
" clip-path="url(#p86380377d8)" style="fill: #1f77b4"/>
   </g>
   <g id="patch_93">
    <path d="M 206.51433 273.312 
L 208.128148 273.312 
L 208.128148 39.779674 
L 206.51433 39.779674 
z
" clip-path="url(#p86380377d8)" style="fill: #1f77b4"/>
   </g>
   <g id="patch_94">
    <path d="M 208.128148 273.312 
L 209.741965 273.312 
L 209.741965 39.779674 
L 208.128148 39.779674 
z
" clip-path="url(#p86380377d8)" style="fill: #1f77b4"/>
   </g>
   <g id="patch_95">
    <path d="M 209.741965 273.312 
L 211.355782 273.312 
L 211.355782 59.687347 
L 209.741965 59.687347 
z
" clip-path="url(#p86380377d8)" style="fill: #1f77b4"/>
   </g>
   <g id="patch_96">
    <path d="M 211.355782 273.312 
L 212.9696 273.312 
L 212.9696 38.248314 
L 211.355782 38.248314 
z
" clip-path="url(#p86380377d8)" style="fill: #1f77b4"/>
   </g>
   <g id="patch_97">
    <path d="M 212.9696 273.312 
L 214.583417 273.312 
L 214.583417 38.248314 
L 212.9696 38.248314 
z
" clip-path="url(#p86380377d8)" style="fill: #1f77b4"/>
   </g>
   <g id="patch_98">
    <path d="M 214.583417 273.312 
L 216.197234 273.312 
L 216.197234 39.013994 
L 214.583417 39.013994 
z
" clip-path="url(#p86380377d8)" style="fill: #1f77b4"/>
   </g>
   <g id="patch_99">
    <path d="M 216.197234 273.312 
L 217.811051 273.312 
L 217.811051 35.185595 
L 216.197234 35.185595 
z
" clip-path="url(#p86380377d8)" style="fill: #1f77b4"/>
   </g>
   <g id="patch_100">
    <path d="M 217.811051 273.312 
L 219.424869 273.312 
L 219.424869 24.466079 
L 217.811051 24.466079 
z
" clip-path="url(#p86380377d8)" style="fill: #1f77b4"/>
   </g>
   <g id="patch_101">
    <path d="M 219.424869 273.312 
L 221.038686 273.312 
L 221.038686 33.654236 
L 219.424869 33.654236 
z
" clip-path="url(#p86380377d8)" style="fill: #1f77b4"/>
   </g>
   <g id="patch_102">
    <path d="M 221.038686 273.312 
L 222.652503 273.312 
L 222.652503 29.060157 
L 221.038686 29.060157 
z
" clip-path="url(#p86380377d8)" style="fill: #1f77b4"/>
   </g>
   <g id="patch_103">
    <path d="M 222.652503 273.312 
L 224.26632 273.312 
L 224.26632 36.716955 
L 222.652503 36.716955 
z
" clip-path="url(#p86380377d8)" style="fill: #1f77b4"/>
   </g>
   <g id="patch_104">
    <path d="M 224.26632 273.312 
L 225.880138 273.312 
L 225.880138 40.545353 
L 224.26632 40.545353 
z
" clip-path="url(#p86380377d8)" style="fill: #1f77b4"/>
   </g>
   <g id="patch_105">
    <path d="M 225.880138 273.312 
L 227.493955 273.312 
L 227.493955 39.779674 
L 225.880138 39.779674 
z
" clip-path="url(#p86380377d8)" style="fill: #1f77b4"/>
   </g>
   <g id="patch_106">
    <path d="M 227.493955 273.312 
L 229.107772 273.312 
L 229.107772 22.934719 
L 227.493955 22.934719 
z
" clip-path="url(#p86380377d8)" style="fill: #1f77b4"/>
   </g>
   <g id="patch_107">
    <path d="M 229.107772 273.312 
L 230.721589 273.312 
L 230.721589 28.294477 
L 229.107772 28.294477 
z
" clip-path="url(#p86380377d8)" style="fill: #1f77b4"/>
   </g>
   <g id="patch_108">
    <path d="M 230.721589 273.312 
L 232.335407 273.312 
L 232.335407 41.311033 
L 230.721589 41.311033 
z
" clip-path="url(#p86380377d8)" style="fill: #1f77b4"/>
   </g>
   <g id="patch_109">
    <path d="M 232.335407 273.312 
L 233.949224 273.312 
L 233.949224 37.482634 
L 232.335407 37.482634 
z
" clip-path="url(#p86380377d8)" style="fill: #1f77b4"/>
   </g>
   <g id="patch_110">
    <path d="M 233.949224 273.312 
L 235.563041 273.312 
L 235.563041 24.466079 
L 233.949224 24.466079 
z
" clip-path="url(#p86380377d8)" style="fill: #1f77b4"/>
   </g>
   <g id="patch_111">
    <path d="M 235.563041 273.312 
L 237.176858 273.312 
L 237.176858 58.155988 
L 235.563041 58.155988 
z
" clip-path="url(#p86380377d8)" style="fill: #1f77b4"/>
   </g>
   <g id="patch_112">
    <path d="M 237.176858 273.312 
L 238.790676 273.312 
L 238.790676 57.390308 
L 237.176858 57.390308 
z
" clip-path="url(#p86380377d8)" style="fill: #1f77b4"/>
   </g>
   <g id="patch_113">
    <path d="M 238.790676 273.312 
L 240.404493 273.312 
L 240.404493 42.076713 
L 238.790676 42.076713 
z
" clip-path="url(#p86380377d8)" style="fill: #1f77b4"/>
   </g>
   <g id="patch_114">
    <path d="M 240.404493 273.312 
L 242.01831 273.312 
L 242.01831 45.905112 
L 240.404493 45.905112 
z
" clip-path="url(#p86380377d8)" style="fill: #1f77b4"/>
   </g>
   <g id="patch_115">
    <path d="M 242.01831 273.312 
L 243.632127 273.312 
L 243.632127 30.591517 
L 242.01831 30.591517 
z
" clip-path="url(#p86380377d8)" style="fill: #1f77b4"/>
   </g>
   <g id="patch_116">
    <path d="M 243.632127 273.312 
L 245.245945 273.312 
L 245.245945 24.466079 
L 243.632127 24.466079 
z
" clip-path="url(#p86380377d8)" style="fill: #1f77b4"/>
   </g>
   <g id="patch_117">
    <path d="M 245.245945 273.312 
L 246.859762 273.312 
L 246.859762 25.997438 
L 245.245945 25.997438 
z
" clip-path="url(#p86380377d8)" style="fill: #1f77b4"/>
   </g>
   <g id="patch_118">
    <path d="M 246.859762 273.312 
L 248.473579 273.312 
L 248.473579 42.842393 
L 246.859762 42.842393 
z
" clip-path="url(#p86380377d8)" style="fill: #1f77b4"/>
   </g>
   <g id="patch_119">
    <path d="M 248.473579 273.312 
L 250.087396 273.312 
L 250.087396 33.654236 
L 248.473579 33.654236 
z
" clip-path="url(#p86380377d8)" style="fill: #1f77b4"/>
   </g>
   <g id="patch_120">
    <path d="M 250.087396 273.312 
L 251.701214 273.312 
L 251.701214 51.26487 
L 250.087396 51.26487 
z
" clip-path="url(#p86380377d8)" style="fill: #1f77b4"/>
   </g>
   <g id="patch_121">
    <path d="M 251.701214 273.312 
L 253.315031 273.312 
L 253.315031 37.482634 
L 251.701214 37.482634 
z
" clip-path="url(#p86380377d8)" style="fill: #1f77b4"/>
   </g>
   <g id="patch_122">
    <path d="M 253.315031 273.312 
L 254.928848 273.312 
L 254.928848 35.185595 
L 253.315031 35.185595 
z
" clip-path="url(#p86380377d8)" style="fill: #1f77b4"/>
   </g>
   <g id="patch_123">
    <path d="M 254.928848 273.312 
L 256.542666 273.312 
L 256.542666 70.406864 
L 254.928848 70.406864 
z
" clip-path="url(#p86380377d8)" style="fill: #1f77b4"/>
   </g>
   <g id="patch_124">
    <path d="M 256.542666 273.312 
L 258.156483 273.312 
L 258.156483 32.888556 
L 256.542666 32.888556 
z
" clip-path="url(#p86380377d8)" style="fill: #1f77b4"/>
   </g>
   <g id="patch_125">
    <path d="M 258.156483 273.312 
L 259.7703 273.312 
L 259.7703 71.172544 
L 258.156483 71.172544 
z
" clip-path="url(#p86380377d8)" style="fill: #1f77b4"/>
   </g>
   <g id="patch_126">
    <path d="M 259.7703 273.312 
L 261.384117 273.312 
L 261.384117 47.436471 
L 259.7703 47.436471 
z
" clip-path="url(#p86380377d8)" style="fill: #1f77b4"/>
   </g>
   <g id="patch_127">
    <path d="M 261.384117 273.312 
L 262.997935 273.312 
L 262.997935 28.294477 
L 261.384117 28.294477 
z
" clip-path="url(#p86380377d8)" style="fill: #1f77b4"/>
   </g>
   <g id="patch_128">
    <path d="M 262.997935 273.312 
L 264.611752 273.312 
L 264.611752 67.344145 
L 262.997935 67.344145 
z
" clip-path="url(#p86380377d8)" style="fill: #1f77b4"/>
   </g>
   <g id="patch_129">
    <path d="M 264.611752 273.312 
L 266.225569 273.312 
L 266.225569 65.812785 
L 264.611752 65.812785 
z
" clip-path="url(#p86380377d8)" style="fill: #1f77b4"/>
   </g>
   <g id="patch_130">
    <path d="M 266.225569 273.312 
L 267.839386 273.312 
L 267.839386 39.013994 
L 266.225569 39.013994 
z
" clip-path="url(#p86380377d8)" style="fill: #1f77b4"/>
   </g>
   <g id="patch_131">
    <path d="M 267.839386 273.312 
L 269.453204 273.312 
L 269.453204 46.670792 
L 267.839386 46.670792 
z
" clip-path="url(#p86380377d8)" style="fill: #1f77b4"/>
   </g>
   <g id="patch_132">
    <path d="M 269.453204 273.312 
L 271.067021 273.312 
L 271.067021 66.578465 
L 269.453204 66.578465 
z
" clip-path="url(#p86380377d8)" style="fill: #1f77b4"/>
   </g>
   <g id="patch_133">
    <path d="M 271.067021 273.312 
L 272.680838 273.312 
L 272.680838 62.750066 
L 271.067021 62.750066 
z
" clip-path="url(#p86380377d8)" style="fill: #1f77b4"/>
   </g>
   <g id="patch_134">
    <path d="M 272.680838 273.312 
L 274.294655 273.312 
L 274.294655 36.716955 
L 272.680838 36.716955 
z
" clip-path="url(#p86380377d8)" style="fill: #1f77b4"/>
   </g>
   <g id="patch_135">
    <path d="M 274.294655 273.312 
L 275.908473 273.312 
L 275.908473 65.047106 
L 274.294655 65.047106 
z
" clip-path="url(#p86380377d8)" style="fill: #1f77b4"/>
   </g>
   <g id="patch_136">
    <path d="M 275.908473 273.312 
L 277.52229 273.312 
L 277.52229 71.172544 
L 275.908473 71.172544 
z
" clip-path="url(#p86380377d8)" style="fill: #1f77b4"/>
   </g>
   <g id="patch_137">
    <path d="M 277.52229 273.312 
L 279.136107 273.312 
L 279.136107 62.750066 
L 277.52229 62.750066 
z
" clip-path="url(#p86380377d8)" style="fill: #1f77b4"/>
   </g>
   <g id="patch_138">
    <path d="M 279.136107 273.312 
L 280.749924 273.312 
L 280.749924 60.453027 
L 279.136107 60.453027 
z
" clip-path="url(#p86380377d8)" style="fill: #1f77b4"/>
   </g>
   <g id="patch_139">
    <path d="M 280.749924 273.312 
L 282.363742 273.312 
L 282.363742 97.205656 
L 280.749924 97.205656 
z
" clip-path="url(#p86380377d8)" style="fill: #1f77b4"/>
   </g>
   <g id="patch_140">
    <path d="M 282.363742 273.312 
L 283.977559 273.312 
L 283.977559 90.314538 
L 282.363742 90.314538 
z
" clip-path="url(#p86380377d8)" style="fill: #1f77b4"/>
   </g>
   <g id="patch_141">
    <path d="M 283.977559 273.312 
L 285.591376 273.312 
L 285.591376 71.938224 
L 283.977559 71.938224 
z
" clip-path="url(#p86380377d8)" style="fill: #1f77b4"/>
   </g>
   <g id="patch_142">
    <path d="M 285.591376 273.312 
L 287.205193 273.312 
L 287.205193 77.297982 
L 285.591376 77.297982 
z
" clip-path="url(#p86380377d8)" style="fill: #1f77b4"/>
   </g>
   <g id="patch_143">
    <path d="M 287.205193 273.312 
L 288.819011 273.312 
L 288.819011 71.172544 
L 287.205193 71.172544 
z
" clip-path="url(#p86380377d8)" style="fill: #1f77b4"/>
   </g>
   <g id="patch_144">
    <path d="M 288.819011 273.312 
L 290.432828 273.312 
L 290.432828 95.674296 
L 288.819011 95.674296 
z
" clip-path="url(#p86380377d8)" style="fill: #1f77b4"/>
   </g>
   <g id="patch_145">
    <path d="M 290.432828 273.312 
L 292.046645 273.312 
L 292.046645 94.142937 
L 290.432828 94.142937 
z
" clip-path="url(#p86380377d8)" style="fill: #1f77b4"/>
   </g>
   <g id="patch_146">
    <path d="M 292.046645 273.312 
L 293.660462 273.312 
L 293.660462 79.595021 
L 292.046645 79.595021 
z
" clip-path="url(#p86380377d8)" style="fill: #1f77b4"/>
   </g>
   <g id="patch_147">
    <path d="M 293.660462 273.312 
L 295.27428 273.312 
L 295.27428 75.766622 
L 293.660462 75.766622 
z
" clip-path="url(#p86380377d8)" style="fill: #1f77b4"/>
   </g>
   <g id="patch_148">
    <path d="M 295.27428 273.312 
L 296.888097 273.312 
L 296.888097 99.502695 
L 295.27428 99.502695 
z
" clip-path="url(#p86380377d8)" style="fill: #1f77b4"/>
   </g>
   <g id="patch_149">
    <path d="M 296.888097 273.312 
L 298.501914 273.312 
L 298.501914 88.783178 
L 296.888097 88.783178 
z
" clip-path="url(#p86380377d8)" style="fill: #1f77b4"/>
   </g>
   <g id="patch_150">
    <path d="M 298.501914 273.312 
L 300.115732 273.312 
L 300.115732 101.799734 
L 298.501914 101.799734 
z
" clip-path="url(#p86380377d8)" style="fill: #1f77b4"/>
   </g>
   <g id="patch_151">
    <path d="M 300.115732 273.312 
L 301.729549 273.312 
L 301.729549 85.720459 
L 300.115732 85.720459 
z
" clip-path="url(#p86380377d8)" style="fill: #1f77b4"/>
   </g>
   <g id="patch_152">
    <path d="M 301.729549 273.312 
L 303.343366 273.312 
L 303.343366 89.548858 
L 301.729549 89.548858 
z
" clip-path="url(#p86380377d8)" style="fill: #1f77b4"/>
   </g>
   <g id="patch_153">
    <path d="M 303.343366 273.312 
L 304.957183 273.312 
L 304.957183 97.205656 
L 303.343366 97.205656 
z
" clip-path="url(#p86380377d8)" style="fill: #1f77b4"/>
   </g>
   <g id="patch_154">
    <path d="M 304.957183 273.312 
L 306.571001 273.312 
L 306.571001 120.176048 
L 304.957183 120.176048 
z
" clip-path="url(#p86380377d8)" style="fill: #1f77b4"/>
   </g>
   <g id="patch_155">
    <path d="M 306.571001 273.312 
L 308.184818 273.312 
L 308.184818 115.58197 
L 306.571001 115.58197 
z
" clip-path="url(#p86380377d8)" style="fill: #1f77b4"/>
   </g>
   <g id="patch_156">
    <path d="M 308.184818 273.312 
L 309.798635 273.312 
L 309.798635 100.268375 
L 308.184818 100.268375 
z
" clip-path="url(#p86380377d8)" style="fill: #1f77b4"/>
   </g>
   <g id="patch_157">
    <path d="M 309.798635 273.312 
L 311.412452 273.312 
L 311.412452 120.941728 
L 309.798635 120.941728 
z
" clip-path="url(#p86380377d8)" style="fill: #1f77b4"/>
   </g>
   <g id="patch_158">
    <path d="M 311.412452 273.312 
L 313.02627 273.312 
L 313.02627 110.222211 
L 311.412452 110.222211 
z
" clip-path="url(#p86380377d8)" style="fill: #1f77b4"/>
   </g>
   <g id="patch_159">
    <path d="M 313.02627 273.312 
L 314.640087 273.312 
L 314.640087 113.284931 
L 313.02627 113.284931 
z
" clip-path="url(#p86380377d8)" style="fill: #1f77b4"/>
   </g>
   <g id="patch_160">
    <path d="M 314.640087 273.312 
L 316.253904 273.312 
L 316.253904 140.083722 
L 314.640087 140.083722 
z
" clip-path="url(#p86380377d8)" style="fill: #1f77b4"/>
   </g>
   <g id="patch_161">
    <path d="M 316.253904 273.312 
L 317.867721 273.312 
L 317.867721 138.552363 
L 316.253904 138.552363 
z
" clip-path="url(#p86380377d8)" style="fill: #1f77b4"/>
   </g>
   <g id="patch_162">
    <path d="M 317.867721 273.312 
L 319.481539 273.312 
L 319.481539 122.473088 
L 317.867721 122.473088 
z
" clip-path="url(#p86380377d8)" style="fill: #1f77b4"/>
   </g>
   <g id="patch_163">
    <path d="M 319.481539 273.312 
L 321.095356 273.312 
L 321.095356 148.506199 
L 319.481539 148.506199 
z
" clip-path="url(#p86380377d8)" style="fill: #1f77b4"/>
   </g>
   <g id="patch_164">
    <path d="M 321.095356 273.312 
L 322.709173 273.312 
L 322.709173 138.552363 
L 321.095356 138.552363 
z
" clip-path="url(#p86380377d8)" style="fill: #1f77b4"/>
   </g>
   <g id="patch_165">
    <path d="M 322.709173 273.312 
L 324.32299 273.312 
L 324.32299 148.506199 
L 322.709173 148.506199 
z
" clip-path="url(#p86380377d8)" style="fill: #1f77b4"/>
   </g>
   <g id="patch_166">
    <path d="M 324.32299 273.312 
L 325.936808 273.312 
L 325.936808 140.849402 
L 324.32299 140.849402 
z
" clip-path="url(#p86380377d8)" style="fill: #1f77b4"/>
   </g>
   <g id="patch_167">
    <path d="M 325.936808 273.312 
L 327.550625 273.312 
L 327.550625 140.849402 
L 325.936808 140.849402 
z
" clip-path="url(#p86380377d8)" style="fill: #1f77b4"/>
   </g>
   <g id="patch_168">
    <path d="M 327.550625 273.312 
L 329.164442 273.312 
L 329.164442 156.928677 
L 327.550625 156.928677 
z
" clip-path="url(#p86380377d8)" style="fill: #1f77b4"/>
   </g>
   <g id="patch_169">
    <path d="M 329.164442 273.312 
L 330.778259 273.312 
L 330.778259 157.694356 
L 329.164442 157.694356 
z
" clip-path="url(#p86380377d8)" style="fill: #1f77b4"/>
   </g>
   <g id="patch_170">
    <path d="M 330.778259 273.312 
L 332.392077 273.312 
L 332.392077 150.803239 
L 330.778259 150.803239 
z
" clip-path="url(#p86380377d8)" style="fill: #1f77b4"/>
   </g>
   <g id="patch_171">
    <path d="M 332.392077 273.312 
L 334.005894 273.312 
L 334.005894 161.522755 
L 332.392077 161.522755 
z
" clip-path="url(#p86380377d8)" style="fill: #1f77b4"/>
   </g>
   <g id="patch_172">
    <path d="M 334.005894 273.312 
L 335.619711 273.312 
L 335.619711 173.007952 
L 334.005894 173.007952 
z
" clip-path="url(#p86380377d8)" style="fill: #1f77b4"/>
   </g>
   <g id="patch_173">
    <path d="M 335.619711 273.312 
L 337.233528 273.312 
L 337.233528 154.631637 
L 335.619711 154.631637 
z
" clip-path="url(#p86380377d8)" style="fill: #1f77b4"/>
   </g>
   <g id="patch_174">
    <path d="M 337.233528 273.312 
L 338.847346 273.312 
L 338.847346 167.648193 
L 337.233528 167.648193 
z
" clip-path="url(#p86380377d8)" style="fill: #1f77b4"/>
   </g>
   <g id="patch_175">
    <path d="M 338.847346 273.312 
L 340.461163 273.312 
L 340.461163 178.36771 
L 338.847346 178.36771 
z
" clip-path="url(#p86380377d8)" style="fill: #1f77b4"/>
   </g>
   <g id="patch_176">
    <path d="M 340.461163 273.312 
L 342.07498 273.312 
L 342.07498 171.476592 
L 340.461163 171.476592 
z
" clip-path="url(#p86380377d8)" style="fill: #1f77b4"/>
   </g>
   <g id="patch_177">
    <path d="M 342.07498 273.312 
L 343.688798 273.312 
L 343.688798 176.070671 
L 342.07498 176.070671 
z
" clip-path="url(#p86380377d8)" style="fill: #1f77b4"/>
   </g>
   <g id="patch_178">
    <path d="M 343.688798 273.312 
L 345.302615 273.312 
L 345.302615 175.304991 
L 343.688798 175.304991 
z
" clip-path="url(#p86380377d8)" style="fill: #1f77b4"/>
   </g>
   <g id="patch_179">
    <path d="M 345.302615 273.312 
L 346.916432 273.312 
L 346.916432 191.384266 
L 345.302615 191.384266 
z
" clip-path="url(#p86380377d8)" style="fill: #1f77b4"/>
   </g>
   <g id="patch_180">
    <path d="M 346.916432 273.312 
L 348.530249 273.312 
L 348.530249 182.961789 
L 346.916432 182.961789 
z
" clip-path="url(#p86380377d8)" style="fill: #1f77b4"/>
   </g>
   <g id="patch_181">
    <path d="M 348.530249 273.312 
L 350.144067 273.312 
L 350.144067 205.166502 
L 348.530249 205.166502 
z
" clip-path="url(#p86380377d8)" style="fill: #1f77b4"/>
   </g>
   <g id="patch_182">
    <path d="M 350.144067 273.312 
L 351.757884 273.312 
L 351.757884 204.400822 
L 350.144067 204.400822 
z
" clip-path="url(#p86380377d8)" style="fill: #1f77b4"/>
   </g>
   <g id="patch_183">
    <path d="M 351.757884 273.312 
L 353.371701 273.312 
L 353.371701 198.275384 
L 351.757884 198.275384 
z
" clip-path="url(#p86380377d8)" style="fill: #1f77b4"/>
   </g>
   <g id="patch_184">
    <path d="M 353.371701 273.312 
L 354.985518 273.312 
L 354.985518 199.041063 
L 353.371701 199.041063 
z
" clip-path="url(#p86380377d8)" style="fill: #1f77b4"/>
   </g>
   <g id="patch_185">
    <path d="M 354.985518 273.312 
L 356.599336 273.312 
L 356.599336 204.400822 
L 354.985518 204.400822 
z
" clip-path="url(#p86380377d8)" style="fill: #1f77b4"/>
   </g>
   <g id="patch_186">
    <path d="M 356.599336 273.312 
L 358.213153 273.312 
L 358.213153 218.948737 
L 356.599336 218.948737 
z
" clip-path="url(#p86380377d8)" style="fill: #1f77b4"/>
   </g>
   <g id="patch_187">
    <path d="M 358.213153 273.312 
L 359.82697 273.312 
L 359.82697 207.463541 
L 358.213153 207.463541 
z
" clip-path="url(#p86380377d8)" style="fill: #1f77b4"/>
   </g>
   <g id="patch_188">
    <path d="M 359.82697 273.312 
L 361.440787 273.312 
L 361.440787 215.886018 
L 359.82697 215.886018 
z
" clip-path="url(#p86380377d8)" style="fill: #1f77b4"/>
   </g>
   <g id="patch_189">
    <path d="M 361.440787 273.312 
L 363.054605 273.312 
L 363.054605 223.542816 
L 361.440787 223.542816 
z
" clip-path="url(#p86380377d8)" style="fill: #1f77b4"/>
   </g>
   <g id="patch_190">
    <path d="M 363.054605 273.312 
L 364.668422 273.312 
L 364.668422 227.371215 
L 363.054605 227.371215 
z
" clip-path="url(#p86380377d8)" style="fill: #1f77b4"/>
   </g>
   <g id="patch_191">
    <path d="M 364.668422 273.312 
L 366.282239 273.312 
L 366.282239 224.308495 
L 364.668422 224.308495 
z
" clip-path="url(#p86380377d8)" style="fill: #1f77b4"/>
   </g>
   <g id="patch_192">
    <path d="M 366.282239 273.312 
L 367.896056 273.312 
L 367.896056 229.668254 
L 366.282239 229.668254 
z
" clip-path="url(#p86380377d8)" style="fill: #1f77b4"/>
   </g>
   <g id="patch_193">
    <path d="M 367.896056 273.312 
L 369.509874 273.312 
L 369.509874 239.622091 
L 367.896056 239.622091 
z
" clip-path="url(#p86380377d8)" style="fill: #1f77b4"/>
   </g>
   <g id="patch_194">
    <path d="M 369.509874 273.312 
L 371.123691 273.312 
L 371.123691 239.622091 
L 369.509874 239.622091 
z
" clip-path="url(#p86380377d8)" style="fill: #1f77b4"/>
   </g>
   <g id="patch_195">
    <path d="M 371.123691 273.312 
L 372.737508 273.312 
L 372.737508 237.325051 
L 371.123691 237.325051 
z
" clip-path="url(#p86380377d8)" style="fill: #1f77b4"/>
   </g>
   <g id="patch_196">
    <path d="M 372.737508 273.312 
L 374.351325 273.312 
L 374.351325 253.404326 
L 372.737508 253.404326 
z
" clip-path="url(#p86380377d8)" style="fill: #1f77b4"/>
   </g>
   <g id="patch_197">
    <path d="M 374.351325 273.312 
L 375.965143 273.312 
L 375.965143 256.467045 
L 374.351325 256.467045 
z
" clip-path="url(#p86380377d8)" style="fill: #1f77b4"/>
   </g>
   <g id="patch_198">
    <path d="M 375.965143 273.312 
L 377.57896 273.312 
L 377.57896 257.232725 
L 375.965143 257.232725 
z
" clip-path="url(#p86380377d8)" style="fill: #1f77b4"/>
   </g>
   <g id="patch_199">
    <path d="M 377.57896 273.312 
L 379.192777 273.312 
L 379.192777 255.701366 
L 377.57896 255.701366 
z
" clip-path="url(#p86380377d8)" style="fill: #1f77b4"/>
   </g>
   <g id="patch_200">
    <path d="M 379.192777 273.312 
L 380.806594 273.312 
L 380.806594 259.529764 
L 379.192777 259.529764 
z
" clip-path="url(#p86380377d8)" style="fill: #1f77b4"/>
   </g>
   <g id="patch_201">
    <path d="M 380.806594 273.312 
L 382.420412 273.312 
L 382.420412 267.186562 
L 380.806594 267.186562 
z
" clip-path="url(#p86380377d8)" style="fill: #1f77b4"/>
   </g>
   <g id="patch_202">
    <path d="M 382.420412 273.312 
L 384.034229 273.312 
L 384.034229 267.952242 
L 382.420412 267.952242 
z
" clip-path="url(#p86380377d8)" style="fill: #1f77b4"/>
   </g>
   <g id="matplotlib.axis_1">
    <g id="xtick_1">
     <g id="line2d_1">
      <defs>
       <path id="m078dee6f39" d="M 0 0 
L 0 3.5 
" style="stroke: #000000; stroke-width: 0.8"/>
      </defs>
      <g>
       <use xlink:href="#m078dee6f39" x="60.013977" y="273.312" style="stroke: #000000; stroke-width: 0.8"/>
      </g>
     </g>
     <g id="text_1">
      <!-- 0.0 -->
      <g transform="translate(52.062415 287.910437)scale(0.1 -0.1)">
       <defs>
        <path id="DejaVuSans-30" d="M 2034 4250 
Q 1547 4250 1301 3770 
Q 1056 3291 1056 2328 
Q 1056 1369 1301 889 
Q 1547 409 2034 409 
Q 2525 409 2770 889 
Q 3016 1369 3016 2328 
Q 3016 3291 2770 3770 
Q 2525 4250 2034 4250 
z
M 2034 4750 
Q 2819 4750 3233 4129 
Q 3647 3509 3647 2328 
Q 3647 1150 3233 529 
Q 2819 -91 2034 -91 
Q 1250 -91 836 529 
Q 422 1150 422 2328 
Q 422 3509 836 4129 
Q 1250 4750 2034 4750 
z
" transform="scale(0.015625)"/>
        <path id="DejaVuSans-2e" d="M 684 794 
L 1344 794 
L 1344 0 
L 684 0 
L 684 794 
z
" transform="scale(0.015625)"/>
       </defs>
       <use xlink:href="#DejaVuSans-30"/>
       <use xlink:href="#DejaVuSans-2e" x="63.623047"/>
       <use xlink:href="#DejaVuSans-30" x="95.410156"/>
      </g>
     </g>
    </g>
    <g id="xtick_2">
     <g id="line2d_2">
      <g>
       <use xlink:href="#m078dee6f39" x="101.350278" y="273.312" style="stroke: #000000; stroke-width: 0.8"/>
      </g>
     </g>
     <g id="text_2">
      <!-- 0.2 -->
      <g transform="translate(93.398715 287.910437)scale(0.1 -0.1)">
       <defs>
        <path id="DejaVuSans-32" d="M 1228 531 
L 3431 531 
L 3431 0 
L 469 0 
L 469 531 
Q 828 903 1448 1529 
Q 2069 2156 2228 2338 
Q 2531 2678 2651 2914 
Q 2772 3150 2772 3378 
Q 2772 3750 2511 3984 
Q 2250 4219 1831 4219 
Q 1534 4219 1204 4116 
Q 875 4013 500 3803 
L 500 4441 
Q 881 4594 1212 4672 
Q 1544 4750 1819 4750 
Q 2544 4750 2975 4387 
Q 3406 4025 3406 3419 
Q 3406 3131 3298 2873 
Q 3191 2616 2906 2266 
Q 2828 2175 2409 1742 
Q 1991 1309 1228 531 
z
" transform="scale(0.015625)"/>
       </defs>
       <use xlink:href="#DejaVuSans-30"/>
       <use xlink:href="#DejaVuSans-2e" x="63.623047"/>
       <use xlink:href="#DejaVuSans-32" x="95.410156"/>
      </g>
     </g>
    </g>
    <g id="xtick_3">
     <g id="line2d_3">
      <g>
       <use xlink:href="#m078dee6f39" x="142.686578" y="273.312" style="stroke: #000000; stroke-width: 0.8"/>
      </g>
     </g>
     <g id="text_3">
      <!-- 0.4 -->
      <g transform="translate(134.735016 287.910437)scale(0.1 -0.1)">
       <defs>
        <path id="DejaVuSans-34" d="M 2419 4116 
L 825 1625 
L 2419 1625 
L 2419 4116 
z
M 2253 4666 
L 3047 4666 
L 3047 1625 
L 3713 1625 
L 3713 1100 
L 3047 1100 
L 3047 0 
L 2419 0 
L 2419 1100 
L 313 1100 
L 313 1709 
L 2253 4666 
z
" transform="scale(0.015625)"/>
       </defs>
       <use xlink:href="#DejaVuSans-30"/>
       <use xlink:href="#DejaVuSans-2e" x="63.623047"/>
       <use xlink:href="#DejaVuSans-34" x="95.410156"/>
      </g>
     </g>
    </g>
    <g id="xtick_4">
     <g id="line2d_4">
      <g>
       <use xlink:href="#m078dee6f39" x="184.022879" y="273.312" style="stroke: #000000; stroke-width: 0.8"/>
      </g>
     </g>
     <g id="text_4">
      <!-- 0.6 -->
      <g transform="translate(176.071316 287.910437)scale(0.1 -0.1)">
       <defs>
        <path id="DejaVuSans-36" d="M 2113 2584 
Q 1688 2584 1439 2293 
Q 1191 2003 1191 1497 
Q 1191 994 1439 701 
Q 1688 409 2113 409 
Q 2538 409 2786 701 
Q 3034 994 3034 1497 
Q 3034 2003 2786 2293 
Q 2538 2584 2113 2584 
z
M 3366 4563 
L 3366 3988 
Q 3128 4100 2886 4159 
Q 2644 4219 2406 4219 
Q 1781 4219 1451 3797 
Q 1122 3375 1075 2522 
Q 1259 2794 1537 2939 
Q 1816 3084 2150 3084 
Q 2853 3084 3261 2657 
Q 3669 2231 3669 1497 
Q 3669 778 3244 343 
Q 2819 -91 2113 -91 
Q 1303 -91 875 529 
Q 447 1150 447 2328 
Q 447 3434 972 4092 
Q 1497 4750 2381 4750 
Q 2619 4750 2861 4703 
Q 3103 4656 3366 4563 
z
" transform="scale(0.015625)"/>
       </defs>
       <use xlink:href="#DejaVuSans-30"/>
       <use xlink:href="#DejaVuSans-2e" x="63.623047"/>
       <use xlink:href="#DejaVuSans-36" x="95.410156"/>
      </g>
     </g>
    </g>
    <g id="xtick_5">
     <g id="line2d_5">
      <g>
       <use xlink:href="#m078dee6f39" x="225.35918" y="273.312" style="stroke: #000000; stroke-width: 0.8"/>
      </g>
     </g>
     <g id="text_5">
      <!-- 0.8 -->
      <g transform="translate(217.407617 287.910437)scale(0.1 -0.1)">
       <defs>
        <path id="DejaVuSans-38" d="M 2034 2216 
Q 1584 2216 1326 1975 
Q 1069 1734 1069 1313 
Q 1069 891 1326 650 
Q 1584 409 2034 409 
Q 2484 409 2743 651 
Q 3003 894 3003 1313 
Q 3003 1734 2745 1975 
Q 2488 2216 2034 2216 
z
M 1403 2484 
Q 997 2584 770 2862 
Q 544 3141 544 3541 
Q 544 4100 942 4425 
Q 1341 4750 2034 4750 
Q 2731 4750 3128 4425 
Q 3525 4100 3525 3541 
Q 3525 3141 3298 2862 
Q 3072 2584 2669 2484 
Q 3125 2378 3379 2068 
Q 3634 1759 3634 1313 
Q 3634 634 3220 271 
Q 2806 -91 2034 -91 
Q 1263 -91 848 271 
Q 434 634 434 1313 
Q 434 1759 690 2068 
Q 947 2378 1403 2484 
z
M 1172 3481 
Q 1172 3119 1398 2916 
Q 1625 2713 2034 2713 
Q 2441 2713 2670 2916 
Q 2900 3119 2900 3481 
Q 2900 3844 2670 4047 
Q 2441 4250 2034 4250 
Q 1625 4250 1398 4047 
Q 1172 3844 1172 3481 
z
" transform="scale(0.015625)"/>
       </defs>
       <use xlink:href="#DejaVuSans-30"/>
       <use xlink:href="#DejaVuSans-2e" x="63.623047"/>
       <use xlink:href="#DejaVuSans-38" x="95.410156"/>
      </g>
     </g>
    </g>
    <g id="xtick_6">
     <g id="line2d_6">
      <g>
       <use xlink:href="#m078dee6f39" x="266.69548" y="273.312" style="stroke: #000000; stroke-width: 0.8"/>
      </g>
     </g>
     <g id="text_6">
      <!-- 1.0 -->
      <g transform="translate(258.743918 287.910437)scale(0.1 -0.1)">
       <defs>
        <path id="DejaVuSans-31" d="M 794 531 
L 1825 531 
L 1825 4091 
L 703 3866 
L 703 4441 
L 1819 4666 
L 2450 4666 
L 2450 531 
L 3481 531 
L 3481 0 
L 794 0 
L 794 531 
z
" transform="scale(0.015625)"/>
       </defs>
       <use xlink:href="#DejaVuSans-31"/>
       <use xlink:href="#DejaVuSans-2e" x="63.623047"/>
       <use xlink:href="#DejaVuSans-30" x="95.410156"/>
      </g>
     </g>
    </g>
    <g id="xtick_7">
     <g id="line2d_7">
      <g>
       <use xlink:href="#m078dee6f39" x="308.031781" y="273.312" style="stroke: #000000; stroke-width: 0.8"/>
      </g>
     </g>
     <g id="text_7">
      <!-- 1.2 -->
      <g transform="translate(300.080218 287.910437)scale(0.1 -0.1)">
       <use xlink:href="#DejaVuSans-31"/>
       <use xlink:href="#DejaVuSans-2e" x="63.623047"/>
       <use xlink:href="#DejaVuSans-32" x="95.410156"/>
      </g>
     </g>
    </g>
    <g id="xtick_8">
     <g id="line2d_8">
      <g>
       <use xlink:href="#m078dee6f39" x="349.368081" y="273.312" style="stroke: #000000; stroke-width: 0.8"/>
      </g>
     </g>
     <g id="text_8">
      <!-- 1.4 -->
      <g transform="translate(341.416519 287.910437)scale(0.1 -0.1)">
       <use xlink:href="#DejaVuSans-31"/>
       <use xlink:href="#DejaVuSans-2e" x="63.623047"/>
       <use xlink:href="#DejaVuSans-34" x="95.410156"/>
      </g>
     </g>
    </g>
    <g id="xtick_9">
     <g id="line2d_9">
      <g>
       <use xlink:href="#m078dee6f39" x="390.704382" y="273.312" style="stroke: #000000; stroke-width: 0.8"/>
      </g>
     </g>
     <g id="text_9">
      <!-- 1.6 -->
      <g transform="translate(382.752819 287.910437)scale(0.1 -0.1)">
       <use xlink:href="#DejaVuSans-31"/>
       <use xlink:href="#DejaVuSans-2e" x="63.623047"/>
       <use xlink:href="#DejaVuSans-36" x="95.410156"/>
      </g>
     </g>
    </g>
    <g id="text_10">
     <!-- Angle with normal (rad) -->
     <g transform="translate(163.023281 301.588562)scale(0.1 -0.1)">
      <defs>
       <path id="DejaVuSans-41" d="M 2188 4044 
L 1331 1722 
L 3047 1722 
L 2188 4044 
z
M 1831 4666 
L 2547 4666 
L 4325 0 
L 3669 0 
L 3244 1197 
L 1141 1197 
L 716 0 
L 50 0 
L 1831 4666 
z
" transform="scale(0.015625)"/>
       <path id="DejaVuSans-6e" d="M 3513 2113 
L 3513 0 
L 2938 0 
L 2938 2094 
Q 2938 2591 2744 2837 
Q 2550 3084 2163 3084 
Q 1697 3084 1428 2787 
Q 1159 2491 1159 1978 
L 1159 0 
L 581 0 
L 581 3500 
L 1159 3500 
L 1159 2956 
Q 1366 3272 1645 3428 
Q 1925 3584 2291 3584 
Q 2894 3584 3203 3211 
Q 3513 2838 3513 2113 
z
" transform="scale(0.015625)"/>
       <path id="DejaVuSans-67" d="M 2906 1791 
Q 2906 2416 2648 2759 
Q 2391 3103 1925 3103 
Q 1463 3103 1205 2759 
Q 947 2416 947 1791 
Q 947 1169 1205 825 
Q 1463 481 1925 481 
Q 2391 481 2648 825 
Q 2906 1169 2906 1791 
z
M 3481 434 
Q 3481 -459 3084 -895 
Q 2688 -1331 1869 -1331 
Q 1566 -1331 1297 -1286 
Q 1028 -1241 775 -1147 
L 775 -588 
Q 1028 -725 1275 -790 
Q 1522 -856 1778 -856 
Q 2344 -856 2625 -561 
Q 2906 -266 2906 331 
L 2906 616 
Q 2728 306 2450 153 
Q 2172 0 1784 0 
Q 1141 0 747 490 
Q 353 981 353 1791 
Q 353 2603 747 3093 
Q 1141 3584 1784 3584 
Q 2172 3584 2450 3431 
Q 2728 3278 2906 2969 
L 2906 3500 
L 3481 3500 
L 3481 434 
z
" transform="scale(0.015625)"/>
       <path id="DejaVuSans-6c" d="M 603 4863 
L 1178 4863 
L 1178 0 
L 603 0 
L 603 4863 
z
" transform="scale(0.015625)"/>
       <path id="DejaVuSans-65" d="M 3597 1894 
L 3597 1613 
L 953 1613 
Q 991 1019 1311 708 
Q 1631 397 2203 397 
Q 2534 397 2845 478 
Q 3156 559 3463 722 
L 3463 178 
Q 3153 47 2828 -22 
Q 2503 -91 2169 -91 
Q 1331 -91 842 396 
Q 353 884 353 1716 
Q 353 2575 817 3079 
Q 1281 3584 2069 3584 
Q 2775 3584 3186 3129 
Q 3597 2675 3597 1894 
z
M 3022 2063 
Q 3016 2534 2758 2815 
Q 2500 3097 2075 3097 
Q 1594 3097 1305 2825 
Q 1016 2553 972 2059 
L 3022 2063 
z
" transform="scale(0.015625)"/>
       <path id="DejaVuSans-20" transform="scale(0.015625)"/>
       <path id="DejaVuSans-77" d="M 269 3500 
L 844 3500 
L 1563 769 
L 2278 3500 
L 2956 3500 
L 3675 769 
L 4391 3500 
L 4966 3500 
L 4050 0 
L 3372 0 
L 2619 2869 
L 1863 0 
L 1184 0 
L 269 3500 
z
" transform="scale(0.015625)"/>
       <path id="DejaVuSans-69" d="M 603 3500 
L 1178 3500 
L 1178 0 
L 603 0 
L 603 3500 
z
M 603 4863 
L 1178 4863 
L 1178 4134 
L 603 4134 
L 603 4863 
z
" transform="scale(0.015625)"/>
       <path id="DejaVuSans-74" d="M 1172 4494 
L 1172 3500 
L 2356 3500 
L 2356 3053 
L 1172 3053 
L 1172 1153 
Q 1172 725 1289 603 
Q 1406 481 1766 481 
L 2356 481 
L 2356 0 
L 1766 0 
Q 1100 0 847 248 
Q 594 497 594 1153 
L 594 3053 
L 172 3053 
L 172 3500 
L 594 3500 
L 594 4494 
L 1172 4494 
z
" transform="scale(0.015625)"/>
       <path id="DejaVuSans-68" d="M 3513 2113 
L 3513 0 
L 2938 0 
L 2938 2094 
Q 2938 2591 2744 2837 
Q 2550 3084 2163 3084 
Q 1697 3084 1428 2787 
Q 1159 2491 1159 1978 
L 1159 0 
L 581 0 
L 581 4863 
L 1159 4863 
L 1159 2956 
Q 1366 3272 1645 3428 
Q 1925 3584 2291 3584 
Q 2894 3584 3203 3211 
Q 3513 2838 3513 2113 
z
" transform="scale(0.015625)"/>
       <path id="DejaVuSans-6f" d="M 1959 3097 
Q 1497 3097 1228 2736 
Q 959 2375 959 1747 
Q 959 1119 1226 758 
Q 1494 397 1959 397 
Q 2419 397 2687 759 
Q 2956 1122 2956 1747 
Q 2956 2369 2687 2733 
Q 2419 3097 1959 3097 
z
M 1959 3584 
Q 2709 3584 3137 3096 
Q 3566 2609 3566 1747 
Q 3566 888 3137 398 
Q 2709 -91 1959 -91 
Q 1206 -91 779 398 
Q 353 888 353 1747 
Q 353 2609 779 3096 
Q 1206 3584 1959 3584 
z
" transform="scale(0.015625)"/>
       <path id="DejaVuSans-72" d="M 2631 2963 
Q 2534 3019 2420 3045 
Q 2306 3072 2169 3072 
Q 1681 3072 1420 2755 
Q 1159 2438 1159 1844 
L 1159 0 
L 581 0 
L 581 3500 
L 1159 3500 
L 1159 2956 
Q 1341 3275 1631 3429 
Q 1922 3584 2338 3584 
Q 2397 3584 2469 3576 
Q 2541 3569 2628 3553 
L 2631 2963 
z
" transform="scale(0.015625)"/>
       <path id="DejaVuSans-6d" d="M 3328 2828 
Q 3544 3216 3844 3400 
Q 4144 3584 4550 3584 
Q 5097 3584 5394 3201 
Q 5691 2819 5691 2113 
L 5691 0 
L 5113 0 
L 5113 2094 
Q 5113 2597 4934 2840 
Q 4756 3084 4391 3084 
Q 3944 3084 3684 2787 
Q 3425 2491 3425 1978 
L 3425 0 
L 2847 0 
L 2847 2094 
Q 2847 2600 2669 2842 
Q 2491 3084 2119 3084 
Q 1678 3084 1418 2786 
Q 1159 2488 1159 1978 
L 1159 0 
L 581 0 
L 581 3500 
L 1159 3500 
L 1159 2956 
Q 1356 3278 1631 3431 
Q 1906 3584 2284 3584 
Q 2666 3584 2933 3390 
Q 3200 3197 3328 2828 
z
" transform="scale(0.015625)"/>
       <path id="DejaVuSans-61" d="M 2194 1759 
Q 1497 1759 1228 1600 
Q 959 1441 959 1056 
Q 959 750 1161 570 
Q 1363 391 1709 391 
Q 2188 391 2477 730 
Q 2766 1069 2766 1631 
L 2766 1759 
L 2194 1759 
z
M 3341 1997 
L 3341 0 
L 2766 0 
L 2766 531 
Q 2569 213 2275 61 
Q 1981 -91 1556 -91 
Q 1019 -91 701 211 
Q 384 513 384 1019 
Q 384 1609 779 1909 
Q 1175 2209 1959 2209 
L 2766 2209 
L 2766 2266 
Q 2766 2663 2505 2880 
Q 2244 3097 1772 3097 
Q 1472 3097 1187 3025 
Q 903 2953 641 2809 
L 641 3341 
Q 956 3463 1253 3523 
Q 1550 3584 1831 3584 
Q 2591 3584 2966 3190 
Q 3341 2797 3341 1997 
z
" transform="scale(0.015625)"/>
       <path id="DejaVuSans-28" d="M 1984 4856 
Q 1566 4138 1362 3434 
Q 1159 2731 1159 2009 
Q 1159 1288 1364 580 
Q 1569 -128 1984 -844 
L 1484 -844 
Q 1016 -109 783 600 
Q 550 1309 550 2009 
Q 550 2706 781 3412 
Q 1013 4119 1484 4856 
L 1984 4856 
z
" transform="scale(0.015625)"/>
       <path id="DejaVuSans-64" d="M 2906 2969 
L 2906 4863 
L 3481 4863 
L 3481 0 
L 2906 0 
L 2906 525 
Q 2725 213 2448 61 
Q 2172 -91 1784 -91 
Q 1150 -91 751 415 
Q 353 922 353 1747 
Q 353 2572 751 3078 
Q 1150 3584 1784 3584 
Q 2172 3584 2448 3432 
Q 2725 3281 2906 2969 
z
M 947 1747 
Q 947 1113 1208 752 
Q 1469 391 1925 391 
Q 2381 391 2643 752 
Q 2906 1113 2906 1747 
Q 2906 2381 2643 2742 
Q 2381 3103 1925 3103 
Q 1469 3103 1208 2742 
Q 947 2381 947 1747 
z
" transform="scale(0.015625)"/>
       <path id="DejaVuSans-29" d="M 513 4856 
L 1013 4856 
Q 1481 4119 1714 3412 
Q 1947 2706 1947 2009 
Q 1947 1309 1714 600 
Q 1481 -109 1013 -844 
L 513 -844 
Q 928 -128 1133 580 
Q 1338 1288 1338 2009 
Q 1338 2731 1133 3434 
Q 928 4138 513 4856 
z
" transform="scale(0.015625)"/>
      </defs>
      <use xlink:href="#DejaVuSans-41"/>
      <use xlink:href="#DejaVuSans-6e" x="68.408203"/>
      <use xlink:href="#DejaVuSans-67" x="131.787109"/>
      <use xlink:href="#DejaVuSans-6c" x="195.263672"/>
      <use xlink:href="#DejaVuSans-65" x="223.046875"/>
      <use xlink:href="#DejaVuSans-20" x="284.570312"/>
      <use xlink:href="#DejaVuSans-77" x="316.357422"/>
      <use xlink:href="#DejaVuSans-69" x="398.144531"/>
      <use xlink:href="#DejaVuSans-74" x="425.927734"/>
      <use xlink:href="#DejaVuSans-68" x="465.136719"/>
      <use xlink:href="#DejaVuSans-20" x="528.515625"/>
      <use xlink:href="#DejaVuSans-6e" x="560.302734"/>
      <use xlink:href="#DejaVuSans-6f" x="623.681641"/>
      <use xlink:href="#DejaVuSans-72" x="684.863281"/>
      <use xlink:href="#DejaVuSans-6d" x="724.226562"/>
      <use xlink:href="#DejaVuSans-61" x="821.638672"/>
      <use xlink:href="#DejaVuSans-6c" x="882.917969"/>
      <use xlink:href="#DejaVuSans-20" x="910.701172"/>
      <use xlink:href="#DejaVuSans-28" x="942.488281"/>
      <use xlink:href="#DejaVuSans-72" x="981.501953"/>
      <use xlink:href="#DejaVuSans-61" x="1022.615234"/>
      <use xlink:href="#DejaVuSans-64" x="1083.894531"/>
      <use xlink:href="#DejaVuSans-29" x="1147.371094"/>
     </g>
    </g>
   </g>
   <g id="matplotlib.axis_2">
    <g id="ytick_1">
     <g id="line2d_10">
      <defs>
       <path id="m312c446080" d="M 0 0 
L -3.5 0 
" style="stroke: #000000; stroke-width: 0.8"/>
      </defs>
      <g>
       <use xlink:href="#m312c446080" x="43.78125" y="273.312" style="stroke: #000000; stroke-width: 0.8"/>
      </g>
     </g>
     <g id="text_11">
      <!-- 0.0 -->
      <g transform="translate(20.878125 277.111219)scale(0.1 -0.1)">
       <use xlink:href="#DejaVuSans-30"/>
       <use xlink:href="#DejaVuSans-2e" x="63.623047"/>
       <use xlink:href="#DejaVuSans-30" x="95.410156"/>
      </g>
     </g>
    </g>
    <g id="ytick_2">
     <g id="line2d_11">
      <g>
       <use xlink:href="#m312c446080" x="43.78125" y="225.483154" style="stroke: #000000; stroke-width: 0.8"/>
      </g>
     </g>
     <g id="text_12">
      <!-- 0.2 -->
      <g transform="translate(20.878125 229.282373)scale(0.1 -0.1)">
       <use xlink:href="#DejaVuSans-30"/>
       <use xlink:href="#DejaVuSans-2e" x="63.623047"/>
       <use xlink:href="#DejaVuSans-32" x="95.410156"/>
      </g>
     </g>
    </g>
    <g id="ytick_3">
     <g id="line2d_12">
      <g>
       <use xlink:href="#m312c446080" x="43.78125" y="177.654309" style="stroke: #000000; stroke-width: 0.8"/>
      </g>
     </g>
     <g id="text_13">
      <!-- 0.4 -->
      <g transform="translate(20.878125 181.453528)scale(0.1 -0.1)">
       <use xlink:href="#DejaVuSans-30"/>
       <use xlink:href="#DejaVuSans-2e" x="63.623047"/>
       <use xlink:href="#DejaVuSans-34" x="95.410156"/>
      </g>
     </g>
    </g>
    <g id="ytick_4">
     <g id="line2d_13">
      <g>
       <use xlink:href="#m312c446080" x="43.78125" y="129.825463" style="stroke: #000000; stroke-width: 0.8"/>
      </g>
     </g>
     <g id="text_14">
      <!-- 0.6 -->
      <g transform="translate(20.878125 133.624682)scale(0.1 -0.1)">
       <use xlink:href="#DejaVuSans-30"/>
       <use xlink:href="#DejaVuSans-2e" x="63.623047"/>
       <use xlink:href="#DejaVuSans-36" x="95.410156"/>
      </g>
     </g>
    </g>
    <g id="ytick_5">
     <g id="line2d_14">
      <g>
       <use xlink:href="#m312c446080" x="43.78125" y="81.996618" style="stroke: #000000; stroke-width: 0.8"/>
      </g>
     </g>
     <g id="text_15">
      <!-- 0.8 -->
      <g transform="translate(20.878125 85.795837)scale(0.1 -0.1)">
       <use xlink:href="#DejaVuSans-30"/>
       <use xlink:href="#DejaVuSans-2e" x="63.623047"/>
       <use xlink:href="#DejaVuSans-38" x="95.410156"/>
      </g>
     </g>
    </g>
    <g id="ytick_6">
     <g id="line2d_15">
      <g>
       <use xlink:href="#m312c446080" x="43.78125" y="34.167772" style="stroke: #000000; stroke-width: 0.8"/>
      </g>
     </g>
     <g id="text_16">
      <!-- 1.0 -->
      <g transform="translate(20.878125 37.966991)scale(0.1 -0.1)">
       <use xlink:href="#DejaVuSans-31"/>
       <use xlink:href="#DejaVuSans-2e" x="63.623047"/>
       <use xlink:href="#DejaVuSans-30" x="95.410156"/>
      </g>
     </g>
    </g>
    <g id="text_17">
     <!-- Probability density -->
     <g transform="translate(14.798438 186.606781)rotate(-90)scale(0.1 -0.1)">
      <defs>
       <path id="DejaVuSans-50" d="M 1259 4147 
L 1259 2394 
L 2053 2394 
Q 2494 2394 2734 2622 
Q 2975 2850 2975 3272 
Q 2975 3691 2734 3919 
Q 2494 4147 2053 4147 
L 1259 4147 
z
M 628 4666 
L 2053 4666 
Q 2838 4666 3239 4311 
Q 3641 3956 3641 3272 
Q 3641 2581 3239 2228 
Q 2838 1875 2053 1875 
L 1259 1875 
L 1259 0 
L 628 0 
L 628 4666 
z
" transform="scale(0.015625)"/>
       <path id="DejaVuSans-62" d="M 3116 1747 
Q 3116 2381 2855 2742 
Q 2594 3103 2138 3103 
Q 1681 3103 1420 2742 
Q 1159 2381 1159 1747 
Q 1159 1113 1420 752 
Q 1681 391 2138 391 
Q 2594 391 2855 752 
Q 3116 1113 3116 1747 
z
M 1159 2969 
Q 1341 3281 1617 3432 
Q 1894 3584 2278 3584 
Q 2916 3584 3314 3078 
Q 3713 2572 3713 1747 
Q 3713 922 3314 415 
Q 2916 -91 2278 -91 
Q 1894 -91 1617 61 
Q 1341 213 1159 525 
L 1159 0 
L 581 0 
L 581 4863 
L 1159 4863 
L 1159 2969 
z
" transform="scale(0.015625)"/>
       <path id="DejaVuSans-79" d="M 2059 -325 
Q 1816 -950 1584 -1140 
Q 1353 -1331 966 -1331 
L 506 -1331 
L 506 -850 
L 844 -850 
Q 1081 -850 1212 -737 
Q 1344 -625 1503 -206 
L 1606 56 
L 191 3500 
L 800 3500 
L 1894 763 
L 2988 3500 
L 3597 3500 
L 2059 -325 
z
" transform="scale(0.015625)"/>
       <path id="DejaVuSans-73" d="M 2834 3397 
L 2834 2853 
Q 2591 2978 2328 3040 
Q 2066 3103 1784 3103 
Q 1356 3103 1142 2972 
Q 928 2841 928 2578 
Q 928 2378 1081 2264 
Q 1234 2150 1697 2047 
L 1894 2003 
Q 2506 1872 2764 1633 
Q 3022 1394 3022 966 
Q 3022 478 2636 193 
Q 2250 -91 1575 -91 
Q 1294 -91 989 -36 
Q 684 19 347 128 
L 347 722 
Q 666 556 975 473 
Q 1284 391 1588 391 
Q 1994 391 2212 530 
Q 2431 669 2431 922 
Q 2431 1156 2273 1281 
Q 2116 1406 1581 1522 
L 1381 1569 
Q 847 1681 609 1914 
Q 372 2147 372 2553 
Q 372 3047 722 3315 
Q 1072 3584 1716 3584 
Q 2034 3584 2315 3537 
Q 2597 3491 2834 3397 
z
" transform="scale(0.015625)"/>
      </defs>
      <use xlink:href="#DejaVuSans-50"/>
      <use xlink:href="#DejaVuSans-72" x="58.552734"/>
      <use xlink:href="#DejaVuSans-6f" x="97.416016"/>
      <use xlink:href="#DejaVuSans-62" x="158.597656"/>
      <use xlink:href="#DejaVuSans-61" x="222.074219"/>
      <use xlink:href="#DejaVuSans-62" x="283.353516"/>
      <use xlink:href="#DejaVuSans-69" x="346.830078"/>
      <use xlink:href="#DejaVuSans-6c" x="374.613281"/>
      <use xlink:href="#DejaVuSans-69" x="402.396484"/>
      <use xlink:href="#DejaVuSans-74" x="430.179688"/>
      <use xlink:href="#DejaVuSans-79" x="469.388672"/>
      <use xlink:href="#DejaVuSans-20" x="528.568359"/>
      <use xlink:href="#DejaVuSans-64" x="560.355469"/>
      <use xlink:href="#DejaVuSans-65" x="623.832031"/>
      <use xlink:href="#DejaVuSans-6e" x="685.355469"/>
      <use xlink:href="#DejaVuSans-73" x="748.734375"/>
      <use xlink:href="#DejaVuSans-69" x="800.833984"/>
      <use xlink:href="#DejaVuSans-74" x="828.617188"/>
      <use xlink:href="#DejaVuSans-79" x="867.826172"/>
     </g>
    </g>
   </g>
   <g id="line2d_16">
    <path d="M 60.013977 273.312 
L 79.512749 228.456518 
L 89.912094 205.084973 
L 98.686541 185.892801 
L 106.486049 169.357659 
L 113.635599 154.718149 
L 120.135189 141.9001 
L 126.3098 130.20353 
L 132.159432 119.593054 
L 137.684084 110.023624 
L 142.883756 101.44284 
L 148.083429 93.297082 
L 152.958121 86.073877 
L 157.507835 79.707729 
L 162.057548 73.716788 
L 166.282282 68.499893 
L 170.507016 63.625253 
L 174.73175 59.101016 
L 178.631504 55.242352 
L 182.531258 51.694197 
L 186.431012 48.461604 
L 190.005787 45.779546 
L 193.580562 43.369729 
L 197.155337 41.235037 
L 200.730112 39.378023 
L 203.979907 37.932666 
L 207.229702 36.720066 
L 210.479497 35.74142 
L 213.729293 34.997698 
L 216.979088 34.489634 
L 220.228883 34.217731 
L 223.478678 34.182258 
L 226.728474 34.383249 
L 229.978269 34.820507 
L 233.228064 35.493599 
L 236.477859 36.401858 
L 239.727655 37.544388 
L 242.97745 38.920057 
L 246.227245 40.527507 
L 249.47704 42.365147 
L 253.051815 44.650245 
L 256.62659 47.208935 
L 260.201365 50.038157 
L 263.776139 53.134525 
L 267.675894 56.812698 
L 271.575648 60.799145 
L 275.475402 65.088188 
L 279.700136 70.069031 
L 283.92487 75.389508 
L 288.474583 81.488869 
L 293.024297 87.959983 
L 297.89899 95.291591 
L 302.773682 103.01924 
L 307.973355 111.679206 
L 313.498007 121.32817 
L 319.347638 132.017451 
L 325.522249 143.790895 
L 332.02184 156.682569 
L 338.84641 170.714259 
L 346.320939 186.59323 
L 354.770406 205.084973 
L 364.519792 226.980018 
L 377.193994 256.030024 
L 384.668523 273.312 
L 384.668523 273.312 
" clip-path="url(#p86380377d8)" style="fill: none; stroke: #ff7f0e; stroke-width: 1.5; stroke-linecap: square"/>
   </g>
   <g id="patch_203">
    <path d="M 43.78125 273.312 
L 43.78125 7.2 
" style="fill: none; stroke: #000000; stroke-width: 0.8; stroke-linejoin: miter; stroke-linecap: square"/>
   </g>
   <g id="patch_204">
    <path d="M 400.90125 273.312 
L 400.90125 7.2 
" style="fill: none; stroke: #000000; stroke-width: 0.8; stroke-linejoin: miter; stroke-linecap: square"/>
   </g>
   <g id="patch_205">
    <path d="M 43.78125 273.312 
L 400.90125 273.312 
" style="fill: none; stroke: #000000; stroke-width: 0.8; stroke-linejoin: miter; stroke-linecap: square"/>
   </g>
   <g id="patch_206">
    <path d="M 43.78125 7.2 
L 400.90125 7.2 
" style="fill: none; stroke: #000000; stroke-width: 0.8; stroke-linejoin: miter; stroke-linecap: square"/>
   </g>
  </g>
 </g>
 <defs>
  <clipPath id="p86380377d8">
   <rect x="43.78125" y="7.2" width="357.12" height="266.112"/>
  </clipPath>
 </defs>
</svg>
