<?xml version="1.0" encoding="utf-8" standalone="no"?>
<!DOCTYPE svg PUBLIC "-//W3C//DTD SVG 1.1//EN"
  "http://www.w3.org/Graphics/SVG/1.1/DTD/svg11.dtd">
<svg xmlns:xlink="http://www.w3.org/1999/xlink" width="414.46375pt" height="310.86825pt" viewBox="0 0 414.46375 310.86825" xmlns="http://www.w3.org/2000/svg" version="1.1">
 <metadata>
  <rdf:RDF xmlns:dc="http://purl.org/dc/elements/1.1/" xmlns:cc="http://creativecommons.org/ns#" xmlns:rdf="http://www.w3.org/1999/02/22-rdf-syntax-ns#">
   <cc:Work>
    <dc:type rdf:resource="http://purl.org/dc/dcmitype/StillImage"/>
    <dc:date>2022-05-27T16:52:15.224888</dc:date>
    <dc:format>image/svg+xml</dc:format>
    <dc:creator>
     <cc:Agent>
      <dc:title>Matplotlib v3.5.2, https://matplotlib.org/</dc:title>
     </cc:Agent>
    </dc:creator>
   </cc:Work>
  </rdf:RDF>
 </metadata>
 <defs>
  <style type="text/css">*{stroke-linejoin: round; stroke-linecap: butt}</style>
 </defs>
 <g id="figure_1">
  <g id="patch_1">
   <path d="M 0 310.86825 
L 414.46375 310.86825 
L 414.46375 0 
L 0 0 
z
" style="fill: #ffffff"/>
  </g>
  <g id="axes_1">
   <g id="patch_2">
    <path d="M 50.14375 273.312 
L 407.26375 273.312 
L 407.26375 7.2 
L 50.14375 7.2 
z
" style="fill: #ffffff"/>
   </g>
   <g id="patch_3">
    <path d="M 67.501687 273.312 
L 69.119318 273.312 
L 69.119318 270.815054 
L 67.501687 270.815054 
z
" clip-path="url(#p82af88f13c)" style="fill: #1f77b4"/>
   </g>
   <g id="patch_4">
    <path d="M 69.119318 273.312 
L 70.736948 273.312 
L 70.736948 270.815054 
L 69.119318 270.815054 
z
" clip-path="url(#p82af88f13c)" style="fill: #1f77b4"/>
   </g>
   <g id="patch_5">
    <path d="M 70.736948 273.312 
L 72.354579 273.312 
L 72.354579 267.693872 
L 70.736948 267.693872 
z
" clip-path="url(#p82af88f13c)" style="fill: #1f77b4"/>
   </g>
   <g id="patch_6">
    <path d="M 72.354579 273.312 
L 73.972209 273.312 
L 73.972209 265.821163 
L 72.354579 265.821163 
z
" clip-path="url(#p82af88f13c)" style="fill: #1f77b4"/>
   </g>
   <g id="patch_7">
    <path d="M 73.972209 273.312 
L 75.58984 273.312 
L 75.58984 265.821163 
L 73.972209 265.821163 
z
" clip-path="url(#p82af88f13c)" style="fill: #1f77b4"/>
   </g>
   <g id="patch_8">
    <path d="M 75.58984 273.312 
L 77.20747 273.312 
L 77.20747 265.196926 
L 75.58984 265.196926 
z
" clip-path="url(#p82af88f13c)" style="fill: #1f77b4"/>
   </g>
   <g id="patch_9">
    <path d="M 77.20747 273.312 
L 78.825101 273.312 
L 78.825101 265.821163 
L 77.20747 265.821163 
z
" clip-path="url(#p82af88f13c)" style="fill: #1f77b4"/>
   </g>
   <g id="patch_10">
    <path d="M 78.825101 273.312 
L 80.442731 273.312 
L 80.442731 265.196926 
L 78.825101 265.196926 
z
" clip-path="url(#p82af88f13c)" style="fill: #1f77b4"/>
   </g>
   <g id="patch_11">
    <path d="M 80.442731 273.312 
L 82.060362 273.312 
L 82.060362 258.954562 
L 80.442731 258.954562 
z
" clip-path="url(#p82af88f13c)" style="fill: #1f77b4"/>
   </g>
   <g id="patch_12">
    <path d="M 82.060362 273.312 
L 83.677992 273.312 
L 83.677992 255.833379 
L 82.060362 255.833379 
z
" clip-path="url(#p82af88f13c)" style="fill: #1f77b4"/>
   </g>
   <g id="patch_13">
    <path d="M 83.677992 273.312 
L 85.295623 273.312 
L 85.295623 262.075744 
L 83.677992 262.075744 
z
" clip-path="url(#p82af88f13c)" style="fill: #1f77b4"/>
   </g>
   <g id="patch_14">
    <path d="M 85.295623 273.312 
L 86.913253 273.312 
L 86.913253 257.081852 
L 85.295623 257.081852 
z
" clip-path="url(#p82af88f13c)" style="fill: #1f77b4"/>
   </g>
   <g id="patch_15">
    <path d="M 86.913253 273.312 
L 88.530884 273.312 
L 88.530884 250.839488 
L 86.913253 250.839488 
z
" clip-path="url(#p82af88f13c)" style="fill: #1f77b4"/>
   </g>
   <g id="patch_16">
    <path d="M 88.530884 273.312 
L 90.148514 273.312 
L 90.148514 252.087961 
L 88.530884 252.087961 
z
" clip-path="url(#p82af88f13c)" style="fill: #1f77b4"/>
   </g>
   <g id="patch_17">
    <path d="M 90.148514 273.312 
L 91.766145 273.312 
L 91.766145 254.584906 
L 90.148514 254.584906 
z
" clip-path="url(#p82af88f13c)" style="fill: #1f77b4"/>
   </g>
   <g id="patch_18">
    <path d="M 91.766145 273.312 
L 93.383775 273.312 
L 93.383775 250.839488 
L 91.766145 250.839488 
z
" clip-path="url(#p82af88f13c)" style="fill: #1f77b4"/>
   </g>
   <g id="patch_19">
    <path d="M 93.383775 273.312 
L 95.001406 273.312 
L 95.001406 253.96067 
L 93.383775 253.96067 
z
" clip-path="url(#p82af88f13c)" style="fill: #1f77b4"/>
   </g>
   <g id="patch_20">
    <path d="M 95.001406 273.312 
L 96.619036 273.312 
L 96.619036 256.457616 
L 95.001406 256.457616 
z
" clip-path="url(#p82af88f13c)" style="fill: #1f77b4"/>
   </g>
   <g id="patch_21">
    <path d="M 96.619036 273.312 
L 98.236667 273.312 
L 98.236667 249.591015 
L 96.619036 249.591015 
z
" clip-path="url(#p82af88f13c)" style="fill: #1f77b4"/>
   </g>
   <g id="patch_22">
    <path d="M 98.236667 273.312 
L 99.854297 273.312 
L 99.854297 246.469833 
L 98.236667 246.469833 
z
" clip-path="url(#p82af88f13c)" style="fill: #1f77b4"/>
   </g>
   <g id="patch_23">
    <path d="M 99.854297 273.312 
L 101.471928 273.312 
L 101.471928 252.712197 
L 99.854297 252.712197 
z
" clip-path="url(#p82af88f13c)" style="fill: #1f77b4"/>
   </g>
   <g id="patch_24">
    <path d="M 101.471928 273.312 
L 103.089558 273.312 
L 103.089558 241.475941 
L 101.471928 241.475941 
z
" clip-path="url(#p82af88f13c)" style="fill: #1f77b4"/>
   </g>
   <g id="patch_25">
    <path d="M 103.089558 273.312 
L 104.707189 273.312 
L 104.707189 247.094069 
L 103.089558 247.094069 
z
" clip-path="url(#p82af88f13c)" style="fill: #1f77b4"/>
   </g>
   <g id="patch_26">
    <path d="M 104.707189 273.312 
L 106.324819 273.312 
L 106.324819 244.597123 
L 104.707189 244.597123 
z
" clip-path="url(#p82af88f13c)" style="fill: #1f77b4"/>
   </g>
   <g id="patch_27">
    <path d="M 106.324819 273.312 
L 107.94245 273.312 
L 107.94245 241.475941 
L 106.324819 241.475941 
z
" clip-path="url(#p82af88f13c)" style="fill: #1f77b4"/>
   </g>
   <g id="patch_28">
    <path d="M 107.94245 273.312 
L 109.56008 273.312 
L 109.56008 247.094069 
L 107.94245 247.094069 
z
" clip-path="url(#p82af88f13c)" style="fill: #1f77b4"/>
   </g>
   <g id="patch_29">
    <path d="M 109.56008 273.312 
L 111.177711 273.312 
L 111.177711 243.34865 
L 109.56008 243.34865 
z
" clip-path="url(#p82af88f13c)" style="fill: #1f77b4"/>
   </g>
   <g id="patch_30">
    <path d="M 111.177711 273.312 
L 112.795341 273.312 
L 112.795341 234.60934 
L 111.177711 234.60934 
z
" clip-path="url(#p82af88f13c)" style="fill: #1f77b4"/>
   </g>
   <g id="patch_31">
    <path d="M 112.795341 273.312 
L 114.412972 273.312 
L 114.412972 227.742739 
L 112.795341 227.742739 
z
" clip-path="url(#p82af88f13c)" style="fill: #1f77b4"/>
   </g>
   <g id="patch_32">
    <path d="M 114.412972 273.312 
L 116.030602 273.312 
L 116.030602 230.863921 
L 114.412972 230.863921 
z
" clip-path="url(#p82af88f13c)" style="fill: #1f77b4"/>
   </g>
   <g id="patch_33">
    <path d="M 116.030602 273.312 
L 117.648233 273.312 
L 117.648233 230.239685 
L 116.030602 230.239685 
z
" clip-path="url(#p82af88f13c)" style="fill: #1f77b4"/>
   </g>
   <g id="patch_34">
    <path d="M 117.648233 273.312 
L 119.265863 273.312 
L 119.265863 242.100177 
L 117.648233 242.100177 
z
" clip-path="url(#p82af88f13c)" style="fill: #1f77b4"/>
   </g>
   <g id="patch_35">
    <path d="M 119.265863 273.312 
L 120.883494 273.312 
L 120.883494 233.985103 
L 119.265863 233.985103 
z
" clip-path="url(#p82af88f13c)" style="fill: #1f77b4"/>
   </g>
   <g id="patch_36">
    <path d="M 120.883494 273.312 
L 122.501124 273.312 
L 122.501124 240.851704 
L 120.883494 240.851704 
z
" clip-path="url(#p82af88f13c)" style="fill: #1f77b4"/>
   </g>
   <g id="patch_37">
    <path d="M 122.501124 273.312 
L 124.118755 273.312 
L 124.118755 227.742739 
L 122.501124 227.742739 
z
" clip-path="url(#p82af88f13c)" style="fill: #1f77b4"/>
   </g>
   <g id="patch_38">
    <path d="M 124.118755 273.312 
L 125.736385 273.312 
L 125.736385 228.991212 
L 124.118755 228.991212 
z
" clip-path="url(#p82af88f13c)" style="fill: #1f77b4"/>
   </g>
   <g id="patch_39">
    <path d="M 125.736385 273.312 
L 127.354016 273.312 
L 127.354016 226.494266 
L 125.736385 226.494266 
z
" clip-path="url(#p82af88f13c)" style="fill: #1f77b4"/>
   </g>
   <g id="patch_40">
    <path d="M 127.354016 273.312 
L 128.971646 273.312 
L 128.971646 228.991212 
L 127.354016 228.991212 
z
" clip-path="url(#p82af88f13c)" style="fill: #1f77b4"/>
   </g>
   <g id="patch_41">
    <path d="M 128.971646 273.312 
L 130.589277 273.312 
L 130.589277 223.373084 
L 128.971646 223.373084 
z
" clip-path="url(#p82af88f13c)" style="fill: #1f77b4"/>
   </g>
   <g id="patch_42">
    <path d="M 130.589277 273.312 
L 132.206907 273.312 
L 132.206907 228.366975 
L 130.589277 228.366975 
z
" clip-path="url(#p82af88f13c)" style="fill: #1f77b4"/>
   </g>
   <g id="patch_43">
    <path d="M 132.206907 273.312 
L 133.824538 273.312 
L 133.824538 217.130719 
L 132.206907 217.130719 
z
" clip-path="url(#p82af88f13c)" style="fill: #1f77b4"/>
   </g>
   <g id="patch_44">
    <path d="M 133.824538 273.312 
L 135.442168 273.312 
L 135.442168 219.627665 
L 133.824538 219.627665 
z
" clip-path="url(#p82af88f13c)" style="fill: #1f77b4"/>
   </g>
   <g id="patch_45">
    <path d="M 135.442168 273.312 
L 137.059799 273.312 
L 137.059799 210.264118 
L 135.442168 210.264118 
z
" clip-path="url(#p82af88f13c)" style="fill: #1f77b4"/>
   </g>
   <g id="patch_46">
    <path d="M 137.059799 273.312 
L 138.677429 273.312 
L 138.677429 219.003429 
L 137.059799 219.003429 
z
" clip-path="url(#p82af88f13c)" style="fill: #1f77b4"/>
   </g>
   <g id="patch_47">
    <path d="M 138.677429 273.312 
L 140.29506 273.312 
L 140.29506 217.754956 
L 138.677429 217.754956 
z
" clip-path="url(#p82af88f13c)" style="fill: #1f77b4"/>
   </g>
   <g id="patch_48">
    <path d="M 140.29506 273.312 
L 141.91269 273.312 
L 141.91269 214.009537 
L 140.29506 214.009537 
z
" clip-path="url(#p82af88f13c)" style="fill: #1f77b4"/>
   </g>
   <g id="patch_49">
    <path d="M 141.91269 273.312 
L 143.530321 273.312 
L 143.530321 212.136828 
L 141.91269 212.136828 
z
" clip-path="url(#p82af88f13c)" style="fill: #1f77b4"/>
   </g>
   <g id="patch_50">
    <path d="M 143.530321 273.312 
L 145.147951 273.312 
L 145.147951 211.512591 
L 143.530321 211.512591 
z
" clip-path="url(#p82af88f13c)" style="fill: #1f77b4"/>
   </g>
   <g id="patch_51">
    <path d="M 145.147951 273.312 
L 146.765582 273.312 
L 146.765582 219.003429 
L 145.147951 219.003429 
z
" clip-path="url(#p82af88f13c)" style="fill: #1f77b4"/>
   </g>
   <g id="patch_52">
    <path d="M 146.765582 273.312 
L 148.383212 273.312 
L 148.383212 206.5187 
L 146.765582 206.5187 
z
" clip-path="url(#p82af88f13c)" style="fill: #1f77b4"/>
   </g>
   <g id="patch_53">
    <path d="M 148.383212 273.312 
L 150.000843 273.312 
L 150.000843 195.90668 
L 148.383212 195.90668 
z
" clip-path="url(#p82af88f13c)" style="fill: #1f77b4"/>
   </g>
   <g id="patch_54">
    <path d="M 150.000843 273.312 
L 151.618473 273.312 
L 151.618473 215.25801 
L 150.000843 215.25801 
z
" clip-path="url(#p82af88f13c)" style="fill: #1f77b4"/>
   </g>
   <g id="patch_55">
    <path d="M 151.618473 273.312 
L 153.236104 273.312 
L 153.236104 208.391409 
L 151.618473 208.391409 
z
" clip-path="url(#p82af88f13c)" style="fill: #1f77b4"/>
   </g>
   <g id="patch_56">
    <path d="M 153.236104 273.312 
L 154.853734 273.312 
L 154.853734 202.773281 
L 153.236104 202.773281 
z
" clip-path="url(#p82af88f13c)" style="fill: #1f77b4"/>
   </g>
   <g id="patch_57">
    <path d="M 154.853734 273.312 
L 156.471365 273.312 
L 156.471365 212.761064 
L 154.853734 212.761064 
z
" clip-path="url(#p82af88f13c)" style="fill: #1f77b4"/>
   </g>
   <g id="patch_58">
    <path d="M 156.471365 273.312 
L 158.088995 273.312 
L 158.088995 188.415842 
L 156.471365 188.415842 
z
" clip-path="url(#p82af88f13c)" style="fill: #1f77b4"/>
   </g>
   <g id="patch_59">
    <path d="M 158.088995 273.312 
L 159.706626 273.312 
L 159.706626 199.027862 
L 158.088995 199.027862 
z
" clip-path="url(#p82af88f13c)" style="fill: #1f77b4"/>
   </g>
   <g id="patch_60">
    <path d="M 159.706626 273.312 
L 161.324256 273.312 
L 161.324256 210.264118 
L 159.706626 210.264118 
z
" clip-path="url(#p82af88f13c)" style="fill: #1f77b4"/>
   </g>
   <g id="patch_61">
    <path d="M 161.324256 273.312 
L 162.941887 273.312 
L 162.941887 199.652099 
L 161.324256 199.652099 
z
" clip-path="url(#p82af88f13c)" style="fill: #1f77b4"/>
   </g>
   <g id="patch_62">
    <path d="M 162.941887 273.312 
L 164.559517 273.312 
L 164.559517 196.530916 
L 162.941887 196.530916 
z
" clip-path="url(#p82af88f13c)" style="fill: #1f77b4"/>
   </g>
   <g id="patch_63">
    <path d="M 164.559517 273.312 
L 166.177148 273.312 
L 166.177148 204.021754 
L 164.559517 204.021754 
z
" clip-path="url(#p82af88f13c)" style="fill: #1f77b4"/>
   </g>
   <g id="patch_64">
    <path d="M 166.177148 273.312 
L 167.794778 273.312 
L 167.794778 203.397517 
L 166.177148 203.397517 
z
" clip-path="url(#p82af88f13c)" style="fill: #1f77b4"/>
   </g>
   <g id="patch_65">
    <path d="M 167.794778 273.312 
L 169.412409 273.312 
L 169.412409 194.658207 
L 167.794778 194.658207 
z
" clip-path="url(#p82af88f13c)" style="fill: #1f77b4"/>
   </g>
   <g id="patch_66">
    <path d="M 169.412409 273.312 
L 171.030039 273.312 
L 171.030039 198.403626 
L 169.412409 198.403626 
z
" clip-path="url(#p82af88f13c)" style="fill: #1f77b4"/>
   </g>
   <g id="patch_67">
    <path d="M 171.030039 273.312 
L 172.64767 273.312 
L 172.64767 196.530916 
L 171.030039 196.530916 
z
" clip-path="url(#p82af88f13c)" style="fill: #1f77b4"/>
   </g>
   <g id="patch_68">
    <path d="M 172.64767 273.312 
L 174.2653 273.312 
L 174.2653 188.415842 
L 172.64767 188.415842 
z
" clip-path="url(#p82af88f13c)" style="fill: #1f77b4"/>
   </g>
   <g id="patch_69">
    <path d="M 174.2653 273.312 
L 175.88293 273.312 
L 175.88293 182.173478 
L 174.2653 182.173478 
z
" clip-path="url(#p82af88f13c)" style="fill: #1f77b4"/>
   </g>
   <g id="patch_70">
    <path d="M 175.88293 273.312 
L 177.500561 273.312 
L 177.500561 189.664315 
L 175.88293 189.664315 
z
" clip-path="url(#p82af88f13c)" style="fill: #1f77b4"/>
   </g>
   <g id="patch_71">
    <path d="M 177.500561 273.312 
L 179.118191 273.312 
L 179.118191 194.658207 
L 177.500561 194.658207 
z
" clip-path="url(#p82af88f13c)" style="fill: #1f77b4"/>
   </g>
   <g id="patch_72">
    <path d="M 179.118191 273.312 
L 180.735822 273.312 
L 180.735822 184.046187 
L 179.118191 184.046187 
z
" clip-path="url(#p82af88f13c)" style="fill: #1f77b4"/>
   </g>
   <g id="patch_73">
    <path d="M 180.735822 273.312 
L 182.353452 273.312 
L 182.353452 175.306877 
L 180.735822 175.306877 
z
" clip-path="url(#p82af88f13c)" style="fill: #1f77b4"/>
   </g>
   <g id="patch_74">
    <path d="M 182.353452 273.312 
L 183.971083 273.312 
L 183.971083 184.670424 
L 182.353452 184.670424 
z
" clip-path="url(#p82af88f13c)" style="fill: #1f77b4"/>
   </g>
   <g id="patch_75">
    <path d="M 183.971083 273.312 
L 185.588713 273.312 
L 185.588713 169.064512 
L 183.971083 169.064512 
z
" clip-path="url(#p82af88f13c)" style="fill: #1f77b4"/>
   </g>
   <g id="patch_76">
    <path d="M 185.588713 273.312 
L 187.206344 273.312 
L 187.206344 179.052296 
L 185.588713 179.052296 
z
" clip-path="url(#p82af88f13c)" style="fill: #1f77b4"/>
   </g>
   <g id="patch_77">
    <path d="M 187.206344 273.312 
L 188.823974 273.312 
L 188.823974 182.173478 
L 187.206344 182.173478 
z
" clip-path="url(#p82af88f13c)" style="fill: #1f77b4"/>
   </g>
   <g id="patch_78">
    <path d="M 188.823974 273.312 
L 190.441605 273.312 
L 190.441605 177.179586 
L 188.823974 177.179586 
z
" clip-path="url(#p82af88f13c)" style="fill: #1f77b4"/>
   </g>
   <g id="patch_79">
    <path d="M 190.441605 273.312 
L 192.059235 273.312 
L 192.059235 179.052296 
L 190.441605 179.052296 
z
" clip-path="url(#p82af88f13c)" style="fill: #1f77b4"/>
   </g>
   <g id="patch_80">
    <path d="M 192.059235 273.312 
L 193.676866 273.312 
L 193.676866 170.937222 
L 192.059235 170.937222 
z
" clip-path="url(#p82af88f13c)" style="fill: #1f77b4"/>
   </g>
   <g id="patch_81">
    <path d="M 193.676866 273.312 
L 195.294496 273.312 
L 195.294496 165.94333 
L 193.676866 165.94333 
z
" clip-path="url(#p82af88f13c)" style="fill: #1f77b4"/>
   </g>
   <g id="patch_82">
    <path d="M 195.294496 273.312 
L 196.912127 273.312 
L 196.912127 169.688749 
L 195.294496 169.688749 
z
" clip-path="url(#p82af88f13c)" style="fill: #1f77b4"/>
   </g>
   <g id="patch_83">
    <path d="M 196.912127 273.312 
L 198.529757 273.312 
L 198.529757 185.29466 
L 196.912127 185.29466 
z
" clip-path="url(#p82af88f13c)" style="fill: #1f77b4"/>
   </g>
   <g id="patch_84">
    <path d="M 198.529757 273.312 
L 200.147388 273.312 
L 200.147388 164.694857 
L 198.529757 164.694857 
z
" clip-path="url(#p82af88f13c)" style="fill: #1f77b4"/>
   </g>
   <g id="patch_85">
    <path d="M 200.147388 273.312 
L 201.765018 273.312 
L 201.765018 165.94333 
L 200.147388 165.94333 
z
" clip-path="url(#p82af88f13c)" style="fill: #1f77b4"/>
   </g>
   <g id="patch_86">
    <path d="M 201.765018 273.312 
L 203.382649 273.312 
L 203.382649 158.452493 
L 201.765018 158.452493 
z
" clip-path="url(#p82af88f13c)" style="fill: #1f77b4"/>
   </g>
   <g id="patch_87">
    <path d="M 203.382649 273.312 
L 205.000279 273.312 
L 205.000279 184.670424 
L 203.382649 184.670424 
z
" clip-path="url(#p82af88f13c)" style="fill: #1f77b4"/>
   </g>
   <g id="patch_88">
    <path d="M 205.000279 273.312 
L 206.61791 273.312 
L 206.61791 160.325202 
L 205.000279 160.325202 
z
" clip-path="url(#p82af88f13c)" style="fill: #1f77b4"/>
   </g>
   <g id="patch_89">
    <path d="M 206.61791 273.312 
L 208.23554 273.312 
L 208.23554 162.822148 
L 206.61791 162.822148 
z
" clip-path="url(#p82af88f13c)" style="fill: #1f77b4"/>
   </g>
   <g id="patch_90">
    <path d="M 208.23554 273.312 
L 209.853171 273.312 
L 209.853171 182.173478 
L 208.23554 182.173478 
z
" clip-path="url(#p82af88f13c)" style="fill: #1f77b4"/>
   </g>
   <g id="patch_91">
    <path d="M 209.853171 273.312 
L 211.470801 273.312 
L 211.470801 169.064512 
L 209.853171 169.064512 
z
" clip-path="url(#p82af88f13c)" style="fill: #1f77b4"/>
   </g>
   <g id="patch_92">
    <path d="M 211.470801 273.312 
L 213.088432 273.312 
L 213.088432 173.434167 
L 211.470801 173.434167 
z
" clip-path="url(#p82af88f13c)" style="fill: #1f77b4"/>
   </g>
   <g id="patch_93">
    <path d="M 213.088432 273.312 
L 214.706062 273.312 
L 214.706062 161.573675 
L 213.088432 161.573675 
z
" clip-path="url(#p82af88f13c)" style="fill: #1f77b4"/>
   </g>
   <g id="patch_94">
    <path d="M 214.706062 273.312 
L 216.323693 273.312 
L 216.323693 153.458601 
L 214.706062 153.458601 
z
" clip-path="url(#p82af88f13c)" style="fill: #1f77b4"/>
   </g>
   <g id="patch_95">
    <path d="M 216.323693 273.312 
L 217.941323 273.312 
L 217.941323 148.464709 
L 216.323693 148.464709 
z
" clip-path="url(#p82af88f13c)" style="fill: #1f77b4"/>
   </g>
   <g id="patch_96">
    <path d="M 217.941323 273.312 
L 219.558954 273.312 
L 219.558954 161.573675 
L 217.941323 161.573675 
z
" clip-path="url(#p82af88f13c)" style="fill: #1f77b4"/>
   </g>
   <g id="patch_97">
    <path d="M 219.558954 273.312 
L 221.176584 273.312 
L 221.176584 149.088946 
L 219.558954 149.088946 
z
" clip-path="url(#p82af88f13c)" style="fill: #1f77b4"/>
   </g>
   <g id="patch_98">
    <path d="M 221.176584 273.312 
L 222.794215 273.312 
L 222.794215 152.210128 
L 221.176584 152.210128 
z
" clip-path="url(#p82af88f13c)" style="fill: #1f77b4"/>
   </g>
   <g id="patch_99">
    <path d="M 222.794215 273.312 
L 224.411845 273.312 
L 224.411845 166.567567 
L 222.794215 166.567567 
z
" clip-path="url(#p82af88f13c)" style="fill: #1f77b4"/>
   </g>
   <g id="patch_100">
    <path d="M 224.411845 273.312 
L 226.029476 273.312 
L 226.029476 152.210128 
L 224.411845 152.210128 
z
" clip-path="url(#p82af88f13c)" style="fill: #1f77b4"/>
   </g>
   <g id="patch_101">
    <path d="M 226.029476 273.312 
L 227.647106 273.312 
L 227.647106 150.961655 
L 226.029476 150.961655 
z
" clip-path="url(#p82af88f13c)" style="fill: #1f77b4"/>
   </g>
   <g id="patch_102">
    <path d="M 227.647106 273.312 
L 229.264737 273.312 
L 229.264737 141.598108 
L 227.647106 141.598108 
z
" clip-path="url(#p82af88f13c)" style="fill: #1f77b4"/>
   </g>
   <g id="patch_103">
    <path d="M 229.264737 273.312 
L 230.882367 273.312 
L 230.882367 145.343527 
L 229.264737 145.343527 
z
" clip-path="url(#p82af88f13c)" style="fill: #1f77b4"/>
   </g>
   <g id="patch_104">
    <path d="M 230.882367 273.312 
L 232.499998 273.312 
L 232.499998 144.719291 
L 230.882367 144.719291 
z
" clip-path="url(#p82af88f13c)" style="fill: #1f77b4"/>
   </g>
   <g id="patch_105">
    <path d="M 232.499998 273.312 
L 234.117628 273.312 
L 234.117628 156.579783 
L 232.499998 156.579783 
z
" clip-path="url(#p82af88f13c)" style="fill: #1f77b4"/>
   </g>
   <g id="patch_106">
    <path d="M 234.117628 273.312 
L 235.735259 273.312 
L 235.735259 147.216236 
L 234.117628 147.216236 
z
" clip-path="url(#p82af88f13c)" style="fill: #1f77b4"/>
   </g>
   <g id="patch_107">
    <path d="M 235.735259 273.312 
L 237.352889 273.312 
L 237.352889 157.20402 
L 235.735259 157.20402 
z
" clip-path="url(#p82af88f13c)" style="fill: #1f77b4"/>
   </g>
   <g id="patch_108">
    <path d="M 237.352889 273.312 
L 238.97052 273.312 
L 238.97052 147.216236 
L 237.352889 147.216236 
z
" clip-path="url(#p82af88f13c)" style="fill: #1f77b4"/>
   </g>
   <g id="patch_109">
    <path d="M 238.97052 273.312 
L 240.58815 273.312 
L 240.58815 132.858798 
L 238.97052 132.858798 
z
" clip-path="url(#p82af88f13c)" style="fill: #1f77b4"/>
   </g>
   <g id="patch_110">
    <path d="M 240.58815 273.312 
L 242.205781 273.312 
L 242.205781 135.97998 
L 240.58815 135.97998 
z
" clip-path="url(#p82af88f13c)" style="fill: #1f77b4"/>
   </g>
   <g id="patch_111">
    <path d="M 242.205781 273.312 
L 243.823411 273.312 
L 243.823411 148.464709 
L 242.205781 148.464709 
z
" clip-path="url(#p82af88f13c)" style="fill: #1f77b4"/>
   </g>
   <g id="patch_112">
    <path d="M 243.823411 273.312 
L 245.441042 273.312 
L 245.441042 135.355744 
L 243.823411 135.355744 
z
" clip-path="url(#p82af88f13c)" style="fill: #1f77b4"/>
   </g>
   <g id="patch_113">
    <path d="M 245.441042 273.312 
L 247.058672 273.312 
L 247.058672 129.737616 
L 245.441042 129.737616 
z
" clip-path="url(#p82af88f13c)" style="fill: #1f77b4"/>
   </g>
   <g id="patch_114">
    <path d="M 247.058672 273.312 
L 248.676303 273.312 
L 248.676303 120.374069 
L 247.058672 120.374069 
z
" clip-path="url(#p82af88f13c)" style="fill: #1f77b4"/>
   </g>
   <g id="patch_115">
    <path d="M 248.676303 273.312 
L 250.293933 273.312 
L 250.293933 139.725399 
L 248.676303 139.725399 
z
" clip-path="url(#p82af88f13c)" style="fill: #1f77b4"/>
   </g>
   <g id="patch_116">
    <path d="M 250.293933 273.312 
L 251.911564 273.312 
L 251.911564 123.495251 
L 250.293933 123.495251 
z
" clip-path="url(#p82af88f13c)" style="fill: #1f77b4"/>
   </g>
   <g id="patch_117">
    <path d="M 251.911564 273.312 
L 253.529194 273.312 
L 253.529194 129.737616 
L 251.911564 129.737616 
z
" clip-path="url(#p82af88f13c)" style="fill: #1f77b4"/>
   </g>
   <g id="patch_118">
    <path d="M 253.529194 273.312 
L 255.146825 273.312 
L 255.146825 147.840473 
L 253.529194 147.840473 
z
" clip-path="url(#p82af88f13c)" style="fill: #1f77b4"/>
   </g>
   <g id="patch_119">
    <path d="M 255.146825 273.312 
L 256.764455 273.312 
L 256.764455 111.634759 
L 255.146825 111.634759 
z
" clip-path="url(#p82af88f13c)" style="fill: #1f77b4"/>
   </g>
   <g id="patch_120">
    <path d="M 256.764455 273.312 
L 258.382086 273.312 
L 258.382086 141.598108 
L 256.764455 141.598108 
z
" clip-path="url(#p82af88f13c)" style="fill: #1f77b4"/>
   </g>
   <g id="patch_121">
    <path d="M 258.382086 273.312 
L 259.999716 273.312 
L 259.999716 125.367961 
L 258.382086 125.367961 
z
" clip-path="url(#p82af88f13c)" style="fill: #1f77b4"/>
   </g>
   <g id="patch_122">
    <path d="M 259.999716 273.312 
L 261.617347 273.312 
L 261.617347 134.731507 
L 259.999716 134.731507 
z
" clip-path="url(#p82af88f13c)" style="fill: #1f77b4"/>
   </g>
   <g id="patch_123">
    <path d="M 261.617347 273.312 
L 263.234977 273.312 
L 263.234977 117.877123 
L 261.617347 117.877123 
z
" clip-path="url(#p82af88f13c)" style="fill: #1f77b4"/>
   </g>
   <g id="patch_124">
    <path d="M 263.234977 273.312 
L 264.852608 273.312 
L 264.852608 122.246778 
L 263.234977 122.246778 
z
" clip-path="url(#p82af88f13c)" style="fill: #1f77b4"/>
   </g>
   <g id="patch_125">
    <path d="M 264.852608 273.312 
L 266.470238 273.312 
L 266.470238 122.246778 
L 264.852608 122.246778 
z
" clip-path="url(#p82af88f13c)" style="fill: #1f77b4"/>
   </g>
   <g id="patch_126">
    <path d="M 266.470238 273.312 
L 268.087869 273.312 
L 268.087869 121.622542 
L 266.470238 121.622542 
z
" clip-path="url(#p82af88f13c)" style="fill: #1f77b4"/>
   </g>
   <g id="patch_127">
    <path d="M 268.087869 273.312 
L 269.705499 273.312 
L 269.705499 109.137813 
L 268.087869 109.137813 
z
" clip-path="url(#p82af88f13c)" style="fill: #1f77b4"/>
   </g>
   <g id="patch_128">
    <path d="M 269.705499 273.312 
L 271.32313 273.312 
L 271.32313 130.986089 
L 269.705499 130.986089 
z
" clip-path="url(#p82af88f13c)" style="fill: #1f77b4"/>
   </g>
   <g id="patch_129">
    <path d="M 271.32313 273.312 
L 272.94076 273.312 
L 272.94076 120.998305 
L 271.32313 120.998305 
z
" clip-path="url(#p82af88f13c)" style="fill: #1f77b4"/>
   </g>
   <g id="patch_130">
    <path d="M 272.94076 273.312 
L 274.558391 273.312 
L 274.558391 106.640867 
L 272.94076 106.640867 
z
" clip-path="url(#p82af88f13c)" style="fill: #1f77b4"/>
   </g>
   <g id="patch_131">
    <path d="M 274.558391 273.312 
L 276.176021 273.312 
L 276.176021 107.88934 
L 274.558391 107.88934 
z
" clip-path="url(#p82af88f13c)" style="fill: #1f77b4"/>
   </g>
   <g id="patch_132">
    <path d="M 276.176021 273.312 
L 277.793652 273.312 
L 277.793652 119.125596 
L 276.176021 119.125596 
z
" clip-path="url(#p82af88f13c)" style="fill: #1f77b4"/>
   </g>
   <g id="patch_133">
    <path d="M 277.793652 273.312 
L 279.411282 273.312 
L 279.411282 117.877123 
L 277.793652 117.877123 
z
" clip-path="url(#p82af88f13c)" style="fill: #1f77b4"/>
   </g>
   <g id="patch_134">
    <path d="M 279.411282 273.312 
L 281.028913 273.312 
L 281.028913 87.913773 
L 279.411282 87.913773 
z
" clip-path="url(#p82af88f13c)" style="fill: #1f77b4"/>
   </g>
   <g id="patch_135">
    <path d="M 281.028913 273.312 
L 282.646543 273.312 
L 282.646543 100.398502 
L 281.028913 100.398502 
z
" clip-path="url(#p82af88f13c)" style="fill: #1f77b4"/>
   </g>
   <g id="patch_136">
    <path d="M 282.646543 273.312 
L 284.264173 273.312 
L 284.264173 78.550227 
L 282.646543 78.550227 
z
" clip-path="url(#p82af88f13c)" style="fill: #1f77b4"/>
   </g>
   <g id="patch_137">
    <path d="M 284.264173 273.312 
L 285.881804 273.312 
L 285.881804 105.392394 
L 284.264173 105.392394 
z
" clip-path="url(#p82af88f13c)" style="fill: #1f77b4"/>
   </g>
   <g id="patch_138">
    <path d="M 285.881804 273.312 
L 287.499434 273.312 
L 287.499434 89.162246 
L 285.881804 89.162246 
z
" clip-path="url(#p82af88f13c)" style="fill: #1f77b4"/>
   </g>
   <g id="patch_139">
    <path d="M 287.499434 273.312 
L 289.117065 273.312 
L 289.117065 104.143921 
L 287.499434 104.143921 
z
" clip-path="url(#p82af88f13c)" style="fill: #1f77b4"/>
   </g>
   <g id="patch_140">
    <path d="M 289.117065 273.312 
L 290.734695 273.312 
L 290.734695 109.137813 
L 289.117065 109.137813 
z
" clip-path="url(#p82af88f13c)" style="fill: #1f77b4"/>
   </g>
   <g id="patch_141">
    <path d="M 290.734695 273.312 
L 292.352326 273.312 
L 292.352326 80.422936 
L 290.734695 80.422936 
z
" clip-path="url(#p82af88f13c)" style="fill: #1f77b4"/>
   </g>
   <g id="patch_142">
    <path d="M 292.352326 273.312 
L 293.969956 273.312 
L 293.969956 102.271212 
L 292.352326 102.271212 
z
" clip-path="url(#p82af88f13c)" style="fill: #1f77b4"/>
   </g>
   <g id="patch_143">
    <path d="M 293.969956 273.312 
L 295.587587 273.312 
L 295.587587 99.15003 
L 293.969956 99.15003 
z
" clip-path="url(#p82af88f13c)" style="fill: #1f77b4"/>
   </g>
   <g id="patch_144">
    <path d="M 295.587587 273.312 
L 297.205217 273.312 
L 297.205217 100.398502 
L 295.587587 100.398502 
z
" clip-path="url(#p82af88f13c)" style="fill: #1f77b4"/>
   </g>
   <g id="patch_145">
    <path d="M 297.205217 273.312 
L 298.822848 273.312 
L 298.822848 94.156138 
L 297.205217 94.156138 
z
" clip-path="url(#p82af88f13c)" style="fill: #1f77b4"/>
   </g>
   <g id="patch_146">
    <path d="M 298.822848 273.312 
L 300.440478 273.312 
L 300.440478 96.653084 
L 298.822848 96.653084 
z
" clip-path="url(#p82af88f13c)" style="fill: #1f77b4"/>
   </g>
   <g id="patch_147">
    <path d="M 300.440478 273.312 
L 302.058109 273.312 
L 302.058109 106.640867 
L 300.440478 106.640867 
z
" clip-path="url(#p82af88f13c)" style="fill: #1f77b4"/>
   </g>
   <g id="patch_148">
    <path d="M 302.058109 273.312 
L 303.675739 273.312 
L 303.675739 78.550227 
L 302.058109 78.550227 
z
" clip-path="url(#p82af88f13c)" style="fill: #1f77b4"/>
   </g>
   <g id="patch_149">
    <path d="M 303.675739 273.312 
L 305.29337 273.312 
L 305.29337 97.901557 
L 303.675739 97.901557 
z
" clip-path="url(#p82af88f13c)" style="fill: #1f77b4"/>
   </g>
   <g id="patch_150">
    <path d="M 305.29337 273.312 
L 306.911 273.312 
L 306.911 94.156138 
L 305.29337 94.156138 
z
" clip-path="url(#p82af88f13c)" style="fill: #1f77b4"/>
   </g>
   <g id="patch_151">
    <path d="M 306.911 273.312 
L 308.528631 273.312 
L 308.528631 88.53801 
L 306.911 88.53801 
z
" clip-path="url(#p82af88f13c)" style="fill: #1f77b4"/>
   </g>
   <g id="patch_152">
    <path d="M 308.528631 273.312 
L 310.146261 273.312 
L 310.146261 81.671409 
L 308.528631 81.671409 
z
" clip-path="url(#p82af88f13c)" style="fill: #1f77b4"/>
   </g>
   <g id="patch_153">
    <path d="M 310.146261 273.312 
L 311.763892 273.312 
L 311.763892 87.913773 
L 310.146261 87.913773 
z
" clip-path="url(#p82af88f13c)" style="fill: #1f77b4"/>
   </g>
   <g id="patch_154">
    <path d="M 311.763892 273.312 
L 313.381522 273.312 
L 313.381522 72.307862 
L 311.763892 72.307862 
z
" clip-path="url(#p82af88f13c)" style="fill: #1f77b4"/>
   </g>
   <g id="patch_155">
    <path d="M 313.381522 273.312 
L 314.999153 273.312 
L 314.999153 97.27732 
L 313.381522 97.27732 
z
" clip-path="url(#p82af88f13c)" style="fill: #1f77b4"/>
   </g>
   <g id="patch_156">
    <path d="M 314.999153 273.312 
L 316.616783 273.312 
L 316.616783 67.31397 
L 314.999153 67.31397 
z
" clip-path="url(#p82af88f13c)" style="fill: #1f77b4"/>
   </g>
   <g id="patch_157">
    <path d="M 316.616783 273.312 
L 318.234414 273.312 
L 318.234414 57.950424 
L 316.616783 57.950424 
z
" clip-path="url(#p82af88f13c)" style="fill: #1f77b4"/>
   </g>
   <g id="patch_158">
    <path d="M 318.234414 273.312 
L 319.852044 273.312 
L 319.852044 77.301754 
L 318.234414 77.301754 
z
" clip-path="url(#p82af88f13c)" style="fill: #1f77b4"/>
   </g>
   <g id="patch_159">
    <path d="M 319.852044 273.312 
L 321.469675 273.312 
L 321.469675 77.301754 
L 319.852044 77.301754 
z
" clip-path="url(#p82af88f13c)" style="fill: #1f77b4"/>
   </g>
   <g id="patch_160">
    <path d="M 321.469675 273.312 
L 323.087305 273.312 
L 323.087305 79.174463 
L 321.469675 79.174463 
z
" clip-path="url(#p82af88f13c)" style="fill: #1f77b4"/>
   </g>
   <g id="patch_161">
    <path d="M 323.087305 273.312 
L 324.704936 273.312 
L 324.704936 90.410719 
L 323.087305 90.410719 
z
" clip-path="url(#p82af88f13c)" style="fill: #1f77b4"/>
   </g>
   <g id="patch_162">
    <path d="M 324.704936 273.312 
L 326.322566 273.312 
L 326.322566 73.556335 
L 324.704936 73.556335 
z
" clip-path="url(#p82af88f13c)" style="fill: #1f77b4"/>
   </g>
   <g id="patch_163">
    <path d="M 326.322566 273.312 
L 327.940197 273.312 
L 327.940197 73.556335 
L 326.322566 73.556335 
z
" clip-path="url(#p82af88f13c)" style="fill: #1f77b4"/>
   </g>
   <g id="patch_164">
    <path d="M 327.940197 273.312 
L 329.557827 273.312 
L 329.557827 65.441261 
L 327.940197 65.441261 
z
" clip-path="url(#p82af88f13c)" style="fill: #1f77b4"/>
   </g>
   <g id="patch_165">
    <path d="M 329.557827 273.312 
L 331.175458 273.312 
L 331.175458 69.810916 
L 329.557827 69.810916 
z
" clip-path="url(#p82af88f13c)" style="fill: #1f77b4"/>
   </g>
   <g id="patch_166">
    <path d="M 331.175458 273.312 
L 332.793088 273.312 
L 332.793088 72.932099 
L 331.175458 72.932099 
z
" clip-path="url(#p82af88f13c)" style="fill: #1f77b4"/>
   </g>
   <g id="patch_167">
    <path d="M 332.793088 273.312 
L 334.410719 273.312 
L 334.410719 77.301754 
L 332.793088 77.301754 
z
" clip-path="url(#p82af88f13c)" style="fill: #1f77b4"/>
   </g>
   <g id="patch_168">
    <path d="M 334.410719 273.312 
L 336.028349 273.312 
L 336.028349 79.174463 
L 334.410719 79.174463 
z
" clip-path="url(#p82af88f13c)" style="fill: #1f77b4"/>
   </g>
   <g id="patch_169">
    <path d="M 336.028349 273.312 
L 337.64598 273.312 
L 337.64598 83.544118 
L 336.028349 83.544118 
z
" clip-path="url(#p82af88f13c)" style="fill: #1f77b4"/>
   </g>
   <g id="patch_170">
    <path d="M 337.64598 273.312 
L 339.26361 273.312 
L 339.26361 48.586877 
L 337.64598 48.586877 
z
" clip-path="url(#p82af88f13c)" style="fill: #1f77b4"/>
   </g>
   <g id="patch_171">
    <path d="M 339.26361 273.312 
L 340.881241 273.312 
L 340.881241 84.168355 
L 339.26361 84.168355 
z
" clip-path="url(#p82af88f13c)" style="fill: #1f77b4"/>
   </g>
   <g id="patch_172">
    <path d="M 340.881241 273.312 
L 342.498871 273.312 
L 342.498871 57.326187 
L 340.881241 57.326187 
z
" clip-path="url(#p82af88f13c)" style="fill: #1f77b4"/>
   </g>
   <g id="patch_173">
    <path d="M 342.498871 273.312 
L 344.116502 273.312 
L 344.116502 40.471803 
L 342.498871 40.471803 
z
" clip-path="url(#p82af88f13c)" style="fill: #1f77b4"/>
   </g>
   <g id="patch_174">
    <path d="M 344.116502 273.312 
L 345.734132 273.312 
L 345.734132 78.550227 
L 344.116502 78.550227 
z
" clip-path="url(#p82af88f13c)" style="fill: #1f77b4"/>
   </g>
   <g id="patch_175">
    <path d="M 345.734132 273.312 
L 347.351763 273.312 
L 347.351763 54.205005 
L 345.734132 54.205005 
z
" clip-path="url(#p82af88f13c)" style="fill: #1f77b4"/>
   </g>
   <g id="patch_176">
    <path d="M 347.351763 273.312 
L 348.969393 273.312 
L 348.969393 31.732493 
L 347.351763 31.732493 
z
" clip-path="url(#p82af88f13c)" style="fill: #1f77b4"/>
   </g>
   <g id="patch_177">
    <path d="M 348.969393 273.312 
L 350.587024 273.312 
L 350.587024 56.077714 
L 348.969393 56.077714 
z
" clip-path="url(#p82af88f13c)" style="fill: #1f77b4"/>
   </g>
   <g id="patch_178">
    <path d="M 350.587024 273.312 
L 352.204654 273.312 
L 352.204654 56.701951 
L 350.587024 56.701951 
z
" clip-path="url(#p82af88f13c)" style="fill: #1f77b4"/>
   </g>
   <g id="patch_179">
    <path d="M 352.204654 273.312 
L 353.822285 273.312 
L 353.822285 46.089931 
L 352.204654 46.089931 
z
" clip-path="url(#p82af88f13c)" style="fill: #1f77b4"/>
   </g>
   <g id="patch_180">
    <path d="M 353.822285 273.312 
L 355.439915 273.312 
L 355.439915 51.083823 
L 353.822285 51.083823 
z
" clip-path="url(#p82af88f13c)" style="fill: #1f77b4"/>
   </g>
   <g id="patch_181">
    <path d="M 355.439915 273.312 
L 357.057546 273.312 
L 357.057546 33.605202 
L 355.439915 33.605202 
z
" clip-path="url(#p82af88f13c)" style="fill: #1f77b4"/>
   </g>
   <g id="patch_182">
    <path d="M 357.057546 273.312 
L 358.675176 273.312 
L 358.675176 62.944315 
L 357.057546 62.944315 
z
" clip-path="url(#p82af88f13c)" style="fill: #1f77b4"/>
   </g>
   <g id="patch_183">
    <path d="M 358.675176 273.312 
L 360.292807 273.312 
L 360.292807 57.326187 
L 358.675176 57.326187 
z
" clip-path="url(#p82af88f13c)" style="fill: #1f77b4"/>
   </g>
   <g id="patch_184">
    <path d="M 360.292807 273.312 
L 361.910437 273.312 
L 361.910437 51.708059 
L 360.292807 51.708059 
z
" clip-path="url(#p82af88f13c)" style="fill: #1f77b4"/>
   </g>
   <g id="patch_185">
    <path d="M 361.910437 273.312 
L 363.528068 273.312 
L 363.528068 48.586877 
L 361.910437 48.586877 
z
" clip-path="url(#p82af88f13c)" style="fill: #1f77b4"/>
   </g>
   <g id="patch_186">
    <path d="M 363.528068 273.312 
L 365.145698 273.312 
L 365.145698 52.956532 
L 363.528068 52.956532 
z
" clip-path="url(#p82af88f13c)" style="fill: #1f77b4"/>
   </g>
   <g id="patch_187">
    <path d="M 365.145698 273.312 
L 366.763329 273.312 
L 366.763329 34.853675 
L 365.145698 34.853675 
z
" clip-path="url(#p82af88f13c)" style="fill: #1f77b4"/>
   </g>
   <g id="patch_188">
    <path d="M 366.763329 273.312 
L 368.380959 273.312 
L 368.380959 34.853675 
L 366.763329 34.853675 
z
" clip-path="url(#p82af88f13c)" style="fill: #1f77b4"/>
   </g>
   <g id="patch_189">
    <path d="M 368.380959 273.312 
L 369.99859 273.312 
L 369.99859 42.344512 
L 368.380959 42.344512 
z
" clip-path="url(#p82af88f13c)" style="fill: #1f77b4"/>
   </g>
   <g id="patch_190">
    <path d="M 369.99859 273.312 
L 371.61622 273.312 
L 371.61622 51.708059 
L 369.99859 51.708059 
z
" clip-path="url(#p82af88f13c)" style="fill: #1f77b4"/>
   </g>
   <g id="patch_191">
    <path d="M 371.61622 273.312 
L 373.233851 273.312 
L 373.233851 48.586877 
L 371.61622 48.586877 
z
" clip-path="url(#p82af88f13c)" style="fill: #1f77b4"/>
   </g>
   <g id="patch_192">
    <path d="M 373.233851 273.312 
L 374.851481 273.312 
L 374.851481 55.453478 
L 373.233851 55.453478 
z
" clip-path="url(#p82af88f13c)" style="fill: #1f77b4"/>
   </g>
   <g id="patch_193">
    <path d="M 374.851481 273.312 
L 376.469112 273.312 
L 376.469112 38.599094 
L 374.851481 38.599094 
z
" clip-path="url(#p82af88f13c)" style="fill: #1f77b4"/>
   </g>
   <g id="patch_194">
    <path d="M 376.469112 273.312 
L 378.086742 273.312 
L 378.086742 51.708059 
L 376.469112 51.708059 
z
" clip-path="url(#p82af88f13c)" style="fill: #1f77b4"/>
   </g>
   <g id="patch_195">
    <path d="M 378.086742 273.312 
L 379.704373 273.312 
L 379.704373 37.350621 
L 378.086742 37.350621 
z
" clip-path="url(#p82af88f13c)" style="fill: #1f77b4"/>
   </g>
   <g id="patch_196">
    <path d="M 379.704373 273.312 
L 381.322003 273.312 
L 381.322003 29.235547 
L 379.704373 29.235547 
z
" clip-path="url(#p82af88f13c)" style="fill: #1f77b4"/>
   </g>
   <g id="patch_197">
    <path d="M 381.322003 273.312 
L 382.939634 273.312 
L 382.939634 35.477911 
L 381.322003 35.477911 
z
" clip-path="url(#p82af88f13c)" style="fill: #1f77b4"/>
   </g>
   <g id="patch_198">
    <path d="M 382.939634 273.312 
L 384.557264 273.312 
L 384.557264 28.61131 
L 382.939634 28.61131 
z
" clip-path="url(#p82af88f13c)" style="fill: #1f77b4"/>
   </g>
   <g id="patch_199">
    <path d="M 384.557264 273.312 
L 386.174895 273.312 
L 386.174895 54.205005 
L 384.557264 54.205005 
z
" clip-path="url(#p82af88f13c)" style="fill: #1f77b4"/>
   </g>
   <g id="patch_200">
    <path d="M 386.174895 273.312 
L 387.792525 273.312 
L 387.792525 27.362837 
L 386.174895 27.362837 
z
" clip-path="url(#p82af88f13c)" style="fill: #1f77b4"/>
   </g>
   <g id="patch_201">
    <path d="M 387.792525 273.312 
L 389.410156 273.312 
L 389.410156 19.872 
L 387.792525 19.872 
z
" clip-path="url(#p82af88f13c)" style="fill: #1f77b4"/>
   </g>
   <g id="patch_202">
    <path d="M 389.410156 273.312 
L 391.027786 273.312 
L 391.027786 23.617419 
L 389.410156 23.617419 
z
" clip-path="url(#p82af88f13c)" style="fill: #1f77b4"/>
   </g>
   <g id="matplotlib.axis_1">
    <g id="xtick_1">
     <g id="line2d_1">
      <defs>
       <path id="m289a0c5b28" d="M 0 0 
L 0 3.5 
" style="stroke: #000000; stroke-width: 0.8"/>
      </defs>
      <g>
       <use xlink:href="#m289a0c5b28" x="66.376477" y="273.312" style="stroke: #000000; stroke-width: 0.8"/>
      </g>
     </g>
     <g id="text_1">
      <!-- 0.0 -->
      <g transform="translate(58.424915 287.910437)scale(0.1 -0.1)">
       <defs>
        <path id="DejaVuSans-30" d="M 2034 4250 
Q 1547 4250 1301 3770 
Q 1056 3291 1056 2328 
Q 1056 1369 1301 889 
Q 1547 409 2034 409 
Q 2525 409 2770 889 
Q 3016 1369 3016 2328 
Q 3016 3291 2770 3770 
Q 2525 4250 2034 4250 
z
M 2034 4750 
Q 2819 4750 3233 4129 
Q 3647 3509 3647 2328 
Q 3647 1150 3233 529 
Q 2819 -91 2034 -91 
Q 1250 -91 836 529 
Q 422 1150 422 2328 
Q 422 3509 836 4129 
Q 1250 4750 2034 4750 
z
" transform="scale(0.015625)"/>
        <path id="DejaVuSans-2e" d="M 684 794 
L 1344 794 
L 1344 0 
L 684 0 
L 684 794 
z
" transform="scale(0.015625)"/>
       </defs>
       <use xlink:href="#DejaVuSans-30"/>
       <use xlink:href="#DejaVuSans-2e" x="63.623047"/>
       <use xlink:href="#DejaVuSans-30" x="95.410156"/>
      </g>
     </g>
    </g>
    <g id="xtick_2">
     <g id="line2d_2">
      <g>
       <use xlink:href="#m289a0c5b28" x="131.307386" y="273.312" style="stroke: #000000; stroke-width: 0.8"/>
      </g>
     </g>
     <g id="text_2">
      <!-- 0.2 -->
      <g transform="translate(123.355824 287.910437)scale(0.1 -0.1)">
       <defs>
        <path id="DejaVuSans-32" d="M 1228 531 
L 3431 531 
L 3431 0 
L 469 0 
L 469 531 
Q 828 903 1448 1529 
Q 2069 2156 2228 2338 
Q 2531 2678 2651 2914 
Q 2772 3150 2772 3378 
Q 2772 3750 2511 3984 
Q 2250 4219 1831 4219 
Q 1534 4219 1204 4116 
Q 875 4013 500 3803 
L 500 4441 
Q 881 4594 1212 4672 
Q 1544 4750 1819 4750 
Q 2544 4750 2975 4387 
Q 3406 4025 3406 3419 
Q 3406 3131 3298 2873 
Q 3191 2616 2906 2266 
Q 2828 2175 2409 1742 
Q 1991 1309 1228 531 
z
" transform="scale(0.015625)"/>
       </defs>
       <use xlink:href="#DejaVuSans-30"/>
       <use xlink:href="#DejaVuSans-2e" x="63.623047"/>
       <use xlink:href="#DejaVuSans-32" x="95.410156"/>
      </g>
     </g>
    </g>
    <g id="xtick_3">
     <g id="line2d_3">
      <g>
       <use xlink:href="#m289a0c5b28" x="196.238295" y="273.312" style="stroke: #000000; stroke-width: 0.8"/>
      </g>
     </g>
     <g id="text_3">
      <!-- 0.4 -->
      <g transform="translate(188.286733 287.910437)scale(0.1 -0.1)">
       <defs>
        <path id="DejaVuSans-34" d="M 2419 4116 
L 825 1625 
L 2419 1625 
L 2419 4116 
z
M 2253 4666 
L 3047 4666 
L 3047 1625 
L 3713 1625 
L 3713 1100 
L 3047 1100 
L 3047 0 
L 2419 0 
L 2419 1100 
L 313 1100 
L 313 1709 
L 2253 4666 
z
" transform="scale(0.015625)"/>
       </defs>
       <use xlink:href="#DejaVuSans-30"/>
       <use xlink:href="#DejaVuSans-2e" x="63.623047"/>
       <use xlink:href="#DejaVuSans-34" x="95.410156"/>
      </g>
     </g>
    </g>
    <g id="xtick_4">
     <g id="line2d_4">
      <g>
       <use xlink:href="#m289a0c5b28" x="261.169205" y="273.312" style="stroke: #000000; stroke-width: 0.8"/>
      </g>
     </g>
     <g id="text_4">
      <!-- 0.6 -->
      <g transform="translate(253.217642 287.910437)scale(0.1 -0.1)">
       <defs>
        <path id="DejaVuSans-36" d="M 2113 2584 
Q 1688 2584 1439 2293 
Q 1191 2003 1191 1497 
Q 1191 994 1439 701 
Q 1688 409 2113 409 
Q 2538 409 2786 701 
Q 3034 994 3034 1497 
Q 3034 2003 2786 2293 
Q 2538 2584 2113 2584 
z
M 3366 4563 
L 3366 3988 
Q 3128 4100 2886 4159 
Q 2644 4219 2406 4219 
Q 1781 4219 1451 3797 
Q 1122 3375 1075 2522 
Q 1259 2794 1537 2939 
Q 1816 3084 2150 3084 
Q 2853 3084 3261 2657 
Q 3669 2231 3669 1497 
Q 3669 778 3244 343 
Q 2819 -91 2113 -91 
Q 1303 -91 875 529 
Q 447 1150 447 2328 
Q 447 3434 972 4092 
Q 1497 4750 2381 4750 
Q 2619 4750 2861 4703 
Q 3103 4656 3366 4563 
z
" transform="scale(0.015625)"/>
       </defs>
       <use xlink:href="#DejaVuSans-30"/>
       <use xlink:href="#DejaVuSans-2e" x="63.623047"/>
       <use xlink:href="#DejaVuSans-36" x="95.410156"/>
      </g>
     </g>
    </g>
    <g id="xtick_5">
     <g id="line2d_5">
      <g>
       <use xlink:href="#m289a0c5b28" x="326.100114" y="273.312" style="stroke: #000000; stroke-width: 0.8"/>
      </g>
     </g>
     <g id="text_5">
      <!-- 0.8 -->
      <g transform="translate(318.148551 287.910437)scale(0.1 -0.1)">
       <defs>
        <path id="DejaVuSans-38" d="M 2034 2216 
Q 1584 2216 1326 1975 
Q 1069 1734 1069 1313 
Q 1069 891 1326 650 
Q 1584 409 2034 409 
Q 2484 409 2743 651 
Q 3003 894 3003 1313 
Q 3003 1734 2745 1975 
Q 2488 2216 2034 2216 
z
M 1403 2484 
Q 997 2584 770 2862 
Q 544 3141 544 3541 
Q 544 4100 942 4425 
Q 1341 4750 2034 4750 
Q 2731 4750 3128 4425 
Q 3525 4100 3525 3541 
Q 3525 3141 3298 2862 
Q 3072 2584 2669 2484 
Q 3125 2378 3379 2068 
Q 3634 1759 3634 1313 
Q 3634 634 3220 271 
Q 2806 -91 2034 -91 
Q 1263 -91 848 271 
Q 434 634 434 1313 
Q 434 1759 690 2068 
Q 947 2378 1403 2484 
z
M 1172 3481 
Q 1172 3119 1398 2916 
Q 1625 2713 2034 2713 
Q 2441 2713 2670 2916 
Q 2900 3119 2900 3481 
Q 2900 3844 2670 4047 
Q 2441 4250 2034 4250 
Q 1625 4250 1398 4047 
Q 1172 3844 1172 3481 
z
" transform="scale(0.015625)"/>
       </defs>
       <use xlink:href="#DejaVuSans-30"/>
       <use xlink:href="#DejaVuSans-2e" x="63.623047"/>
       <use xlink:href="#DejaVuSans-38" x="95.410156"/>
      </g>
     </g>
    </g>
    <g id="xtick_6">
     <g id="line2d_6">
      <g>
       <use xlink:href="#m289a0c5b28" x="391.031023" y="273.312" style="stroke: #000000; stroke-width: 0.8"/>
      </g>
     </g>
     <g id="text_6">
      <!-- 1.0 -->
      <g transform="translate(383.07946 287.910437)scale(0.1 -0.1)">
       <defs>
        <path id="DejaVuSans-31" d="M 794 531 
L 1825 531 
L 1825 4091 
L 703 3866 
L 703 4441 
L 1819 4666 
L 2450 4666 
L 2450 531 
L 3481 531 
L 3481 0 
L 794 0 
L 794 531 
z
" transform="scale(0.015625)"/>
       </defs>
       <use xlink:href="#DejaVuSans-31"/>
       <use xlink:href="#DejaVuSans-2e" x="63.623047"/>
       <use xlink:href="#DejaVuSans-30" x="95.410156"/>
      </g>
     </g>
    </g>
    <g id="text_7">
     <!-- Propagation direction -->
     <g transform="translate(175.221719 301.588562)scale(0.1 -0.1)">
      <defs>
       <path id="DejaVuSans-50" d="M 1259 4147 
L 1259 2394 
L 2053 2394 
Q 2494 2394 2734 2622 
Q 2975 2850 2975 3272 
Q 2975 3691 2734 3919 
Q 2494 4147 2053 4147 
L 1259 4147 
z
M 628 4666 
L 2053 4666 
Q 2838 4666 3239 4311 
Q 3641 3956 3641 3272 
Q 3641 2581 3239 2228 
Q 2838 1875 2053 1875 
L 1259 1875 
L 1259 0 
L 628 0 
L 628 4666 
z
" transform="scale(0.015625)"/>
       <path id="DejaVuSans-72" d="M 2631 2963 
Q 2534 3019 2420 3045 
Q 2306 3072 2169 3072 
Q 1681 3072 1420 2755 
Q 1159 2438 1159 1844 
L 1159 0 
L 581 0 
L 581 3500 
L 1159 3500 
L 1159 2956 
Q 1341 3275 1631 3429 
Q 1922 3584 2338 3584 
Q 2397 3584 2469 3576 
Q 2541 3569 2628 3553 
L 2631 2963 
z
" transform="scale(0.015625)"/>
       <path id="DejaVuSans-6f" d="M 1959 3097 
Q 1497 3097 1228 2736 
Q 959 2375 959 1747 
Q 959 1119 1226 758 
Q 1494 397 1959 397 
Q 2419 397 2687 759 
Q 2956 1122 2956 1747 
Q 2956 2369 2687 2733 
Q 2419 3097 1959 3097 
z
M 1959 3584 
Q 2709 3584 3137 3096 
Q 3566 2609 3566 1747 
Q 3566 888 3137 398 
Q 2709 -91 1959 -91 
Q 1206 -91 779 398 
Q 353 888 353 1747 
Q 353 2609 779 3096 
Q 1206 3584 1959 3584 
z
" transform="scale(0.015625)"/>
       <path id="DejaVuSans-70" d="M 1159 525 
L 1159 -1331 
L 581 -1331 
L 581 3500 
L 1159 3500 
L 1159 2969 
Q 1341 3281 1617 3432 
Q 1894 3584 2278 3584 
Q 2916 3584 3314 3078 
Q 3713 2572 3713 1747 
Q 3713 922 3314 415 
Q 2916 -91 2278 -91 
Q 1894 -91 1617 61 
Q 1341 213 1159 525 
z
M 3116 1747 
Q 3116 2381 2855 2742 
Q 2594 3103 2138 3103 
Q 1681 3103 1420 2742 
Q 1159 2381 1159 1747 
Q 1159 1113 1420 752 
Q 1681 391 2138 391 
Q 2594 391 2855 752 
Q 3116 1113 3116 1747 
z
" transform="scale(0.015625)"/>
       <path id="DejaVuSans-61" d="M 2194 1759 
Q 1497 1759 1228 1600 
Q 959 1441 959 1056 
Q 959 750 1161 570 
Q 1363 391 1709 391 
Q 2188 391 2477 730 
Q 2766 1069 2766 1631 
L 2766 1759 
L 2194 1759 
z
M 3341 1997 
L 3341 0 
L 2766 0 
L 2766 531 
Q 2569 213 2275 61 
Q 1981 -91 1556 -91 
Q 1019 -91 701 211 
Q 384 513 384 1019 
Q 384 1609 779 1909 
Q 1175 2209 1959 2209 
L 2766 2209 
L 2766 2266 
Q 2766 2663 2505 2880 
Q 2244 3097 1772 3097 
Q 1472 3097 1187 3025 
Q 903 2953 641 2809 
L 641 3341 
Q 956 3463 1253 3523 
Q 1550 3584 1831 3584 
Q 2591 3584 2966 3190 
Q 3341 2797 3341 1997 
z
" transform="scale(0.015625)"/>
       <path id="DejaVuSans-67" d="M 2906 1791 
Q 2906 2416 2648 2759 
Q 2391 3103 1925 3103 
Q 1463 3103 1205 2759 
Q 947 2416 947 1791 
Q 947 1169 1205 825 
Q 1463 481 1925 481 
Q 2391 481 2648 825 
Q 2906 1169 2906 1791 
z
M 3481 434 
Q 3481 -459 3084 -895 
Q 2688 -1331 1869 -1331 
Q 1566 -1331 1297 -1286 
Q 1028 -1241 775 -1147 
L 775 -588 
Q 1028 -725 1275 -790 
Q 1522 -856 1778 -856 
Q 2344 -856 2625 -561 
Q 2906 -266 2906 331 
L 2906 616 
Q 2728 306 2450 153 
Q 2172 0 1784 0 
Q 1141 0 747 490 
Q 353 981 353 1791 
Q 353 2603 747 3093 
Q 1141 3584 1784 3584 
Q 2172 3584 2450 3431 
Q 2728 3278 2906 2969 
L 2906 3500 
L 3481 3500 
L 3481 434 
z
" transform="scale(0.015625)"/>
       <path id="DejaVuSans-74" d="M 1172 4494 
L 1172 3500 
L 2356 3500 
L 2356 3053 
L 1172 3053 
L 1172 1153 
Q 1172 725 1289 603 
Q 1406 481 1766 481 
L 2356 481 
L 2356 0 
L 1766 0 
Q 1100 0 847 248 
Q 594 497 594 1153 
L 594 3053 
L 172 3053 
L 172 3500 
L 594 3500 
L 594 4494 
L 1172 4494 
z
" transform="scale(0.015625)"/>
       <path id="DejaVuSans-69" d="M 603 3500 
L 1178 3500 
L 1178 0 
L 603 0 
L 603 3500 
z
M 603 4863 
L 1178 4863 
L 1178 4134 
L 603 4134 
L 603 4863 
z
" transform="scale(0.015625)"/>
       <path id="DejaVuSans-6e" d="M 3513 2113 
L 3513 0 
L 2938 0 
L 2938 2094 
Q 2938 2591 2744 2837 
Q 2550 3084 2163 3084 
Q 1697 3084 1428 2787 
Q 1159 2491 1159 1978 
L 1159 0 
L 581 0 
L 581 3500 
L 1159 3500 
L 1159 2956 
Q 1366 3272 1645 3428 
Q 1925 3584 2291 3584 
Q 2894 3584 3203 3211 
Q 3513 2838 3513 2113 
z
" transform="scale(0.015625)"/>
       <path id="DejaVuSans-20" transform="scale(0.015625)"/>
       <path id="DejaVuSans-64" d="M 2906 2969 
L 2906 4863 
L 3481 4863 
L 3481 0 
L 2906 0 
L 2906 525 
Q 2725 213 2448 61 
Q 2172 -91 1784 -91 
Q 1150 -91 751 415 
Q 353 922 353 1747 
Q 353 2572 751 3078 
Q 1150 3584 1784 3584 
Q 2172 3584 2448 3432 
Q 2725 3281 2906 2969 
z
M 947 1747 
Q 947 1113 1208 752 
Q 1469 391 1925 391 
Q 2381 391 2643 752 
Q 2906 1113 2906 1747 
Q 2906 2381 2643 2742 
Q 2381 3103 1925 3103 
Q 1469 3103 1208 2742 
Q 947 2381 947 1747 
z
" transform="scale(0.015625)"/>
       <path id="DejaVuSans-65" d="M 3597 1894 
L 3597 1613 
L 953 1613 
Q 991 1019 1311 708 
Q 1631 397 2203 397 
Q 2534 397 2845 478 
Q 3156 559 3463 722 
L 3463 178 
Q 3153 47 2828 -22 
Q 2503 -91 2169 -91 
Q 1331 -91 842 396 
Q 353 884 353 1716 
Q 353 2575 817 3079 
Q 1281 3584 2069 3584 
Q 2775 3584 3186 3129 
Q 3597 2675 3597 1894 
z
M 3022 2063 
Q 3016 2534 2758 2815 
Q 2500 3097 2075 3097 
Q 1594 3097 1305 2825 
Q 1016 2553 972 2059 
L 3022 2063 
z
" transform="scale(0.015625)"/>
       <path id="DejaVuSans-63" d="M 3122 3366 
L 3122 2828 
Q 2878 2963 2633 3030 
Q 2388 3097 2138 3097 
Q 1578 3097 1268 2742 
Q 959 2388 959 1747 
Q 959 1106 1268 751 
Q 1578 397 2138 397 
Q 2388 397 2633 464 
Q 2878 531 3122 666 
L 3122 134 
Q 2881 22 2623 -34 
Q 2366 -91 2075 -91 
Q 1284 -91 818 406 
Q 353 903 353 1747 
Q 353 2603 823 3093 
Q 1294 3584 2113 3584 
Q 2378 3584 2631 3529 
Q 2884 3475 3122 3366 
z
" transform="scale(0.015625)"/>
      </defs>
      <use xlink:href="#DejaVuSans-50"/>
      <use xlink:href="#DejaVuSans-72" x="58.552734"/>
      <use xlink:href="#DejaVuSans-6f" x="97.416016"/>
      <use xlink:href="#DejaVuSans-70" x="158.597656"/>
      <use xlink:href="#DejaVuSans-61" x="222.074219"/>
      <use xlink:href="#DejaVuSans-67" x="283.353516"/>
      <use xlink:href="#DejaVuSans-61" x="346.830078"/>
      <use xlink:href="#DejaVuSans-74" x="408.109375"/>
      <use xlink:href="#DejaVuSans-69" x="447.318359"/>
      <use xlink:href="#DejaVuSans-6f" x="475.101562"/>
      <use xlink:href="#DejaVuSans-6e" x="536.283203"/>
      <use xlink:href="#DejaVuSans-20" x="599.662109"/>
      <use xlink:href="#DejaVuSans-64" x="631.449219"/>
      <use xlink:href="#DejaVuSans-69" x="694.925781"/>
      <use xlink:href="#DejaVuSans-72" x="722.708984"/>
      <use xlink:href="#DejaVuSans-65" x="761.572266"/>
      <use xlink:href="#DejaVuSans-63" x="823.095703"/>
      <use xlink:href="#DejaVuSans-74" x="878.076172"/>
      <use xlink:href="#DejaVuSans-69" x="917.285156"/>
      <use xlink:href="#DejaVuSans-6f" x="945.068359"/>
      <use xlink:href="#DejaVuSans-6e" x="1006.25"/>
     </g>
    </g>
   </g>
   <g id="matplotlib.axis_2">
    <g id="ytick_1">
     <g id="line2d_7">
      <defs>
       <path id="m83df629566" d="M 0 0 
L -3.5 0 
" style="stroke: #000000; stroke-width: 0.8"/>
      </defs>
      <g>
       <use xlink:href="#m83df629566" x="50.14375" y="273.312" style="stroke: #000000; stroke-width: 0.8"/>
      </g>
     </g>
     <g id="text_8">
      <!-- 0.00 -->
      <g transform="translate(20.878125 277.111219)scale(0.1 -0.1)">
       <use xlink:href="#DejaVuSans-30"/>
       <use xlink:href="#DejaVuSans-2e" x="63.623047"/>
       <use xlink:href="#DejaVuSans-30" x="95.410156"/>
       <use xlink:href="#DejaVuSans-30" x="159.033203"/>
      </g>
     </g>
    </g>
    <g id="ytick_2">
     <g id="line2d_8">
      <g>
       <use xlink:href="#m83df629566" x="50.14375" y="242.208665" style="stroke: #000000; stroke-width: 0.8"/>
      </g>
     </g>
     <g id="text_9">
      <!-- 0.25 -->
      <g transform="translate(20.878125 246.007883)scale(0.1 -0.1)">
       <defs>
        <path id="DejaVuSans-35" d="M 691 4666 
L 3169 4666 
L 3169 4134 
L 1269 4134 
L 1269 2991 
Q 1406 3038 1543 3061 
Q 1681 3084 1819 3084 
Q 2600 3084 3056 2656 
Q 3513 2228 3513 1497 
Q 3513 744 3044 326 
Q 2575 -91 1722 -91 
Q 1428 -91 1123 -41 
Q 819 9 494 109 
L 494 744 
Q 775 591 1075 516 
Q 1375 441 1709 441 
Q 2250 441 2565 725 
Q 2881 1009 2881 1497 
Q 2881 1984 2565 2268 
Q 2250 2553 1709 2553 
Q 1456 2553 1204 2497 
Q 953 2441 691 2322 
L 691 4666 
z
" transform="scale(0.015625)"/>
       </defs>
       <use xlink:href="#DejaVuSans-30"/>
       <use xlink:href="#DejaVuSans-2e" x="63.623047"/>
       <use xlink:href="#DejaVuSans-32" x="95.410156"/>
       <use xlink:href="#DejaVuSans-35" x="159.033203"/>
      </g>
     </g>
    </g>
    <g id="ytick_3">
     <g id="line2d_9">
      <g>
       <use xlink:href="#m83df629566" x="50.14375" y="211.105329" style="stroke: #000000; stroke-width: 0.8"/>
      </g>
     </g>
     <g id="text_10">
      <!-- 0.50 -->
      <g transform="translate(20.878125 214.904548)scale(0.1 -0.1)">
       <use xlink:href="#DejaVuSans-30"/>
       <use xlink:href="#DejaVuSans-2e" x="63.623047"/>
       <use xlink:href="#DejaVuSans-35" x="95.410156"/>
       <use xlink:href="#DejaVuSans-30" x="159.033203"/>
      </g>
     </g>
    </g>
    <g id="ytick_4">
     <g id="line2d_10">
      <g>
       <use xlink:href="#m83df629566" x="50.14375" y="180.001994" style="stroke: #000000; stroke-width: 0.8"/>
      </g>
     </g>
     <g id="text_11">
      <!-- 0.75 -->
      <g transform="translate(20.878125 183.801213)scale(0.1 -0.1)">
       <defs>
        <path id="DejaVuSans-37" d="M 525 4666 
L 3525 4666 
L 3525 4397 
L 1831 0 
L 1172 0 
L 2766 4134 
L 525 4134 
L 525 4666 
z
" transform="scale(0.015625)"/>
       </defs>
       <use xlink:href="#DejaVuSans-30"/>
       <use xlink:href="#DejaVuSans-2e" x="63.623047"/>
       <use xlink:href="#DejaVuSans-37" x="95.410156"/>
       <use xlink:href="#DejaVuSans-35" x="159.033203"/>
      </g>
     </g>
    </g>
    <g id="ytick_5">
     <g id="line2d_11">
      <g>
       <use xlink:href="#m83df629566" x="50.14375" y="148.898658" style="stroke: #000000; stroke-width: 0.8"/>
      </g>
     </g>
     <g id="text_12">
      <!-- 1.00 -->
      <g transform="translate(20.878125 152.697877)scale(0.1 -0.1)">
       <use xlink:href="#DejaVuSans-31"/>
       <use xlink:href="#DejaVuSans-2e" x="63.623047"/>
       <use xlink:href="#DejaVuSans-30" x="95.410156"/>
       <use xlink:href="#DejaVuSans-30" x="159.033203"/>
      </g>
     </g>
    </g>
    <g id="ytick_6">
     <g id="line2d_12">
      <g>
       <use xlink:href="#m83df629566" x="50.14375" y="117.795323" style="stroke: #000000; stroke-width: 0.8"/>
      </g>
     </g>
     <g id="text_13">
      <!-- 1.25 -->
      <g transform="translate(20.878125 121.594542)scale(0.1 -0.1)">
       <use xlink:href="#DejaVuSans-31"/>
       <use xlink:href="#DejaVuSans-2e" x="63.623047"/>
       <use xlink:href="#DejaVuSans-32" x="95.410156"/>
       <use xlink:href="#DejaVuSans-35" x="159.033203"/>
      </g>
     </g>
    </g>
    <g id="ytick_7">
     <g id="line2d_13">
      <g>
       <use xlink:href="#m83df629566" x="50.14375" y="86.691988" style="stroke: #000000; stroke-width: 0.8"/>
      </g>
     </g>
     <g id="text_14">
      <!-- 1.50 -->
      <g transform="translate(20.878125 90.491206)scale(0.1 -0.1)">
       <use xlink:href="#DejaVuSans-31"/>
       <use xlink:href="#DejaVuSans-2e" x="63.623047"/>
       <use xlink:href="#DejaVuSans-35" x="95.410156"/>
       <use xlink:href="#DejaVuSans-30" x="159.033203"/>
      </g>
     </g>
    </g>
    <g id="ytick_8">
     <g id="line2d_14">
      <g>
       <use xlink:href="#m83df629566" x="50.14375" y="55.588652" style="stroke: #000000; stroke-width: 0.8"/>
      </g>
     </g>
     <g id="text_15">
      <!-- 1.75 -->
      <g transform="translate(20.878125 59.387871)scale(0.1 -0.1)">
       <use xlink:href="#DejaVuSans-31"/>
       <use xlink:href="#DejaVuSans-2e" x="63.623047"/>
       <use xlink:href="#DejaVuSans-37" x="95.410156"/>
       <use xlink:href="#DejaVuSans-35" x="159.033203"/>
      </g>
     </g>
    </g>
    <g id="ytick_9">
     <g id="line2d_15">
      <g>
       <use xlink:href="#m83df629566" x="50.14375" y="24.485317" style="stroke: #000000; stroke-width: 0.8"/>
      </g>
     </g>
     <g id="text_16">
      <!-- 2.00 -->
      <g transform="translate(20.878125 28.284536)scale(0.1 -0.1)">
       <use xlink:href="#DejaVuSans-32"/>
       <use xlink:href="#DejaVuSans-2e" x="63.623047"/>
       <use xlink:href="#DejaVuSans-30" x="95.410156"/>
       <use xlink:href="#DejaVuSans-30" x="159.033203"/>
      </g>
     </g>
    </g>
    <g id="text_17">
     <!-- Probability density -->
     <g transform="translate(14.798438 186.606781)rotate(-90)scale(0.1 -0.1)">
      <defs>
       <path id="DejaVuSans-62" d="M 3116 1747 
Q 3116 2381 2855 2742 
Q 2594 3103 2138 3103 
Q 1681 3103 1420 2742 
Q 1159 2381 1159 1747 
Q 1159 1113 1420 752 
Q 1681 391 2138 391 
Q 2594 391 2855 752 
Q 3116 1113 3116 1747 
z
M 1159 2969 
Q 1341 3281 1617 3432 
Q 1894 3584 2278 3584 
Q 2916 3584 3314 3078 
Q 3713 2572 3713 1747 
Q 3713 922 3314 415 
Q 2916 -91 2278 -91 
Q 1894 -91 1617 61 
Q 1341 213 1159 525 
L 1159 0 
L 581 0 
L 581 4863 
L 1159 4863 
L 1159 2969 
z
" transform="scale(0.015625)"/>
       <path id="DejaVuSans-6c" d="M 603 4863 
L 1178 4863 
L 1178 0 
L 603 0 
L 603 4863 
z
" transform="scale(0.015625)"/>
       <path id="DejaVuSans-79" d="M 2059 -325 
Q 1816 -950 1584 -1140 
Q 1353 -1331 966 -1331 
L 506 -1331 
L 506 -850 
L 844 -850 
Q 1081 -850 1212 -737 
Q 1344 -625 1503 -206 
L 1606 56 
L 191 3500 
L 800 3500 
L 1894 763 
L 2988 3500 
L 3597 3500 
L 2059 -325 
z
" transform="scale(0.015625)"/>
       <path id="DejaVuSans-73" d="M 2834 3397 
L 2834 2853 
Q 2591 2978 2328 3040 
Q 2066 3103 1784 3103 
Q 1356 3103 1142 2972 
Q 928 2841 928 2578 
Q 928 2378 1081 2264 
Q 1234 2150 1697 2047 
L 1894 2003 
Q 2506 1872 2764 1633 
Q 3022 1394 3022 966 
Q 3022 478 2636 193 
Q 2250 -91 1575 -91 
Q 1294 -91 989 -36 
Q 684 19 347 128 
L 347 722 
Q 666 556 975 473 
Q 1284 391 1588 391 
Q 1994 391 2212 530 
Q 2431 669 2431 922 
Q 2431 1156 2273 1281 
Q 2116 1406 1581 1522 
L 1381 1569 
Q 847 1681 609 1914 
Q 372 2147 372 2553 
Q 372 3047 722 3315 
Q 1072 3584 1716 3584 
Q 2034 3584 2315 3537 
Q 2597 3491 2834 3397 
z
" transform="scale(0.015625)"/>
      </defs>
      <use xlink:href="#DejaVuSans-50"/>
      <use xlink:href="#DejaVuSans-72" x="58.552734"/>
      <use xlink:href="#DejaVuSans-6f" x="97.416016"/>
      <use xlink:href="#DejaVuSans-62" x="158.597656"/>
      <use xlink:href="#DejaVuSans-61" x="222.074219"/>
      <use xlink:href="#DejaVuSans-62" x="283.353516"/>
      <use xlink:href="#DejaVuSans-69" x="346.830078"/>
      <use xlink:href="#DejaVuSans-6c" x="374.613281"/>
      <use xlink:href="#DejaVuSans-69" x="402.396484"/>
      <use xlink:href="#DejaVuSans-74" x="430.179688"/>
      <use xlink:href="#DejaVuSans-79" x="469.388672"/>
      <use xlink:href="#DejaVuSans-20" x="528.568359"/>
      <use xlink:href="#DejaVuSans-64" x="560.355469"/>
      <use xlink:href="#DejaVuSans-65" x="623.832031"/>
      <use xlink:href="#DejaVuSans-6e" x="685.355469"/>
      <use xlink:href="#DejaVuSans-73" x="748.734375"/>
      <use xlink:href="#DejaVuSans-69" x="800.833984"/>
      <use xlink:href="#DejaVuSans-74" x="828.617188"/>
      <use xlink:href="#DejaVuSans-79" x="867.826172"/>
     </g>
    </g>
   </g>
   <g id="line2d_16">
    <path d="M 66.376477 273.312 
L 391.031023 24.485317 
L 391.031023 24.485317 
" clip-path="url(#p82af88f13c)" style="fill: none; stroke: #ff7f0e; stroke-width: 1.5; stroke-linecap: square"/>
   </g>
   <g id="patch_203">
    <path d="M 50.14375 273.312 
L 50.14375 7.2 
" style="fill: none; stroke: #000000; stroke-width: 0.8; stroke-linejoin: miter; stroke-linecap: square"/>
   </g>
   <g id="patch_204">
    <path d="M 407.26375 273.312 
L 407.26375 7.2 
" style="fill: none; stroke: #000000; stroke-width: 0.8; stroke-linejoin: miter; stroke-linecap: square"/>
   </g>
   <g id="patch_205">
    <path d="M 50.14375 273.312 
L 407.26375 273.312 
" style="fill: none; stroke: #000000; stroke-width: 0.8; stroke-linejoin: miter; stroke-linecap: square"/>
   </g>
   <g id="patch_206">
    <path d="M 50.14375 7.2 
L 407.26375 7.2 
" style="fill: none; stroke: #000000; stroke-width: 0.8; stroke-linejoin: miter; stroke-linecap: square"/>
   </g>
  </g>
 </g>
 <defs>
  <clipPath id="p82af88f13c">
   <rect x="50.14375" y="7.2" width="357.12" height="266.112"/>
  </clipPath>
 </defs>
</svg>
