<?xml version="1.0" encoding="utf-8" standalone="no"?>
<!DOCTYPE svg PUBLIC "-//W3C//DTD SVG 1.1//EN"
  "http://www.w3.org/Graphics/SVG/1.1/DTD/svg11.dtd">
<svg xmlns:xlink="http://www.w3.org/1999/xlink" width="414.46375pt" height="310.86825pt" viewBox="0 0 414.46375 310.86825" xmlns="http://www.w3.org/2000/svg" version="1.1">
 <metadata>
  <rdf:RDF xmlns:dc="http://purl.org/dc/elements/1.1/" xmlns:cc="http://creativecommons.org/ns#" xmlns:rdf="http://www.w3.org/1999/02/22-rdf-syntax-ns#">
   <cc:Work>
    <dc:type rdf:resource="http://purl.org/dc/dcmitype/StillImage"/>
    <dc:date>2022-05-26T20:12:32.263443</dc:date>
    <dc:format>image/svg+xml</dc:format>
    <dc:creator>
     <cc:Agent>
      <dc:title>Matplotlib v3.5.2, https://matplotlib.org/</dc:title>
     </cc:Agent>
    </dc:creator>
   </cc:Work>
  </rdf:RDF>
 </metadata>
 <defs>
  <style type="text/css">*{stroke-linejoin: round; stroke-linecap: butt}</style>
 </defs>
 <g id="figure_1">
  <g id="patch_1">
   <path d="M 0 310.86825 
L 414.46375 310.86825 
L 414.46375 0 
L 0 0 
z
" style="fill: #ffffff"/>
  </g>
  <g id="axes_1">
   <g id="patch_2">
    <path d="M 50.14375 273.312 
L 407.26375 273.312 
L 407.26375 7.2 
L 50.14375 7.2 
z
" style="fill: #ffffff"/>
   </g>
   <g id="patch_3">
    <path d="M 67.372822 273.312 
L 68.991083 273.312 
L 68.991083 269.037108 
L 67.372822 269.037108 
z
" clip-path="url(#p04a7cf775a)" style="fill: #1f77b4"/>
   </g>
   <g id="patch_4">
    <path d="M 68.991083 273.312 
L 70.609344 273.312 
L 70.609344 273.312 
L 68.991083 273.312 
z
" clip-path="url(#p04a7cf775a)" style="fill: #1f77b4"/>
   </g>
   <g id="patch_5">
    <path d="M 70.609344 273.312 
L 72.227605 273.312 
L 72.227605 268.42641 
L 70.609344 268.42641 
z
" clip-path="url(#p04a7cf775a)" style="fill: #1f77b4"/>
   </g>
   <g id="patch_6">
    <path d="M 72.227605 273.312 
L 73.845866 273.312 
L 73.845866 266.594313 
L 72.227605 266.594313 
z
" clip-path="url(#p04a7cf775a)" style="fill: #1f77b4"/>
   </g>
   <g id="patch_7">
    <path d="M 73.845866 273.312 
L 75.464127 273.312 
L 75.464127 267.815711 
L 73.845866 267.815711 
z
" clip-path="url(#p04a7cf775a)" style="fill: #1f77b4"/>
   </g>
   <g id="patch_8">
    <path d="M 75.464127 273.312 
L 77.082388 273.312 
L 77.082388 262.319422 
L 75.464127 262.319422 
z
" clip-path="url(#p04a7cf775a)" style="fill: #1f77b4"/>
   </g>
   <g id="patch_9">
    <path d="M 77.082388 273.312 
L 78.700649 273.312 
L 78.700649 262.93012 
L 77.082388 262.93012 
z
" clip-path="url(#p04a7cf775a)" style="fill: #1f77b4"/>
   </g>
   <g id="patch_10">
    <path d="M 78.700649 273.312 
L 80.31891 273.312 
L 80.31891 268.42641 
L 78.700649 268.42641 
z
" clip-path="url(#p04a7cf775a)" style="fill: #1f77b4"/>
   </g>
   <g id="patch_11">
    <path d="M 80.31891 273.312 
L 81.937171 273.312 
L 81.937171 264.762217 
L 80.31891 264.762217 
z
" clip-path="url(#p04a7cf775a)" style="fill: #1f77b4"/>
   </g>
   <g id="patch_12">
    <path d="M 81.937171 273.312 
L 83.555432 273.312 
L 83.555432 259.876627 
L 81.937171 259.876627 
z
" clip-path="url(#p04a7cf775a)" style="fill: #1f77b4"/>
   </g>
   <g id="patch_13">
    <path d="M 83.555432 273.312 
L 85.173693 273.312 
L 85.173693 264.151518 
L 83.555432 264.151518 
z
" clip-path="url(#p04a7cf775a)" style="fill: #1f77b4"/>
   </g>
   <g id="patch_14">
    <path d="M 85.173693 273.312 
L 86.791954 273.312 
L 86.791954 258.655229 
L 85.173693 258.655229 
z
" clip-path="url(#p04a7cf775a)" style="fill: #1f77b4"/>
   </g>
   <g id="patch_15">
    <path d="M 86.791954 273.312 
L 88.410215 273.312 
L 88.410215 252.548241 
L 86.791954 252.548241 
z
" clip-path="url(#p04a7cf775a)" style="fill: #1f77b4"/>
   </g>
   <g id="patch_16">
    <path d="M 88.410215 273.312 
L 90.028476 273.312 
L 90.028476 258.04453 
L 88.410215 258.04453 
z
" clip-path="url(#p04a7cf775a)" style="fill: #1f77b4"/>
   </g>
   <g id="patch_17">
    <path d="M 90.028476 273.312 
L 91.646737 273.312 
L 91.646737 254.991036 
L 90.028476 254.991036 
z
" clip-path="url(#p04a7cf775a)" style="fill: #1f77b4"/>
   </g>
   <g id="patch_18">
    <path d="M 91.646737 273.312 
L 93.264998 273.312 
L 93.264998 255.601735 
L 91.646737 255.601735 
z
" clip-path="url(#p04a7cf775a)" style="fill: #1f77b4"/>
   </g>
   <g id="patch_19">
    <path d="M 93.264998 273.312 
L 94.883259 273.312 
L 94.883259 249.494747 
L 93.264998 249.494747 
z
" clip-path="url(#p04a7cf775a)" style="fill: #1f77b4"/>
   </g>
   <g id="patch_20">
    <path d="M 94.883259 273.312 
L 96.50152 273.312 
L 96.50152 252.548241 
L 94.883259 252.548241 
z
" clip-path="url(#p04a7cf775a)" style="fill: #1f77b4"/>
   </g>
   <g id="patch_21">
    <path d="M 96.50152 273.312 
L 98.119781 273.312 
L 98.119781 242.166361 
L 96.50152 242.166361 
z
" clip-path="url(#p04a7cf775a)" style="fill: #1f77b4"/>
   </g>
   <g id="patch_22">
    <path d="M 98.119781 273.312 
L 99.738042 273.312 
L 99.738042 253.15894 
L 98.119781 253.15894 
z
" clip-path="url(#p04a7cf775a)" style="fill: #1f77b4"/>
   </g>
   <g id="patch_23">
    <path d="M 99.738042 273.312 
L 101.356303 273.312 
L 101.356303 251.326843 
L 99.738042 251.326843 
z
" clip-path="url(#p04a7cf775a)" style="fill: #1f77b4"/>
   </g>
   <g id="patch_24">
    <path d="M 101.356303 273.312 
L 102.974564 273.312 
L 102.974564 244.609157 
L 101.356303 244.609157 
z
" clip-path="url(#p04a7cf775a)" style="fill: #1f77b4"/>
   </g>
   <g id="patch_25">
    <path d="M 102.974564 273.312 
L 104.592825 273.312 
L 104.592825 240.334265 
L 102.974564 240.334265 
z
" clip-path="url(#p04a7cf775a)" style="fill: #1f77b4"/>
   </g>
   <g id="patch_26">
    <path d="M 104.592825 273.312 
L 106.211086 273.312 
L 106.211086 245.830554 
L 104.592825 245.830554 
z
" clip-path="url(#p04a7cf775a)" style="fill: #1f77b4"/>
   </g>
   <g id="patch_27">
    <path d="M 106.211086 273.312 
L 107.829347 273.312 
L 107.829347 238.502169 
L 106.211086 238.502169 
z
" clip-path="url(#p04a7cf775a)" style="fill: #1f77b4"/>
   </g>
   <g id="patch_28">
    <path d="M 107.829347 273.312 
L 109.447608 273.312 
L 109.447608 247.051952 
L 107.829347 247.051952 
z
" clip-path="url(#p04a7cf775a)" style="fill: #1f77b4"/>
   </g>
   <g id="patch_29">
    <path d="M 109.447608 273.312 
L 111.065869 273.312 
L 111.065869 239.723566 
L 109.447608 239.723566 
z
" clip-path="url(#p04a7cf775a)" style="fill: #1f77b4"/>
   </g>
   <g id="patch_30">
    <path d="M 111.065869 273.312 
L 112.68413 273.312 
L 112.68413 237.89147 
L 111.065869 237.89147 
z
" clip-path="url(#p04a7cf775a)" style="fill: #1f77b4"/>
   </g>
   <g id="patch_31">
    <path d="M 112.68413 273.312 
L 114.302391 273.312 
L 114.302391 231.784482 
L 112.68413 231.784482 
z
" clip-path="url(#p04a7cf775a)" style="fill: #1f77b4"/>
   </g>
   <g id="patch_32">
    <path d="M 114.302391 273.312 
L 115.920652 273.312 
L 115.920652 240.334265 
L 114.302391 240.334265 
z
" clip-path="url(#p04a7cf775a)" style="fill: #1f77b4"/>
   </g>
   <g id="patch_33">
    <path d="M 115.920652 273.312 
L 117.538913 273.312 
L 117.538913 233.616578 
L 115.920652 233.616578 
z
" clip-path="url(#p04a7cf775a)" style="fill: #1f77b4"/>
   </g>
   <g id="patch_34">
    <path d="M 117.538913 273.312 
L 119.157174 273.312 
L 119.157174 239.723566 
L 117.538913 239.723566 
z
" clip-path="url(#p04a7cf775a)" style="fill: #1f77b4"/>
   </g>
   <g id="patch_35">
    <path d="M 119.157174 273.312 
L 120.775435 273.312 
L 120.775435 234.837976 
L 119.157174 234.837976 
z
" clip-path="url(#p04a7cf775a)" style="fill: #1f77b4"/>
   </g>
   <g id="patch_36">
    <path d="M 120.775435 273.312 
L 122.393696 273.312 
L 122.393696 240.944964 
L 120.775435 240.944964 
z
" clip-path="url(#p04a7cf775a)" style="fill: #1f77b4"/>
   </g>
   <g id="patch_37">
    <path d="M 122.393696 273.312 
L 124.011957 273.312 
L 124.011957 233.616578 
L 122.393696 233.616578 
z
" clip-path="url(#p04a7cf775a)" style="fill: #1f77b4"/>
   </g>
   <g id="patch_38">
    <path d="M 124.011957 273.312 
L 125.630218 273.312 
L 125.630218 224.456096 
L 124.011957 224.456096 
z
" clip-path="url(#p04a7cf775a)" style="fill: #1f77b4"/>
   </g>
   <g id="patch_39">
    <path d="M 125.630218 273.312 
L 127.248479 273.312 
L 127.248479 228.120289 
L 125.630218 228.120289 
z
" clip-path="url(#p04a7cf775a)" style="fill: #1f77b4"/>
   </g>
   <g id="patch_40">
    <path d="M 127.248479 273.312 
L 128.86674 273.312 
L 128.86674 220.181205 
L 127.248479 220.181205 
z
" clip-path="url(#p04a7cf775a)" style="fill: #1f77b4"/>
   </g>
   <g id="patch_41">
    <path d="M 128.86674 273.312 
L 130.485001 273.312 
L 130.485001 222.624 
L 128.86674 222.624 
z
" clip-path="url(#p04a7cf775a)" style="fill: #1f77b4"/>
   </g>
   <g id="patch_42">
    <path d="M 130.485001 273.312 
L 132.103262 273.312 
L 132.103262 222.013301 
L 130.485001 222.013301 
z
" clip-path="url(#p04a7cf775a)" style="fill: #1f77b4"/>
   </g>
   <g id="patch_43">
    <path d="M 132.103262 273.312 
L 133.721523 273.312 
L 133.721523 218.349108 
L 132.103262 218.349108 
z
" clip-path="url(#p04a7cf775a)" style="fill: #1f77b4"/>
   </g>
   <g id="patch_44">
    <path d="M 133.721523 273.312 
L 135.339784 273.312 
L 135.339784 229.341687 
L 133.721523 229.341687 
z
" clip-path="url(#p04a7cf775a)" style="fill: #1f77b4"/>
   </g>
   <g id="patch_45">
    <path d="M 135.339784 273.312 
L 136.958045 273.312 
L 136.958045 225.066795 
L 135.339784 225.066795 
z
" clip-path="url(#p04a7cf775a)" style="fill: #1f77b4"/>
   </g>
   <g id="patch_46">
    <path d="M 136.958045 273.312 
L 138.576306 273.312 
L 138.576306 220.791904 
L 136.958045 220.791904 
z
" clip-path="url(#p04a7cf775a)" style="fill: #1f77b4"/>
   </g>
   <g id="patch_47">
    <path d="M 138.576306 273.312 
L 140.194567 273.312 
L 140.194567 217.127711 
L 138.576306 217.127711 
z
" clip-path="url(#p04a7cf775a)" style="fill: #1f77b4"/>
   </g>
   <g id="patch_48">
    <path d="M 140.194567 273.312 
L 141.812828 273.312 
L 141.812828 207.35653 
L 140.194567 207.35653 
z
" clip-path="url(#p04a7cf775a)" style="fill: #1f77b4"/>
   </g>
   <g id="patch_49">
    <path d="M 141.812828 273.312 
L 143.431089 273.312 
L 143.431089 220.181205 
L 141.812828 220.181205 
z
" clip-path="url(#p04a7cf775a)" style="fill: #1f77b4"/>
   </g>
   <g id="patch_50">
    <path d="M 143.431089 273.312 
L 145.04935 273.312 
L 145.04935 217.73841 
L 143.431089 217.73841 
z
" clip-path="url(#p04a7cf775a)" style="fill: #1f77b4"/>
   </g>
   <g id="patch_51">
    <path d="M 145.04935 273.312 
L 146.667611 273.312 
L 146.667611 217.73841 
L 145.04935 217.73841 
z
" clip-path="url(#p04a7cf775a)" style="fill: #1f77b4"/>
   </g>
   <g id="patch_52">
    <path d="M 146.667611 273.312 
L 148.285872 273.312 
L 148.285872 212.24212 
L 146.667611 212.24212 
z
" clip-path="url(#p04a7cf775a)" style="fill: #1f77b4"/>
   </g>
   <g id="patch_53">
    <path d="M 148.285872 273.312 
L 149.904133 273.312 
L 149.904133 207.967229 
L 148.285872 207.967229 
z
" clip-path="url(#p04a7cf775a)" style="fill: #1f77b4"/>
   </g>
   <g id="patch_54">
    <path d="M 149.904133 273.312 
L 151.522394 273.312 
L 151.522394 212.24212 
L 149.904133 212.24212 
z
" clip-path="url(#p04a7cf775a)" style="fill: #1f77b4"/>
   </g>
   <g id="patch_55">
    <path d="M 151.522394 273.312 
L 153.140655 273.312 
L 153.140655 214.074217 
L 151.522394 214.074217 
z
" clip-path="url(#p04a7cf775a)" style="fill: #1f77b4"/>
   </g>
   <g id="patch_56">
    <path d="M 153.140655 273.312 
L 154.758916 273.312 
L 154.758916 207.35653 
L 153.140655 207.35653 
z
" clip-path="url(#p04a7cf775a)" style="fill: #1f77b4"/>
   </g>
   <g id="patch_57">
    <path d="M 154.758916 273.312 
L 156.377177 273.312 
L 156.377177 205.524434 
L 154.758916 205.524434 
z
" clip-path="url(#p04a7cf775a)" style="fill: #1f77b4"/>
   </g>
   <g id="patch_58">
    <path d="M 156.377177 273.312 
L 157.995438 273.312 
L 157.995438 206.135133 
L 156.377177 206.135133 
z
" clip-path="url(#p04a7cf775a)" style="fill: #1f77b4"/>
   </g>
   <g id="patch_59">
    <path d="M 157.995438 273.312 
L 159.613699 273.312 
L 159.613699 203.081639 
L 157.995438 203.081639 
z
" clip-path="url(#p04a7cf775a)" style="fill: #1f77b4"/>
   </g>
   <g id="patch_60">
    <path d="M 159.613699 273.312 
L 161.23196 273.312 
L 161.23196 203.692337 
L 159.613699 203.692337 
z
" clip-path="url(#p04a7cf775a)" style="fill: #1f77b4"/>
   </g>
   <g id="patch_61">
    <path d="M 161.23196 273.312 
L 162.850221 273.312 
L 162.850221 204.303036 
L 161.23196 204.303036 
z
" clip-path="url(#p04a7cf775a)" style="fill: #1f77b4"/>
   </g>
   <g id="patch_62">
    <path d="M 162.850221 273.312 
L 164.468481 273.312 
L 164.468481 200.028145 
L 162.850221 200.028145 
z
" clip-path="url(#p04a7cf775a)" style="fill: #1f77b4"/>
   </g>
   <g id="patch_63">
    <path d="M 164.468481 273.312 
L 166.086742 273.312 
L 166.086742 211.020723 
L 164.468481 211.020723 
z
" clip-path="url(#p04a7cf775a)" style="fill: #1f77b4"/>
   </g>
   <g id="patch_64">
    <path d="M 166.086742 273.312 
L 167.705003 273.312 
L 167.705003 193.310458 
L 166.086742 193.310458 
z
" clip-path="url(#p04a7cf775a)" style="fill: #1f77b4"/>
   </g>
   <g id="patch_65">
    <path d="M 167.705003 273.312 
L 169.323264 273.312 
L 169.323264 191.478361 
L 167.705003 191.478361 
z
" clip-path="url(#p04a7cf775a)" style="fill: #1f77b4"/>
   </g>
   <g id="patch_66">
    <path d="M 169.323264 273.312 
L 170.941525 273.312 
L 170.941525 205.524434 
L 169.323264 205.524434 
z
" clip-path="url(#p04a7cf775a)" style="fill: #1f77b4"/>
   </g>
   <g id="patch_67">
    <path d="M 170.941525 273.312 
L 172.559786 273.312 
L 172.559786 201.860241 
L 170.941525 201.860241 
z
" clip-path="url(#p04a7cf775a)" style="fill: #1f77b4"/>
   </g>
   <g id="patch_68">
    <path d="M 172.559786 273.312 
L 174.178047 273.312 
L 174.178047 200.028145 
L 172.559786 200.028145 
z
" clip-path="url(#p04a7cf775a)" style="fill: #1f77b4"/>
   </g>
   <g id="patch_69">
    <path d="M 174.178047 273.312 
L 175.796308 273.312 
L 175.796308 187.20347 
L 174.178047 187.20347 
z
" clip-path="url(#p04a7cf775a)" style="fill: #1f77b4"/>
   </g>
   <g id="patch_70">
    <path d="M 175.796308 273.312 
L 177.414569 273.312 
L 177.414569 191.478361 
L 175.796308 191.478361 
z
" clip-path="url(#p04a7cf775a)" style="fill: #1f77b4"/>
   </g>
   <g id="patch_71">
    <path d="M 177.414569 273.312 
L 179.03283 273.312 
L 179.03283 180.485783 
L 177.414569 180.485783 
z
" clip-path="url(#p04a7cf775a)" style="fill: #1f77b4"/>
   </g>
   <g id="patch_72">
    <path d="M 179.03283 273.312 
L 180.651091 273.312 
L 180.651091 195.142554 
L 179.03283 195.142554 
z
" clip-path="url(#p04a7cf775a)" style="fill: #1f77b4"/>
   </g>
   <g id="patch_73">
    <path d="M 180.651091 273.312 
L 182.269352 273.312 
L 182.269352 176.82159 
L 180.651091 176.82159 
z
" clip-path="url(#p04a7cf775a)" style="fill: #1f77b4"/>
   </g>
   <g id="patch_74">
    <path d="M 182.269352 273.312 
L 183.887613 273.312 
L 183.887613 185.371373 
L 182.269352 185.371373 
z
" clip-path="url(#p04a7cf775a)" style="fill: #1f77b4"/>
   </g>
   <g id="patch_75">
    <path d="M 183.887613 273.312 
L 185.505874 273.312 
L 185.505874 184.149976 
L 183.887613 184.149976 
z
" clip-path="url(#p04a7cf775a)" style="fill: #1f77b4"/>
   </g>
   <g id="patch_76">
    <path d="M 185.505874 273.312 
L 187.124135 273.312 
L 187.124135 187.20347 
L 185.505874 187.20347 
z
" clip-path="url(#p04a7cf775a)" style="fill: #1f77b4"/>
   </g>
   <g id="patch_77">
    <path d="M 187.124135 273.312 
L 188.742396 273.312 
L 188.742396 185.982072 
L 187.124135 185.982072 
z
" clip-path="url(#p04a7cf775a)" style="fill: #1f77b4"/>
   </g>
   <g id="patch_78">
    <path d="M 188.742396 273.312 
L 190.360657 273.312 
L 190.360657 179.875084 
L 188.742396 179.875084 
z
" clip-path="url(#p04a7cf775a)" style="fill: #1f77b4"/>
   </g>
   <g id="patch_79">
    <path d="M 190.360657 273.312 
L 191.978918 273.312 
L 191.978918 166.439711 
L 190.360657 166.439711 
z
" clip-path="url(#p04a7cf775a)" style="fill: #1f77b4"/>
   </g>
   <g id="patch_80">
    <path d="M 191.978918 273.312 
L 193.597179 273.312 
L 193.597179 179.264386 
L 191.978918 179.264386 
z
" clip-path="url(#p04a7cf775a)" style="fill: #1f77b4"/>
   </g>
   <g id="patch_81">
    <path d="M 193.597179 273.312 
L 195.21544 273.312 
L 195.21544 168.882506 
L 193.597179 168.882506 
z
" clip-path="url(#p04a7cf775a)" style="fill: #1f77b4"/>
   </g>
   <g id="patch_82">
    <path d="M 195.21544 273.312 
L 196.833701 273.312 
L 196.833701 172.546699 
L 195.21544 172.546699 
z
" clip-path="url(#p04a7cf775a)" style="fill: #1f77b4"/>
   </g>
   <g id="patch_83">
    <path d="M 196.833701 273.312 
L 198.451962 273.312 
L 198.451962 181.707181 
L 196.833701 181.707181 
z
" clip-path="url(#p04a7cf775a)" style="fill: #1f77b4"/>
   </g>
   <g id="patch_84">
    <path d="M 198.451962 273.312 
L 200.070223 273.312 
L 200.070223 169.493205 
L 198.451962 169.493205 
z
" clip-path="url(#p04a7cf775a)" style="fill: #1f77b4"/>
   </g>
   <g id="patch_85">
    <path d="M 200.070223 273.312 
L 201.688484 273.312 
L 201.688484 171.936 
L 200.070223 171.936 
z
" clip-path="url(#p04a7cf775a)" style="fill: #1f77b4"/>
   </g>
   <g id="patch_86">
    <path d="M 201.688484 273.312 
L 203.306745 273.312 
L 203.306745 167.661108 
L 201.688484 167.661108 
z
" clip-path="url(#p04a7cf775a)" style="fill: #1f77b4"/>
   </g>
   <g id="patch_87">
    <path d="M 203.306745 273.312 
L 204.925006 273.312 
L 204.925006 165.218313 
L 203.306745 165.218313 
z
" clip-path="url(#p04a7cf775a)" style="fill: #1f77b4"/>
   </g>
   <g id="patch_88">
    <path d="M 204.925006 273.312 
L 206.543267 273.312 
L 206.543267 165.218313 
L 204.925006 165.218313 
z
" clip-path="url(#p04a7cf775a)" style="fill: #1f77b4"/>
   </g>
   <g id="patch_89">
    <path d="M 206.543267 273.312 
L 208.161528 273.312 
L 208.161528 164.607614 
L 206.543267 164.607614 
z
" clip-path="url(#p04a7cf775a)" style="fill: #1f77b4"/>
   </g>
   <g id="patch_90">
    <path d="M 208.161528 273.312 
L 209.779789 273.312 
L 209.779789 171.936 
L 208.161528 171.936 
z
" clip-path="url(#p04a7cf775a)" style="fill: #1f77b4"/>
   </g>
   <g id="patch_91">
    <path d="M 209.779789 273.312 
L 211.39805 273.312 
L 211.39805 169.493205 
L 209.779789 169.493205 
z
" clip-path="url(#p04a7cf775a)" style="fill: #1f77b4"/>
   </g>
   <g id="patch_92">
    <path d="M 211.39805 273.312 
L 213.016311 273.312 
L 213.016311 167.661108 
L 211.39805 167.661108 
z
" clip-path="url(#p04a7cf775a)" style="fill: #1f77b4"/>
   </g>
   <g id="patch_93">
    <path d="M 213.016311 273.312 
L 214.634572 273.312 
L 214.634572 150.561542 
L 213.016311 150.561542 
z
" clip-path="url(#p04a7cf775a)" style="fill: #1f77b4"/>
   </g>
   <g id="patch_94">
    <path d="M 214.634572 273.312 
L 216.252833 273.312 
L 216.252833 165.829012 
L 214.634572 165.829012 
z
" clip-path="url(#p04a7cf775a)" style="fill: #1f77b4"/>
   </g>
   <g id="patch_95">
    <path d="M 216.252833 273.312 
L 217.871094 273.312 
L 217.871094 156.66853 
L 216.252833 156.66853 
z
" clip-path="url(#p04a7cf775a)" style="fill: #1f77b4"/>
   </g>
   <g id="patch_96">
    <path d="M 217.871094 273.312 
L 219.489355 273.312 
L 219.489355 164.607614 
L 217.871094 164.607614 
z
" clip-path="url(#p04a7cf775a)" style="fill: #1f77b4"/>
   </g>
   <g id="patch_97">
    <path d="M 219.489355 273.312 
L 221.107616 273.312 
L 221.107616 171.325301 
L 219.489355 171.325301 
z
" clip-path="url(#p04a7cf775a)" style="fill: #1f77b4"/>
   </g>
   <g id="patch_98">
    <path d="M 221.107616 273.312 
L 222.725877 273.312 
L 222.725877 170.714602 
L 221.107616 170.714602 
z
" clip-path="url(#p04a7cf775a)" style="fill: #1f77b4"/>
   </g>
   <g id="patch_99">
    <path d="M 222.725877 273.312 
L 224.344138 273.312 
L 224.344138 146.897349 
L 222.725877 146.897349 
z
" clip-path="url(#p04a7cf775a)" style="fill: #1f77b4"/>
   </g>
   <g id="patch_100">
    <path d="M 224.344138 273.312 
L 225.962399 273.312 
L 225.962399 156.66853 
L 224.344138 156.66853 
z
" clip-path="url(#p04a7cf775a)" style="fill: #1f77b4"/>
   </g>
   <g id="patch_101">
    <path d="M 225.962399 273.312 
L 227.58066 273.312 
L 227.58066 150.561542 
L 225.962399 150.561542 
z
" clip-path="url(#p04a7cf775a)" style="fill: #1f77b4"/>
   </g>
   <g id="patch_102">
    <path d="M 227.58066 273.312 
L 229.198921 273.312 
L 229.198921 157.889928 
L 227.58066 157.889928 
z
" clip-path="url(#p04a7cf775a)" style="fill: #1f77b4"/>
   </g>
   <g id="patch_103">
    <path d="M 229.198921 273.312 
L 230.817182 273.312 
L 230.817182 149.950843 
L 229.198921 149.950843 
z
" clip-path="url(#p04a7cf775a)" style="fill: #1f77b4"/>
   </g>
   <g id="patch_104">
    <path d="M 230.817182 273.312 
L 232.435443 273.312 
L 232.435443 128.576386 
L 230.817182 128.576386 
z
" clip-path="url(#p04a7cf775a)" style="fill: #1f77b4"/>
   </g>
   <g id="patch_105">
    <path d="M 232.435443 273.312 
L 234.053704 273.312 
L 234.053704 145.675952 
L 232.435443 145.675952 
z
" clip-path="url(#p04a7cf775a)" style="fill: #1f77b4"/>
   </g>
   <g id="patch_106">
    <path d="M 234.053704 273.312 
L 235.671965 273.312 
L 235.671965 146.286651 
L 234.053704 146.286651 
z
" clip-path="url(#p04a7cf775a)" style="fill: #1f77b4"/>
   </g>
   <g id="patch_107">
    <path d="M 235.671965 273.312 
L 237.290226 273.312 
L 237.290226 150.561542 
L 235.671965 150.561542 
z
" clip-path="url(#p04a7cf775a)" style="fill: #1f77b4"/>
   </g>
   <g id="patch_108">
    <path d="M 237.290226 273.312 
L 238.908487 273.312 
L 238.908487 141.40106 
L 237.290226 141.40106 
z
" clip-path="url(#p04a7cf775a)" style="fill: #1f77b4"/>
   </g>
   <g id="patch_109">
    <path d="M 238.908487 273.312 
L 240.526748 273.312 
L 240.526748 135.904771 
L 238.908487 135.904771 
z
" clip-path="url(#p04a7cf775a)" style="fill: #1f77b4"/>
   </g>
   <g id="patch_110">
    <path d="M 240.526748 273.312 
L 242.145009 273.312 
L 242.145009 132.851277 
L 240.526748 132.851277 
z
" clip-path="url(#p04a7cf775a)" style="fill: #1f77b4"/>
   </g>
   <g id="patch_111">
    <path d="M 242.145009 273.312 
L 243.76327 273.312 
L 243.76327 150.561542 
L 242.145009 150.561542 
z
" clip-path="url(#p04a7cf775a)" style="fill: #1f77b4"/>
   </g>
   <g id="patch_112">
    <path d="M 243.76327 273.312 
L 245.381531 273.312 
L 245.381531 142.622458 
L 243.76327 142.622458 
z
" clip-path="url(#p04a7cf775a)" style="fill: #1f77b4"/>
   </g>
   <g id="patch_113">
    <path d="M 245.381531 273.312 
L 246.999792 273.312 
L 246.999792 135.904771 
L 245.381531 135.904771 
z
" clip-path="url(#p04a7cf775a)" style="fill: #1f77b4"/>
   </g>
   <g id="patch_114">
    <path d="M 246.999792 273.312 
L 248.618053 273.312 
L 248.618053 122.469398 
L 246.999792 122.469398 
z
" clip-path="url(#p04a7cf775a)" style="fill: #1f77b4"/>
   </g>
   <g id="patch_115">
    <path d="M 248.618053 273.312 
L 250.236314 273.312 
L 250.236314 140.179663 
L 248.618053 140.179663 
z
" clip-path="url(#p04a7cf775a)" style="fill: #1f77b4"/>
   </g>
   <g id="patch_116">
    <path d="M 250.236314 273.312 
L 251.854575 273.312 
L 251.854575 146.897349 
L 250.236314 146.897349 
z
" clip-path="url(#p04a7cf775a)" style="fill: #1f77b4"/>
   </g>
   <g id="patch_117">
    <path d="M 251.854575 273.312 
L 253.472836 273.312 
L 253.472836 142.011759 
L 251.854575 142.011759 
z
" clip-path="url(#p04a7cf775a)" style="fill: #1f77b4"/>
   </g>
   <g id="patch_118">
    <path d="M 253.472836 273.312 
L 255.091097 273.312 
L 255.091097 114.530313 
L 253.472836 114.530313 
z
" clip-path="url(#p04a7cf775a)" style="fill: #1f77b4"/>
   </g>
   <g id="patch_119">
    <path d="M 255.091097 273.312 
L 256.709358 273.312 
L 256.709358 145.675952 
L 255.091097 145.675952 
z
" clip-path="url(#p04a7cf775a)" style="fill: #1f77b4"/>
   </g>
   <g id="patch_120">
    <path d="M 256.709358 273.312 
L 258.327619 273.312 
L 258.327619 126.744289 
L 256.709358 126.744289 
z
" clip-path="url(#p04a7cf775a)" style="fill: #1f77b4"/>
   </g>
   <g id="patch_121">
    <path d="M 258.327619 273.312 
L 259.94588 273.312 
L 259.94588 123.080096 
L 258.327619 123.080096 
z
" clip-path="url(#p04a7cf775a)" style="fill: #1f77b4"/>
   </g>
   <g id="patch_122">
    <path d="M 259.94588 273.312 
L 261.564141 273.312 
L 261.564141 120.637301 
L 259.94588 120.637301 
z
" clip-path="url(#p04a7cf775a)" style="fill: #1f77b4"/>
   </g>
   <g id="patch_123">
    <path d="M 261.564141 273.312 
L 263.182402 273.312 
L 263.182402 139.568964 
L 261.564141 139.568964 
z
" clip-path="url(#p04a7cf775a)" style="fill: #1f77b4"/>
   </g>
   <g id="patch_124">
    <path d="M 263.182402 273.312 
L 264.800663 273.312 
L 264.800663 123.080096 
L 263.182402 123.080096 
z
" clip-path="url(#p04a7cf775a)" style="fill: #1f77b4"/>
   </g>
   <g id="patch_125">
    <path d="M 264.800663 273.312 
L 266.418924 273.312 
L 266.418924 123.080096 
L 264.800663 123.080096 
z
" clip-path="url(#p04a7cf775a)" style="fill: #1f77b4"/>
   </g>
   <g id="patch_126">
    <path d="M 266.418924 273.312 
L 268.037185 273.312 
L 268.037185 119.415904 
L 266.418924 119.415904 
z
" clip-path="url(#p04a7cf775a)" style="fill: #1f77b4"/>
   </g>
   <g id="patch_127">
    <path d="M 268.037185 273.312 
L 269.655446 273.312 
L 269.655446 105.369831 
L 268.037185 105.369831 
z
" clip-path="url(#p04a7cf775a)" style="fill: #1f77b4"/>
   </g>
   <g id="patch_128">
    <path d="M 269.655446 273.312 
L 271.273707 273.312 
L 271.273707 107.812627 
L 269.655446 107.812627 
z
" clip-path="url(#p04a7cf775a)" style="fill: #1f77b4"/>
   </g>
   <g id="patch_129">
    <path d="M 271.273707 273.312 
L 272.891968 273.312 
L 272.891968 118.194506 
L 271.273707 118.194506 
z
" clip-path="url(#p04a7cf775a)" style="fill: #1f77b4"/>
   </g>
   <g id="patch_130">
    <path d="M 272.891968 273.312 
L 274.510229 273.312 
L 274.510229 126.13359 
L 272.891968 126.13359 
z
" clip-path="url(#p04a7cf775a)" style="fill: #1f77b4"/>
   </g>
   <g id="patch_131">
    <path d="M 274.510229 273.312 
L 276.12849 273.312 
L 276.12849 115.141012 
L 274.510229 115.141012 
z
" clip-path="url(#p04a7cf775a)" style="fill: #1f77b4"/>
   </g>
   <g id="patch_132">
    <path d="M 276.12849 273.312 
L 277.746751 273.312 
L 277.746751 131.62988 
L 276.12849 131.62988 
z
" clip-path="url(#p04a7cf775a)" style="fill: #1f77b4"/>
   </g>
   <g id="patch_133">
    <path d="M 277.746751 273.312 
L 279.365012 273.312 
L 279.365012 121.858699 
L 277.746751 121.858699 
z
" clip-path="url(#p04a7cf775a)" style="fill: #1f77b4"/>
   </g>
   <g id="patch_134">
    <path d="M 279.365012 273.312 
L 280.983273 273.312 
L 280.983273 124.912193 
L 279.365012 124.912193 
z
" clip-path="url(#p04a7cf775a)" style="fill: #1f77b4"/>
   </g>
   <g id="patch_135">
    <path d="M 280.983273 273.312 
L 282.601534 273.312 
L 282.601534 102.316337 
L 280.983273 102.316337 
z
" clip-path="url(#p04a7cf775a)" style="fill: #1f77b4"/>
   </g>
   <g id="patch_136">
    <path d="M 282.601534 273.312 
L 284.219795 273.312 
L 284.219795 113.919614 
L 282.601534 113.919614 
z
" clip-path="url(#p04a7cf775a)" style="fill: #1f77b4"/>
   </g>
   <g id="patch_137">
    <path d="M 284.219795 273.312 
L 285.838056 273.312 
L 285.838056 107.201928 
L 284.219795 107.201928 
z
" clip-path="url(#p04a7cf775a)" style="fill: #1f77b4"/>
   </g>
   <g id="patch_138">
    <path d="M 285.838056 273.312 
L 287.456317 273.312 
L 287.456317 108.423325 
L 285.838056 108.423325 
z
" clip-path="url(#p04a7cf775a)" style="fill: #1f77b4"/>
   </g>
   <g id="patch_139">
    <path d="M 287.456317 273.312 
L 289.074578 273.312 
L 289.074578 98.652145 
L 287.456317 98.652145 
z
" clip-path="url(#p04a7cf775a)" style="fill: #1f77b4"/>
   </g>
   <g id="patch_140">
    <path d="M 289.074578 273.312 
L 290.692839 273.312 
L 290.692839 113.308916 
L 289.074578 113.308916 
z
" clip-path="url(#p04a7cf775a)" style="fill: #1f77b4"/>
   </g>
   <g id="patch_141">
    <path d="M 290.692839 273.312 
L 292.3111 273.312 
L 292.3111 98.652145 
L 290.692839 98.652145 
z
" clip-path="url(#p04a7cf775a)" style="fill: #1f77b4"/>
   </g>
   <g id="patch_142">
    <path d="M 292.3111 273.312 
L 293.929361 273.312 
L 293.929361 110.255422 
L 292.3111 110.255422 
z
" clip-path="url(#p04a7cf775a)" style="fill: #1f77b4"/>
   </g>
   <g id="patch_143">
    <path d="M 293.929361 273.312 
L 295.547622 273.312 
L 295.547622 105.98053 
L 293.929361 105.98053 
z
" clip-path="url(#p04a7cf775a)" style="fill: #1f77b4"/>
   </g>
   <g id="patch_144">
    <path d="M 295.547622 273.312 
L 297.165883 273.312 
L 297.165883 96.209349 
L 295.547622 96.209349 
z
" clip-path="url(#p04a7cf775a)" style="fill: #1f77b4"/>
   </g>
   <g id="patch_145">
    <path d="M 297.165883 273.312 
L 298.784144 273.312 
L 298.784144 105.369831 
L 297.165883 105.369831 
z
" clip-path="url(#p04a7cf775a)" style="fill: #1f77b4"/>
   </g>
   <g id="patch_146">
    <path d="M 298.784144 273.312 
L 300.402405 273.312 
L 300.402405 90.102361 
L 298.784144 90.102361 
z
" clip-path="url(#p04a7cf775a)" style="fill: #1f77b4"/>
   </g>
   <g id="patch_147">
    <path d="M 300.402405 273.312 
L 302.020666 273.312 
L 302.020666 83.384675 
L 300.402405 83.384675 
z
" clip-path="url(#p04a7cf775a)" style="fill: #1f77b4"/>
   </g>
   <g id="patch_148">
    <path d="M 302.020666 273.312 
L 303.638927 273.312 
L 303.638927 104.148434 
L 302.020666 104.148434 
z
" clip-path="url(#p04a7cf775a)" style="fill: #1f77b4"/>
   </g>
   <g id="patch_149">
    <path d="M 303.638927 273.312 
L 305.257188 273.312 
L 305.257188 100.484241 
L 303.638927 100.484241 
z
" clip-path="url(#p04a7cf775a)" style="fill: #1f77b4"/>
   </g>
   <g id="patch_150">
    <path d="M 305.257188 273.312 
L 306.875449 273.312 
L 306.875449 104.759133 
L 305.257188 104.759133 
z
" clip-path="url(#p04a7cf775a)" style="fill: #1f77b4"/>
   </g>
   <g id="patch_151">
    <path d="M 306.875449 273.312 
L 308.49371 273.312 
L 308.49371 85.82747 
L 306.875449 85.82747 
z
" clip-path="url(#p04a7cf775a)" style="fill: #1f77b4"/>
   </g>
   <g id="patch_152">
    <path d="M 308.49371 273.312 
L 310.111971 273.312 
L 310.111971 107.201928 
L 308.49371 107.201928 
z
" clip-path="url(#p04a7cf775a)" style="fill: #1f77b4"/>
   </g>
   <g id="patch_153">
    <path d="M 310.111971 273.312 
L 311.730232 273.312 
L 311.730232 97.430747 
L 310.111971 97.430747 
z
" clip-path="url(#p04a7cf775a)" style="fill: #1f77b4"/>
   </g>
   <g id="patch_154">
    <path d="M 311.730232 273.312 
L 313.348493 273.312 
L 313.348493 93.155855 
L 311.730232 93.155855 
z
" clip-path="url(#p04a7cf775a)" style="fill: #1f77b4"/>
   </g>
   <g id="patch_155">
    <path d="M 313.348493 273.312 
L 314.966754 273.312 
L 314.966754 97.430747 
L 313.348493 97.430747 
z
" clip-path="url(#p04a7cf775a)" style="fill: #1f77b4"/>
   </g>
   <g id="patch_156">
    <path d="M 314.966754 273.312 
L 316.585015 273.312 
L 316.585015 68.727904 
L 314.966754 68.727904 
z
" clip-path="url(#p04a7cf775a)" style="fill: #1f77b4"/>
   </g>
   <g id="patch_157">
    <path d="M 316.585015 273.312 
L 318.203276 273.312 
L 318.203276 101.09494 
L 316.585015 101.09494 
z
" clip-path="url(#p04a7cf775a)" style="fill: #1f77b4"/>
   </g>
   <g id="patch_158">
    <path d="M 318.203276 273.312 
L 319.821537 273.312 
L 319.821537 98.041446 
L 318.203276 98.041446 
z
" clip-path="url(#p04a7cf775a)" style="fill: #1f77b4"/>
   </g>
   <g id="patch_159">
    <path d="M 319.821537 273.312 
L 321.439798 273.312 
L 321.439798 67.506506 
L 319.821537 67.506506 
z
" clip-path="url(#p04a7cf775a)" style="fill: #1f77b4"/>
   </g>
   <g id="patch_160">
    <path d="M 321.439798 273.312 
L 323.058059 273.312 
L 323.058059 73.002795 
L 321.439798 73.002795 
z
" clip-path="url(#p04a7cf775a)" style="fill: #1f77b4"/>
   </g>
   <g id="patch_161">
    <path d="M 323.058059 273.312 
L 324.67632 273.312 
L 324.67632 60.17812 
L 323.058059 60.17812 
z
" clip-path="url(#p04a7cf775a)" style="fill: #1f77b4"/>
   </g>
   <g id="patch_162">
    <path d="M 324.67632 273.312 
L 326.294581 273.312 
L 326.294581 71.170699 
L 324.67632 71.170699 
z
" clip-path="url(#p04a7cf775a)" style="fill: #1f77b4"/>
   </g>
   <g id="patch_163">
    <path d="M 326.294581 273.312 
L 327.912842 273.312 
L 327.912842 84.606072 
L 326.294581 84.606072 
z
" clip-path="url(#p04a7cf775a)" style="fill: #1f77b4"/>
   </g>
   <g id="patch_164">
    <path d="M 327.912842 273.312 
L 329.531103 273.312 
L 329.531103 46.132048 
L 327.912842 46.132048 
z
" clip-path="url(#p04a7cf775a)" style="fill: #1f77b4"/>
   </g>
   <g id="patch_165">
    <path d="M 329.531103 273.312 
L 331.149364 273.312 
L 331.149364 76.666988 
L 329.531103 76.666988 
z
" clip-path="url(#p04a7cf775a)" style="fill: #1f77b4"/>
   </g>
   <g id="patch_166">
    <path d="M 331.149364 273.312 
L 332.767625 273.312 
L 332.767625 68.727904 
L 331.149364 68.727904 
z
" clip-path="url(#p04a7cf775a)" style="fill: #1f77b4"/>
   </g>
   <g id="patch_167">
    <path d="M 332.767625 273.312 
L 334.385886 273.312 
L 334.385886 74.224193 
L 332.767625 74.224193 
z
" clip-path="url(#p04a7cf775a)" style="fill: #1f77b4"/>
   </g>
   <g id="patch_168">
    <path d="M 334.385886 273.312 
L 336.004147 273.312 
L 336.004147 83.995373 
L 334.385886 83.995373 
z
" clip-path="url(#p04a7cf775a)" style="fill: #1f77b4"/>
   </g>
   <g id="patch_169">
    <path d="M 336.004147 273.312 
L 337.622408 273.312 
L 337.622408 66.285108 
L 336.004147 66.285108 
z
" clip-path="url(#p04a7cf775a)" style="fill: #1f77b4"/>
   </g>
   <g id="patch_170">
    <path d="M 337.622408 273.312 
L 339.240669 273.312 
L 339.240669 85.82747 
L 337.622408 85.82747 
z
" clip-path="url(#p04a7cf775a)" style="fill: #1f77b4"/>
   </g>
   <g id="patch_171">
    <path d="M 339.240669 273.312 
L 340.85893 273.312 
L 340.85893 75.44559 
L 339.240669 75.44559 
z
" clip-path="url(#p04a7cf775a)" style="fill: #1f77b4"/>
   </g>
   <g id="patch_172">
    <path d="M 340.85893 273.312 
L 342.477191 273.312 
L 342.477191 65.67441 
L 340.85893 65.67441 
z
" clip-path="url(#p04a7cf775a)" style="fill: #1f77b4"/>
   </g>
   <g id="patch_173">
    <path d="M 342.477191 273.312 
L 344.095452 273.312 
L 344.095452 66.895807 
L 342.477191 66.895807 
z
" clip-path="url(#p04a7cf775a)" style="fill: #1f77b4"/>
   </g>
   <g id="patch_174">
    <path d="M 344.095452 273.312 
L 345.713713 273.312 
L 345.713713 79.720482 
L 344.095452 79.720482 
z
" clip-path="url(#p04a7cf775a)" style="fill: #1f77b4"/>
   </g>
   <g id="patch_175">
    <path d="M 345.713713 273.312 
L 347.331974 273.312 
L 347.331974 71.170699 
L 345.713713 71.170699 
z
" clip-path="url(#p04a7cf775a)" style="fill: #1f77b4"/>
   </g>
   <g id="patch_176">
    <path d="M 347.331974 273.312 
L 348.950235 273.312 
L 348.950235 54.681831 
L 347.331974 54.681831 
z
" clip-path="url(#p04a7cf775a)" style="fill: #1f77b4"/>
   </g>
   <g id="patch_177">
    <path d="M 348.950235 273.312 
L 350.568496 273.312 
L 350.568496 51.017639 
L 348.950235 51.017639 
z
" clip-path="url(#p04a7cf775a)" style="fill: #1f77b4"/>
   </g>
   <g id="patch_178">
    <path d="M 350.568496 273.312 
L 352.186757 273.312 
L 352.186757 47.964145 
L 350.568496 47.964145 
z
" clip-path="url(#p04a7cf775a)" style="fill: #1f77b4"/>
   </g>
   <g id="patch_179">
    <path d="M 352.186757 273.312 
L 353.805018 273.312 
L 353.805018 68.117205 
L 352.186757 68.117205 
z
" clip-path="url(#p04a7cf775a)" style="fill: #1f77b4"/>
   </g>
   <g id="patch_180">
    <path d="M 353.805018 273.312 
L 355.423279 273.312 
L 355.423279 79.109783 
L 353.805018 79.109783 
z
" clip-path="url(#p04a7cf775a)" style="fill: #1f77b4"/>
   </g>
   <g id="patch_181">
    <path d="M 355.423279 273.312 
L 357.04154 273.312 
L 357.04154 57.735325 
L 355.423279 57.735325 
z
" clip-path="url(#p04a7cf775a)" style="fill: #1f77b4"/>
   </g>
   <g id="patch_182">
    <path d="M 357.04154 273.312 
L 358.659801 273.312 
L 358.659801 55.903229 
L 357.04154 55.903229 
z
" clip-path="url(#p04a7cf775a)" style="fill: #1f77b4"/>
   </g>
   <g id="patch_183">
    <path d="M 358.659801 273.312 
L 360.278062 273.312 
L 360.278062 49.185542 
L 358.659801 49.185542 
z
" clip-path="url(#p04a7cf775a)" style="fill: #1f77b4"/>
   </g>
   <g id="patch_184">
    <path d="M 360.278062 273.312 
L 361.896323 273.312 
L 361.896323 53.460434 
L 360.278062 53.460434 
z
" clip-path="url(#p04a7cf775a)" style="fill: #1f77b4"/>
   </g>
   <g id="patch_185">
    <path d="M 361.896323 273.312 
L 363.514584 273.312 
L 363.514584 44.910651 
L 361.896323 44.910651 
z
" clip-path="url(#p04a7cf775a)" style="fill: #1f77b4"/>
   </g>
   <g id="patch_186">
    <path d="M 363.514584 273.312 
L 365.132845 273.312 
L 365.132845 32.696675 
L 363.514584 32.696675 
z
" clip-path="url(#p04a7cf775a)" style="fill: #1f77b4"/>
   </g>
   <g id="patch_187">
    <path d="M 365.132845 273.312 
L 366.751106 273.312 
L 366.751106 43.078554 
L 365.132845 43.078554 
z
" clip-path="url(#p04a7cf775a)" style="fill: #1f77b4"/>
   </g>
   <g id="patch_188">
    <path d="M 366.751106 273.312 
L 368.369367 273.312 
L 368.369367 71.781398 
L 366.751106 71.781398 
z
" clip-path="url(#p04a7cf775a)" style="fill: #1f77b4"/>
   </g>
   <g id="patch_189">
    <path d="M 368.369367 273.312 
L 369.987628 273.312 
L 369.987628 29.643181 
L 368.369367 29.643181 
z
" clip-path="url(#p04a7cf775a)" style="fill: #1f77b4"/>
   </g>
   <g id="patch_190">
    <path d="M 369.987628 273.312 
L 371.605889 273.312 
L 371.605889 41.246458 
L 369.987628 41.246458 
z
" clip-path="url(#p04a7cf775a)" style="fill: #1f77b4"/>
   </g>
   <g id="patch_191">
    <path d="M 371.605889 273.312 
L 373.224149 273.312 
L 373.224149 59.567422 
L 371.605889 59.567422 
z
" clip-path="url(#p04a7cf775a)" style="fill: #1f77b4"/>
   </g>
   <g id="patch_192">
    <path d="M 373.224149 273.312 
L 374.84241 273.312 
L 374.84241 53.460434 
L 373.224149 53.460434 
z
" clip-path="url(#p04a7cf775a)" style="fill: #1f77b4"/>
   </g>
   <g id="patch_193">
    <path d="M 374.84241 273.312 
L 376.460671 273.312 
L 376.460671 24.75759 
L 374.84241 24.75759 
z
" clip-path="url(#p04a7cf775a)" style="fill: #1f77b4"/>
   </g>
   <g id="patch_194">
    <path d="M 376.460671 273.312 
L 378.078932 273.312 
L 378.078932 42.467855 
L 376.460671 42.467855 
z
" clip-path="url(#p04a7cf775a)" style="fill: #1f77b4"/>
   </g>
   <g id="patch_195">
    <path d="M 378.078932 273.312 
L 379.697193 273.312 
L 379.697193 38.192964 
L 378.078932 38.192964 
z
" clip-path="url(#p04a7cf775a)" style="fill: #1f77b4"/>
   </g>
   <g id="patch_196">
    <path d="M 379.697193 273.312 
L 381.315454 273.312 
L 381.315454 19.872 
L 379.697193 19.872 
z
" clip-path="url(#p04a7cf775a)" style="fill: #1f77b4"/>
   </g>
   <g id="patch_197">
    <path d="M 381.315454 273.312 
L 382.933715 273.312 
L 382.933715 29.643181 
L 381.315454 29.643181 
z
" clip-path="url(#p04a7cf775a)" style="fill: #1f77b4"/>
   </g>
   <g id="patch_198">
    <path d="M 382.933715 273.312 
L 384.551976 273.312 
L 384.551976 49.796241 
L 382.933715 49.796241 
z
" clip-path="url(#p04a7cf775a)" style="fill: #1f77b4"/>
   </g>
   <g id="patch_199">
    <path d="M 384.551976 273.312 
L 386.170237 273.312 
L 386.170237 27.200386 
L 384.551976 27.200386 
z
" clip-path="url(#p04a7cf775a)" style="fill: #1f77b4"/>
   </g>
   <g id="patch_200">
    <path d="M 386.170237 273.312 
L 387.788498 273.312 
L 387.788498 44.910651 
L 386.170237 44.910651 
z
" clip-path="url(#p04a7cf775a)" style="fill: #1f77b4"/>
   </g>
   <g id="patch_201">
    <path d="M 387.788498 273.312 
L 389.406759 273.312 
L 389.406759 21.093398 
L 387.788498 21.093398 
z
" clip-path="url(#p04a7cf775a)" style="fill: #1f77b4"/>
   </g>
   <g id="patch_202">
    <path d="M 389.406759 273.312 
L 391.02502 273.312 
L 391.02502 31.475277 
L 389.406759 31.475277 
z
" clip-path="url(#p04a7cf775a)" style="fill: #1f77b4"/>
   </g>
   <g id="matplotlib.axis_1">
    <g id="xtick_1">
     <g id="line2d_1">
      <defs>
       <path id="mb5ef33ae7f" d="M 0 0 
L 0 3.5 
" style="stroke: #000000; stroke-width: 0.8"/>
      </defs>
      <g>
       <use xlink:href="#mb5ef33ae7f" x="66.376477" y="273.312" style="stroke: #000000; stroke-width: 0.8"/>
      </g>
     </g>
     <g id="text_1">
      <!-- 0.0 -->
      <g transform="translate(58.424915 287.910437)scale(0.1 -0.1)">
       <defs>
        <path id="DejaVuSans-30" d="M 2034 4250 
Q 1547 4250 1301 3770 
Q 1056 3291 1056 2328 
Q 1056 1369 1301 889 
Q 1547 409 2034 409 
Q 2525 409 2770 889 
Q 3016 1369 3016 2328 
Q 3016 3291 2770 3770 
Q 2525 4250 2034 4250 
z
M 2034 4750 
Q 2819 4750 3233 4129 
Q 3647 3509 3647 2328 
Q 3647 1150 3233 529 
Q 2819 -91 2034 -91 
Q 1250 -91 836 529 
Q 422 1150 422 2328 
Q 422 3509 836 4129 
Q 1250 4750 2034 4750 
z
" transform="scale(0.015625)"/>
        <path id="DejaVuSans-2e" d="M 684 794 
L 1344 794 
L 1344 0 
L 684 0 
L 684 794 
z
" transform="scale(0.015625)"/>
       </defs>
       <use xlink:href="#DejaVuSans-30"/>
       <use xlink:href="#DejaVuSans-2e" x="63.623047"/>
       <use xlink:href="#DejaVuSans-30" x="95.410156"/>
      </g>
     </g>
    </g>
    <g id="xtick_2">
     <g id="line2d_2">
      <g>
       <use xlink:href="#mb5ef33ae7f" x="131.307386" y="273.312" style="stroke: #000000; stroke-width: 0.8"/>
      </g>
     </g>
     <g id="text_2">
      <!-- 0.2 -->
      <g transform="translate(123.355824 287.910437)scale(0.1 -0.1)">
       <defs>
        <path id="DejaVuSans-32" d="M 1228 531 
L 3431 531 
L 3431 0 
L 469 0 
L 469 531 
Q 828 903 1448 1529 
Q 2069 2156 2228 2338 
Q 2531 2678 2651 2914 
Q 2772 3150 2772 3378 
Q 2772 3750 2511 3984 
Q 2250 4219 1831 4219 
Q 1534 4219 1204 4116 
Q 875 4013 500 3803 
L 500 4441 
Q 881 4594 1212 4672 
Q 1544 4750 1819 4750 
Q 2544 4750 2975 4387 
Q 3406 4025 3406 3419 
Q 3406 3131 3298 2873 
Q 3191 2616 2906 2266 
Q 2828 2175 2409 1742 
Q 1991 1309 1228 531 
z
" transform="scale(0.015625)"/>
       </defs>
       <use xlink:href="#DejaVuSans-30"/>
       <use xlink:href="#DejaVuSans-2e" x="63.623047"/>
       <use xlink:href="#DejaVuSans-32" x="95.410156"/>
      </g>
     </g>
    </g>
    <g id="xtick_3">
     <g id="line2d_3">
      <g>
       <use xlink:href="#mb5ef33ae7f" x="196.238295" y="273.312" style="stroke: #000000; stroke-width: 0.8"/>
      </g>
     </g>
     <g id="text_3">
      <!-- 0.4 -->
      <g transform="translate(188.286733 287.910437)scale(0.1 -0.1)">
       <defs>
        <path id="DejaVuSans-34" d="M 2419 4116 
L 825 1625 
L 2419 1625 
L 2419 4116 
z
M 2253 4666 
L 3047 4666 
L 3047 1625 
L 3713 1625 
L 3713 1100 
L 3047 1100 
L 3047 0 
L 2419 0 
L 2419 1100 
L 313 1100 
L 313 1709 
L 2253 4666 
z
" transform="scale(0.015625)"/>
       </defs>
       <use xlink:href="#DejaVuSans-30"/>
       <use xlink:href="#DejaVuSans-2e" x="63.623047"/>
       <use xlink:href="#DejaVuSans-34" x="95.410156"/>
      </g>
     </g>
    </g>
    <g id="xtick_4">
     <g id="line2d_4">
      <g>
       <use xlink:href="#mb5ef33ae7f" x="261.169205" y="273.312" style="stroke: #000000; stroke-width: 0.8"/>
      </g>
     </g>
     <g id="text_4">
      <!-- 0.6 -->
      <g transform="translate(253.217642 287.910437)scale(0.1 -0.1)">
       <defs>
        <path id="DejaVuSans-36" d="M 2113 2584 
Q 1688 2584 1439 2293 
Q 1191 2003 1191 1497 
Q 1191 994 1439 701 
Q 1688 409 2113 409 
Q 2538 409 2786 701 
Q 3034 994 3034 1497 
Q 3034 2003 2786 2293 
Q 2538 2584 2113 2584 
z
M 3366 4563 
L 3366 3988 
Q 3128 4100 2886 4159 
Q 2644 4219 2406 4219 
Q 1781 4219 1451 3797 
Q 1122 3375 1075 2522 
Q 1259 2794 1537 2939 
Q 1816 3084 2150 3084 
Q 2853 3084 3261 2657 
Q 3669 2231 3669 1497 
Q 3669 778 3244 343 
Q 2819 -91 2113 -91 
Q 1303 -91 875 529 
Q 447 1150 447 2328 
Q 447 3434 972 4092 
Q 1497 4750 2381 4750 
Q 2619 4750 2861 4703 
Q 3103 4656 3366 4563 
z
" transform="scale(0.015625)"/>
       </defs>
       <use xlink:href="#DejaVuSans-30"/>
       <use xlink:href="#DejaVuSans-2e" x="63.623047"/>
       <use xlink:href="#DejaVuSans-36" x="95.410156"/>
      </g>
     </g>
    </g>
    <g id="xtick_5">
     <g id="line2d_5">
      <g>
       <use xlink:href="#mb5ef33ae7f" x="326.100114" y="273.312" style="stroke: #000000; stroke-width: 0.8"/>
      </g>
     </g>
     <g id="text_5">
      <!-- 0.8 -->
      <g transform="translate(318.148551 287.910437)scale(0.1 -0.1)">
       <defs>
        <path id="DejaVuSans-38" d="M 2034 2216 
Q 1584 2216 1326 1975 
Q 1069 1734 1069 1313 
Q 1069 891 1326 650 
Q 1584 409 2034 409 
Q 2484 409 2743 651 
Q 3003 894 3003 1313 
Q 3003 1734 2745 1975 
Q 2488 2216 2034 2216 
z
M 1403 2484 
Q 997 2584 770 2862 
Q 544 3141 544 3541 
Q 544 4100 942 4425 
Q 1341 4750 2034 4750 
Q 2731 4750 3128 4425 
Q 3525 4100 3525 3541 
Q 3525 3141 3298 2862 
Q 3072 2584 2669 2484 
Q 3125 2378 3379 2068 
Q 3634 1759 3634 1313 
Q 3634 634 3220 271 
Q 2806 -91 2034 -91 
Q 1263 -91 848 271 
Q 434 634 434 1313 
Q 434 1759 690 2068 
Q 947 2378 1403 2484 
z
M 1172 3481 
Q 1172 3119 1398 2916 
Q 1625 2713 2034 2713 
Q 2441 2713 2670 2916 
Q 2900 3119 2900 3481 
Q 2900 3844 2670 4047 
Q 2441 4250 2034 4250 
Q 1625 4250 1398 4047 
Q 1172 3844 1172 3481 
z
" transform="scale(0.015625)"/>
       </defs>
       <use xlink:href="#DejaVuSans-30"/>
       <use xlink:href="#DejaVuSans-2e" x="63.623047"/>
       <use xlink:href="#DejaVuSans-38" x="95.410156"/>
      </g>
     </g>
    </g>
    <g id="xtick_6">
     <g id="line2d_6">
      <g>
       <use xlink:href="#mb5ef33ae7f" x="391.031023" y="273.312" style="stroke: #000000; stroke-width: 0.8"/>
      </g>
     </g>
     <g id="text_6">
      <!-- 1.0 -->
      <g transform="translate(383.07946 287.910437)scale(0.1 -0.1)">
       <defs>
        <path id="DejaVuSans-31" d="M 794 531 
L 1825 531 
L 1825 4091 
L 703 3866 
L 703 4441 
L 1819 4666 
L 2450 4666 
L 2450 531 
L 3481 531 
L 3481 0 
L 794 0 
L 794 531 
z
" transform="scale(0.015625)"/>
       </defs>
       <use xlink:href="#DejaVuSans-31"/>
       <use xlink:href="#DejaVuSans-2e" x="63.623047"/>
       <use xlink:href="#DejaVuSans-30" x="95.410156"/>
      </g>
     </g>
    </g>
    <g id="text_7">
     <!-- Propagation direction -->
     <g transform="translate(175.221719 301.588562)scale(0.1 -0.1)">
      <defs>
       <path id="DejaVuSans-50" d="M 1259 4147 
L 1259 2394 
L 2053 2394 
Q 2494 2394 2734 2622 
Q 2975 2850 2975 3272 
Q 2975 3691 2734 3919 
Q 2494 4147 2053 4147 
L 1259 4147 
z
M 628 4666 
L 2053 4666 
Q 2838 4666 3239 4311 
Q 3641 3956 3641 3272 
Q 3641 2581 3239 2228 
Q 2838 1875 2053 1875 
L 1259 1875 
L 1259 0 
L 628 0 
L 628 4666 
z
" transform="scale(0.015625)"/>
       <path id="DejaVuSans-72" d="M 2631 2963 
Q 2534 3019 2420 3045 
Q 2306 3072 2169 3072 
Q 1681 3072 1420 2755 
Q 1159 2438 1159 1844 
L 1159 0 
L 581 0 
L 581 3500 
L 1159 3500 
L 1159 2956 
Q 1341 3275 1631 3429 
Q 1922 3584 2338 3584 
Q 2397 3584 2469 3576 
Q 2541 3569 2628 3553 
L 2631 2963 
z
" transform="scale(0.015625)"/>
       <path id="DejaVuSans-6f" d="M 1959 3097 
Q 1497 3097 1228 2736 
Q 959 2375 959 1747 
Q 959 1119 1226 758 
Q 1494 397 1959 397 
Q 2419 397 2687 759 
Q 2956 1122 2956 1747 
Q 2956 2369 2687 2733 
Q 2419 3097 1959 3097 
z
M 1959 3584 
Q 2709 3584 3137 3096 
Q 3566 2609 3566 1747 
Q 3566 888 3137 398 
Q 2709 -91 1959 -91 
Q 1206 -91 779 398 
Q 353 888 353 1747 
Q 353 2609 779 3096 
Q 1206 3584 1959 3584 
z
" transform="scale(0.015625)"/>
       <path id="DejaVuSans-70" d="M 1159 525 
L 1159 -1331 
L 581 -1331 
L 581 3500 
L 1159 3500 
L 1159 2969 
Q 1341 3281 1617 3432 
Q 1894 3584 2278 3584 
Q 2916 3584 3314 3078 
Q 3713 2572 3713 1747 
Q 3713 922 3314 415 
Q 2916 -91 2278 -91 
Q 1894 -91 1617 61 
Q 1341 213 1159 525 
z
M 3116 1747 
Q 3116 2381 2855 2742 
Q 2594 3103 2138 3103 
Q 1681 3103 1420 2742 
Q 1159 2381 1159 1747 
Q 1159 1113 1420 752 
Q 1681 391 2138 391 
Q 2594 391 2855 752 
Q 3116 1113 3116 1747 
z
" transform="scale(0.015625)"/>
       <path id="DejaVuSans-61" d="M 2194 1759 
Q 1497 1759 1228 1600 
Q 959 1441 959 1056 
Q 959 750 1161 570 
Q 1363 391 1709 391 
Q 2188 391 2477 730 
Q 2766 1069 2766 1631 
L 2766 1759 
L 2194 1759 
z
M 3341 1997 
L 3341 0 
L 2766 0 
L 2766 531 
Q 2569 213 2275 61 
Q 1981 -91 1556 -91 
Q 1019 -91 701 211 
Q 384 513 384 1019 
Q 384 1609 779 1909 
Q 1175 2209 1959 2209 
L 2766 2209 
L 2766 2266 
Q 2766 2663 2505 2880 
Q 2244 3097 1772 3097 
Q 1472 3097 1187 3025 
Q 903 2953 641 2809 
L 641 3341 
Q 956 3463 1253 3523 
Q 1550 3584 1831 3584 
Q 2591 3584 2966 3190 
Q 3341 2797 3341 1997 
z
" transform="scale(0.015625)"/>
       <path id="DejaVuSans-67" d="M 2906 1791 
Q 2906 2416 2648 2759 
Q 2391 3103 1925 3103 
Q 1463 3103 1205 2759 
Q 947 2416 947 1791 
Q 947 1169 1205 825 
Q 1463 481 1925 481 
Q 2391 481 2648 825 
Q 2906 1169 2906 1791 
z
M 3481 434 
Q 3481 -459 3084 -895 
Q 2688 -1331 1869 -1331 
Q 1566 -1331 1297 -1286 
Q 1028 -1241 775 -1147 
L 775 -588 
Q 1028 -725 1275 -790 
Q 1522 -856 1778 -856 
Q 2344 -856 2625 -561 
Q 2906 -266 2906 331 
L 2906 616 
Q 2728 306 2450 153 
Q 2172 0 1784 0 
Q 1141 0 747 490 
Q 353 981 353 1791 
Q 353 2603 747 3093 
Q 1141 3584 1784 3584 
Q 2172 3584 2450 3431 
Q 2728 3278 2906 2969 
L 2906 3500 
L 3481 3500 
L 3481 434 
z
" transform="scale(0.015625)"/>
       <path id="DejaVuSans-74" d="M 1172 4494 
L 1172 3500 
L 2356 3500 
L 2356 3053 
L 1172 3053 
L 1172 1153 
Q 1172 725 1289 603 
Q 1406 481 1766 481 
L 2356 481 
L 2356 0 
L 1766 0 
Q 1100 0 847 248 
Q 594 497 594 1153 
L 594 3053 
L 172 3053 
L 172 3500 
L 594 3500 
L 594 4494 
L 1172 4494 
z
" transform="scale(0.015625)"/>
       <path id="DejaVuSans-69" d="M 603 3500 
L 1178 3500 
L 1178 0 
L 603 0 
L 603 3500 
z
M 603 4863 
L 1178 4863 
L 1178 4134 
L 603 4134 
L 603 4863 
z
" transform="scale(0.015625)"/>
       <path id="DejaVuSans-6e" d="M 3513 2113 
L 3513 0 
L 2938 0 
L 2938 2094 
Q 2938 2591 2744 2837 
Q 2550 3084 2163 3084 
Q 1697 3084 1428 2787 
Q 1159 2491 1159 1978 
L 1159 0 
L 581 0 
L 581 3500 
L 1159 3500 
L 1159 2956 
Q 1366 3272 1645 3428 
Q 1925 3584 2291 3584 
Q 2894 3584 3203 3211 
Q 3513 2838 3513 2113 
z
" transform="scale(0.015625)"/>
       <path id="DejaVuSans-20" transform="scale(0.015625)"/>
       <path id="DejaVuSans-64" d="M 2906 2969 
L 2906 4863 
L 3481 4863 
L 3481 0 
L 2906 0 
L 2906 525 
Q 2725 213 2448 61 
Q 2172 -91 1784 -91 
Q 1150 -91 751 415 
Q 353 922 353 1747 
Q 353 2572 751 3078 
Q 1150 3584 1784 3584 
Q 2172 3584 2448 3432 
Q 2725 3281 2906 2969 
z
M 947 1747 
Q 947 1113 1208 752 
Q 1469 391 1925 391 
Q 2381 391 2643 752 
Q 2906 1113 2906 1747 
Q 2906 2381 2643 2742 
Q 2381 3103 1925 3103 
Q 1469 3103 1208 2742 
Q 947 2381 947 1747 
z
" transform="scale(0.015625)"/>
       <path id="DejaVuSans-65" d="M 3597 1894 
L 3597 1613 
L 953 1613 
Q 991 1019 1311 708 
Q 1631 397 2203 397 
Q 2534 397 2845 478 
Q 3156 559 3463 722 
L 3463 178 
Q 3153 47 2828 -22 
Q 2503 -91 2169 -91 
Q 1331 -91 842 396 
Q 353 884 353 1716 
Q 353 2575 817 3079 
Q 1281 3584 2069 3584 
Q 2775 3584 3186 3129 
Q 3597 2675 3597 1894 
z
M 3022 2063 
Q 3016 2534 2758 2815 
Q 2500 3097 2075 3097 
Q 1594 3097 1305 2825 
Q 1016 2553 972 2059 
L 3022 2063 
z
" transform="scale(0.015625)"/>
       <path id="DejaVuSans-63" d="M 3122 3366 
L 3122 2828 
Q 2878 2963 2633 3030 
Q 2388 3097 2138 3097 
Q 1578 3097 1268 2742 
Q 959 2388 959 1747 
Q 959 1106 1268 751 
Q 1578 397 2138 397 
Q 2388 397 2633 464 
Q 2878 531 3122 666 
L 3122 134 
Q 2881 22 2623 -34 
Q 2366 -91 2075 -91 
Q 1284 -91 818 406 
Q 353 903 353 1747 
Q 353 2603 823 3093 
Q 1294 3584 2113 3584 
Q 2378 3584 2631 3529 
Q 2884 3475 3122 3366 
z
" transform="scale(0.015625)"/>
      </defs>
      <use xlink:href="#DejaVuSans-50"/>
      <use xlink:href="#DejaVuSans-72" x="58.552734"/>
      <use xlink:href="#DejaVuSans-6f" x="97.416016"/>
      <use xlink:href="#DejaVuSans-70" x="158.597656"/>
      <use xlink:href="#DejaVuSans-61" x="222.074219"/>
      <use xlink:href="#DejaVuSans-67" x="283.353516"/>
      <use xlink:href="#DejaVuSans-61" x="346.830078"/>
      <use xlink:href="#DejaVuSans-74" x="408.109375"/>
      <use xlink:href="#DejaVuSans-69" x="447.318359"/>
      <use xlink:href="#DejaVuSans-6f" x="475.101562"/>
      <use xlink:href="#DejaVuSans-6e" x="536.283203"/>
      <use xlink:href="#DejaVuSans-20" x="599.662109"/>
      <use xlink:href="#DejaVuSans-64" x="631.449219"/>
      <use xlink:href="#DejaVuSans-69" x="694.925781"/>
      <use xlink:href="#DejaVuSans-72" x="722.708984"/>
      <use xlink:href="#DejaVuSans-65" x="761.572266"/>
      <use xlink:href="#DejaVuSans-63" x="823.095703"/>
      <use xlink:href="#DejaVuSans-74" x="878.076172"/>
      <use xlink:href="#DejaVuSans-69" x="917.285156"/>
      <use xlink:href="#DejaVuSans-6f" x="945.068359"/>
      <use xlink:href="#DejaVuSans-6e" x="1006.25"/>
     </g>
    </g>
   </g>
   <g id="matplotlib.axis_2">
    <g id="ytick_1">
     <g id="line2d_7">
      <defs>
       <path id="m192aaea3da" d="M 0 0 
L -3.5 0 
" style="stroke: #000000; stroke-width: 0.8"/>
      </defs>
      <g>
       <use xlink:href="#m192aaea3da" x="50.14375" y="273.312" style="stroke: #000000; stroke-width: 0.8"/>
      </g>
     </g>
     <g id="text_8">
      <!-- 0.00 -->
      <g transform="translate(20.878125 277.111219)scale(0.1 -0.1)">
       <use xlink:href="#DejaVuSans-30"/>
       <use xlink:href="#DejaVuSans-2e" x="63.623047"/>
       <use xlink:href="#DejaVuSans-30" x="95.410156"/>
       <use xlink:href="#DejaVuSans-30" x="159.033203"/>
      </g>
     </g>
    </g>
    <g id="ytick_2">
     <g id="line2d_8">
      <g>
       <use xlink:href="#m192aaea3da" x="50.14375" y="242.871335" style="stroke: #000000; stroke-width: 0.8"/>
      </g>
     </g>
     <g id="text_9">
      <!-- 0.25 -->
      <g transform="translate(20.878125 246.670553)scale(0.1 -0.1)">
       <defs>
        <path id="DejaVuSans-35" d="M 691 4666 
L 3169 4666 
L 3169 4134 
L 1269 4134 
L 1269 2991 
Q 1406 3038 1543 3061 
Q 1681 3084 1819 3084 
Q 2600 3084 3056 2656 
Q 3513 2228 3513 1497 
Q 3513 744 3044 326 
Q 2575 -91 1722 -91 
Q 1428 -91 1123 -41 
Q 819 9 494 109 
L 494 744 
Q 775 591 1075 516 
Q 1375 441 1709 441 
Q 2250 441 2565 725 
Q 2881 1009 2881 1497 
Q 2881 1984 2565 2268 
Q 2250 2553 1709 2553 
Q 1456 2553 1204 2497 
Q 953 2441 691 2322 
L 691 4666 
z
" transform="scale(0.015625)"/>
       </defs>
       <use xlink:href="#DejaVuSans-30"/>
       <use xlink:href="#DejaVuSans-2e" x="63.623047"/>
       <use xlink:href="#DejaVuSans-32" x="95.410156"/>
       <use xlink:href="#DejaVuSans-35" x="159.033203"/>
      </g>
     </g>
    </g>
    <g id="ytick_3">
     <g id="line2d_9">
      <g>
       <use xlink:href="#m192aaea3da" x="50.14375" y="212.430669" style="stroke: #000000; stroke-width: 0.8"/>
      </g>
     </g>
     <g id="text_10">
      <!-- 0.50 -->
      <g transform="translate(20.878125 216.229888)scale(0.1 -0.1)">
       <use xlink:href="#DejaVuSans-30"/>
       <use xlink:href="#DejaVuSans-2e" x="63.623047"/>
       <use xlink:href="#DejaVuSans-35" x="95.410156"/>
       <use xlink:href="#DejaVuSans-30" x="159.033203"/>
      </g>
     </g>
    </g>
    <g id="ytick_4">
     <g id="line2d_10">
      <g>
       <use xlink:href="#m192aaea3da" x="50.14375" y="181.990004" style="stroke: #000000; stroke-width: 0.8"/>
      </g>
     </g>
     <g id="text_11">
      <!-- 0.75 -->
      <g transform="translate(20.878125 185.789223)scale(0.1 -0.1)">
       <defs>
        <path id="DejaVuSans-37" d="M 525 4666 
L 3525 4666 
L 3525 4397 
L 1831 0 
L 1172 0 
L 2766 4134 
L 525 4134 
L 525 4666 
z
" transform="scale(0.015625)"/>
       </defs>
       <use xlink:href="#DejaVuSans-30"/>
       <use xlink:href="#DejaVuSans-2e" x="63.623047"/>
       <use xlink:href="#DejaVuSans-37" x="95.410156"/>
       <use xlink:href="#DejaVuSans-35" x="159.033203"/>
      </g>
     </g>
    </g>
    <g id="ytick_5">
     <g id="line2d_11">
      <g>
       <use xlink:href="#m192aaea3da" x="50.14375" y="151.549338" style="stroke: #000000; stroke-width: 0.8"/>
      </g>
     </g>
     <g id="text_12">
      <!-- 1.00 -->
      <g transform="translate(20.878125 155.348557)scale(0.1 -0.1)">
       <use xlink:href="#DejaVuSans-31"/>
       <use xlink:href="#DejaVuSans-2e" x="63.623047"/>
       <use xlink:href="#DejaVuSans-30" x="95.410156"/>
       <use xlink:href="#DejaVuSans-30" x="159.033203"/>
      </g>
     </g>
    </g>
    <g id="ytick_6">
     <g id="line2d_12">
      <g>
       <use xlink:href="#m192aaea3da" x="50.14375" y="121.108673" style="stroke: #000000; stroke-width: 0.8"/>
      </g>
     </g>
     <g id="text_13">
      <!-- 1.25 -->
      <g transform="translate(20.878125 124.907892)scale(0.1 -0.1)">
       <use xlink:href="#DejaVuSans-31"/>
       <use xlink:href="#DejaVuSans-2e" x="63.623047"/>
       <use xlink:href="#DejaVuSans-32" x="95.410156"/>
       <use xlink:href="#DejaVuSans-35" x="159.033203"/>
      </g>
     </g>
    </g>
    <g id="ytick_7">
     <g id="line2d_13">
      <g>
       <use xlink:href="#m192aaea3da" x="50.14375" y="90.668008" style="stroke: #000000; stroke-width: 0.8"/>
      </g>
     </g>
     <g id="text_14">
      <!-- 1.50 -->
      <g transform="translate(20.878125 94.467226)scale(0.1 -0.1)">
       <use xlink:href="#DejaVuSans-31"/>
       <use xlink:href="#DejaVuSans-2e" x="63.623047"/>
       <use xlink:href="#DejaVuSans-35" x="95.410156"/>
       <use xlink:href="#DejaVuSans-30" x="159.033203"/>
      </g>
     </g>
    </g>
    <g id="ytick_8">
     <g id="line2d_14">
      <g>
       <use xlink:href="#m192aaea3da" x="50.14375" y="60.227342" style="stroke: #000000; stroke-width: 0.8"/>
      </g>
     </g>
     <g id="text_15">
      <!-- 1.75 -->
      <g transform="translate(20.878125 64.026561)scale(0.1 -0.1)">
       <use xlink:href="#DejaVuSans-31"/>
       <use xlink:href="#DejaVuSans-2e" x="63.623047"/>
       <use xlink:href="#DejaVuSans-37" x="95.410156"/>
       <use xlink:href="#DejaVuSans-35" x="159.033203"/>
      </g>
     </g>
    </g>
    <g id="ytick_9">
     <g id="line2d_15">
      <g>
       <use xlink:href="#m192aaea3da" x="50.14375" y="29.786677" style="stroke: #000000; stroke-width: 0.8"/>
      </g>
     </g>
     <g id="text_16">
      <!-- 2.00 -->
      <g transform="translate(20.878125 33.585896)scale(0.1 -0.1)">
       <use xlink:href="#DejaVuSans-32"/>
       <use xlink:href="#DejaVuSans-2e" x="63.623047"/>
       <use xlink:href="#DejaVuSans-30" x="95.410156"/>
       <use xlink:href="#DejaVuSans-30" x="159.033203"/>
      </g>
     </g>
    </g>
    <g id="text_17">
     <!-- Probability density -->
     <g transform="translate(14.798438 186.606781)rotate(-90)scale(0.1 -0.1)">
      <defs>
       <path id="DejaVuSans-62" d="M 3116 1747 
Q 3116 2381 2855 2742 
Q 2594 3103 2138 3103 
Q 1681 3103 1420 2742 
Q 1159 2381 1159 1747 
Q 1159 1113 1420 752 
Q 1681 391 2138 391 
Q 2594 391 2855 752 
Q 3116 1113 3116 1747 
z
M 1159 2969 
Q 1341 3281 1617 3432 
Q 1894 3584 2278 3584 
Q 2916 3584 3314 3078 
Q 3713 2572 3713 1747 
Q 3713 922 3314 415 
Q 2916 -91 2278 -91 
Q 1894 -91 1617 61 
Q 1341 213 1159 525 
L 1159 0 
L 581 0 
L 581 4863 
L 1159 4863 
L 1159 2969 
z
" transform="scale(0.015625)"/>
       <path id="DejaVuSans-6c" d="M 603 4863 
L 1178 4863 
L 1178 0 
L 603 0 
L 603 4863 
z
" transform="scale(0.015625)"/>
       <path id="DejaVuSans-79" d="M 2059 -325 
Q 1816 -950 1584 -1140 
Q 1353 -1331 966 -1331 
L 506 -1331 
L 506 -850 
L 844 -850 
Q 1081 -850 1212 -737 
Q 1344 -625 1503 -206 
L 1606 56 
L 191 3500 
L 800 3500 
L 1894 763 
L 2988 3500 
L 3597 3500 
L 2059 -325 
z
" transform="scale(0.015625)"/>
       <path id="DejaVuSans-73" d="M 2834 3397 
L 2834 2853 
Q 2591 2978 2328 3040 
Q 2066 3103 1784 3103 
Q 1356 3103 1142 2972 
Q 928 2841 928 2578 
Q 928 2378 1081 2264 
Q 1234 2150 1697 2047 
L 1894 2003 
Q 2506 1872 2764 1633 
Q 3022 1394 3022 966 
Q 3022 478 2636 193 
Q 2250 -91 1575 -91 
Q 1294 -91 989 -36 
Q 684 19 347 128 
L 347 722 
Q 666 556 975 473 
Q 1284 391 1588 391 
Q 1994 391 2212 530 
Q 2431 669 2431 922 
Q 2431 1156 2273 1281 
Q 2116 1406 1581 1522 
L 1381 1569 
Q 847 1681 609 1914 
Q 372 2147 372 2553 
Q 372 3047 722 3315 
Q 1072 3584 1716 3584 
Q 2034 3584 2315 3537 
Q 2597 3491 2834 3397 
z
" transform="scale(0.015625)"/>
      </defs>
      <use xlink:href="#DejaVuSans-50"/>
      <use xlink:href="#DejaVuSans-72" x="58.552734"/>
      <use xlink:href="#DejaVuSans-6f" x="97.416016"/>
      <use xlink:href="#DejaVuSans-62" x="158.597656"/>
      <use xlink:href="#DejaVuSans-61" x="222.074219"/>
      <use xlink:href="#DejaVuSans-62" x="283.353516"/>
      <use xlink:href="#DejaVuSans-69" x="346.830078"/>
      <use xlink:href="#DejaVuSans-6c" x="374.613281"/>
      <use xlink:href="#DejaVuSans-69" x="402.396484"/>
      <use xlink:href="#DejaVuSans-74" x="430.179688"/>
      <use xlink:href="#DejaVuSans-79" x="469.388672"/>
      <use xlink:href="#DejaVuSans-20" x="528.568359"/>
      <use xlink:href="#DejaVuSans-64" x="560.355469"/>
      <use xlink:href="#DejaVuSans-65" x="623.832031"/>
      <use xlink:href="#DejaVuSans-6e" x="685.355469"/>
      <use xlink:href="#DejaVuSans-73" x="748.734375"/>
      <use xlink:href="#DejaVuSans-69" x="800.833984"/>
      <use xlink:href="#DejaVuSans-74" x="828.617188"/>
      <use xlink:href="#DejaVuSans-79" x="867.826172"/>
     </g>
    </g>
   </g>
   <g id="line2d_16">
    <path d="M 66.376477 273.312 
L 391.031023 29.786677 
L 391.031023 29.786677 
" clip-path="url(#p04a7cf775a)" style="fill: none; stroke: #ff7f0e; stroke-width: 1.5; stroke-linecap: square"/>
   </g>
   <g id="patch_203">
    <path d="M 50.14375 273.312 
L 50.14375 7.2 
" style="fill: none; stroke: #000000; stroke-width: 0.8; stroke-linejoin: miter; stroke-linecap: square"/>
   </g>
   <g id="patch_204">
    <path d="M 407.26375 273.312 
L 407.26375 7.2 
" style="fill: none; stroke: #000000; stroke-width: 0.8; stroke-linejoin: miter; stroke-linecap: square"/>
   </g>
   <g id="patch_205">
    <path d="M 50.14375 273.312 
L 407.26375 273.312 
" style="fill: none; stroke: #000000; stroke-width: 0.8; stroke-linejoin: miter; stroke-linecap: square"/>
   </g>
   <g id="patch_206">
    <path d="M 50.14375 7.2 
L 407.26375 7.2 
" style="fill: none; stroke: #000000; stroke-width: 0.8; stroke-linejoin: miter; stroke-linecap: square"/>
   </g>
  </g>
 </g>
 <defs>
  <clipPath id="p04a7cf775a">
   <rect x="50.14375" y="7.2" width="357.12" height="266.112"/>
  </clipPath>
 </defs>
</svg>
