<?xml version="1.0" encoding="utf-8" standalone="no"?>
<!DOCTYPE svg PUBLIC "-//W3C//DTD SVG 1.1//EN"
  "http://www.w3.org/Graphics/SVG/1.1/DTD/svg11.dtd">
<svg xmlns:xlink="http://www.w3.org/1999/xlink" width="408.10125pt" height="310.86825pt" viewBox="0 0 408.10125 310.86825" xmlns="http://www.w3.org/2000/svg" version="1.1">
 <metadata>
  <rdf:RDF xmlns:dc="http://purl.org/dc/elements/1.1/" xmlns:cc="http://creativecommons.org/ns#" xmlns:rdf="http://www.w3.org/1999/02/22-rdf-syntax-ns#">
   <cc:Work>
    <dc:type rdf:resource="http://purl.org/dc/dcmitype/StillImage"/>
    <dc:date>2022-05-31T14:12:45.180120</dc:date>
    <dc:format>image/svg+xml</dc:format>
    <dc:creator>
     <cc:Agent>
      <dc:title>Matplotlib v3.5.2, https://matplotlib.org/</dc:title>
     </cc:Agent>
    </dc:creator>
   </cc:Work>
  </rdf:RDF>
 </metadata>
 <defs>
  <style type="text/css">*{stroke-linejoin: round; stroke-linecap: butt}</style>
 </defs>
 <g id="figure_1">
  <g id="patch_1">
   <path d="M 0 310.86825 
L 408.10125 310.86825 
L 408.10125 0 
L 0 0 
z
" style="fill: #ffffff"/>
  </g>
  <g id="axes_1">
   <g id="patch_2">
    <path d="M 43.78125 273.312 
L 400.90125 273.312 
L 400.90125 7.2 
L 43.78125 7.2 
z
" style="fill: #ffffff"/>
   </g>
   <g id="patch_3">
    <path d="M 60.84353 273.312 
L 62.460966 273.312 
L 62.460966 268.078726 
L 60.84353 268.078726 
z
" clip-path="url(#p030c59876c)" style="fill: #1f77b4"/>
   </g>
   <g id="patch_4">
    <path d="M 62.460966 273.312 
L 64.078402 273.312 
L 64.078402 263.593062 
L 62.460966 263.593062 
z
" clip-path="url(#p030c59876c)" style="fill: #1f77b4"/>
   </g>
   <g id="patch_5">
    <path d="M 64.078402 273.312 
L 65.695838 273.312 
L 65.695838 263.593062 
L 64.078402 263.593062 
z
" clip-path="url(#p030c59876c)" style="fill: #1f77b4"/>
   </g>
   <g id="patch_6">
    <path d="M 65.695838 273.312 
L 67.313274 273.312 
L 67.313274 261.35023 
L 65.695838 261.35023 
z
" clip-path="url(#p030c59876c)" style="fill: #1f77b4"/>
   </g>
   <g id="patch_7">
    <path d="M 67.313274 273.312 
L 68.93071 273.312 
L 68.93071 253.126513 
L 67.313274 253.126513 
z
" clip-path="url(#p030c59876c)" style="fill: #1f77b4"/>
   </g>
   <g id="patch_8">
    <path d="M 68.93071 273.312 
L 70.548146 273.312 
L 70.548146 249.38846 
L 68.93071 249.38846 
z
" clip-path="url(#p030c59876c)" style="fill: #1f77b4"/>
   </g>
   <g id="patch_9">
    <path d="M 70.548146 273.312 
L 72.165582 273.312 
L 72.165582 247.893239 
L 70.548146 247.893239 
z
" clip-path="url(#p030c59876c)" style="fill: #1f77b4"/>
   </g>
   <g id="patch_10">
    <path d="M 72.165582 273.312 
L 73.783018 273.312 
L 73.783018 247.145628 
L 72.165582 247.145628 
z
" clip-path="url(#p030c59876c)" style="fill: #1f77b4"/>
   </g>
   <g id="patch_11">
    <path d="M 73.783018 273.312 
L 75.400453 273.312 
L 75.400453 245.650407 
L 73.783018 245.650407 
z
" clip-path="url(#p030c59876c)" style="fill: #1f77b4"/>
   </g>
   <g id="patch_12">
    <path d="M 75.400453 273.312 
L 77.017889 273.312 
L 77.017889 237.42669 
L 75.400453 237.42669 
z
" clip-path="url(#p030c59876c)" style="fill: #1f77b4"/>
   </g>
   <g id="patch_13">
    <path d="M 77.017889 273.312 
L 78.635325 273.312 
L 78.635325 244.155186 
L 77.017889 244.155186 
z
" clip-path="url(#p030c59876c)" style="fill: #1f77b4"/>
   </g>
   <g id="patch_14">
    <path d="M 78.635325 273.312 
L 80.252761 273.312 
L 80.252761 229.950584 
L 78.635325 229.950584 
z
" clip-path="url(#p030c59876c)" style="fill: #1f77b4"/>
   </g>
   <g id="patch_15">
    <path d="M 80.252761 273.312 
L 81.870197 273.312 
L 81.870197 229.950584 
L 80.252761 229.950584 
z
" clip-path="url(#p030c59876c)" style="fill: #1f77b4"/>
   </g>
   <g id="patch_16">
    <path d="M 81.870197 273.312 
L 83.487633 273.312 
L 83.487633 222.474478 
L 81.870197 222.474478 
z
" clip-path="url(#p030c59876c)" style="fill: #1f77b4"/>
   </g>
   <g id="patch_17">
    <path d="M 83.487633 273.312 
L 85.105069 273.312 
L 85.105069 213.50315 
L 83.487633 213.50315 
z
" clip-path="url(#p030c59876c)" style="fill: #1f77b4"/>
   </g>
   <g id="patch_18">
    <path d="M 85.105069 273.312 
L 86.722505 273.312 
L 86.722505 212.007929 
L 85.105069 212.007929 
z
" clip-path="url(#p030c59876c)" style="fill: #1f77b4"/>
   </g>
   <g id="patch_19">
    <path d="M 86.722505 273.312 
L 88.339941 273.312 
L 88.339941 222.474478 
L 86.722505 222.474478 
z
" clip-path="url(#p030c59876c)" style="fill: #1f77b4"/>
   </g>
   <g id="patch_20">
    <path d="M 88.339941 273.312 
L 89.957377 273.312 
L 89.957377 200.79377 
L 88.339941 200.79377 
z
" clip-path="url(#p030c59876c)" style="fill: #1f77b4"/>
   </g>
   <g id="patch_21">
    <path d="M 89.957377 273.312 
L 91.574813 273.312 
L 91.574813 197.803327 
L 89.957377 197.803327 
z
" clip-path="url(#p030c59876c)" style="fill: #1f77b4"/>
   </g>
   <g id="patch_22">
    <path d="M 91.574813 273.312 
L 93.192249 273.312 
L 93.192249 194.812885 
L 91.574813 194.812885 
z
" clip-path="url(#p030c59876c)" style="fill: #1f77b4"/>
   </g>
   <g id="patch_23">
    <path d="M 93.192249 273.312 
L 94.809685 273.312 
L 94.809685 203.036602 
L 93.192249 203.036602 
z
" clip-path="url(#p030c59876c)" style="fill: #1f77b4"/>
   </g>
   <g id="patch_24">
    <path d="M 94.809685 273.312 
L 96.427121 273.312 
L 96.427121 188.084389 
L 94.809685 188.084389 
z
" clip-path="url(#p030c59876c)" style="fill: #1f77b4"/>
   </g>
   <g id="patch_25">
    <path d="M 96.427121 273.312 
L 98.044557 273.312 
L 98.044557 195.560496 
L 96.427121 195.560496 
z
" clip-path="url(#p030c59876c)" style="fill: #1f77b4"/>
   </g>
   <g id="patch_26">
    <path d="M 98.044557 273.312 
L 99.661993 273.312 
L 99.661993 187.336779 
L 98.044557 187.336779 
z
" clip-path="url(#p030c59876c)" style="fill: #1f77b4"/>
   </g>
   <g id="patch_27">
    <path d="M 99.661993 273.312 
L 101.279429 273.312 
L 101.279429 181.355894 
L 99.661993 181.355894 
z
" clip-path="url(#p030c59876c)" style="fill: #1f77b4"/>
   </g>
   <g id="patch_28">
    <path d="M 101.279429 273.312 
L 102.896865 273.312 
L 102.896865 187.336779 
L 101.279429 187.336779 
z
" clip-path="url(#p030c59876c)" style="fill: #1f77b4"/>
   </g>
   <g id="patch_29">
    <path d="M 102.896865 273.312 
L 104.514301 273.312 
L 104.514301 177.617841 
L 102.896865 177.617841 
z
" clip-path="url(#p030c59876c)" style="fill: #1f77b4"/>
   </g>
   <g id="patch_30">
    <path d="M 104.514301 273.312 
L 106.131737 273.312 
L 106.131737 168.646513 
L 104.514301 168.646513 
z
" clip-path="url(#p030c59876c)" style="fill: #1f77b4"/>
   </g>
   <g id="patch_31">
    <path d="M 106.131737 273.312 
L 107.749173 273.312 
L 107.749173 173.132177 
L 106.131737 173.132177 
z
" clip-path="url(#p030c59876c)" style="fill: #1f77b4"/>
   </g>
   <g id="patch_32">
    <path d="M 107.749173 273.312 
L 109.366608 273.312 
L 109.366608 155.937133 
L 107.749173 155.937133 
z
" clip-path="url(#p030c59876c)" style="fill: #1f77b4"/>
   </g>
   <g id="patch_33">
    <path d="M 109.366608 273.312 
L 110.984044 273.312 
L 110.984044 162.665628 
L 109.366608 162.665628 
z
" clip-path="url(#p030c59876c)" style="fill: #1f77b4"/>
   </g>
   <g id="patch_34">
    <path d="M 110.984044 273.312 
L 112.60148 273.312 
L 112.60148 167.898903 
L 110.984044 167.898903 
z
" clip-path="url(#p030c59876c)" style="fill: #1f77b4"/>
   </g>
   <g id="patch_35">
    <path d="M 112.60148 273.312 
L 114.218916 273.312 
L 114.218916 139.489699 
L 112.60148 139.489699 
z
" clip-path="url(#p030c59876c)" style="fill: #1f77b4"/>
   </g>
   <g id="patch_36">
    <path d="M 114.218916 273.312 
L 115.836352 273.312 
L 115.836352 158.927575 
L 114.218916 158.927575 
z
" clip-path="url(#p030c59876c)" style="fill: #1f77b4"/>
   </g>
   <g id="patch_37">
    <path d="M 115.836352 273.312 
L 117.453788 273.312 
L 117.453788 144.722973 
L 115.836352 144.722973 
z
" clip-path="url(#p030c59876c)" style="fill: #1f77b4"/>
   </g>
   <g id="patch_38">
    <path d="M 117.453788 273.312 
L 119.071224 273.312 
L 119.071224 155.189522 
L 117.453788 155.189522 
z
" clip-path="url(#p030c59876c)" style="fill: #1f77b4"/>
   </g>
   <g id="patch_39">
    <path d="M 119.071224 273.312 
L 120.68866 273.312 
L 120.68866 158.179965 
L 119.071224 158.179965 
z
" clip-path="url(#p030c59876c)" style="fill: #1f77b4"/>
   </g>
   <g id="patch_40">
    <path d="M 120.68866 273.312 
L 122.306096 273.312 
L 122.306096 130.518372 
L 120.68866 130.518372 
z
" clip-path="url(#p030c59876c)" style="fill: #1f77b4"/>
   </g>
   <g id="patch_41">
    <path d="M 122.306096 273.312 
L 123.923532 273.312 
L 123.923532 130.518372 
L 122.306096 130.518372 
z
" clip-path="url(#p030c59876c)" style="fill: #1f77b4"/>
   </g>
   <g id="patch_42">
    <path d="M 123.923532 273.312 
L 125.540968 273.312 
L 125.540968 134.256425 
L 123.923532 134.256425 
z
" clip-path="url(#p030c59876c)" style="fill: #1f77b4"/>
   </g>
   <g id="patch_43">
    <path d="M 125.540968 273.312 
L 127.158404 273.312 
L 127.158404 140.23731 
L 125.540968 140.23731 
z
" clip-path="url(#p030c59876c)" style="fill: #1f77b4"/>
   </g>
   <g id="patch_44">
    <path d="M 127.158404 273.312 
L 128.77584 273.312 
L 128.77584 121.547044 
L 127.158404 121.547044 
z
" clip-path="url(#p030c59876c)" style="fill: #1f77b4"/>
   </g>
   <g id="patch_45">
    <path d="M 128.77584 273.312 
L 130.393276 273.312 
L 130.393276 135.751646 
L 128.77584 135.751646 
z
" clip-path="url(#p030c59876c)" style="fill: #1f77b4"/>
   </g>
   <g id="patch_46">
    <path d="M 130.393276 273.312 
L 132.010712 273.312 
L 132.010712 108.090053 
L 130.393276 108.090053 
z
" clip-path="url(#p030c59876c)" style="fill: #1f77b4"/>
   </g>
   <g id="patch_47">
    <path d="M 132.010712 273.312 
L 133.628148 273.312 
L 133.628148 130.518372 
L 132.010712 130.518372 
z
" clip-path="url(#p030c59876c)" style="fill: #1f77b4"/>
   </g>
   <g id="patch_48">
    <path d="M 133.628148 273.312 
L 135.245584 273.312 
L 135.245584 134.256425 
L 133.628148 134.256425 
z
" clip-path="url(#p030c59876c)" style="fill: #1f77b4"/>
   </g>
   <g id="patch_49">
    <path d="M 135.245584 273.312 
L 136.86302 273.312 
L 136.86302 105.099611 
L 135.245584 105.099611 
z
" clip-path="url(#p030c59876c)" style="fill: #1f77b4"/>
   </g>
   <g id="patch_50">
    <path d="M 136.86302 273.312 
L 138.480456 273.312 
L 138.480456 131.265982 
L 136.86302 131.265982 
z
" clip-path="url(#p030c59876c)" style="fill: #1f77b4"/>
   </g>
   <g id="patch_51">
    <path d="M 138.480456 273.312 
L 140.097892 273.312 
L 140.097892 107.342442 
L 138.480456 107.342442 
z
" clip-path="url(#p030c59876c)" style="fill: #1f77b4"/>
   </g>
   <g id="patch_52">
    <path d="M 140.097892 273.312 
L 141.715328 273.312 
L 141.715328 106.594832 
L 140.097892 106.594832 
z
" clip-path="url(#p030c59876c)" style="fill: #1f77b4"/>
   </g>
   <g id="patch_53">
    <path d="M 141.715328 273.312 
L 143.332763 273.312 
L 143.332763 81.176071 
L 141.715328 81.176071 
z
" clip-path="url(#p030c59876c)" style="fill: #1f77b4"/>
   </g>
   <g id="patch_54">
    <path d="M 143.332763 273.312 
L 144.950199 273.312 
L 144.950199 111.080496 
L 143.332763 111.080496 
z
" clip-path="url(#p030c59876c)" style="fill: #1f77b4"/>
   </g>
   <g id="patch_55">
    <path d="M 144.950199 273.312 
L 146.567635 273.312 
L 146.567635 93.885451 
L 144.950199 93.885451 
z
" clip-path="url(#p030c59876c)" style="fill: #1f77b4"/>
   </g>
   <g id="patch_56">
    <path d="M 146.567635 273.312 
L 148.185071 273.312 
L 148.185071 99.866336 
L 146.567635 99.866336 
z
" clip-path="url(#p030c59876c)" style="fill: #1f77b4"/>
   </g>
   <g id="patch_57">
    <path d="M 148.185071 273.312 
L 149.802507 273.312 
L 149.802507 88.652177 
L 148.185071 88.652177 
z
" clip-path="url(#p030c59876c)" style="fill: #1f77b4"/>
   </g>
   <g id="patch_58">
    <path d="M 149.802507 273.312 
L 151.419943 273.312 
L 151.419943 83.418903 
L 149.802507 83.418903 
z
" clip-path="url(#p030c59876c)" style="fill: #1f77b4"/>
   </g>
   <g id="patch_59">
    <path d="M 151.419943 273.312 
L 153.037379 273.312 
L 153.037379 77.438018 
L 151.419943 77.438018 
z
" clip-path="url(#p030c59876c)" style="fill: #1f77b4"/>
   </g>
   <g id="patch_60">
    <path d="M 153.037379 273.312 
L 154.654815 273.312 
L 154.654815 93.137841 
L 153.037379 93.137841 
z
" clip-path="url(#p030c59876c)" style="fill: #1f77b4"/>
   </g>
   <g id="patch_61">
    <path d="M 154.654815 273.312 
L 156.272251 273.312 
L 156.272251 91.642619 
L 154.654815 91.642619 
z
" clip-path="url(#p030c59876c)" style="fill: #1f77b4"/>
   </g>
   <g id="patch_62">
    <path d="M 156.272251 273.312 
L 157.889687 273.312 
L 157.889687 89.399788 
L 156.272251 89.399788 
z
" clip-path="url(#p030c59876c)" style="fill: #1f77b4"/>
   </g>
   <g id="patch_63">
    <path d="M 157.889687 273.312 
L 159.507123 273.312 
L 159.507123 68.46669 
L 157.889687 68.46669 
z
" clip-path="url(#p030c59876c)" style="fill: #1f77b4"/>
   </g>
   <g id="patch_64">
    <path d="M 159.507123 273.312 
L 161.124559 273.312 
L 161.124559 66.971469 
L 159.507123 66.971469 
z
" clip-path="url(#p030c59876c)" style="fill: #1f77b4"/>
   </g>
   <g id="patch_65">
    <path d="M 161.124559 273.312 
L 162.741995 273.312 
L 162.741995 63.233416 
L 161.124559 63.233416 
z
" clip-path="url(#p030c59876c)" style="fill: #1f77b4"/>
   </g>
   <g id="patch_66">
    <path d="M 162.741995 273.312 
L 164.359431 273.312 
L 164.359431 72.952354 
L 162.741995 72.952354 
z
" clip-path="url(#p030c59876c)" style="fill: #1f77b4"/>
   </g>
   <g id="patch_67">
    <path d="M 164.359431 273.312 
L 165.976867 273.312 
L 165.976867 85.661735 
L 164.359431 85.661735 
z
" clip-path="url(#p030c59876c)" style="fill: #1f77b4"/>
   </g>
   <g id="patch_68">
    <path d="M 165.976867 273.312 
L 167.594303 273.312 
L 167.594303 96.875894 
L 165.976867 96.875894 
z
" clip-path="url(#p030c59876c)" style="fill: #1f77b4"/>
   </g>
   <g id="patch_69">
    <path d="M 167.594303 273.312 
L 169.211739 273.312 
L 169.211739 80.42846 
L 167.594303 80.42846 
z
" clip-path="url(#p030c59876c)" style="fill: #1f77b4"/>
   </g>
   <g id="patch_70">
    <path d="M 169.211739 273.312 
L 170.829175 273.312 
L 170.829175 57.252531 
L 169.211739 57.252531 
z
" clip-path="url(#p030c59876c)" style="fill: #1f77b4"/>
   </g>
   <g id="patch_71">
    <path d="M 170.829175 273.312 
L 172.446611 273.312 
L 172.446611 66.971469 
L 170.829175 66.971469 
z
" clip-path="url(#p030c59876c)" style="fill: #1f77b4"/>
   </g>
   <g id="patch_72">
    <path d="M 172.446611 273.312 
L 174.064047 273.312 
L 174.064047 64.728637 
L 172.446611 64.728637 
z
" clip-path="url(#p030c59876c)" style="fill: #1f77b4"/>
   </g>
   <g id="patch_73">
    <path d="M 174.064047 273.312 
L 175.681483 273.312 
L 175.681483 46.038372 
L 174.064047 46.038372 
z
" clip-path="url(#p030c59876c)" style="fill: #1f77b4"/>
   </g>
   <g id="patch_74">
    <path d="M 175.681483 273.312 
L 177.298918 273.312 
L 177.298918 88.652177 
L 175.681483 88.652177 
z
" clip-path="url(#p030c59876c)" style="fill: #1f77b4"/>
   </g>
   <g id="patch_75">
    <path d="M 177.298918 273.312 
L 178.916354 273.312 
L 178.916354 54.262088 
L 177.298918 54.262088 
z
" clip-path="url(#p030c59876c)" style="fill: #1f77b4"/>
   </g>
   <g id="patch_76">
    <path d="M 178.916354 273.312 
L 180.53379 273.312 
L 180.53379 40.057487 
L 178.916354 40.057487 
z
" clip-path="url(#p030c59876c)" style="fill: #1f77b4"/>
   </g>
   <g id="patch_77">
    <path d="M 180.53379 273.312 
L 182.151226 273.312 
L 182.151226 74.447575 
L 180.53379 74.447575 
z
" clip-path="url(#p030c59876c)" style="fill: #1f77b4"/>
   </g>
   <g id="patch_78">
    <path d="M 182.151226 273.312 
L 183.768662 273.312 
L 183.768662 69.961912 
L 182.151226 69.961912 
z
" clip-path="url(#p030c59876c)" style="fill: #1f77b4"/>
   </g>
   <g id="patch_79">
    <path d="M 183.768662 273.312 
L 185.386098 273.312 
L 185.386098 63.233416 
L 183.768662 63.233416 
z
" clip-path="url(#p030c59876c)" style="fill: #1f77b4"/>
   </g>
   <g id="patch_80">
    <path d="M 185.386098 273.312 
L 187.003534 273.312 
L 187.003534 44.54315 
L 185.386098 44.54315 
z
" clip-path="url(#p030c59876c)" style="fill: #1f77b4"/>
   </g>
   <g id="patch_81">
    <path d="M 187.003534 273.312 
L 188.62097 273.312 
L 188.62097 60.990584 
L 187.003534 60.990584 
z
" clip-path="url(#p030c59876c)" style="fill: #1f77b4"/>
   </g>
   <g id="patch_82">
    <path d="M 188.62097 273.312 
L 190.238406 273.312 
L 190.238406 45.290761 
L 188.62097 45.290761 
z
" clip-path="url(#p030c59876c)" style="fill: #1f77b4"/>
   </g>
   <g id="patch_83">
    <path d="M 190.238406 273.312 
L 191.855842 273.312 
L 191.855842 53.514478 
L 190.238406 53.514478 
z
" clip-path="url(#p030c59876c)" style="fill: #1f77b4"/>
   </g>
   <g id="patch_84">
    <path d="M 191.855842 273.312 
L 193.473278 273.312 
L 193.473278 60.242973 
L 191.855842 60.242973 
z
" clip-path="url(#p030c59876c)" style="fill: #1f77b4"/>
   </g>
   <g id="patch_85">
    <path d="M 193.473278 273.312 
L 195.090714 273.312 
L 195.090714 35.571823 
L 193.473278 35.571823 
z
" clip-path="url(#p030c59876c)" style="fill: #1f77b4"/>
   </g>
   <g id="patch_86">
    <path d="M 195.090714 273.312 
L 196.70815 273.312 
L 196.70815 75.195186 
L 195.090714 75.195186 
z
" clip-path="url(#p030c59876c)" style="fill: #1f77b4"/>
   </g>
   <g id="patch_87">
    <path d="M 196.70815 273.312 
L 198.325586 273.312 
L 198.325586 58.000142 
L 196.70815 58.000142 
z
" clip-path="url(#p030c59876c)" style="fill: #1f77b4"/>
   </g>
   <g id="patch_88">
    <path d="M 198.325586 273.312 
L 199.943022 273.312 
L 199.943022 40.805097 
L 198.325586 40.805097 
z
" clip-path="url(#p030c59876c)" style="fill: #1f77b4"/>
   </g>
   <g id="patch_89">
    <path d="M 199.943022 273.312 
L 201.560458 273.312 
L 201.560458 37.814655 
L 199.943022 37.814655 
z
" clip-path="url(#p030c59876c)" style="fill: #1f77b4"/>
   </g>
   <g id="patch_90">
    <path d="M 201.560458 273.312 
L 203.177894 273.312 
L 203.177894 25.852885 
L 201.560458 25.852885 
z
" clip-path="url(#p030c59876c)" style="fill: #1f77b4"/>
   </g>
   <g id="patch_91">
    <path d="M 203.177894 273.312 
L 204.79533 273.312 
L 204.79533 49.028814 
L 203.177894 49.028814 
z
" clip-path="url(#p030c59876c)" style="fill: #1f77b4"/>
   </g>
   <g id="patch_92">
    <path d="M 204.79533 273.312 
L 206.412766 273.312 
L 206.412766 55.75731 
L 204.79533 55.75731 
z
" clip-path="url(#p030c59876c)" style="fill: #1f77b4"/>
   </g>
   <g id="patch_93">
    <path d="M 206.412766 273.312 
L 208.030202 273.312 
L 208.030202 24.357664 
L 206.412766 24.357664 
z
" clip-path="url(#p030c59876c)" style="fill: #1f77b4"/>
   </g>
   <g id="patch_94">
    <path d="M 208.030202 273.312 
L 209.647638 273.312 
L 209.647638 51.271646 
L 208.030202 51.271646 
z
" clip-path="url(#p030c59876c)" style="fill: #1f77b4"/>
   </g>
   <g id="patch_95">
    <path d="M 209.647638 273.312 
L 211.265074 273.312 
L 211.265074 29.590938 
L 209.647638 29.590938 
z
" clip-path="url(#p030c59876c)" style="fill: #1f77b4"/>
   </g>
   <g id="patch_96">
    <path d="M 211.265074 273.312 
L 212.882509 273.312 
L 212.882509 46.038372 
L 211.265074 46.038372 
z
" clip-path="url(#p030c59876c)" style="fill: #1f77b4"/>
   </g>
   <g id="patch_97">
    <path d="M 212.882509 273.312 
L 214.499945 273.312 
L 214.499945 42.300319 
L 212.882509 42.300319 
z
" clip-path="url(#p030c59876c)" style="fill: #1f77b4"/>
   </g>
   <g id="patch_98">
    <path d="M 214.499945 273.312 
L 216.117381 273.312 
L 216.117381 34.824212 
L 214.499945 34.824212 
z
" clip-path="url(#p030c59876c)" style="fill: #1f77b4"/>
   </g>
   <g id="patch_99">
    <path d="M 216.117381 273.312 
L 217.734817 273.312 
L 217.734817 45.290761 
L 216.117381 45.290761 
z
" clip-path="url(#p030c59876c)" style="fill: #1f77b4"/>
   </g>
   <g id="patch_100">
    <path d="M 217.734817 273.312 
L 219.352253 273.312 
L 219.352253 60.242973 
L 217.734817 60.242973 
z
" clip-path="url(#p030c59876c)" style="fill: #1f77b4"/>
   </g>
   <g id="patch_101">
    <path d="M 219.352253 273.312 
L 220.969689 273.312 
L 220.969689 28.843327 
L 219.352253 28.843327 
z
" clip-path="url(#p030c59876c)" style="fill: #1f77b4"/>
   </g>
   <g id="patch_102">
    <path d="M 220.969689 273.312 
L 222.587125 273.312 
L 222.587125 38.562265 
L 220.969689 38.562265 
z
" clip-path="url(#p030c59876c)" style="fill: #1f77b4"/>
   </g>
   <g id="patch_103">
    <path d="M 222.587125 273.312 
L 224.204561 273.312 
L 224.204561 43.79554 
L 222.587125 43.79554 
z
" clip-path="url(#p030c59876c)" style="fill: #1f77b4"/>
   </g>
   <g id="patch_104">
    <path d="M 224.204561 273.312 
L 225.821997 273.312 
L 225.821997 46.038372 
L 224.204561 46.038372 
z
" clip-path="url(#p030c59876c)" style="fill: #1f77b4"/>
   </g>
   <g id="patch_105">
    <path d="M 225.821997 273.312 
L 227.439433 273.312 
L 227.439433 37.814655 
L 225.821997 37.814655 
z
" clip-path="url(#p030c59876c)" style="fill: #1f77b4"/>
   </g>
   <g id="patch_106">
    <path d="M 227.439433 273.312 
L 229.056869 273.312 
L 229.056869 42.300319 
L 227.439433 42.300319 
z
" clip-path="url(#p030c59876c)" style="fill: #1f77b4"/>
   </g>
   <g id="patch_107">
    <path d="M 229.056869 273.312 
L 230.674305 273.312 
L 230.674305 48.281204 
L 229.056869 48.281204 
z
" clip-path="url(#p030c59876c)" style="fill: #1f77b4"/>
   </g>
   <g id="patch_108">
    <path d="M 230.674305 273.312 
L 232.291741 273.312 
L 232.291741 60.242973 
L 230.674305 60.242973 
z
" clip-path="url(#p030c59876c)" style="fill: #1f77b4"/>
   </g>
   <g id="patch_109">
    <path d="M 232.291741 273.312 
L 233.909177 273.312 
L 233.909177 43.79554 
L 232.291741 43.79554 
z
" clip-path="url(#p030c59876c)" style="fill: #1f77b4"/>
   </g>
   <g id="patch_110">
    <path d="M 233.909177 273.312 
L 235.526613 273.312 
L 235.526613 64.728637 
L 233.909177 64.728637 
z
" clip-path="url(#p030c59876c)" style="fill: #1f77b4"/>
   </g>
   <g id="patch_111">
    <path d="M 235.526613 273.312 
L 237.144049 273.312 
L 237.144049 47.533593 
L 235.526613 47.533593 
z
" clip-path="url(#p030c59876c)" style="fill: #1f77b4"/>
   </g>
   <g id="patch_112">
    <path d="M 237.144049 273.312 
L 238.761485 273.312 
L 238.761485 51.271646 
L 237.144049 51.271646 
z
" clip-path="url(#p030c59876c)" style="fill: #1f77b4"/>
   </g>
   <g id="patch_113">
    <path d="M 238.761485 273.312 
L 240.378921 273.312 
L 240.378921 44.54315 
L 238.761485 44.54315 
z
" clip-path="url(#p030c59876c)" style="fill: #1f77b4"/>
   </g>
   <g id="patch_114">
    <path d="M 240.378921 273.312 
L 241.996357 273.312 
L 241.996357 24.357664 
L 240.378921 24.357664 
z
" clip-path="url(#p030c59876c)" style="fill: #1f77b4"/>
   </g>
   <g id="patch_115">
    <path d="M 241.996357 273.312 
L 243.613793 273.312 
L 243.613793 46.038372 
L 241.996357 46.038372 
z
" clip-path="url(#p030c59876c)" style="fill: #1f77b4"/>
   </g>
   <g id="patch_116">
    <path d="M 243.613793 273.312 
L 245.231229 273.312 
L 245.231229 39.309876 
L 243.613793 39.309876 
z
" clip-path="url(#p030c59876c)" style="fill: #1f77b4"/>
   </g>
   <g id="patch_117">
    <path d="M 245.231229 273.312 
L 246.848664 273.312 
L 246.848664 35.571823 
L 245.231229 35.571823 
z
" clip-path="url(#p030c59876c)" style="fill: #1f77b4"/>
   </g>
   <g id="patch_118">
    <path d="M 246.848664 273.312 
L 248.4661 273.312 
L 248.4661 43.047929 
L 246.848664 43.047929 
z
" clip-path="url(#p030c59876c)" style="fill: #1f77b4"/>
   </g>
   <g id="patch_119">
    <path d="M 248.4661 273.312 
L 250.083536 273.312 
L 250.083536 19.872 
L 248.4661 19.872 
z
" clip-path="url(#p030c59876c)" style="fill: #1f77b4"/>
   </g>
   <g id="patch_120">
    <path d="M 250.083536 273.312 
L 251.700972 273.312 
L 251.700972 54.262088 
L 250.083536 54.262088 
z
" clip-path="url(#p030c59876c)" style="fill: #1f77b4"/>
   </g>
   <g id="patch_121">
    <path d="M 251.700972 273.312 
L 253.318408 273.312 
L 253.318408 38.562265 
L 251.700972 38.562265 
z
" clip-path="url(#p030c59876c)" style="fill: #1f77b4"/>
   </g>
   <g id="patch_122">
    <path d="M 253.318408 273.312 
L 254.935844 273.312 
L 254.935844 25.105274 
L 253.318408 25.105274 
z
" clip-path="url(#p030c59876c)" style="fill: #1f77b4"/>
   </g>
   <g id="patch_123">
    <path d="M 254.935844 273.312 
L 256.55328 273.312 
L 256.55328 45.290761 
L 254.935844 45.290761 
z
" clip-path="url(#p030c59876c)" style="fill: #1f77b4"/>
   </g>
   <g id="patch_124">
    <path d="M 256.55328 273.312 
L 258.170716 273.312 
L 258.170716 66.223858 
L 256.55328 66.223858 
z
" clip-path="url(#p030c59876c)" style="fill: #1f77b4"/>
   </g>
   <g id="patch_125">
    <path d="M 258.170716 273.312 
L 259.788152 273.312 
L 259.788152 50.524035 
L 258.170716 50.524035 
z
" clip-path="url(#p030c59876c)" style="fill: #1f77b4"/>
   </g>
   <g id="patch_126">
    <path d="M 259.788152 273.312 
L 261.405588 273.312 
L 261.405588 66.223858 
L 259.788152 66.223858 
z
" clip-path="url(#p030c59876c)" style="fill: #1f77b4"/>
   </g>
   <g id="patch_127">
    <path d="M 261.405588 273.312 
L 263.023024 273.312 
L 263.023024 46.785982 
L 261.405588 46.785982 
z
" clip-path="url(#p030c59876c)" style="fill: #1f77b4"/>
   </g>
   <g id="patch_128">
    <path d="M 263.023024 273.312 
L 264.64046 273.312 
L 264.64046 60.990584 
L 263.023024 60.990584 
z
" clip-path="url(#p030c59876c)" style="fill: #1f77b4"/>
   </g>
   <g id="patch_129">
    <path d="M 264.64046 273.312 
L 266.257896 273.312 
L 266.257896 84.166513 
L 264.64046 84.166513 
z
" clip-path="url(#p030c59876c)" style="fill: #1f77b4"/>
   </g>
   <g id="patch_130">
    <path d="M 266.257896 273.312 
L 267.875332 273.312 
L 267.875332 64.728637 
L 266.257896 64.728637 
z
" clip-path="url(#p030c59876c)" style="fill: #1f77b4"/>
   </g>
   <g id="patch_131">
    <path d="M 267.875332 273.312 
L 269.492768 273.312 
L 269.492768 58.000142 
L 267.875332 58.000142 
z
" clip-path="url(#p030c59876c)" style="fill: #1f77b4"/>
   </g>
   <g id="patch_132">
    <path d="M 269.492768 273.312 
L 271.110204 273.312 
L 271.110204 54.262088 
L 269.492768 54.262088 
z
" clip-path="url(#p030c59876c)" style="fill: #1f77b4"/>
   </g>
   <g id="patch_133">
    <path d="M 271.110204 273.312 
L 272.72764 273.312 
L 272.72764 51.271646 
L 271.110204 51.271646 
z
" clip-path="url(#p030c59876c)" style="fill: #1f77b4"/>
   </g>
   <g id="patch_134">
    <path d="M 272.72764 273.312 
L 274.345076 273.312 
L 274.345076 71.457133 
L 272.72764 71.457133 
z
" clip-path="url(#p030c59876c)" style="fill: #1f77b4"/>
   </g>
   <g id="patch_135">
    <path d="M 274.345076 273.312 
L 275.962512 273.312 
L 275.962512 62.485805 
L 274.345076 62.485805 
z
" clip-path="url(#p030c59876c)" style="fill: #1f77b4"/>
   </g>
   <g id="patch_136">
    <path d="M 275.962512 273.312 
L 277.579948 273.312 
L 277.579948 65.476248 
L 275.962512 65.476248 
z
" clip-path="url(#p030c59876c)" style="fill: #1f77b4"/>
   </g>
   <g id="patch_137">
    <path d="M 277.579948 273.312 
L 279.197384 273.312 
L 279.197384 66.971469 
L 277.579948 66.971469 
z
" clip-path="url(#p030c59876c)" style="fill: #1f77b4"/>
   </g>
   <g id="patch_138">
    <path d="M 279.197384 273.312 
L 280.814819 273.312 
L 280.814819 85.661735 
L 279.197384 85.661735 
z
" clip-path="url(#p030c59876c)" style="fill: #1f77b4"/>
   </g>
   <g id="patch_139">
    <path d="M 280.814819 273.312 
L 282.432255 273.312 
L 282.432255 70.709522 
L 280.814819 70.709522 
z
" clip-path="url(#p030c59876c)" style="fill: #1f77b4"/>
   </g>
   <g id="patch_140">
    <path d="M 282.432255 273.312 
L 284.049691 273.312 
L 284.049691 87.904566 
L 282.432255 87.904566 
z
" clip-path="url(#p030c59876c)" style="fill: #1f77b4"/>
   </g>
   <g id="patch_141">
    <path d="M 284.049691 273.312 
L 285.667127 273.312 
L 285.667127 72.952354 
L 284.049691 72.952354 
z
" clip-path="url(#p030c59876c)" style="fill: #1f77b4"/>
   </g>
   <g id="patch_142">
    <path d="M 285.667127 273.312 
L 287.284563 273.312 
L 287.284563 93.137841 
L 285.667127 93.137841 
z
" clip-path="url(#p030c59876c)" style="fill: #1f77b4"/>
   </g>
   <g id="patch_143">
    <path d="M 287.284563 273.312 
L 288.901999 273.312 
L 288.901999 69.214301 
L 287.284563 69.214301 
z
" clip-path="url(#p030c59876c)" style="fill: #1f77b4"/>
   </g>
   <g id="patch_144">
    <path d="M 288.901999 273.312 
L 290.519435 273.312 
L 290.519435 82.671292 
L 288.901999 82.671292 
z
" clip-path="url(#p030c59876c)" style="fill: #1f77b4"/>
   </g>
   <g id="patch_145">
    <path d="M 290.519435 273.312 
L 292.136871 273.312 
L 292.136871 84.166513 
L 290.519435 84.166513 
z
" clip-path="url(#p030c59876c)" style="fill: #1f77b4"/>
   </g>
   <g id="patch_146">
    <path d="M 292.136871 273.312 
L 293.754307 273.312 
L 293.754307 93.885451 
L 292.136871 93.885451 
z
" clip-path="url(#p030c59876c)" style="fill: #1f77b4"/>
   </g>
   <g id="patch_147">
    <path d="M 293.754307 273.312 
L 295.371743 273.312 
L 295.371743 101.361558 
L 293.754307 101.361558 
z
" clip-path="url(#p030c59876c)" style="fill: #1f77b4"/>
   </g>
   <g id="patch_148">
    <path d="M 295.371743 273.312 
L 296.989179 273.312 
L 296.989179 108.090053 
L 295.371743 108.090053 
z
" clip-path="url(#p030c59876c)" style="fill: #1f77b4"/>
   </g>
   <g id="patch_149">
    <path d="M 296.989179 273.312 
L 298.606615 273.312 
L 298.606615 93.885451 
L 296.989179 93.885451 
z
" clip-path="url(#p030c59876c)" style="fill: #1f77b4"/>
   </g>
   <g id="patch_150">
    <path d="M 298.606615 273.312 
L 300.224051 273.312 
L 300.224051 115.566159 
L 298.606615 115.566159 
z
" clip-path="url(#p030c59876c)" style="fill: #1f77b4"/>
   </g>
   <g id="patch_151">
    <path d="M 300.224051 273.312 
L 301.841487 273.312 
L 301.841487 108.090053 
L 300.224051 108.090053 
z
" clip-path="url(#p030c59876c)" style="fill: #1f77b4"/>
   </g>
   <g id="patch_152">
    <path d="M 301.841487 273.312 
L 303.458923 273.312 
L 303.458923 114.070938 
L 301.841487 114.070938 
z
" clip-path="url(#p030c59876c)" style="fill: #1f77b4"/>
   </g>
   <g id="patch_153">
    <path d="M 303.458923 273.312 
L 305.076359 273.312 
L 305.076359 94.633062 
L 303.458923 94.633062 
z
" clip-path="url(#p030c59876c)" style="fill: #1f77b4"/>
   </g>
   <g id="patch_154">
    <path d="M 305.076359 273.312 
L 306.693795 273.312 
L 306.693795 104.352 
L 305.076359 104.352 
z
" clip-path="url(#p030c59876c)" style="fill: #1f77b4"/>
   </g>
   <g id="patch_155">
    <path d="M 306.693795 273.312 
L 308.311231 273.312 
L 308.311231 108.837664 
L 306.693795 108.837664 
z
" clip-path="url(#p030c59876c)" style="fill: #1f77b4"/>
   </g>
   <g id="patch_156">
    <path d="M 308.311231 273.312 
L 309.928667 273.312 
L 309.928667 117.808991 
L 308.311231 117.808991 
z
" clip-path="url(#p030c59876c)" style="fill: #1f77b4"/>
   </g>
   <g id="patch_157">
    <path d="M 309.928667 273.312 
L 311.546103 273.312 
L 311.546103 105.847221 
L 309.928667 105.847221 
z
" clip-path="url(#p030c59876c)" style="fill: #1f77b4"/>
   </g>
   <g id="patch_158">
    <path d="M 311.546103 273.312 
L 313.163539 273.312 
L 313.163539 123.042265 
L 311.546103 123.042265 
z
" clip-path="url(#p030c59876c)" style="fill: #1f77b4"/>
   </g>
   <g id="patch_159">
    <path d="M 313.163539 273.312 
L 314.780974 273.312 
L 314.780974 129.770761 
L 313.163539 129.770761 
z
" clip-path="url(#p030c59876c)" style="fill: #1f77b4"/>
   </g>
   <g id="patch_160">
    <path d="M 314.780974 273.312 
L 316.39841 273.312 
L 316.39841 120.799434 
L 314.780974 120.799434 
z
" clip-path="url(#p030c59876c)" style="fill: #1f77b4"/>
   </g>
   <g id="patch_161">
    <path d="M 316.39841 273.312 
L 318.015846 273.312 
L 318.015846 140.23731 
L 316.39841 140.23731 
z
" clip-path="url(#p030c59876c)" style="fill: #1f77b4"/>
   </g>
   <g id="patch_162">
    <path d="M 318.015846 273.312 
L 319.633282 273.312 
L 319.633282 118.556602 
L 318.015846 118.556602 
z
" clip-path="url(#p030c59876c)" style="fill: #1f77b4"/>
   </g>
   <g id="patch_163">
    <path d="M 319.633282 273.312 
L 321.250718 273.312 
L 321.250718 126.780319 
L 319.633282 126.780319 
z
" clip-path="url(#p030c59876c)" style="fill: #1f77b4"/>
   </g>
   <g id="patch_164">
    <path d="M 321.250718 273.312 
L 322.868154 273.312 
L 322.868154 132.013593 
L 321.250718 132.013593 
z
" clip-path="url(#p030c59876c)" style="fill: #1f77b4"/>
   </g>
   <g id="patch_165">
    <path d="M 322.868154 273.312 
L 324.48559 273.312 
L 324.48559 149.208637 
L 322.868154 149.208637 
z
" clip-path="url(#p030c59876c)" style="fill: #1f77b4"/>
   </g>
   <g id="patch_166">
    <path d="M 324.48559 273.312 
L 326.103026 273.312 
L 326.103026 150.703858 
L 324.48559 150.703858 
z
" clip-path="url(#p030c59876c)" style="fill: #1f77b4"/>
   </g>
   <g id="patch_167">
    <path d="M 326.103026 273.312 
L 327.720462 273.312 
L 327.720462 139.489699 
L 326.103026 139.489699 
z
" clip-path="url(#p030c59876c)" style="fill: #1f77b4"/>
   </g>
   <g id="patch_168">
    <path d="M 327.720462 273.312 
L 329.337898 273.312 
L 329.337898 164.16085 
L 327.720462 164.16085 
z
" clip-path="url(#p030c59876c)" style="fill: #1f77b4"/>
   </g>
   <g id="patch_169">
    <path d="M 329.337898 273.312 
L 330.955334 273.312 
L 330.955334 149.208637 
L 329.337898 149.208637 
z
" clip-path="url(#p030c59876c)" style="fill: #1f77b4"/>
   </g>
   <g id="patch_170">
    <path d="M 330.955334 273.312 
L 332.57277 273.312 
L 332.57277 171.636956 
L 330.955334 171.636956 
z
" clip-path="url(#p030c59876c)" style="fill: #1f77b4"/>
   </g>
   <g id="patch_171">
    <path d="M 332.57277 273.312 
L 334.190206 273.312 
L 334.190206 173.132177 
L 332.57277 173.132177 
z
" clip-path="url(#p030c59876c)" style="fill: #1f77b4"/>
   </g>
   <g id="patch_172">
    <path d="M 334.190206 273.312 
L 335.807642 273.312 
L 335.807642 161.170407 
L 334.190206 161.170407 
z
" clip-path="url(#p030c59876c)" style="fill: #1f77b4"/>
   </g>
   <g id="patch_173">
    <path d="M 335.807642 273.312 
L 337.425078 273.312 
L 337.425078 180.608283 
L 335.807642 180.608283 
z
" clip-path="url(#p030c59876c)" style="fill: #1f77b4"/>
   </g>
   <g id="patch_174">
    <path d="M 337.425078 273.312 
L 339.042514 273.312 
L 339.042514 159.675186 
L 337.425078 159.675186 
z
" clip-path="url(#p030c59876c)" style="fill: #1f77b4"/>
   </g>
   <g id="patch_175">
    <path d="M 339.042514 273.312 
L 340.65995 273.312 
L 340.65995 178.365451 
L 339.042514 178.365451 
z
" clip-path="url(#p030c59876c)" style="fill: #1f77b4"/>
   </g>
   <g id="patch_176">
    <path d="M 340.65995 273.312 
L 342.277386 273.312 
L 342.277386 184.346336 
L 340.65995 184.346336 
z
" clip-path="url(#p030c59876c)" style="fill: #1f77b4"/>
   </g>
   <g id="patch_177">
    <path d="M 342.277386 273.312 
L 343.894822 273.312 
L 343.894822 172.384566 
L 342.277386 172.384566 
z
" clip-path="url(#p030c59876c)" style="fill: #1f77b4"/>
   </g>
   <g id="patch_178">
    <path d="M 343.894822 273.312 
L 345.512258 273.312 
L 345.512258 183.598726 
L 343.894822 183.598726 
z
" clip-path="url(#p030c59876c)" style="fill: #1f77b4"/>
   </g>
   <g id="patch_179">
    <path d="M 345.512258 273.312 
L 347.129694 273.312 
L 347.129694 191.822442 
L 345.512258 191.822442 
z
" clip-path="url(#p030c59876c)" style="fill: #1f77b4"/>
   </g>
   <g id="patch_180">
    <path d="M 347.129694 273.312 
L 348.747129 273.312 
L 348.747129 194.065274 
L 347.129694 194.065274 
z
" clip-path="url(#p030c59876c)" style="fill: #1f77b4"/>
   </g>
   <g id="patch_181">
    <path d="M 348.747129 273.312 
L 350.364565 273.312 
L 350.364565 194.812885 
L 348.747129 194.812885 
z
" clip-path="url(#p030c59876c)" style="fill: #1f77b4"/>
   </g>
   <g id="patch_182">
    <path d="M 350.364565 273.312 
L 351.982001 273.312 
L 351.982001 195.560496 
L 350.364565 195.560496 
z
" clip-path="url(#p030c59876c)" style="fill: #1f77b4"/>
   </g>
   <g id="patch_183">
    <path d="M 351.982001 273.312 
L 353.599437 273.312 
L 353.599437 203.036602 
L 351.982001 203.036602 
z
" clip-path="url(#p030c59876c)" style="fill: #1f77b4"/>
   </g>
   <g id="patch_184">
    <path d="M 353.599437 273.312 
L 355.216873 273.312 
L 355.216873 216.493593 
L 353.599437 216.493593 
z
" clip-path="url(#p030c59876c)" style="fill: #1f77b4"/>
   </g>
   <g id="patch_185">
    <path d="M 355.216873 273.312 
L 356.834309 273.312 
L 356.834309 216.493593 
L 355.216873 216.493593 
z
" clip-path="url(#p030c59876c)" style="fill: #1f77b4"/>
   </g>
   <g id="patch_186">
    <path d="M 356.834309 273.312 
L 358.451745 273.312 
L 358.451745 226.212531 
L 356.834309 226.212531 
z
" clip-path="url(#p030c59876c)" style="fill: #1f77b4"/>
   </g>
   <g id="patch_187">
    <path d="M 358.451745 273.312 
L 360.069181 273.312 
L 360.069181 213.50315 
L 358.451745 213.50315 
z
" clip-path="url(#p030c59876c)" style="fill: #1f77b4"/>
   </g>
   <g id="patch_188">
    <path d="M 360.069181 273.312 
L 361.686617 273.312 
L 361.686617 214.250761 
L 360.069181 214.250761 
z
" clip-path="url(#p030c59876c)" style="fill: #1f77b4"/>
   </g>
   <g id="patch_189">
    <path d="M 361.686617 273.312 
L 363.304053 273.312 
L 363.304053 216.493593 
L 361.686617 216.493593 
z
" clip-path="url(#p030c59876c)" style="fill: #1f77b4"/>
   </g>
   <g id="patch_190">
    <path d="M 363.304053 273.312 
L 364.921489 273.312 
L 364.921489 222.474478 
L 363.304053 222.474478 
z
" clip-path="url(#p030c59876c)" style="fill: #1f77b4"/>
   </g>
   <g id="patch_191">
    <path d="M 364.921489 273.312 
L 366.538925 273.312 
L 366.538925 229.950584 
L 364.921489 229.950584 
z
" clip-path="url(#p030c59876c)" style="fill: #1f77b4"/>
   </g>
   <g id="patch_192">
    <path d="M 366.538925 273.312 
L 368.156361 273.312 
L 368.156361 239.669522 
L 366.538925 239.669522 
z
" clip-path="url(#p030c59876c)" style="fill: #1f77b4"/>
   </g>
   <g id="patch_193">
    <path d="M 368.156361 273.312 
L 369.773797 273.312 
L 369.773797 223.969699 
L 368.156361 223.969699 
z
" clip-path="url(#p030c59876c)" style="fill: #1f77b4"/>
   </g>
   <g id="patch_194">
    <path d="M 369.773797 273.312 
L 371.391233 273.312 
L 371.391233 246.398018 
L 369.773797 246.398018 
z
" clip-path="url(#p030c59876c)" style="fill: #1f77b4"/>
   </g>
   <g id="patch_195">
    <path d="M 371.391233 273.312 
L 373.008669 273.312 
L 373.008669 253.126513 
L 371.391233 253.126513 
z
" clip-path="url(#p030c59876c)" style="fill: #1f77b4"/>
   </g>
   <g id="patch_196">
    <path d="M 373.008669 273.312 
L 374.626105 273.312 
L 374.626105 251.631292 
L 373.008669 251.631292 
z
" clip-path="url(#p030c59876c)" style="fill: #1f77b4"/>
   </g>
   <g id="patch_197">
    <path d="M 374.626105 273.312 
L 376.243541 273.312 
L 376.243541 256.116956 
L 374.626105 256.116956 
z
" clip-path="url(#p030c59876c)" style="fill: #1f77b4"/>
   </g>
   <g id="patch_198">
    <path d="M 376.243541 273.312 
L 377.860977 273.312 
L 377.860977 255.369345 
L 376.243541 255.369345 
z
" clip-path="url(#p030c59876c)" style="fill: #1f77b4"/>
   </g>
   <g id="patch_199">
    <path d="M 377.860977 273.312 
L 379.478413 273.312 
L 379.478413 262.845451 
L 377.860977 262.845451 
z
" clip-path="url(#p030c59876c)" style="fill: #1f77b4"/>
   </g>
   <g id="patch_200">
    <path d="M 379.478413 273.312 
L 381.095849 273.312 
L 381.095849 259.107398 
L 379.478413 259.107398 
z
" clip-path="url(#p030c59876c)" style="fill: #1f77b4"/>
   </g>
   <g id="patch_201">
    <path d="M 381.095849 273.312 
L 382.713284 273.312 
L 382.713284 269.573947 
L 381.095849 269.573947 
z
" clip-path="url(#p030c59876c)" style="fill: #1f77b4"/>
   </g>
   <g id="patch_202">
    <path d="M 382.713284 273.312 
L 384.33072 273.312 
L 384.33072 271.816779 
L 382.713284 271.816779 
z
" clip-path="url(#p030c59876c)" style="fill: #1f77b4"/>
   </g>
   <g id="matplotlib.axis_1">
    <g id="xtick_1">
     <g id="line2d_1">
      <defs>
       <path id="m29946877ad" d="M 0 0 
L 0 3.5 
" style="stroke: #000000; stroke-width: 0.8"/>
      </defs>
      <g>
       <use xlink:href="#m29946877ad" x="60.013977" y="273.312" style="stroke: #000000; stroke-width: 0.8"/>
      </g>
     </g>
     <g id="text_1">
      <!-- 0.0 -->
      <g transform="translate(52.062415 287.910437)scale(0.1 -0.1)">
       <defs>
        <path id="DejaVuSans-30" d="M 2034 4250 
Q 1547 4250 1301 3770 
Q 1056 3291 1056 2328 
Q 1056 1369 1301 889 
Q 1547 409 2034 409 
Q 2525 409 2770 889 
Q 3016 1369 3016 2328 
Q 3016 3291 2770 3770 
Q 2525 4250 2034 4250 
z
M 2034 4750 
Q 2819 4750 3233 4129 
Q 3647 3509 3647 2328 
Q 3647 1150 3233 529 
Q 2819 -91 2034 -91 
Q 1250 -91 836 529 
Q 422 1150 422 2328 
Q 422 3509 836 4129 
Q 1250 4750 2034 4750 
z
" transform="scale(0.015625)"/>
        <path id="DejaVuSans-2e" d="M 684 794 
L 1344 794 
L 1344 0 
L 684 0 
L 684 794 
z
" transform="scale(0.015625)"/>
       </defs>
       <use xlink:href="#DejaVuSans-30"/>
       <use xlink:href="#DejaVuSans-2e" x="63.623047"/>
       <use xlink:href="#DejaVuSans-30" x="95.410156"/>
      </g>
     </g>
    </g>
    <g id="xtick_2">
     <g id="line2d_2">
      <g>
       <use xlink:href="#m29946877ad" x="101.350278" y="273.312" style="stroke: #000000; stroke-width: 0.8"/>
      </g>
     </g>
     <g id="text_2">
      <!-- 0.2 -->
      <g transform="translate(93.398715 287.910437)scale(0.1 -0.1)">
       <defs>
        <path id="DejaVuSans-32" d="M 1228 531 
L 3431 531 
L 3431 0 
L 469 0 
L 469 531 
Q 828 903 1448 1529 
Q 2069 2156 2228 2338 
Q 2531 2678 2651 2914 
Q 2772 3150 2772 3378 
Q 2772 3750 2511 3984 
Q 2250 4219 1831 4219 
Q 1534 4219 1204 4116 
Q 875 4013 500 3803 
L 500 4441 
Q 881 4594 1212 4672 
Q 1544 4750 1819 4750 
Q 2544 4750 2975 4387 
Q 3406 4025 3406 3419 
Q 3406 3131 3298 2873 
Q 3191 2616 2906 2266 
Q 2828 2175 2409 1742 
Q 1991 1309 1228 531 
z
" transform="scale(0.015625)"/>
       </defs>
       <use xlink:href="#DejaVuSans-30"/>
       <use xlink:href="#DejaVuSans-2e" x="63.623047"/>
       <use xlink:href="#DejaVuSans-32" x="95.410156"/>
      </g>
     </g>
    </g>
    <g id="xtick_3">
     <g id="line2d_3">
      <g>
       <use xlink:href="#m29946877ad" x="142.686578" y="273.312" style="stroke: #000000; stroke-width: 0.8"/>
      </g>
     </g>
     <g id="text_3">
      <!-- 0.4 -->
      <g transform="translate(134.735016 287.910437)scale(0.1 -0.1)">
       <defs>
        <path id="DejaVuSans-34" d="M 2419 4116 
L 825 1625 
L 2419 1625 
L 2419 4116 
z
M 2253 4666 
L 3047 4666 
L 3047 1625 
L 3713 1625 
L 3713 1100 
L 3047 1100 
L 3047 0 
L 2419 0 
L 2419 1100 
L 313 1100 
L 313 1709 
L 2253 4666 
z
" transform="scale(0.015625)"/>
       </defs>
       <use xlink:href="#DejaVuSans-30"/>
       <use xlink:href="#DejaVuSans-2e" x="63.623047"/>
       <use xlink:href="#DejaVuSans-34" x="95.410156"/>
      </g>
     </g>
    </g>
    <g id="xtick_4">
     <g id="line2d_4">
      <g>
       <use xlink:href="#m29946877ad" x="184.022879" y="273.312" style="stroke: #000000; stroke-width: 0.8"/>
      </g>
     </g>
     <g id="text_4">
      <!-- 0.6 -->
      <g transform="translate(176.071316 287.910437)scale(0.1 -0.1)">
       <defs>
        <path id="DejaVuSans-36" d="M 2113 2584 
Q 1688 2584 1439 2293 
Q 1191 2003 1191 1497 
Q 1191 994 1439 701 
Q 1688 409 2113 409 
Q 2538 409 2786 701 
Q 3034 994 3034 1497 
Q 3034 2003 2786 2293 
Q 2538 2584 2113 2584 
z
M 3366 4563 
L 3366 3988 
Q 3128 4100 2886 4159 
Q 2644 4219 2406 4219 
Q 1781 4219 1451 3797 
Q 1122 3375 1075 2522 
Q 1259 2794 1537 2939 
Q 1816 3084 2150 3084 
Q 2853 3084 3261 2657 
Q 3669 2231 3669 1497 
Q 3669 778 3244 343 
Q 2819 -91 2113 -91 
Q 1303 -91 875 529 
Q 447 1150 447 2328 
Q 447 3434 972 4092 
Q 1497 4750 2381 4750 
Q 2619 4750 2861 4703 
Q 3103 4656 3366 4563 
z
" transform="scale(0.015625)"/>
       </defs>
       <use xlink:href="#DejaVuSans-30"/>
       <use xlink:href="#DejaVuSans-2e" x="63.623047"/>
       <use xlink:href="#DejaVuSans-36" x="95.410156"/>
      </g>
     </g>
    </g>
    <g id="xtick_5">
     <g id="line2d_5">
      <g>
       <use xlink:href="#m29946877ad" x="225.35918" y="273.312" style="stroke: #000000; stroke-width: 0.8"/>
      </g>
     </g>
     <g id="text_5">
      <!-- 0.8 -->
      <g transform="translate(217.407617 287.910437)scale(0.1 -0.1)">
       <defs>
        <path id="DejaVuSans-38" d="M 2034 2216 
Q 1584 2216 1326 1975 
Q 1069 1734 1069 1313 
Q 1069 891 1326 650 
Q 1584 409 2034 409 
Q 2484 409 2743 651 
Q 3003 894 3003 1313 
Q 3003 1734 2745 1975 
Q 2488 2216 2034 2216 
z
M 1403 2484 
Q 997 2584 770 2862 
Q 544 3141 544 3541 
Q 544 4100 942 4425 
Q 1341 4750 2034 4750 
Q 2731 4750 3128 4425 
Q 3525 4100 3525 3541 
Q 3525 3141 3298 2862 
Q 3072 2584 2669 2484 
Q 3125 2378 3379 2068 
Q 3634 1759 3634 1313 
Q 3634 634 3220 271 
Q 2806 -91 2034 -91 
Q 1263 -91 848 271 
Q 434 634 434 1313 
Q 434 1759 690 2068 
Q 947 2378 1403 2484 
z
M 1172 3481 
Q 1172 3119 1398 2916 
Q 1625 2713 2034 2713 
Q 2441 2713 2670 2916 
Q 2900 3119 2900 3481 
Q 2900 3844 2670 4047 
Q 2441 4250 2034 4250 
Q 1625 4250 1398 4047 
Q 1172 3844 1172 3481 
z
" transform="scale(0.015625)"/>
       </defs>
       <use xlink:href="#DejaVuSans-30"/>
       <use xlink:href="#DejaVuSans-2e" x="63.623047"/>
       <use xlink:href="#DejaVuSans-38" x="95.410156"/>
      </g>
     </g>
    </g>
    <g id="xtick_6">
     <g id="line2d_6">
      <g>
       <use xlink:href="#m29946877ad" x="266.69548" y="273.312" style="stroke: #000000; stroke-width: 0.8"/>
      </g>
     </g>
     <g id="text_6">
      <!-- 1.0 -->
      <g transform="translate(258.743918 287.910437)scale(0.1 -0.1)">
       <defs>
        <path id="DejaVuSans-31" d="M 794 531 
L 1825 531 
L 1825 4091 
L 703 3866 
L 703 4441 
L 1819 4666 
L 2450 4666 
L 2450 531 
L 3481 531 
L 3481 0 
L 794 0 
L 794 531 
z
" transform="scale(0.015625)"/>
       </defs>
       <use xlink:href="#DejaVuSans-31"/>
       <use xlink:href="#DejaVuSans-2e" x="63.623047"/>
       <use xlink:href="#DejaVuSans-30" x="95.410156"/>
      </g>
     </g>
    </g>
    <g id="xtick_7">
     <g id="line2d_7">
      <g>
       <use xlink:href="#m29946877ad" x="308.031781" y="273.312" style="stroke: #000000; stroke-width: 0.8"/>
      </g>
     </g>
     <g id="text_7">
      <!-- 1.2 -->
      <g transform="translate(300.080218 287.910437)scale(0.1 -0.1)">
       <use xlink:href="#DejaVuSans-31"/>
       <use xlink:href="#DejaVuSans-2e" x="63.623047"/>
       <use xlink:href="#DejaVuSans-32" x="95.410156"/>
      </g>
     </g>
    </g>
    <g id="xtick_8">
     <g id="line2d_8">
      <g>
       <use xlink:href="#m29946877ad" x="349.368081" y="273.312" style="stroke: #000000; stroke-width: 0.8"/>
      </g>
     </g>
     <g id="text_8">
      <!-- 1.4 -->
      <g transform="translate(341.416519 287.910437)scale(0.1 -0.1)">
       <use xlink:href="#DejaVuSans-31"/>
       <use xlink:href="#DejaVuSans-2e" x="63.623047"/>
       <use xlink:href="#DejaVuSans-34" x="95.410156"/>
      </g>
     </g>
    </g>
    <g id="xtick_9">
     <g id="line2d_9">
      <g>
       <use xlink:href="#m29946877ad" x="390.704382" y="273.312" style="stroke: #000000; stroke-width: 0.8"/>
      </g>
     </g>
     <g id="text_9">
      <!-- 1.6 -->
      <g transform="translate(382.752819 287.910437)scale(0.1 -0.1)">
       <use xlink:href="#DejaVuSans-31"/>
       <use xlink:href="#DejaVuSans-2e" x="63.623047"/>
       <use xlink:href="#DejaVuSans-36" x="95.410156"/>
      </g>
     </g>
    </g>
    <g id="text_10">
     <!-- Angle with normal (rad) -->
     <g transform="translate(163.023281 301.588562)scale(0.1 -0.1)">
      <defs>
       <path id="DejaVuSans-41" d="M 2188 4044 
L 1331 1722 
L 3047 1722 
L 2188 4044 
z
M 1831 4666 
L 2547 4666 
L 4325 0 
L 3669 0 
L 3244 1197 
L 1141 1197 
L 716 0 
L 50 0 
L 1831 4666 
z
" transform="scale(0.015625)"/>
       <path id="DejaVuSans-6e" d="M 3513 2113 
L 3513 0 
L 2938 0 
L 2938 2094 
Q 2938 2591 2744 2837 
Q 2550 3084 2163 3084 
Q 1697 3084 1428 2787 
Q 1159 2491 1159 1978 
L 1159 0 
L 581 0 
L 581 3500 
L 1159 3500 
L 1159 2956 
Q 1366 3272 1645 3428 
Q 1925 3584 2291 3584 
Q 2894 3584 3203 3211 
Q 3513 2838 3513 2113 
z
" transform="scale(0.015625)"/>
       <path id="DejaVuSans-67" d="M 2906 1791 
Q 2906 2416 2648 2759 
Q 2391 3103 1925 3103 
Q 1463 3103 1205 2759 
Q 947 2416 947 1791 
Q 947 1169 1205 825 
Q 1463 481 1925 481 
Q 2391 481 2648 825 
Q 2906 1169 2906 1791 
z
M 3481 434 
Q 3481 -459 3084 -895 
Q 2688 -1331 1869 -1331 
Q 1566 -1331 1297 -1286 
Q 1028 -1241 775 -1147 
L 775 -588 
Q 1028 -725 1275 -790 
Q 1522 -856 1778 -856 
Q 2344 -856 2625 -561 
Q 2906 -266 2906 331 
L 2906 616 
Q 2728 306 2450 153 
Q 2172 0 1784 0 
Q 1141 0 747 490 
Q 353 981 353 1791 
Q 353 2603 747 3093 
Q 1141 3584 1784 3584 
Q 2172 3584 2450 3431 
Q 2728 3278 2906 2969 
L 2906 3500 
L 3481 3500 
L 3481 434 
z
" transform="scale(0.015625)"/>
       <path id="DejaVuSans-6c" d="M 603 4863 
L 1178 4863 
L 1178 0 
L 603 0 
L 603 4863 
z
" transform="scale(0.015625)"/>
       <path id="DejaVuSans-65" d="M 3597 1894 
L 3597 1613 
L 953 1613 
Q 991 1019 1311 708 
Q 1631 397 2203 397 
Q 2534 397 2845 478 
Q 3156 559 3463 722 
L 3463 178 
Q 3153 47 2828 -22 
Q 2503 -91 2169 -91 
Q 1331 -91 842 396 
Q 353 884 353 1716 
Q 353 2575 817 3079 
Q 1281 3584 2069 3584 
Q 2775 3584 3186 3129 
Q 3597 2675 3597 1894 
z
M 3022 2063 
Q 3016 2534 2758 2815 
Q 2500 3097 2075 3097 
Q 1594 3097 1305 2825 
Q 1016 2553 972 2059 
L 3022 2063 
z
" transform="scale(0.015625)"/>
       <path id="DejaVuSans-20" transform="scale(0.015625)"/>
       <path id="DejaVuSans-77" d="M 269 3500 
L 844 3500 
L 1563 769 
L 2278 3500 
L 2956 3500 
L 3675 769 
L 4391 3500 
L 4966 3500 
L 4050 0 
L 3372 0 
L 2619 2869 
L 1863 0 
L 1184 0 
L 269 3500 
z
" transform="scale(0.015625)"/>
       <path id="DejaVuSans-69" d="M 603 3500 
L 1178 3500 
L 1178 0 
L 603 0 
L 603 3500 
z
M 603 4863 
L 1178 4863 
L 1178 4134 
L 603 4134 
L 603 4863 
z
" transform="scale(0.015625)"/>
       <path id="DejaVuSans-74" d="M 1172 4494 
L 1172 3500 
L 2356 3500 
L 2356 3053 
L 1172 3053 
L 1172 1153 
Q 1172 725 1289 603 
Q 1406 481 1766 481 
L 2356 481 
L 2356 0 
L 1766 0 
Q 1100 0 847 248 
Q 594 497 594 1153 
L 594 3053 
L 172 3053 
L 172 3500 
L 594 3500 
L 594 4494 
L 1172 4494 
z
" transform="scale(0.015625)"/>
       <path id="DejaVuSans-68" d="M 3513 2113 
L 3513 0 
L 2938 0 
L 2938 2094 
Q 2938 2591 2744 2837 
Q 2550 3084 2163 3084 
Q 1697 3084 1428 2787 
Q 1159 2491 1159 1978 
L 1159 0 
L 581 0 
L 581 4863 
L 1159 4863 
L 1159 2956 
Q 1366 3272 1645 3428 
Q 1925 3584 2291 3584 
Q 2894 3584 3203 3211 
Q 3513 2838 3513 2113 
z
" transform="scale(0.015625)"/>
       <path id="DejaVuSans-6f" d="M 1959 3097 
Q 1497 3097 1228 2736 
Q 959 2375 959 1747 
Q 959 1119 1226 758 
Q 1494 397 1959 397 
Q 2419 397 2687 759 
Q 2956 1122 2956 1747 
Q 2956 2369 2687 2733 
Q 2419 3097 1959 3097 
z
M 1959 3584 
Q 2709 3584 3137 3096 
Q 3566 2609 3566 1747 
Q 3566 888 3137 398 
Q 2709 -91 1959 -91 
Q 1206 -91 779 398 
Q 353 888 353 1747 
Q 353 2609 779 3096 
Q 1206 3584 1959 3584 
z
" transform="scale(0.015625)"/>
       <path id="DejaVuSans-72" d="M 2631 2963 
Q 2534 3019 2420 3045 
Q 2306 3072 2169 3072 
Q 1681 3072 1420 2755 
Q 1159 2438 1159 1844 
L 1159 0 
L 581 0 
L 581 3500 
L 1159 3500 
L 1159 2956 
Q 1341 3275 1631 3429 
Q 1922 3584 2338 3584 
Q 2397 3584 2469 3576 
Q 2541 3569 2628 3553 
L 2631 2963 
z
" transform="scale(0.015625)"/>
       <path id="DejaVuSans-6d" d="M 3328 2828 
Q 3544 3216 3844 3400 
Q 4144 3584 4550 3584 
Q 5097 3584 5394 3201 
Q 5691 2819 5691 2113 
L 5691 0 
L 5113 0 
L 5113 2094 
Q 5113 2597 4934 2840 
Q 4756 3084 4391 3084 
Q 3944 3084 3684 2787 
Q 3425 2491 3425 1978 
L 3425 0 
L 2847 0 
L 2847 2094 
Q 2847 2600 2669 2842 
Q 2491 3084 2119 3084 
Q 1678 3084 1418 2786 
Q 1159 2488 1159 1978 
L 1159 0 
L 581 0 
L 581 3500 
L 1159 3500 
L 1159 2956 
Q 1356 3278 1631 3431 
Q 1906 3584 2284 3584 
Q 2666 3584 2933 3390 
Q 3200 3197 3328 2828 
z
" transform="scale(0.015625)"/>
       <path id="DejaVuSans-61" d="M 2194 1759 
Q 1497 1759 1228 1600 
Q 959 1441 959 1056 
Q 959 750 1161 570 
Q 1363 391 1709 391 
Q 2188 391 2477 730 
Q 2766 1069 2766 1631 
L 2766 1759 
L 2194 1759 
z
M 3341 1997 
L 3341 0 
L 2766 0 
L 2766 531 
Q 2569 213 2275 61 
Q 1981 -91 1556 -91 
Q 1019 -91 701 211 
Q 384 513 384 1019 
Q 384 1609 779 1909 
Q 1175 2209 1959 2209 
L 2766 2209 
L 2766 2266 
Q 2766 2663 2505 2880 
Q 2244 3097 1772 3097 
Q 1472 3097 1187 3025 
Q 903 2953 641 2809 
L 641 3341 
Q 956 3463 1253 3523 
Q 1550 3584 1831 3584 
Q 2591 3584 2966 3190 
Q 3341 2797 3341 1997 
z
" transform="scale(0.015625)"/>
       <path id="DejaVuSans-28" d="M 1984 4856 
Q 1566 4138 1362 3434 
Q 1159 2731 1159 2009 
Q 1159 1288 1364 580 
Q 1569 -128 1984 -844 
L 1484 -844 
Q 1016 -109 783 600 
Q 550 1309 550 2009 
Q 550 2706 781 3412 
Q 1013 4119 1484 4856 
L 1984 4856 
z
" transform="scale(0.015625)"/>
       <path id="DejaVuSans-64" d="M 2906 2969 
L 2906 4863 
L 3481 4863 
L 3481 0 
L 2906 0 
L 2906 525 
Q 2725 213 2448 61 
Q 2172 -91 1784 -91 
Q 1150 -91 751 415 
Q 353 922 353 1747 
Q 353 2572 751 3078 
Q 1150 3584 1784 3584 
Q 2172 3584 2448 3432 
Q 2725 3281 2906 2969 
z
M 947 1747 
Q 947 1113 1208 752 
Q 1469 391 1925 391 
Q 2381 391 2643 752 
Q 2906 1113 2906 1747 
Q 2906 2381 2643 2742 
Q 2381 3103 1925 3103 
Q 1469 3103 1208 2742 
Q 947 2381 947 1747 
z
" transform="scale(0.015625)"/>
       <path id="DejaVuSans-29" d="M 513 4856 
L 1013 4856 
Q 1481 4119 1714 3412 
Q 1947 2706 1947 2009 
Q 1947 1309 1714 600 
Q 1481 -109 1013 -844 
L 513 -844 
Q 928 -128 1133 580 
Q 1338 1288 1338 2009 
Q 1338 2731 1133 3434 
Q 928 4138 513 4856 
z
" transform="scale(0.015625)"/>
      </defs>
      <use xlink:href="#DejaVuSans-41"/>
      <use xlink:href="#DejaVuSans-6e" x="68.408203"/>
      <use xlink:href="#DejaVuSans-67" x="131.787109"/>
      <use xlink:href="#DejaVuSans-6c" x="195.263672"/>
      <use xlink:href="#DejaVuSans-65" x="223.046875"/>
      <use xlink:href="#DejaVuSans-20" x="284.570312"/>
      <use xlink:href="#DejaVuSans-77" x="316.357422"/>
      <use xlink:href="#DejaVuSans-69" x="398.144531"/>
      <use xlink:href="#DejaVuSans-74" x="425.927734"/>
      <use xlink:href="#DejaVuSans-68" x="465.136719"/>
      <use xlink:href="#DejaVuSans-20" x="528.515625"/>
      <use xlink:href="#DejaVuSans-6e" x="560.302734"/>
      <use xlink:href="#DejaVuSans-6f" x="623.681641"/>
      <use xlink:href="#DejaVuSans-72" x="684.863281"/>
      <use xlink:href="#DejaVuSans-6d" x="724.226562"/>
      <use xlink:href="#DejaVuSans-61" x="821.638672"/>
      <use xlink:href="#DejaVuSans-6c" x="882.917969"/>
      <use xlink:href="#DejaVuSans-20" x="910.701172"/>
      <use xlink:href="#DejaVuSans-28" x="942.488281"/>
      <use xlink:href="#DejaVuSans-72" x="981.501953"/>
      <use xlink:href="#DejaVuSans-61" x="1022.615234"/>
      <use xlink:href="#DejaVuSans-64" x="1083.894531"/>
      <use xlink:href="#DejaVuSans-29" x="1147.371094"/>
     </g>
    </g>
   </g>
   <g id="matplotlib.axis_2">
    <g id="ytick_1">
     <g id="line2d_10">
      <defs>
       <path id="ma699410994" d="M 0 0 
L -3.5 0 
" style="stroke: #000000; stroke-width: 0.8"/>
      </defs>
      <g>
       <use xlink:href="#ma699410994" x="43.78125" y="273.312" style="stroke: #000000; stroke-width: 0.8"/>
      </g>
     </g>
     <g id="text_11">
      <!-- 0.0 -->
      <g transform="translate(20.878125 277.111219)scale(0.1 -0.1)">
       <use xlink:href="#DejaVuSans-30"/>
       <use xlink:href="#DejaVuSans-2e" x="63.623047"/>
       <use xlink:href="#DejaVuSans-30" x="95.410156"/>
      </g>
     </g>
    </g>
    <g id="ytick_2">
     <g id="line2d_11">
      <g>
       <use xlink:href="#ma699410994" x="43.78125" y="226.507142" style="stroke: #000000; stroke-width: 0.8"/>
      </g>
     </g>
     <g id="text_12">
      <!-- 0.2 -->
      <g transform="translate(20.878125 230.306361)scale(0.1 -0.1)">
       <use xlink:href="#DejaVuSans-30"/>
       <use xlink:href="#DejaVuSans-2e" x="63.623047"/>
       <use xlink:href="#DejaVuSans-32" x="95.410156"/>
      </g>
     </g>
    </g>
    <g id="ytick_3">
     <g id="line2d_12">
      <g>
       <use xlink:href="#ma699410994" x="43.78125" y="179.702284" style="stroke: #000000; stroke-width: 0.8"/>
      </g>
     </g>
     <g id="text_13">
      <!-- 0.4 -->
      <g transform="translate(20.878125 183.501503)scale(0.1 -0.1)">
       <use xlink:href="#DejaVuSans-30"/>
       <use xlink:href="#DejaVuSans-2e" x="63.623047"/>
       <use xlink:href="#DejaVuSans-34" x="95.410156"/>
      </g>
     </g>
    </g>
    <g id="ytick_4">
     <g id="line2d_13">
      <g>
       <use xlink:href="#ma699410994" x="43.78125" y="132.897427" style="stroke: #000000; stroke-width: 0.8"/>
      </g>
     </g>
     <g id="text_14">
      <!-- 0.6 -->
      <g transform="translate(20.878125 136.696645)scale(0.1 -0.1)">
       <use xlink:href="#DejaVuSans-30"/>
       <use xlink:href="#DejaVuSans-2e" x="63.623047"/>
       <use xlink:href="#DejaVuSans-36" x="95.410156"/>
      </g>
     </g>
    </g>
    <g id="ytick_5">
     <g id="line2d_14">
      <g>
       <use xlink:href="#ma699410994" x="43.78125" y="86.092569" style="stroke: #000000; stroke-width: 0.8"/>
      </g>
     </g>
     <g id="text_15">
      <!-- 0.8 -->
      <g transform="translate(20.878125 89.891787)scale(0.1 -0.1)">
       <use xlink:href="#DejaVuSans-30"/>
       <use xlink:href="#DejaVuSans-2e" x="63.623047"/>
       <use xlink:href="#DejaVuSans-38" x="95.410156"/>
      </g>
     </g>
    </g>
    <g id="ytick_6">
     <g id="line2d_15">
      <g>
       <use xlink:href="#ma699410994" x="43.78125" y="39.287711" style="stroke: #000000; stroke-width: 0.8"/>
      </g>
     </g>
     <g id="text_16">
      <!-- 1.0 -->
      <g transform="translate(20.878125 43.08693)scale(0.1 -0.1)">
       <use xlink:href="#DejaVuSans-31"/>
       <use xlink:href="#DejaVuSans-2e" x="63.623047"/>
       <use xlink:href="#DejaVuSans-30" x="95.410156"/>
      </g>
     </g>
    </g>
    <g id="text_17">
     <!-- Probability density -->
     <g transform="translate(14.798438 186.606781)rotate(-90)scale(0.1 -0.1)">
      <defs>
       <path id="DejaVuSans-50" d="M 1259 4147 
L 1259 2394 
L 2053 2394 
Q 2494 2394 2734 2622 
Q 2975 2850 2975 3272 
Q 2975 3691 2734 3919 
Q 2494 4147 2053 4147 
L 1259 4147 
z
M 628 4666 
L 2053 4666 
Q 2838 4666 3239 4311 
Q 3641 3956 3641 3272 
Q 3641 2581 3239 2228 
Q 2838 1875 2053 1875 
L 1259 1875 
L 1259 0 
L 628 0 
L 628 4666 
z
" transform="scale(0.015625)"/>
       <path id="DejaVuSans-62" d="M 3116 1747 
Q 3116 2381 2855 2742 
Q 2594 3103 2138 3103 
Q 1681 3103 1420 2742 
Q 1159 2381 1159 1747 
Q 1159 1113 1420 752 
Q 1681 391 2138 391 
Q 2594 391 2855 752 
Q 3116 1113 3116 1747 
z
M 1159 2969 
Q 1341 3281 1617 3432 
Q 1894 3584 2278 3584 
Q 2916 3584 3314 3078 
Q 3713 2572 3713 1747 
Q 3713 922 3314 415 
Q 2916 -91 2278 -91 
Q 1894 -91 1617 61 
Q 1341 213 1159 525 
L 1159 0 
L 581 0 
L 581 4863 
L 1159 4863 
L 1159 2969 
z
" transform="scale(0.015625)"/>
       <path id="DejaVuSans-79" d="M 2059 -325 
Q 1816 -950 1584 -1140 
Q 1353 -1331 966 -1331 
L 506 -1331 
L 506 -850 
L 844 -850 
Q 1081 -850 1212 -737 
Q 1344 -625 1503 -206 
L 1606 56 
L 191 3500 
L 800 3500 
L 1894 763 
L 2988 3500 
L 3597 3500 
L 2059 -325 
z
" transform="scale(0.015625)"/>
       <path id="DejaVuSans-73" d="M 2834 3397 
L 2834 2853 
Q 2591 2978 2328 3040 
Q 2066 3103 1784 3103 
Q 1356 3103 1142 2972 
Q 928 2841 928 2578 
Q 928 2378 1081 2264 
Q 1234 2150 1697 2047 
L 1894 2003 
Q 2506 1872 2764 1633 
Q 3022 1394 3022 966 
Q 3022 478 2636 193 
Q 2250 -91 1575 -91 
Q 1294 -91 989 -36 
Q 684 19 347 128 
L 347 722 
Q 666 556 975 473 
Q 1284 391 1588 391 
Q 1994 391 2212 530 
Q 2431 669 2431 922 
Q 2431 1156 2273 1281 
Q 2116 1406 1581 1522 
L 1381 1569 
Q 847 1681 609 1914 
Q 372 2147 372 2553 
Q 372 3047 722 3315 
Q 1072 3584 1716 3584 
Q 2034 3584 2315 3537 
Q 2597 3491 2834 3397 
z
" transform="scale(0.015625)"/>
      </defs>
      <use xlink:href="#DejaVuSans-50"/>
      <use xlink:href="#DejaVuSans-72" x="58.552734"/>
      <use xlink:href="#DejaVuSans-6f" x="97.416016"/>
      <use xlink:href="#DejaVuSans-62" x="158.597656"/>
      <use xlink:href="#DejaVuSans-61" x="222.074219"/>
      <use xlink:href="#DejaVuSans-62" x="283.353516"/>
      <use xlink:href="#DejaVuSans-69" x="346.830078"/>
      <use xlink:href="#DejaVuSans-6c" x="374.613281"/>
      <use xlink:href="#DejaVuSans-69" x="402.396484"/>
      <use xlink:href="#DejaVuSans-74" x="430.179688"/>
      <use xlink:href="#DejaVuSans-79" x="469.388672"/>
      <use xlink:href="#DejaVuSans-20" x="528.568359"/>
      <use xlink:href="#DejaVuSans-64" x="560.355469"/>
      <use xlink:href="#DejaVuSans-65" x="623.832031"/>
      <use xlink:href="#DejaVuSans-6e" x="685.355469"/>
      <use xlink:href="#DejaVuSans-73" x="748.734375"/>
      <use xlink:href="#DejaVuSans-69" x="800.833984"/>
      <use xlink:href="#DejaVuSans-74" x="828.617188"/>
      <use xlink:href="#DejaVuSans-79" x="867.826172"/>
     </g>
    </g>
   </g>
   <g id="line2d_16">
    <path d="M 60.013977 273.312 
L 79.837728 228.694182 
L 90.237073 205.840647 
L 99.01152 187.079808 
L 106.811029 170.920988 
L 113.960578 156.618673 
L 120.460169 144.099316 
L 126.63478 132.678465 
L 132.484411 122.321065 
L 138.009063 112.98264 
L 143.208736 104.611562 
L 148.408408 96.667488 
L 153.283101 89.625624 
L 157.832814 83.421606 
L 162.382528 77.585596 
L 166.607261 72.50586 
L 170.831995 67.761685 
L 175.056729 63.360999 
L 178.956483 59.61007 
L 182.856238 56.16343 
L 186.755992 53.025988 
L 190.330767 50.425446 
L 193.905542 48.091585 
L 197.480316 46.0272 
L 201.055091 44.23476 
L 204.304886 42.843066 
L 207.554682 41.679272 
L 210.804477 40.744529 
L 214.054272 40.039762 
L 217.304067 39.565668 
L 220.553863 39.322715 
L 223.803658 39.311143 
L 227.053453 39.530965 
L 230.303248 39.981963 
L 233.553044 40.66369 
L 236.802839 41.575473 
L 240.052634 42.71641 
L 243.302429 44.085373 
L 246.552225 45.681008 
L 250.126999 47.696122 
L 253.701774 49.981185 
L 257.276549 52.533463 
L 260.851324 55.3499 
L 264.751078 58.719683 
L 268.650832 62.395024 
L 272.550587 66.370691 
L 276.77532 71.009994 
L 281.000054 75.98736 
L 285.224788 81.294468 
L 289.774501 87.368398 
L 294.324215 93.802687 
L 299.198908 101.082277 
L 304.39858 109.269085 
L 309.598252 117.871111 
L 315.122904 127.441345 
L 320.972536 138.028231 
L 327.147147 149.672711 
L 333.646737 162.405965 
L 340.796287 176.917103 
L 348.595795 193.270979 
L 357.370243 212.209075 
L 367.769587 235.213194 
L 382.393666 268.160802 
L 384.668523 273.312 
L 384.668523 273.312 
" clip-path="url(#p030c59876c)" style="fill: none; stroke: #ff7f0e; stroke-width: 1.5; stroke-linecap: square"/>
   </g>
   <g id="patch_203">
    <path d="M 43.78125 273.312 
L 43.78125 7.2 
" style="fill: none; stroke: #000000; stroke-width: 0.8; stroke-linejoin: miter; stroke-linecap: square"/>
   </g>
   <g id="patch_204">
    <path d="M 400.90125 273.312 
L 400.90125 7.2 
" style="fill: none; stroke: #000000; stroke-width: 0.8; stroke-linejoin: miter; stroke-linecap: square"/>
   </g>
   <g id="patch_205">
    <path d="M 43.78125 273.312 
L 400.90125 273.312 
" style="fill: none; stroke: #000000; stroke-width: 0.8; stroke-linejoin: miter; stroke-linecap: square"/>
   </g>
   <g id="patch_206">
    <path d="M 43.78125 7.2 
L 400.90125 7.2 
" style="fill: none; stroke: #000000; stroke-width: 0.8; stroke-linejoin: miter; stroke-linecap: square"/>
   </g>
  </g>
 </g>
 <defs>
  <clipPath id="p030c59876c">
   <rect x="43.78125" y="7.2" width="357.12" height="266.112"/>
  </clipPath>
 </defs>
</svg>
