<?xml version="1.0" encoding="utf-8" standalone="no"?>
<!DOCTYPE svg PUBLIC "-//W3C//DTD SVG 1.1//EN"
  "http://www.w3.org/Graphics/SVG/1.1/DTD/svg11.dtd">
<svg xmlns:xlink="http://www.w3.org/1999/xlink" width="408.10125pt" height="310.86825pt" viewBox="0 0 408.10125 310.86825" xmlns="http://www.w3.org/2000/svg" version="1.1">
 <metadata>
  <rdf:RDF xmlns:dc="http://purl.org/dc/elements/1.1/" xmlns:cc="http://creativecommons.org/ns#" xmlns:rdf="http://www.w3.org/1999/02/22-rdf-syntax-ns#">
   <cc:Work>
    <dc:type rdf:resource="http://purl.org/dc/dcmitype/StillImage"/>
    <dc:date>2022-05-27T16:52:16.156036</dc:date>
    <dc:format>image/svg+xml</dc:format>
    <dc:creator>
     <cc:Agent>
      <dc:title>Matplotlib v3.5.2, https://matplotlib.org/</dc:title>
     </cc:Agent>
    </dc:creator>
   </cc:Work>
  </rdf:RDF>
 </metadata>
 <defs>
  <style type="text/css">*{stroke-linejoin: round; stroke-linecap: butt}</style>
 </defs>
 <g id="figure_1">
  <g id="patch_1">
   <path d="M 0 310.86825 
L 408.10125 310.86825 
L 408.10125 0 
L 0 0 
z
" style="fill: #ffffff"/>
  </g>
  <g id="axes_1">
   <g id="patch_2">
    <path d="M 43.78125 273.312 
L 400.90125 273.312 
L 400.90125 7.2 
L 43.78125 7.2 
z
" style="fill: #ffffff"/>
   </g>
   <g id="patch_3">
    <path d="M 60.936887 273.312 
L 62.551964 273.312 
L 62.551964 264.57269 
L 60.936887 264.57269 
z
" clip-path="url(#pb638cb3b95)" style="fill: #1f77b4"/>
   </g>
   <g id="patch_4">
    <path d="M 62.551964 273.312 
L 64.16704 273.312 
L 64.16704 265.300966 
L 62.551964 265.300966 
z
" clip-path="url(#pb638cb3b95)" style="fill: #1f77b4"/>
   </g>
   <g id="patch_5">
    <path d="M 64.16704 273.312 
L 65.782117 273.312 
L 65.782117 262.387862 
L 64.16704 262.387862 
z
" clip-path="url(#pb638cb3b95)" style="fill: #1f77b4"/>
   </g>
   <g id="patch_6">
    <path d="M 65.782117 273.312 
L 67.397193 273.312 
L 67.397193 260.203034 
L 65.782117 260.203034 
z
" clip-path="url(#pb638cb3b95)" style="fill: #1f77b4"/>
   </g>
   <g id="patch_7">
    <path d="M 67.397193 273.312 
L 69.01227 273.312 
L 69.01227 256.561655 
L 67.397193 256.561655 
z
" clip-path="url(#pb638cb3b95)" style="fill: #1f77b4"/>
   </g>
   <g id="patch_8">
    <path d="M 69.01227 273.312 
L 70.627346 273.312 
L 70.627346 247.094069 
L 69.01227 247.094069 
z
" clip-path="url(#pb638cb3b95)" style="fill: #1f77b4"/>
   </g>
   <g id="patch_9">
    <path d="M 70.627346 273.312 
L 72.242423 273.312 
L 72.242423 242.724414 
L 70.627346 242.724414 
z
" clip-path="url(#pb638cb3b95)" style="fill: #1f77b4"/>
   </g>
   <g id="patch_10">
    <path d="M 72.242423 273.312 
L 73.857499 273.312 
L 73.857499 242.724414 
L 72.242423 242.724414 
z
" clip-path="url(#pb638cb3b95)" style="fill: #1f77b4"/>
   </g>
   <g id="patch_11">
    <path d="M 73.857499 273.312 
L 75.472576 273.312 
L 75.472576 244.909241 
L 73.857499 244.909241 
z
" clip-path="url(#pb638cb3b95)" style="fill: #1f77b4"/>
   </g>
   <g id="patch_12">
    <path d="M 75.472576 273.312 
L 77.087652 273.312 
L 77.087652 243.45269 
L 75.472576 243.45269 
z
" clip-path="url(#pb638cb3b95)" style="fill: #1f77b4"/>
   </g>
   <g id="patch_13">
    <path d="M 77.087652 273.312 
L 78.702729 273.312 
L 78.702729 228.887172 
L 77.087652 228.887172 
z
" clip-path="url(#pb638cb3b95)" style="fill: #1f77b4"/>
   </g>
   <g id="patch_14">
    <path d="M 78.702729 273.312 
L 80.317805 273.312 
L 80.317805 236.169931 
L 78.702729 236.169931 
z
" clip-path="url(#pb638cb3b95)" style="fill: #1f77b4"/>
   </g>
   <g id="patch_15">
    <path d="M 80.317805 273.312 
L 81.932882 273.312 
L 81.932882 229.615448 
L 80.317805 229.615448 
z
" clip-path="url(#pb638cb3b95)" style="fill: #1f77b4"/>
   </g>
   <g id="patch_16">
    <path d="M 81.932882 273.312 
L 83.547958 273.312 
L 83.547958 221.604414 
L 81.932882 221.604414 
z
" clip-path="url(#pb638cb3b95)" style="fill: #1f77b4"/>
   </g>
   <g id="patch_17">
    <path d="M 83.547958 273.312 
L 85.163035 273.312 
L 85.163035 215.778207 
L 83.547958 215.778207 
z
" clip-path="url(#pb638cb3b95)" style="fill: #1f77b4"/>
   </g>
   <g id="patch_18">
    <path d="M 85.163035 273.312 
L 86.778111 273.312 
L 86.778111 221.604414 
L 85.163035 221.604414 
z
" clip-path="url(#pb638cb3b95)" style="fill: #1f77b4"/>
   </g>
   <g id="patch_19">
    <path d="M 86.778111 273.312 
L 88.393188 273.312 
L 88.393188 210.680276 
L 86.778111 210.680276 
z
" clip-path="url(#pb638cb3b95)" style="fill: #1f77b4"/>
   </g>
   <g id="patch_20">
    <path d="M 88.393188 273.312 
L 90.008265 273.312 
L 90.008265 208.495448 
L 88.393188 208.495448 
z
" clip-path="url(#pb638cb3b95)" style="fill: #1f77b4"/>
   </g>
   <g id="patch_21">
    <path d="M 90.008265 273.312 
L 91.623341 273.312 
L 91.623341 207.038897 
L 90.008265 207.038897 
z
" clip-path="url(#pb638cb3b95)" style="fill: #1f77b4"/>
   </g>
   <g id="patch_22">
    <path d="M 91.623341 273.312 
L 93.238418 273.312 
L 93.238418 211.408552 
L 91.623341 211.408552 
z
" clip-path="url(#pb638cb3b95)" style="fill: #1f77b4"/>
   </g>
   <g id="patch_23">
    <path d="M 93.238418 273.312 
L 94.853494 273.312 
L 94.853494 193.201655 
L 93.238418 193.201655 
z
" clip-path="url(#pb638cb3b95)" style="fill: #1f77b4"/>
   </g>
   <g id="patch_24">
    <path d="M 94.853494 273.312 
L 96.468571 273.312 
L 96.468571 191.745103 
L 94.853494 191.745103 
z
" clip-path="url(#pb638cb3b95)" style="fill: #1f77b4"/>
   </g>
   <g id="patch_25">
    <path d="M 96.468571 273.312 
L 98.083647 273.312 
L 98.083647 196.114759 
L 96.468571 196.114759 
z
" clip-path="url(#pb638cb3b95)" style="fill: #1f77b4"/>
   </g>
   <g id="patch_26">
    <path d="M 98.083647 273.312 
L 99.698724 273.312 
L 99.698724 193.929931 
L 98.083647 193.929931 
z
" clip-path="url(#pb638cb3b95)" style="fill: #1f77b4"/>
   </g>
   <g id="patch_27">
    <path d="M 99.698724 273.312 
L 101.3138 273.312 
L 101.3138 208.495448 
L 99.698724 208.495448 
z
" clip-path="url(#pb638cb3b95)" style="fill: #1f77b4"/>
   </g>
   <g id="patch_28">
    <path d="M 101.3138 273.312 
L 102.928877 273.312 
L 102.928877 174.994759 
L 101.3138 174.994759 
z
" clip-path="url(#pb638cb3b95)" style="fill: #1f77b4"/>
   </g>
   <g id="patch_29">
    <path d="M 102.928877 273.312 
L 104.543953 273.312 
L 104.543953 191.745103 
L 102.928877 191.745103 
z
" clip-path="url(#pb638cb3b95)" style="fill: #1f77b4"/>
   </g>
   <g id="patch_30">
    <path d="M 104.543953 273.312 
L 106.15903 273.312 
L 106.15903 172.081655 
L 104.543953 172.081655 
z
" clip-path="url(#pb638cb3b95)" style="fill: #1f77b4"/>
   </g>
   <g id="patch_31">
    <path d="M 106.15903 273.312 
L 107.774106 273.312 
L 107.774106 161.157517 
L 106.15903 161.157517 
z
" clip-path="url(#pb638cb3b95)" style="fill: #1f77b4"/>
   </g>
   <g id="patch_32">
    <path d="M 107.774106 273.312 
L 109.389183 273.312 
L 109.389183 183.005793 
L 107.774106 183.005793 
z
" clip-path="url(#pb638cb3b95)" style="fill: #1f77b4"/>
   </g>
   <g id="patch_33">
    <path d="M 109.389183 273.312 
L 111.004259 273.312 
L 111.004259 165.527172 
L 109.389183 165.527172 
z
" clip-path="url(#pb638cb3b95)" style="fill: #1f77b4"/>
   </g>
   <g id="patch_34">
    <path d="M 111.004259 273.312 
L 112.619336 273.312 
L 112.619336 172.081655 
L 111.004259 172.081655 
z
" clip-path="url(#pb638cb3b95)" style="fill: #1f77b4"/>
   </g>
   <g id="patch_35">
    <path d="M 112.619336 273.312 
L 114.234412 273.312 
L 114.234412 156.787862 
L 112.619336 156.787862 
z
" clip-path="url(#pb638cb3b95)" style="fill: #1f77b4"/>
   </g>
   <g id="patch_36">
    <path d="M 114.234412 273.312 
L 115.849489 273.312 
L 115.849489 166.983724 
L 114.234412 166.983724 
z
" clip-path="url(#pb638cb3b95)" style="fill: #1f77b4"/>
   </g>
   <g id="patch_37">
    <path d="M 115.849489 273.312 
L 117.464565 273.312 
L 117.464565 153.874759 
L 115.849489 153.874759 
z
" clip-path="url(#pb638cb3b95)" style="fill: #1f77b4"/>
   </g>
   <g id="patch_38">
    <path d="M 117.464565 273.312 
L 119.079642 273.312 
L 119.079642 142.950621 
L 117.464565 142.950621 
z
" clip-path="url(#pb638cb3b95)" style="fill: #1f77b4"/>
   </g>
   <g id="patch_39">
    <path d="M 119.079642 273.312 
L 120.694718 273.312 
L 120.694718 167.712 
L 119.079642 167.712 
z
" clip-path="url(#pb638cb3b95)" style="fill: #1f77b4"/>
   </g>
   <g id="patch_40">
    <path d="M 120.694718 273.312 
L 122.309795 273.312 
L 122.309795 149.505103 
L 120.694718 149.505103 
z
" clip-path="url(#pb638cb3b95)" style="fill: #1f77b4"/>
   </g>
   <g id="patch_41">
    <path d="M 122.309795 273.312 
L 123.924871 273.312 
L 123.924871 138.580966 
L 122.309795 138.580966 
z
" clip-path="url(#pb638cb3b95)" style="fill: #1f77b4"/>
   </g>
   <g id="patch_42">
    <path d="M 123.924871 273.312 
L 125.539948 273.312 
L 125.539948 145.863724 
L 123.924871 145.863724 
z
" clip-path="url(#pb638cb3b95)" style="fill: #1f77b4"/>
   </g>
   <g id="patch_43">
    <path d="M 125.539948 273.312 
L 127.155024 273.312 
L 127.155024 160.429241 
L 125.539948 160.429241 
z
" clip-path="url(#pb638cb3b95)" style="fill: #1f77b4"/>
   </g>
   <g id="patch_44">
    <path d="M 127.155024 273.312 
L 128.770101 273.312 
L 128.770101 131.298207 
L 127.155024 131.298207 
z
" clip-path="url(#pb638cb3b95)" style="fill: #1f77b4"/>
   </g>
   <g id="patch_45">
    <path d="M 128.770101 273.312 
L 130.385177 273.312 
L 130.385177 132.026483 
L 128.770101 132.026483 
z
" clip-path="url(#pb638cb3b95)" style="fill: #1f77b4"/>
   </g>
   <g id="patch_46">
    <path d="M 130.385177 273.312 
L 132.000254 273.312 
L 132.000254 136.396138 
L 130.385177 136.396138 
z
" clip-path="url(#pb638cb3b95)" style="fill: #1f77b4"/>
   </g>
   <g id="patch_47">
    <path d="M 132.000254 273.312 
L 133.61533 273.312 
L 133.61533 137.124414 
L 132.000254 137.124414 
z
" clip-path="url(#pb638cb3b95)" style="fill: #1f77b4"/>
   </g>
   <g id="patch_48">
    <path d="M 133.61533 273.312 
L 135.230407 273.312 
L 135.230407 122.558897 
L 133.61533 122.558897 
z
" clip-path="url(#pb638cb3b95)" style="fill: #1f77b4"/>
   </g>
   <g id="patch_49">
    <path d="M 135.230407 273.312 
L 136.845483 273.312 
L 136.845483 118.917517 
L 135.230407 118.917517 
z
" clip-path="url(#pb638cb3b95)" style="fill: #1f77b4"/>
   </g>
   <g id="patch_50">
    <path d="M 136.845483 273.312 
L 138.46056 273.312 
L 138.46056 126.200276 
L 136.845483 126.200276 
z
" clip-path="url(#pb638cb3b95)" style="fill: #1f77b4"/>
   </g>
   <g id="patch_51">
    <path d="M 138.46056 273.312 
L 140.075636 273.312 
L 140.075636 106.536828 
L 138.46056 106.536828 
z
" clip-path="url(#pb638cb3b95)" style="fill: #1f77b4"/>
   </g>
   <g id="patch_52">
    <path d="M 140.075636 273.312 
L 141.690713 273.312 
L 141.690713 116.004414 
L 140.075636 116.004414 
z
" clip-path="url(#pb638cb3b95)" style="fill: #1f77b4"/>
   </g>
   <g id="patch_53">
    <path d="M 141.690713 273.312 
L 143.30579 273.312 
L 143.30579 99.982345 
L 141.690713 99.982345 
z
" clip-path="url(#pb638cb3b95)" style="fill: #1f77b4"/>
   </g>
   <g id="patch_54">
    <path d="M 143.30579 273.312 
L 144.920866 273.312 
L 144.920866 116.004414 
L 143.30579 116.004414 
z
" clip-path="url(#pb638cb3b95)" style="fill: #1f77b4"/>
   </g>
   <g id="patch_55">
    <path d="M 144.920866 273.312 
L 146.535943 273.312 
L 146.535943 105.808552 
L 144.920866 105.808552 
z
" clip-path="url(#pb638cb3b95)" style="fill: #1f77b4"/>
   </g>
   <g id="patch_56">
    <path d="M 146.535943 273.312 
L 148.151019 273.312 
L 148.151019 103.623724 
L 146.535943 103.623724 
z
" clip-path="url(#pb638cb3b95)" style="fill: #1f77b4"/>
   </g>
   <g id="patch_57">
    <path d="M 148.151019 273.312 
L 149.766096 273.312 
L 149.766096 105.080276 
L 148.151019 105.080276 
z
" clip-path="url(#pb638cb3b95)" style="fill: #1f77b4"/>
   </g>
   <g id="patch_58">
    <path d="M 149.766096 273.312 
L 151.381172 273.312 
L 151.381172 101.438897 
L 149.766096 101.438897 
z
" clip-path="url(#pb638cb3b95)" style="fill: #1f77b4"/>
   </g>
   <g id="patch_59">
    <path d="M 151.381172 273.312 
L 152.996249 273.312 
L 152.996249 102.167172 
L 151.381172 102.167172 
z
" clip-path="url(#pb638cb3b95)" style="fill: #1f77b4"/>
   </g>
   <g id="patch_60">
    <path d="M 152.996249 273.312 
L 154.611325 273.312 
L 154.611325 107.993379 
L 152.996249 107.993379 
z
" clip-path="url(#pb638cb3b95)" style="fill: #1f77b4"/>
   </g>
   <g id="patch_61">
    <path d="M 154.611325 273.312 
L 156.226402 273.312 
L 156.226402 78.134069 
L 154.611325 78.134069 
z
" clip-path="url(#pb638cb3b95)" style="fill: #1f77b4"/>
   </g>
   <g id="patch_62">
    <path d="M 156.226402 273.312 
L 157.841478 273.312 
L 157.841478 86.145103 
L 156.226402 86.145103 
z
" clip-path="url(#pb638cb3b95)" style="fill: #1f77b4"/>
   </g>
   <g id="patch_63">
    <path d="M 157.841478 273.312 
L 159.456555 273.312 
L 159.456555 89.058207 
L 157.841478 89.058207 
z
" clip-path="url(#pb638cb3b95)" style="fill: #1f77b4"/>
   </g>
   <g id="patch_64">
    <path d="M 159.456555 273.312 
L 161.071631 273.312 
L 161.071631 72.307862 
L 159.456555 72.307862 
z
" clip-path="url(#pb638cb3b95)" style="fill: #1f77b4"/>
   </g>
   <g id="patch_65">
    <path d="M 161.071631 273.312 
L 162.686708 273.312 
L 162.686708 83.232 
L 161.071631 83.232 
z
" clip-path="url(#pb638cb3b95)" style="fill: #1f77b4"/>
   </g>
   <g id="patch_66">
    <path d="M 162.686708 273.312 
L 164.301784 273.312 
L 164.301784 84.688552 
L 162.686708 84.688552 
z
" clip-path="url(#pb638cb3b95)" style="fill: #1f77b4"/>
   </g>
   <g id="patch_67">
    <path d="M 164.301784 273.312 
L 165.916861 273.312 
L 165.916861 91.243034 
L 164.301784 91.243034 
z
" clip-path="url(#pb638cb3b95)" style="fill: #1f77b4"/>
   </g>
   <g id="patch_68">
    <path d="M 165.916861 273.312 
L 167.531937 273.312 
L 167.531937 48.274759 
L 165.916861 48.274759 
z
" clip-path="url(#pb638cb3b95)" style="fill: #1f77b4"/>
   </g>
   <g id="patch_69">
    <path d="M 167.531937 273.312 
L 169.147014 273.312 
L 169.147014 67.938207 
L 167.531937 67.938207 
z
" clip-path="url(#pb638cb3b95)" style="fill: #1f77b4"/>
   </g>
   <g id="patch_70">
    <path d="M 169.147014 273.312 
L 170.76209 273.312 
L 170.76209 70.85131 
L 169.147014 70.85131 
z
" clip-path="url(#pb638cb3b95)" style="fill: #1f77b4"/>
   </g>
   <g id="patch_71">
    <path d="M 170.76209 273.312 
L 172.377167 273.312 
L 172.377167 89.786483 
L 170.76209 89.786483 
z
" clip-path="url(#pb638cb3b95)" style="fill: #1f77b4"/>
   </g>
   <g id="patch_72">
    <path d="M 172.377167 273.312 
L 173.992243 273.312 
L 173.992243 46.818207 
L 172.377167 46.818207 
z
" clip-path="url(#pb638cb3b95)" style="fill: #1f77b4"/>
   </g>
   <g id="patch_73">
    <path d="M 173.992243 273.312 
L 175.60732 273.312 
L 175.60732 70.123034 
L 173.992243 70.123034 
z
" clip-path="url(#pb638cb3b95)" style="fill: #1f77b4"/>
   </g>
   <g id="patch_74">
    <path d="M 175.60732 273.312 
L 177.222396 273.312 
L 177.222396 69.394759 
L 175.60732 69.394759 
z
" clip-path="url(#pb638cb3b95)" style="fill: #1f77b4"/>
   </g>
   <g id="patch_75">
    <path d="M 177.222396 273.312 
L 178.837473 273.312 
L 178.837473 73.036138 
L 177.222396 73.036138 
z
" clip-path="url(#pb638cb3b95)" style="fill: #1f77b4"/>
   </g>
   <g id="patch_76">
    <path d="M 178.837473 273.312 
L 180.452549 273.312 
L 180.452549 61.383724 
L 178.837473 61.383724 
z
" clip-path="url(#pb638cb3b95)" style="fill: #1f77b4"/>
   </g>
   <g id="patch_77">
    <path d="M 180.452549 273.312 
L 182.067626 273.312 
L 182.067626 77.405793 
L 180.452549 77.405793 
z
" clip-path="url(#pb638cb3b95)" style="fill: #1f77b4"/>
   </g>
   <g id="patch_78">
    <path d="M 182.067626 273.312 
L 183.682702 273.312 
L 183.682702 65.025103 
L 182.067626 65.025103 
z
" clip-path="url(#pb638cb3b95)" style="fill: #1f77b4"/>
   </g>
   <g id="patch_79">
    <path d="M 183.682702 273.312 
L 185.297779 273.312 
L 185.297779 76.677517 
L 183.682702 76.677517 
z
" clip-path="url(#pb638cb3b95)" style="fill: #1f77b4"/>
   </g>
   <g id="patch_80">
    <path d="M 185.297779 273.312 
L 186.912855 273.312 
L 186.912855 65.025103 
L 185.297779 65.025103 
z
" clip-path="url(#pb638cb3b95)" style="fill: #1f77b4"/>
   </g>
   <g id="patch_81">
    <path d="M 186.912855 273.312 
L 188.527932 273.312 
L 188.527932 47.546483 
L 186.912855 47.546483 
z
" clip-path="url(#pb638cb3b95)" style="fill: #1f77b4"/>
   </g>
   <g id="patch_82">
    <path d="M 188.527932 273.312 
L 190.143008 273.312 
L 190.143008 65.753379 
L 188.527932 65.753379 
z
" clip-path="url(#pb638cb3b95)" style="fill: #1f77b4"/>
   </g>
   <g id="patch_83">
    <path d="M 190.143008 273.312 
L 191.758085 273.312 
L 191.758085 54.100966 
L 190.143008 54.100966 
z
" clip-path="url(#pb638cb3b95)" style="fill: #1f77b4"/>
   </g>
   <g id="patch_84">
    <path d="M 191.758085 273.312 
L 193.373161 273.312 
L 193.373161 52.644414 
L 191.758085 52.644414 
z
" clip-path="url(#pb638cb3b95)" style="fill: #1f77b4"/>
   </g>
   <g id="patch_85">
    <path d="M 193.373161 273.312 
L 194.988238 273.312 
L 194.988238 56.285793 
L 193.373161 56.285793 
z
" clip-path="url(#pb638cb3b95)" style="fill: #1f77b4"/>
   </g>
   <g id="patch_86">
    <path d="M 194.988238 273.312 
L 196.603314 273.312 
L 196.603314 67.209931 
L 194.988238 67.209931 
z
" clip-path="url(#pb638cb3b95)" style="fill: #1f77b4"/>
   </g>
   <g id="patch_87">
    <path d="M 196.603314 273.312 
L 198.218391 273.312 
L 198.218391 38.807172 
L 196.603314 38.807172 
z
" clip-path="url(#pb638cb3b95)" style="fill: #1f77b4"/>
   </g>
   <g id="patch_88">
    <path d="M 198.218391 273.312 
L 199.833468 273.312 
L 199.833468 66.481655 
L 198.218391 66.481655 
z
" clip-path="url(#pb638cb3b95)" style="fill: #1f77b4"/>
   </g>
   <g id="patch_89">
    <path d="M 199.833468 273.312 
L 201.448544 273.312 
L 201.448544 43.905103 
L 199.833468 43.905103 
z
" clip-path="url(#pb638cb3b95)" style="fill: #1f77b4"/>
   </g>
   <g id="patch_90">
    <path d="M 201.448544 273.312 
L 203.063621 273.312 
L 203.063621 30.796138 
L 201.448544 30.796138 
z
" clip-path="url(#pb638cb3b95)" style="fill: #1f77b4"/>
   </g>
   <g id="patch_91">
    <path d="M 203.063621 273.312 
L 204.678697 273.312 
L 204.678697 35.894069 
L 203.063621 35.894069 
z
" clip-path="url(#pb638cb3b95)" style="fill: #1f77b4"/>
   </g>
   <g id="patch_92">
    <path d="M 204.678697 273.312 
L 206.293774 273.312 
L 206.293774 64.296828 
L 204.678697 64.296828 
z
" clip-path="url(#pb638cb3b95)" style="fill: #1f77b4"/>
   </g>
   <g id="patch_93">
    <path d="M 206.293774 273.312 
L 207.90885 273.312 
L 207.90885 27.154759 
L 206.293774 27.154759 
z
" clip-path="url(#pb638cb3b95)" style="fill: #1f77b4"/>
   </g>
   <g id="patch_94">
    <path d="M 207.90885 273.312 
L 209.523927 273.312 
L 209.523927 38.807172 
L 207.90885 38.807172 
z
" clip-path="url(#pb638cb3b95)" style="fill: #1f77b4"/>
   </g>
   <g id="patch_95">
    <path d="M 209.523927 273.312 
L 211.139003 273.312 
L 211.139003 51.187862 
L 209.523927 51.187862 
z
" clip-path="url(#pb638cb3b95)" style="fill: #1f77b4"/>
   </g>
   <g id="patch_96">
    <path d="M 211.139003 273.312 
L 212.75408 273.312 
L 212.75408 41.720276 
L 211.139003 41.720276 
z
" clip-path="url(#pb638cb3b95)" style="fill: #1f77b4"/>
   </g>
   <g id="patch_97">
    <path d="M 212.75408 273.312 
L 214.369156 273.312 
L 214.369156 51.187862 
L 212.75408 51.187862 
z
" clip-path="url(#pb638cb3b95)" style="fill: #1f77b4"/>
   </g>
   <g id="patch_98">
    <path d="M 214.369156 273.312 
L 215.984233 273.312 
L 215.984233 49.73131 
L 214.369156 49.73131 
z
" clip-path="url(#pb638cb3b95)" style="fill: #1f77b4"/>
   </g>
   <g id="patch_99">
    <path d="M 215.984233 273.312 
L 217.599309 273.312 
L 217.599309 50.459586 
L 215.984233 50.459586 
z
" clip-path="url(#pb638cb3b95)" style="fill: #1f77b4"/>
   </g>
   <g id="patch_100">
    <path d="M 217.599309 273.312 
L 219.214386 273.312 
L 219.214386 72.307862 
L 217.599309 72.307862 
z
" clip-path="url(#pb638cb3b95)" style="fill: #1f77b4"/>
   </g>
   <g id="patch_101">
    <path d="M 219.214386 273.312 
L 220.829462 273.312 
L 220.829462 31.524414 
L 219.214386 31.524414 
z
" clip-path="url(#pb638cb3b95)" style="fill: #1f77b4"/>
   </g>
   <g id="patch_102">
    <path d="M 220.829462 273.312 
L 222.444539 273.312 
L 222.444539 44.633379 
L 220.829462 44.633379 
z
" clip-path="url(#pb638cb3b95)" style="fill: #1f77b4"/>
   </g>
   <g id="patch_103">
    <path d="M 222.444539 273.312 
L 224.059615 273.312 
L 224.059615 50.459586 
L 222.444539 50.459586 
z
" clip-path="url(#pb638cb3b95)" style="fill: #1f77b4"/>
   </g>
   <g id="patch_104">
    <path d="M 224.059615 273.312 
L 225.674692 273.312 
L 225.674692 45.361655 
L 224.059615 45.361655 
z
" clip-path="url(#pb638cb3b95)" style="fill: #1f77b4"/>
   </g>
   <g id="patch_105">
    <path d="M 225.674692 273.312 
L 227.289768 273.312 
L 227.289768 30.796138 
L 225.674692 30.796138 
z
" clip-path="url(#pb638cb3b95)" style="fill: #1f77b4"/>
   </g>
   <g id="patch_106">
    <path d="M 227.289768 273.312 
L 228.904845 273.312 
L 228.904845 39.535448 
L 227.289768 39.535448 
z
" clip-path="url(#pb638cb3b95)" style="fill: #1f77b4"/>
   </g>
   <g id="patch_107">
    <path d="M 228.904845 273.312 
L 230.519921 273.312 
L 230.519921 37.350621 
L 228.904845 37.350621 
z
" clip-path="url(#pb638cb3b95)" style="fill: #1f77b4"/>
   </g>
   <g id="patch_108">
    <path d="M 230.519921 273.312 
L 232.134998 273.312 
L 232.134998 38.078897 
L 230.519921 38.078897 
z
" clip-path="url(#pb638cb3b95)" style="fill: #1f77b4"/>
   </g>
   <g id="patch_109">
    <path d="M 232.134998 273.312 
L 233.750074 273.312 
L 233.750074 19.872 
L 232.134998 19.872 
z
" clip-path="url(#pb638cb3b95)" style="fill: #1f77b4"/>
   </g>
   <g id="patch_110">
    <path d="M 233.750074 273.312 
L 235.365151 273.312 
L 235.365151 38.807172 
L 233.750074 38.807172 
z
" clip-path="url(#pb638cb3b95)" style="fill: #1f77b4"/>
   </g>
   <g id="patch_111">
    <path d="M 235.365151 273.312 
L 236.980227 273.312 
L 236.980227 34.437517 
L 235.365151 34.437517 
z
" clip-path="url(#pb638cb3b95)" style="fill: #1f77b4"/>
   </g>
   <g id="patch_112">
    <path d="M 236.980227 273.312 
L 238.595304 273.312 
L 238.595304 52.644414 
L 236.980227 52.644414 
z
" clip-path="url(#pb638cb3b95)" style="fill: #1f77b4"/>
   </g>
   <g id="patch_113">
    <path d="M 238.595304 273.312 
L 240.21038 273.312 
L 240.21038 47.546483 
L 238.595304 47.546483 
z
" clip-path="url(#pb638cb3b95)" style="fill: #1f77b4"/>
   </g>
   <g id="patch_114">
    <path d="M 240.21038 273.312 
L 241.825457 273.312 
L 241.825457 42.448552 
L 240.21038 42.448552 
z
" clip-path="url(#pb638cb3b95)" style="fill: #1f77b4"/>
   </g>
   <g id="patch_115">
    <path d="M 241.825457 273.312 
L 243.440533 273.312 
L 243.440533 48.274759 
L 241.825457 48.274759 
z
" clip-path="url(#pb638cb3b95)" style="fill: #1f77b4"/>
   </g>
   <g id="patch_116">
    <path d="M 243.440533 273.312 
L 245.05561 273.312 
L 245.05561 68.666483 
L 243.440533 68.666483 
z
" clip-path="url(#pb638cb3b95)" style="fill: #1f77b4"/>
   </g>
   <g id="patch_117">
    <path d="M 245.05561 273.312 
L 246.670686 273.312 
L 246.670686 42.448552 
L 245.05561 42.448552 
z
" clip-path="url(#pb638cb3b95)" style="fill: #1f77b4"/>
   </g>
   <g id="patch_118">
    <path d="M 246.670686 273.312 
L 248.285763 273.312 
L 248.285763 51.187862 
L 246.670686 51.187862 
z
" clip-path="url(#pb638cb3b95)" style="fill: #1f77b4"/>
   </g>
   <g id="patch_119">
    <path d="M 248.285763 273.312 
L 249.900839 273.312 
L 249.900839 65.025103 
L 248.285763 65.025103 
z
" clip-path="url(#pb638cb3b95)" style="fill: #1f77b4"/>
   </g>
   <g id="patch_120">
    <path d="M 249.900839 273.312 
L 251.515916 273.312 
L 251.515916 46.089931 
L 249.900839 46.089931 
z
" clip-path="url(#pb638cb3b95)" style="fill: #1f77b4"/>
   </g>
   <g id="patch_121">
    <path d="M 251.515916 273.312 
L 253.130993 273.312 
L 253.130993 57.014069 
L 251.515916 57.014069 
z
" clip-path="url(#pb638cb3b95)" style="fill: #1f77b4"/>
   </g>
   <g id="patch_122">
    <path d="M 253.130993 273.312 
L 254.746069 273.312 
L 254.746069 71.579586 
L 253.130993 71.579586 
z
" clip-path="url(#pb638cb3b95)" style="fill: #1f77b4"/>
   </g>
   <g id="patch_123">
    <path d="M 254.746069 273.312 
L 256.361146 273.312 
L 256.361146 51.916138 
L 254.746069 51.916138 
z
" clip-path="url(#pb638cb3b95)" style="fill: #1f77b4"/>
   </g>
   <g id="patch_124">
    <path d="M 256.361146 273.312 
L 257.976222 273.312 
L 257.976222 80.318897 
L 256.361146 80.318897 
z
" clip-path="url(#pb638cb3b95)" style="fill: #1f77b4"/>
   </g>
   <g id="patch_125">
    <path d="M 257.976222 273.312 
L 259.591299 273.312 
L 259.591299 59.927172 
L 257.976222 59.927172 
z
" clip-path="url(#pb638cb3b95)" style="fill: #1f77b4"/>
   </g>
   <g id="patch_126">
    <path d="M 259.591299 273.312 
L 261.206375 273.312 
L 261.206375 51.916138 
L 259.591299 51.916138 
z
" clip-path="url(#pb638cb3b95)" style="fill: #1f77b4"/>
   </g>
   <g id="patch_127">
    <path d="M 261.206375 273.312 
L 262.821452 273.312 
L 262.821452 43.905103 
L 261.206375 43.905103 
z
" clip-path="url(#pb638cb3b95)" style="fill: #1f77b4"/>
   </g>
   <g id="patch_128">
    <path d="M 262.821452 273.312 
L 264.436528 273.312 
L 264.436528 60.655448 
L 262.821452 60.655448 
z
" clip-path="url(#pb638cb3b95)" style="fill: #1f77b4"/>
   </g>
   <g id="patch_129">
    <path d="M 264.436528 273.312 
L 266.051605 273.312 
L 266.051605 80.318897 
L 264.436528 80.318897 
z
" clip-path="url(#pb638cb3b95)" style="fill: #1f77b4"/>
   </g>
   <g id="patch_130">
    <path d="M 266.051605 273.312 
L 267.666681 273.312 
L 267.666681 54.100966 
L 266.051605 54.100966 
z
" clip-path="url(#pb638cb3b95)" style="fill: #1f77b4"/>
   </g>
   <g id="patch_131">
    <path d="M 267.666681 273.312 
L 269.281758 273.312 
L 269.281758 63.568552 
L 267.666681 63.568552 
z
" clip-path="url(#pb638cb3b95)" style="fill: #1f77b4"/>
   </g>
   <g id="patch_132">
    <path d="M 269.281758 273.312 
L 270.896834 273.312 
L 270.896834 90.514759 
L 269.281758 90.514759 
z
" clip-path="url(#pb638cb3b95)" style="fill: #1f77b4"/>
   </g>
   <g id="patch_133">
    <path d="M 270.896834 273.312 
L 272.511911 273.312 
L 272.511911 74.49269 
L 270.896834 74.49269 
z
" clip-path="url(#pb638cb3b95)" style="fill: #1f77b4"/>
   </g>
   <g id="patch_134">
    <path d="M 272.511911 273.312 
L 274.126987 273.312 
L 274.126987 73.764414 
L 272.511911 73.764414 
z
" clip-path="url(#pb638cb3b95)" style="fill: #1f77b4"/>
   </g>
   <g id="patch_135">
    <path d="M 274.126987 273.312 
L 275.742064 273.312 
L 275.742064 75.220966 
L 274.126987 75.220966 
z
" clip-path="url(#pb638cb3b95)" style="fill: #1f77b4"/>
   </g>
   <g id="patch_136">
    <path d="M 275.742064 273.312 
L 277.35714 273.312 
L 277.35714 73.764414 
L 275.742064 73.764414 
z
" clip-path="url(#pb638cb3b95)" style="fill: #1f77b4"/>
   </g>
   <g id="patch_137">
    <path d="M 277.35714 273.312 
L 278.972217 273.312 
L 278.972217 92.699586 
L 277.35714 92.699586 
z
" clip-path="url(#pb638cb3b95)" style="fill: #1f77b4"/>
   </g>
   <g id="patch_138">
    <path d="M 278.972217 273.312 
L 280.587293 273.312 
L 280.587293 77.405793 
L 278.972217 77.405793 
z
" clip-path="url(#pb638cb3b95)" style="fill: #1f77b4"/>
   </g>
   <g id="patch_139">
    <path d="M 280.587293 273.312 
L 282.20237 273.312 
L 282.20237 91.243034 
L 280.587293 91.243034 
z
" clip-path="url(#pb638cb3b95)" style="fill: #1f77b4"/>
   </g>
   <g id="patch_140">
    <path d="M 282.20237 273.312 
L 283.817446 273.312 
L 283.817446 89.786483 
L 282.20237 89.786483 
z
" clip-path="url(#pb638cb3b95)" style="fill: #1f77b4"/>
   </g>
   <g id="patch_141">
    <path d="M 283.817446 273.312 
L 285.432523 273.312 
L 285.432523 62.112 
L 283.817446 62.112 
z
" clip-path="url(#pb638cb3b95)" style="fill: #1f77b4"/>
   </g>
   <g id="patch_142">
    <path d="M 285.432523 273.312 
L 287.047599 273.312 
L 287.047599 81.047172 
L 285.432523 81.047172 
z
" clip-path="url(#pb638cb3b95)" style="fill: #1f77b4"/>
   </g>
   <g id="patch_143">
    <path d="M 287.047599 273.312 
L 288.662676 273.312 
L 288.662676 92.699586 
L 287.047599 92.699586 
z
" clip-path="url(#pb638cb3b95)" style="fill: #1f77b4"/>
   </g>
   <g id="patch_144">
    <path d="M 288.662676 273.312 
L 290.277752 273.312 
L 290.277752 119.645793 
L 288.662676 119.645793 
z
" clip-path="url(#pb638cb3b95)" style="fill: #1f77b4"/>
   </g>
   <g id="patch_145">
    <path d="M 290.277752 273.312 
L 291.892829 273.312 
L 291.892829 100.710621 
L 290.277752 100.710621 
z
" clip-path="url(#pb638cb3b95)" style="fill: #1f77b4"/>
   </g>
   <g id="patch_146">
    <path d="M 291.892829 273.312 
L 293.507905 273.312 
L 293.507905 91.243034 
L 291.892829 91.243034 
z
" clip-path="url(#pb638cb3b95)" style="fill: #1f77b4"/>
   </g>
   <g id="patch_147">
    <path d="M 293.507905 273.312 
L 295.122982 273.312 
L 295.122982 110.906483 
L 293.507905 110.906483 
z
" clip-path="url(#pb638cb3b95)" style="fill: #1f77b4"/>
   </g>
   <g id="patch_148">
    <path d="M 295.122982 273.312 
L 296.738058 273.312 
L 296.738058 89.786483 
L 295.122982 89.786483 
z
" clip-path="url(#pb638cb3b95)" style="fill: #1f77b4"/>
   </g>
   <g id="patch_149">
    <path d="M 296.738058 273.312 
L 298.353135 273.312 
L 298.353135 100.710621 
L 296.738058 100.710621 
z
" clip-path="url(#pb638cb3b95)" style="fill: #1f77b4"/>
   </g>
   <g id="patch_150">
    <path d="M 298.353135 273.312 
L 299.968211 273.312 
L 299.968211 114.547862 
L 298.353135 114.547862 
z
" clip-path="url(#pb638cb3b95)" style="fill: #1f77b4"/>
   </g>
   <g id="patch_151">
    <path d="M 299.968211 273.312 
L 301.583288 273.312 
L 301.583288 98.525793 
L 299.968211 98.525793 
z
" clip-path="url(#pb638cb3b95)" style="fill: #1f77b4"/>
   </g>
   <g id="patch_152">
    <path d="M 301.583288 273.312 
L 303.198364 273.312 
L 303.198364 103.623724 
L 301.583288 103.623724 
z
" clip-path="url(#pb638cb3b95)" style="fill: #1f77b4"/>
   </g>
   <g id="patch_153">
    <path d="M 303.198364 273.312 
L 304.813441 273.312 
L 304.813441 112.363034 
L 303.198364 112.363034 
z
" clip-path="url(#pb638cb3b95)" style="fill: #1f77b4"/>
   </g>
   <g id="patch_154">
    <path d="M 304.813441 273.312 
L 306.428518 273.312 
L 306.428518 118.917517 
L 304.813441 118.917517 
z
" clip-path="url(#pb638cb3b95)" style="fill: #1f77b4"/>
   </g>
   <g id="patch_155">
    <path d="M 306.428518 273.312 
L 308.043594 273.312 
L 308.043594 99.254069 
L 306.428518 99.254069 
z
" clip-path="url(#pb638cb3b95)" style="fill: #1f77b4"/>
   </g>
   <g id="patch_156">
    <path d="M 308.043594 273.312 
L 309.658671 273.312 
L 309.658671 110.906483 
L 308.043594 110.906483 
z
" clip-path="url(#pb638cb3b95)" style="fill: #1f77b4"/>
   </g>
   <g id="patch_157">
    <path d="M 309.658671 273.312 
L 311.273747 273.312 
L 311.273747 119.645793 
L 309.658671 119.645793 
z
" clip-path="url(#pb638cb3b95)" style="fill: #1f77b4"/>
   </g>
   <g id="patch_158">
    <path d="M 311.273747 273.312 
L 312.888824 273.312 
L 312.888824 134.939586 
L 311.273747 134.939586 
z
" clip-path="url(#pb638cb3b95)" style="fill: #1f77b4"/>
   </g>
   <g id="patch_159">
    <path d="M 312.888824 273.312 
L 314.5039 273.312 
L 314.5039 123.287172 
L 312.888824 123.287172 
z
" clip-path="url(#pb638cb3b95)" style="fill: #1f77b4"/>
   </g>
   <g id="patch_160">
    <path d="M 314.5039 273.312 
L 316.118977 273.312 
L 316.118977 127.656828 
L 314.5039 127.656828 
z
" clip-path="url(#pb638cb3b95)" style="fill: #1f77b4"/>
   </g>
   <g id="patch_161">
    <path d="M 316.118977 273.312 
L 317.734053 273.312 
L 317.734053 140.037517 
L 316.118977 140.037517 
z
" clip-path="url(#pb638cb3b95)" style="fill: #1f77b4"/>
   </g>
   <g id="patch_162">
    <path d="M 317.734053 273.312 
L 319.34913 273.312 
L 319.34913 142.222345 
L 317.734053 142.222345 
z
" clip-path="url(#pb638cb3b95)" style="fill: #1f77b4"/>
   </g>
   <g id="patch_163">
    <path d="M 319.34913 273.312 
L 320.964206 273.312 
L 320.964206 155.33131 
L 319.34913 155.33131 
z
" clip-path="url(#pb638cb3b95)" style="fill: #1f77b4"/>
   </g>
   <g id="patch_164">
    <path d="M 320.964206 273.312 
L 322.579283 273.312 
L 322.579283 144.407172 
L 320.964206 144.407172 
z
" clip-path="url(#pb638cb3b95)" style="fill: #1f77b4"/>
   </g>
   <g id="patch_165">
    <path d="M 322.579283 273.312 
L 324.194359 273.312 
L 324.194359 148.048552 
L 322.579283 148.048552 
z
" clip-path="url(#pb638cb3b95)" style="fill: #1f77b4"/>
   </g>
   <g id="patch_166">
    <path d="M 324.194359 273.312 
L 325.809436 273.312 
L 325.809436 142.950621 
L 324.194359 142.950621 
z
" clip-path="url(#pb638cb3b95)" style="fill: #1f77b4"/>
   </g>
   <g id="patch_167">
    <path d="M 325.809436 273.312 
L 327.424512 273.312 
L 327.424512 150.233379 
L 325.809436 150.233379 
z
" clip-path="url(#pb638cb3b95)" style="fill: #1f77b4"/>
   </g>
   <g id="patch_168">
    <path d="M 327.424512 273.312 
L 329.039589 273.312 
L 329.039589 150.233379 
L 327.424512 150.233379 
z
" clip-path="url(#pb638cb3b95)" style="fill: #1f77b4"/>
   </g>
   <g id="patch_169">
    <path d="M 329.039589 273.312 
L 330.654665 273.312 
L 330.654665 163.342345 
L 329.039589 163.342345 
z
" clip-path="url(#pb638cb3b95)" style="fill: #1f77b4"/>
   </g>
   <g id="patch_170">
    <path d="M 330.654665 273.312 
L 332.269742 273.312 
L 332.269742 142.950621 
L 330.654665 142.950621 
z
" clip-path="url(#pb638cb3b95)" style="fill: #1f77b4"/>
   </g>
   <g id="patch_171">
    <path d="M 332.269742 273.312 
L 333.884818 273.312 
L 333.884818 172.809931 
L 332.269742 172.809931 
z
" clip-path="url(#pb638cb3b95)" style="fill: #1f77b4"/>
   </g>
   <g id="patch_172">
    <path d="M 333.884818 273.312 
L 335.499895 273.312 
L 335.499895 168.440276 
L 333.884818 168.440276 
z
" clip-path="url(#pb638cb3b95)" style="fill: #1f77b4"/>
   </g>
   <g id="patch_173">
    <path d="M 335.499895 273.312 
L 337.114971 273.312 
L 337.114971 161.885793 
L 335.499895 161.885793 
z
" clip-path="url(#pb638cb3b95)" style="fill: #1f77b4"/>
   </g>
   <g id="patch_174">
    <path d="M 337.114971 273.312 
L 338.730048 273.312 
L 338.730048 178.636138 
L 337.114971 178.636138 
z
" clip-path="url(#pb638cb3b95)" style="fill: #1f77b4"/>
   </g>
   <g id="patch_175">
    <path d="M 338.730048 273.312 
L 340.345124 273.312 
L 340.345124 164.070621 
L 338.730048 164.070621 
z
" clip-path="url(#pb638cb3b95)" style="fill: #1f77b4"/>
   </g>
   <g id="patch_176">
    <path d="M 340.345124 273.312 
L 341.960201 273.312 
L 341.960201 183.734069 
L 340.345124 183.734069 
z
" clip-path="url(#pb638cb3b95)" style="fill: #1f77b4"/>
   </g>
   <g id="patch_177">
    <path d="M 341.960201 273.312 
L 343.575277 273.312 
L 343.575277 176.45131 
L 341.960201 176.45131 
z
" clip-path="url(#pb638cb3b95)" style="fill: #1f77b4"/>
   </g>
   <g id="patch_178">
    <path d="M 343.575277 273.312 
L 345.190354 273.312 
L 345.190354 180.820966 
L 343.575277 180.820966 
z
" clip-path="url(#pb638cb3b95)" style="fill: #1f77b4"/>
   </g>
   <g id="patch_179">
    <path d="M 345.190354 273.312 
L 346.80543 273.312 
L 346.80543 199.027862 
L 345.190354 199.027862 
z
" clip-path="url(#pb638cb3b95)" style="fill: #1f77b4"/>
   </g>
   <g id="patch_180">
    <path d="M 346.80543 273.312 
L 348.420507 273.312 
L 348.420507 188.832 
L 346.80543 188.832 
z
" clip-path="url(#pb638cb3b95)" style="fill: #1f77b4"/>
   </g>
   <g id="patch_181">
    <path d="M 348.420507 273.312 
L 350.035583 273.312 
L 350.035583 212.865103 
L 348.420507 212.865103 
z
" clip-path="url(#pb638cb3b95)" style="fill: #1f77b4"/>
   </g>
   <g id="patch_182">
    <path d="M 350.035583 273.312 
L 351.65066 273.312 
L 351.65066 206.310621 
L 350.035583 206.310621 
z
" clip-path="url(#pb638cb3b95)" style="fill: #1f77b4"/>
   </g>
   <g id="patch_183">
    <path d="M 351.65066 273.312 
L 353.265736 273.312 
L 353.265736 199.756138 
L 351.65066 199.756138 
z
" clip-path="url(#pb638cb3b95)" style="fill: #1f77b4"/>
   </g>
   <g id="patch_184">
    <path d="M 353.265736 273.312 
L 354.880813 273.312 
L 354.880813 189.560276 
L 353.265736 189.560276 
z
" clip-path="url(#pb638cb3b95)" style="fill: #1f77b4"/>
   </g>
   <g id="patch_185">
    <path d="M 354.880813 273.312 
L 356.495889 273.312 
L 356.495889 206.310621 
L 354.880813 206.310621 
z
" clip-path="url(#pb638cb3b95)" style="fill: #1f77b4"/>
   </g>
   <g id="patch_186">
    <path d="M 356.495889 273.312 
L 358.110966 273.312 
L 358.110966 227.430621 
L 356.495889 227.430621 
z
" clip-path="url(#pb638cb3b95)" style="fill: #1f77b4"/>
   </g>
   <g id="patch_187">
    <path d="M 358.110966 273.312 
L 359.726042 273.312 
L 359.726042 216.506483 
L 358.110966 216.506483 
z
" clip-path="url(#pb638cb3b95)" style="fill: #1f77b4"/>
   </g>
   <g id="patch_188">
    <path d="M 359.726042 273.312 
L 361.341119 273.312 
L 361.341119 225.245793 
L 359.726042 225.245793 
z
" clip-path="url(#pb638cb3b95)" style="fill: #1f77b4"/>
   </g>
   <g id="patch_189">
    <path d="M 361.341119 273.312 
L 362.956196 273.312 
L 362.956196 221.604414 
L 361.341119 221.604414 
z
" clip-path="url(#pb638cb3b95)" style="fill: #1f77b4"/>
   </g>
   <g id="patch_190">
    <path d="M 362.956196 273.312 
L 364.571272 273.312 
L 364.571272 227.430621 
L 362.956196 227.430621 
z
" clip-path="url(#pb638cb3b95)" style="fill: #1f77b4"/>
   </g>
   <g id="patch_191">
    <path d="M 364.571272 273.312 
L 366.186349 273.312 
L 366.186349 237.626483 
L 364.571272 237.626483 
z
" clip-path="url(#pb638cb3b95)" style="fill: #1f77b4"/>
   </g>
   <g id="patch_192">
    <path d="M 366.186349 273.312 
L 367.801425 273.312 
L 367.801425 239.81131 
L 366.186349 239.81131 
z
" clip-path="url(#pb638cb3b95)" style="fill: #1f77b4"/>
   </g>
   <g id="patch_193">
    <path d="M 367.801425 273.312 
L 369.416502 273.312 
L 369.416502 235.441655 
L 367.801425 235.441655 
z
" clip-path="url(#pb638cb3b95)" style="fill: #1f77b4"/>
   </g>
   <g id="patch_194">
    <path d="M 369.416502 273.312 
L 371.031578 273.312 
L 371.031578 229.615448 
L 369.416502 229.615448 
z
" clip-path="url(#pb638cb3b95)" style="fill: #1f77b4"/>
   </g>
   <g id="patch_195">
    <path d="M 371.031578 273.312 
L 372.646655 273.312 
L 372.646655 243.45269 
L 371.031578 243.45269 
z
" clip-path="url(#pb638cb3b95)" style="fill: #1f77b4"/>
   </g>
   <g id="patch_196">
    <path d="M 372.646655 273.312 
L 374.261731 273.312 
L 374.261731 247.094069 
L 372.646655 247.094069 
z
" clip-path="url(#pb638cb3b95)" style="fill: #1f77b4"/>
   </g>
   <g id="patch_197">
    <path d="M 374.261731 273.312 
L 375.876808 273.312 
L 375.876808 247.822345 
L 374.261731 247.822345 
z
" clip-path="url(#pb638cb3b95)" style="fill: #1f77b4"/>
   </g>
   <g id="patch_198">
    <path d="M 375.876808 273.312 
L 377.491884 273.312 
L 377.491884 258.018207 
L 375.876808 258.018207 
z
" clip-path="url(#pb638cb3b95)" style="fill: #1f77b4"/>
   </g>
   <g id="patch_199">
    <path d="M 377.491884 273.312 
L 379.106961 273.312 
L 379.106961 260.93131 
L 377.491884 260.93131 
z
" clip-path="url(#pb638cb3b95)" style="fill: #1f77b4"/>
   </g>
   <g id="patch_200">
    <path d="M 379.106961 273.312 
L 380.722037 273.312 
L 380.722037 258.746483 
L 379.106961 258.746483 
z
" clip-path="url(#pb638cb3b95)" style="fill: #1f77b4"/>
   </g>
   <g id="patch_201">
    <path d="M 380.722037 273.312 
L 382.337114 273.312 
L 382.337114 265.300966 
L 380.722037 265.300966 
z
" clip-path="url(#pb638cb3b95)" style="fill: #1f77b4"/>
   </g>
   <g id="patch_202">
    <path d="M 382.337114 273.312 
L 383.95219 273.312 
L 383.95219 268.214069 
L 382.337114 268.214069 
z
" clip-path="url(#pb638cb3b95)" style="fill: #1f77b4"/>
   </g>
   <g id="matplotlib.axis_1">
    <g id="xtick_1">
     <g id="line2d_1">
      <defs>
       <path id="mfc203d7afc" d="M 0 0 
L 0 3.5 
" style="stroke: #000000; stroke-width: 0.8"/>
      </defs>
      <g>
       <use xlink:href="#mfc203d7afc" x="60.013977" y="273.312" style="stroke: #000000; stroke-width: 0.8"/>
      </g>
     </g>
     <g id="text_1">
      <!-- 0.0 -->
      <g transform="translate(52.062415 287.910437)scale(0.1 -0.1)">
       <defs>
        <path id="DejaVuSans-30" d="M 2034 4250 
Q 1547 4250 1301 3770 
Q 1056 3291 1056 2328 
Q 1056 1369 1301 889 
Q 1547 409 2034 409 
Q 2525 409 2770 889 
Q 3016 1369 3016 2328 
Q 3016 3291 2770 3770 
Q 2525 4250 2034 4250 
z
M 2034 4750 
Q 2819 4750 3233 4129 
Q 3647 3509 3647 2328 
Q 3647 1150 3233 529 
Q 2819 -91 2034 -91 
Q 1250 -91 836 529 
Q 422 1150 422 2328 
Q 422 3509 836 4129 
Q 1250 4750 2034 4750 
z
" transform="scale(0.015625)"/>
        <path id="DejaVuSans-2e" d="M 684 794 
L 1344 794 
L 1344 0 
L 684 0 
L 684 794 
z
" transform="scale(0.015625)"/>
       </defs>
       <use xlink:href="#DejaVuSans-30"/>
       <use xlink:href="#DejaVuSans-2e" x="63.623047"/>
       <use xlink:href="#DejaVuSans-30" x="95.410156"/>
      </g>
     </g>
    </g>
    <g id="xtick_2">
     <g id="line2d_2">
      <g>
       <use xlink:href="#mfc203d7afc" x="101.350278" y="273.312" style="stroke: #000000; stroke-width: 0.8"/>
      </g>
     </g>
     <g id="text_2">
      <!-- 0.2 -->
      <g transform="translate(93.398715 287.910437)scale(0.1 -0.1)">
       <defs>
        <path id="DejaVuSans-32" d="M 1228 531 
L 3431 531 
L 3431 0 
L 469 0 
L 469 531 
Q 828 903 1448 1529 
Q 2069 2156 2228 2338 
Q 2531 2678 2651 2914 
Q 2772 3150 2772 3378 
Q 2772 3750 2511 3984 
Q 2250 4219 1831 4219 
Q 1534 4219 1204 4116 
Q 875 4013 500 3803 
L 500 4441 
Q 881 4594 1212 4672 
Q 1544 4750 1819 4750 
Q 2544 4750 2975 4387 
Q 3406 4025 3406 3419 
Q 3406 3131 3298 2873 
Q 3191 2616 2906 2266 
Q 2828 2175 2409 1742 
Q 1991 1309 1228 531 
z
" transform="scale(0.015625)"/>
       </defs>
       <use xlink:href="#DejaVuSans-30"/>
       <use xlink:href="#DejaVuSans-2e" x="63.623047"/>
       <use xlink:href="#DejaVuSans-32" x="95.410156"/>
      </g>
     </g>
    </g>
    <g id="xtick_3">
     <g id="line2d_3">
      <g>
       <use xlink:href="#mfc203d7afc" x="142.686578" y="273.312" style="stroke: #000000; stroke-width: 0.8"/>
      </g>
     </g>
     <g id="text_3">
      <!-- 0.4 -->
      <g transform="translate(134.735016 287.910437)scale(0.1 -0.1)">
       <defs>
        <path id="DejaVuSans-34" d="M 2419 4116 
L 825 1625 
L 2419 1625 
L 2419 4116 
z
M 2253 4666 
L 3047 4666 
L 3047 1625 
L 3713 1625 
L 3713 1100 
L 3047 1100 
L 3047 0 
L 2419 0 
L 2419 1100 
L 313 1100 
L 313 1709 
L 2253 4666 
z
" transform="scale(0.015625)"/>
       </defs>
       <use xlink:href="#DejaVuSans-30"/>
       <use xlink:href="#DejaVuSans-2e" x="63.623047"/>
       <use xlink:href="#DejaVuSans-34" x="95.410156"/>
      </g>
     </g>
    </g>
    <g id="xtick_4">
     <g id="line2d_4">
      <g>
       <use xlink:href="#mfc203d7afc" x="184.022879" y="273.312" style="stroke: #000000; stroke-width: 0.8"/>
      </g>
     </g>
     <g id="text_4">
      <!-- 0.6 -->
      <g transform="translate(176.071316 287.910437)scale(0.1 -0.1)">
       <defs>
        <path id="DejaVuSans-36" d="M 2113 2584 
Q 1688 2584 1439 2293 
Q 1191 2003 1191 1497 
Q 1191 994 1439 701 
Q 1688 409 2113 409 
Q 2538 409 2786 701 
Q 3034 994 3034 1497 
Q 3034 2003 2786 2293 
Q 2538 2584 2113 2584 
z
M 3366 4563 
L 3366 3988 
Q 3128 4100 2886 4159 
Q 2644 4219 2406 4219 
Q 1781 4219 1451 3797 
Q 1122 3375 1075 2522 
Q 1259 2794 1537 2939 
Q 1816 3084 2150 3084 
Q 2853 3084 3261 2657 
Q 3669 2231 3669 1497 
Q 3669 778 3244 343 
Q 2819 -91 2113 -91 
Q 1303 -91 875 529 
Q 447 1150 447 2328 
Q 447 3434 972 4092 
Q 1497 4750 2381 4750 
Q 2619 4750 2861 4703 
Q 3103 4656 3366 4563 
z
" transform="scale(0.015625)"/>
       </defs>
       <use xlink:href="#DejaVuSans-30"/>
       <use xlink:href="#DejaVuSans-2e" x="63.623047"/>
       <use xlink:href="#DejaVuSans-36" x="95.410156"/>
      </g>
     </g>
    </g>
    <g id="xtick_5">
     <g id="line2d_5">
      <g>
       <use xlink:href="#mfc203d7afc" x="225.35918" y="273.312" style="stroke: #000000; stroke-width: 0.8"/>
      </g>
     </g>
     <g id="text_5">
      <!-- 0.8 -->
      <g transform="translate(217.407617 287.910437)scale(0.1 -0.1)">
       <defs>
        <path id="DejaVuSans-38" d="M 2034 2216 
Q 1584 2216 1326 1975 
Q 1069 1734 1069 1313 
Q 1069 891 1326 650 
Q 1584 409 2034 409 
Q 2484 409 2743 651 
Q 3003 894 3003 1313 
Q 3003 1734 2745 1975 
Q 2488 2216 2034 2216 
z
M 1403 2484 
Q 997 2584 770 2862 
Q 544 3141 544 3541 
Q 544 4100 942 4425 
Q 1341 4750 2034 4750 
Q 2731 4750 3128 4425 
Q 3525 4100 3525 3541 
Q 3525 3141 3298 2862 
Q 3072 2584 2669 2484 
Q 3125 2378 3379 2068 
Q 3634 1759 3634 1313 
Q 3634 634 3220 271 
Q 2806 -91 2034 -91 
Q 1263 -91 848 271 
Q 434 634 434 1313 
Q 434 1759 690 2068 
Q 947 2378 1403 2484 
z
M 1172 3481 
Q 1172 3119 1398 2916 
Q 1625 2713 2034 2713 
Q 2441 2713 2670 2916 
Q 2900 3119 2900 3481 
Q 2900 3844 2670 4047 
Q 2441 4250 2034 4250 
Q 1625 4250 1398 4047 
Q 1172 3844 1172 3481 
z
" transform="scale(0.015625)"/>
       </defs>
       <use xlink:href="#DejaVuSans-30"/>
       <use xlink:href="#DejaVuSans-2e" x="63.623047"/>
       <use xlink:href="#DejaVuSans-38" x="95.410156"/>
      </g>
     </g>
    </g>
    <g id="xtick_6">
     <g id="line2d_6">
      <g>
       <use xlink:href="#mfc203d7afc" x="266.69548" y="273.312" style="stroke: #000000; stroke-width: 0.8"/>
      </g>
     </g>
     <g id="text_6">
      <!-- 1.0 -->
      <g transform="translate(258.743918 287.910437)scale(0.1 -0.1)">
       <defs>
        <path id="DejaVuSans-31" d="M 794 531 
L 1825 531 
L 1825 4091 
L 703 3866 
L 703 4441 
L 1819 4666 
L 2450 4666 
L 2450 531 
L 3481 531 
L 3481 0 
L 794 0 
L 794 531 
z
" transform="scale(0.015625)"/>
       </defs>
       <use xlink:href="#DejaVuSans-31"/>
       <use xlink:href="#DejaVuSans-2e" x="63.623047"/>
       <use xlink:href="#DejaVuSans-30" x="95.410156"/>
      </g>
     </g>
    </g>
    <g id="xtick_7">
     <g id="line2d_7">
      <g>
       <use xlink:href="#mfc203d7afc" x="308.031781" y="273.312" style="stroke: #000000; stroke-width: 0.8"/>
      </g>
     </g>
     <g id="text_7">
      <!-- 1.2 -->
      <g transform="translate(300.080218 287.910437)scale(0.1 -0.1)">
       <use xlink:href="#DejaVuSans-31"/>
       <use xlink:href="#DejaVuSans-2e" x="63.623047"/>
       <use xlink:href="#DejaVuSans-32" x="95.410156"/>
      </g>
     </g>
    </g>
    <g id="xtick_8">
     <g id="line2d_8">
      <g>
       <use xlink:href="#mfc203d7afc" x="349.368081" y="273.312" style="stroke: #000000; stroke-width: 0.8"/>
      </g>
     </g>
     <g id="text_8">
      <!-- 1.4 -->
      <g transform="translate(341.416519 287.910437)scale(0.1 -0.1)">
       <use xlink:href="#DejaVuSans-31"/>
       <use xlink:href="#DejaVuSans-2e" x="63.623047"/>
       <use xlink:href="#DejaVuSans-34" x="95.410156"/>
      </g>
     </g>
    </g>
    <g id="xtick_9">
     <g id="line2d_9">
      <g>
       <use xlink:href="#mfc203d7afc" x="390.704382" y="273.312" style="stroke: #000000; stroke-width: 0.8"/>
      </g>
     </g>
     <g id="text_9">
      <!-- 1.6 -->
      <g transform="translate(382.752819 287.910437)scale(0.1 -0.1)">
       <use xlink:href="#DejaVuSans-31"/>
       <use xlink:href="#DejaVuSans-2e" x="63.623047"/>
       <use xlink:href="#DejaVuSans-36" x="95.410156"/>
      </g>
     </g>
    </g>
    <g id="text_10">
     <!-- Angle with normal (rad) -->
     <g transform="translate(163.023281 301.588562)scale(0.1 -0.1)">
      <defs>
       <path id="DejaVuSans-41" d="M 2188 4044 
L 1331 1722 
L 3047 1722 
L 2188 4044 
z
M 1831 4666 
L 2547 4666 
L 4325 0 
L 3669 0 
L 3244 1197 
L 1141 1197 
L 716 0 
L 50 0 
L 1831 4666 
z
" transform="scale(0.015625)"/>
       <path id="DejaVuSans-6e" d="M 3513 2113 
L 3513 0 
L 2938 0 
L 2938 2094 
Q 2938 2591 2744 2837 
Q 2550 3084 2163 3084 
Q 1697 3084 1428 2787 
Q 1159 2491 1159 1978 
L 1159 0 
L 581 0 
L 581 3500 
L 1159 3500 
L 1159 2956 
Q 1366 3272 1645 3428 
Q 1925 3584 2291 3584 
Q 2894 3584 3203 3211 
Q 3513 2838 3513 2113 
z
" transform="scale(0.015625)"/>
       <path id="DejaVuSans-67" d="M 2906 1791 
Q 2906 2416 2648 2759 
Q 2391 3103 1925 3103 
Q 1463 3103 1205 2759 
Q 947 2416 947 1791 
Q 947 1169 1205 825 
Q 1463 481 1925 481 
Q 2391 481 2648 825 
Q 2906 1169 2906 1791 
z
M 3481 434 
Q 3481 -459 3084 -895 
Q 2688 -1331 1869 -1331 
Q 1566 -1331 1297 -1286 
Q 1028 -1241 775 -1147 
L 775 -588 
Q 1028 -725 1275 -790 
Q 1522 -856 1778 -856 
Q 2344 -856 2625 -561 
Q 2906 -266 2906 331 
L 2906 616 
Q 2728 306 2450 153 
Q 2172 0 1784 0 
Q 1141 0 747 490 
Q 353 981 353 1791 
Q 353 2603 747 3093 
Q 1141 3584 1784 3584 
Q 2172 3584 2450 3431 
Q 2728 3278 2906 2969 
L 2906 3500 
L 3481 3500 
L 3481 434 
z
" transform="scale(0.015625)"/>
       <path id="DejaVuSans-6c" d="M 603 4863 
L 1178 4863 
L 1178 0 
L 603 0 
L 603 4863 
z
" transform="scale(0.015625)"/>
       <path id="DejaVuSans-65" d="M 3597 1894 
L 3597 1613 
L 953 1613 
Q 991 1019 1311 708 
Q 1631 397 2203 397 
Q 2534 397 2845 478 
Q 3156 559 3463 722 
L 3463 178 
Q 3153 47 2828 -22 
Q 2503 -91 2169 -91 
Q 1331 -91 842 396 
Q 353 884 353 1716 
Q 353 2575 817 3079 
Q 1281 3584 2069 3584 
Q 2775 3584 3186 3129 
Q 3597 2675 3597 1894 
z
M 3022 2063 
Q 3016 2534 2758 2815 
Q 2500 3097 2075 3097 
Q 1594 3097 1305 2825 
Q 1016 2553 972 2059 
L 3022 2063 
z
" transform="scale(0.015625)"/>
       <path id="DejaVuSans-20" transform="scale(0.015625)"/>
       <path id="DejaVuSans-77" d="M 269 3500 
L 844 3500 
L 1563 769 
L 2278 3500 
L 2956 3500 
L 3675 769 
L 4391 3500 
L 4966 3500 
L 4050 0 
L 3372 0 
L 2619 2869 
L 1863 0 
L 1184 0 
L 269 3500 
z
" transform="scale(0.015625)"/>
       <path id="DejaVuSans-69" d="M 603 3500 
L 1178 3500 
L 1178 0 
L 603 0 
L 603 3500 
z
M 603 4863 
L 1178 4863 
L 1178 4134 
L 603 4134 
L 603 4863 
z
" transform="scale(0.015625)"/>
       <path id="DejaVuSans-74" d="M 1172 4494 
L 1172 3500 
L 2356 3500 
L 2356 3053 
L 1172 3053 
L 1172 1153 
Q 1172 725 1289 603 
Q 1406 481 1766 481 
L 2356 481 
L 2356 0 
L 1766 0 
Q 1100 0 847 248 
Q 594 497 594 1153 
L 594 3053 
L 172 3053 
L 172 3500 
L 594 3500 
L 594 4494 
L 1172 4494 
z
" transform="scale(0.015625)"/>
       <path id="DejaVuSans-68" d="M 3513 2113 
L 3513 0 
L 2938 0 
L 2938 2094 
Q 2938 2591 2744 2837 
Q 2550 3084 2163 3084 
Q 1697 3084 1428 2787 
Q 1159 2491 1159 1978 
L 1159 0 
L 581 0 
L 581 4863 
L 1159 4863 
L 1159 2956 
Q 1366 3272 1645 3428 
Q 1925 3584 2291 3584 
Q 2894 3584 3203 3211 
Q 3513 2838 3513 2113 
z
" transform="scale(0.015625)"/>
       <path id="DejaVuSans-6f" d="M 1959 3097 
Q 1497 3097 1228 2736 
Q 959 2375 959 1747 
Q 959 1119 1226 758 
Q 1494 397 1959 397 
Q 2419 397 2687 759 
Q 2956 1122 2956 1747 
Q 2956 2369 2687 2733 
Q 2419 3097 1959 3097 
z
M 1959 3584 
Q 2709 3584 3137 3096 
Q 3566 2609 3566 1747 
Q 3566 888 3137 398 
Q 2709 -91 1959 -91 
Q 1206 -91 779 398 
Q 353 888 353 1747 
Q 353 2609 779 3096 
Q 1206 3584 1959 3584 
z
" transform="scale(0.015625)"/>
       <path id="DejaVuSans-72" d="M 2631 2963 
Q 2534 3019 2420 3045 
Q 2306 3072 2169 3072 
Q 1681 3072 1420 2755 
Q 1159 2438 1159 1844 
L 1159 0 
L 581 0 
L 581 3500 
L 1159 3500 
L 1159 2956 
Q 1341 3275 1631 3429 
Q 1922 3584 2338 3584 
Q 2397 3584 2469 3576 
Q 2541 3569 2628 3553 
L 2631 2963 
z
" transform="scale(0.015625)"/>
       <path id="DejaVuSans-6d" d="M 3328 2828 
Q 3544 3216 3844 3400 
Q 4144 3584 4550 3584 
Q 5097 3584 5394 3201 
Q 5691 2819 5691 2113 
L 5691 0 
L 5113 0 
L 5113 2094 
Q 5113 2597 4934 2840 
Q 4756 3084 4391 3084 
Q 3944 3084 3684 2787 
Q 3425 2491 3425 1978 
L 3425 0 
L 2847 0 
L 2847 2094 
Q 2847 2600 2669 2842 
Q 2491 3084 2119 3084 
Q 1678 3084 1418 2786 
Q 1159 2488 1159 1978 
L 1159 0 
L 581 0 
L 581 3500 
L 1159 3500 
L 1159 2956 
Q 1356 3278 1631 3431 
Q 1906 3584 2284 3584 
Q 2666 3584 2933 3390 
Q 3200 3197 3328 2828 
z
" transform="scale(0.015625)"/>
       <path id="DejaVuSans-61" d="M 2194 1759 
Q 1497 1759 1228 1600 
Q 959 1441 959 1056 
Q 959 750 1161 570 
Q 1363 391 1709 391 
Q 2188 391 2477 730 
Q 2766 1069 2766 1631 
L 2766 1759 
L 2194 1759 
z
M 3341 1997 
L 3341 0 
L 2766 0 
L 2766 531 
Q 2569 213 2275 61 
Q 1981 -91 1556 -91 
Q 1019 -91 701 211 
Q 384 513 384 1019 
Q 384 1609 779 1909 
Q 1175 2209 1959 2209 
L 2766 2209 
L 2766 2266 
Q 2766 2663 2505 2880 
Q 2244 3097 1772 3097 
Q 1472 3097 1187 3025 
Q 903 2953 641 2809 
L 641 3341 
Q 956 3463 1253 3523 
Q 1550 3584 1831 3584 
Q 2591 3584 2966 3190 
Q 3341 2797 3341 1997 
z
" transform="scale(0.015625)"/>
       <path id="DejaVuSans-28" d="M 1984 4856 
Q 1566 4138 1362 3434 
Q 1159 2731 1159 2009 
Q 1159 1288 1364 580 
Q 1569 -128 1984 -844 
L 1484 -844 
Q 1016 -109 783 600 
Q 550 1309 550 2009 
Q 550 2706 781 3412 
Q 1013 4119 1484 4856 
L 1984 4856 
z
" transform="scale(0.015625)"/>
       <path id="DejaVuSans-64" d="M 2906 2969 
L 2906 4863 
L 3481 4863 
L 3481 0 
L 2906 0 
L 2906 525 
Q 2725 213 2448 61 
Q 2172 -91 1784 -91 
Q 1150 -91 751 415 
Q 353 922 353 1747 
Q 353 2572 751 3078 
Q 1150 3584 1784 3584 
Q 2172 3584 2448 3432 
Q 2725 3281 2906 2969 
z
M 947 1747 
Q 947 1113 1208 752 
Q 1469 391 1925 391 
Q 2381 391 2643 752 
Q 2906 1113 2906 1747 
Q 2906 2381 2643 2742 
Q 2381 3103 1925 3103 
Q 1469 3103 1208 2742 
Q 947 2381 947 1747 
z
" transform="scale(0.015625)"/>
       <path id="DejaVuSans-29" d="M 513 4856 
L 1013 4856 
Q 1481 4119 1714 3412 
Q 1947 2706 1947 2009 
Q 1947 1309 1714 600 
Q 1481 -109 1013 -844 
L 513 -844 
Q 928 -128 1133 580 
Q 1338 1288 1338 2009 
Q 1338 2731 1133 3434 
Q 928 4138 513 4856 
z
" transform="scale(0.015625)"/>
      </defs>
      <use xlink:href="#DejaVuSans-41"/>
      <use xlink:href="#DejaVuSans-6e" x="68.408203"/>
      <use xlink:href="#DejaVuSans-67" x="131.787109"/>
      <use xlink:href="#DejaVuSans-6c" x="195.263672"/>
      <use xlink:href="#DejaVuSans-65" x="223.046875"/>
      <use xlink:href="#DejaVuSans-20" x="284.570312"/>
      <use xlink:href="#DejaVuSans-77" x="316.357422"/>
      <use xlink:href="#DejaVuSans-69" x="398.144531"/>
      <use xlink:href="#DejaVuSans-74" x="425.927734"/>
      <use xlink:href="#DejaVuSans-68" x="465.136719"/>
      <use xlink:href="#DejaVuSans-20" x="528.515625"/>
      <use xlink:href="#DejaVuSans-6e" x="560.302734"/>
      <use xlink:href="#DejaVuSans-6f" x="623.681641"/>
      <use xlink:href="#DejaVuSans-72" x="684.863281"/>
      <use xlink:href="#DejaVuSans-6d" x="724.226562"/>
      <use xlink:href="#DejaVuSans-61" x="821.638672"/>
      <use xlink:href="#DejaVuSans-6c" x="882.917969"/>
      <use xlink:href="#DejaVuSans-20" x="910.701172"/>
      <use xlink:href="#DejaVuSans-28" x="942.488281"/>
      <use xlink:href="#DejaVuSans-72" x="981.501953"/>
      <use xlink:href="#DejaVuSans-61" x="1022.615234"/>
      <use xlink:href="#DejaVuSans-64" x="1083.894531"/>
      <use xlink:href="#DejaVuSans-29" x="1147.371094"/>
     </g>
    </g>
   </g>
   <g id="matplotlib.axis_2">
    <g id="ytick_1">
     <g id="line2d_10">
      <defs>
       <path id="mf2ea0a0145" d="M 0 0 
L -3.5 0 
" style="stroke: #000000; stroke-width: 0.8"/>
      </defs>
      <g>
       <use xlink:href="#mf2ea0a0145" x="43.78125" y="273.312" style="stroke: #000000; stroke-width: 0.8"/>
      </g>
     </g>
     <g id="text_11">
      <!-- 0.0 -->
      <g transform="translate(20.878125 277.111219)scale(0.1 -0.1)">
       <use xlink:href="#DejaVuSans-30"/>
       <use xlink:href="#DejaVuSans-2e" x="63.623047"/>
       <use xlink:href="#DejaVuSans-30" x="95.410156"/>
      </g>
     </g>
    </g>
    <g id="ytick_2">
     <g id="line2d_11">
      <g>
       <use xlink:href="#mf2ea0a0145" x="43.78125" y="227.784124" style="stroke: #000000; stroke-width: 0.8"/>
      </g>
     </g>
     <g id="text_12">
      <!-- 0.2 -->
      <g transform="translate(20.878125 231.583342)scale(0.1 -0.1)">
       <use xlink:href="#DejaVuSans-30"/>
       <use xlink:href="#DejaVuSans-2e" x="63.623047"/>
       <use xlink:href="#DejaVuSans-32" x="95.410156"/>
      </g>
     </g>
    </g>
    <g id="ytick_3">
     <g id="line2d_12">
      <g>
       <use xlink:href="#mf2ea0a0145" x="43.78125" y="182.256247" style="stroke: #000000; stroke-width: 0.8"/>
      </g>
     </g>
     <g id="text_13">
      <!-- 0.4 -->
      <g transform="translate(20.878125 186.055466)scale(0.1 -0.1)">
       <use xlink:href="#DejaVuSans-30"/>
       <use xlink:href="#DejaVuSans-2e" x="63.623047"/>
       <use xlink:href="#DejaVuSans-34" x="95.410156"/>
      </g>
     </g>
    </g>
    <g id="ytick_4">
     <g id="line2d_13">
      <g>
       <use xlink:href="#mf2ea0a0145" x="43.78125" y="136.728371" style="stroke: #000000; stroke-width: 0.8"/>
      </g>
     </g>
     <g id="text_14">
      <!-- 0.6 -->
      <g transform="translate(20.878125 140.527589)scale(0.1 -0.1)">
       <use xlink:href="#DejaVuSans-30"/>
       <use xlink:href="#DejaVuSans-2e" x="63.623047"/>
       <use xlink:href="#DejaVuSans-36" x="95.410156"/>
      </g>
     </g>
    </g>
    <g id="ytick_5">
     <g id="line2d_14">
      <g>
       <use xlink:href="#mf2ea0a0145" x="43.78125" y="91.200494" style="stroke: #000000; stroke-width: 0.8"/>
      </g>
     </g>
     <g id="text_15">
      <!-- 0.8 -->
      <g transform="translate(20.878125 94.999713)scale(0.1 -0.1)">
       <use xlink:href="#DejaVuSans-30"/>
       <use xlink:href="#DejaVuSans-2e" x="63.623047"/>
       <use xlink:href="#DejaVuSans-38" x="95.410156"/>
      </g>
     </g>
    </g>
    <g id="ytick_6">
     <g id="line2d_15">
      <g>
       <use xlink:href="#mf2ea0a0145" x="43.78125" y="45.672618" style="stroke: #000000; stroke-width: 0.8"/>
      </g>
     </g>
     <g id="text_16">
      <!-- 1.0 -->
      <g transform="translate(20.878125 49.471836)scale(0.1 -0.1)">
       <use xlink:href="#DejaVuSans-31"/>
       <use xlink:href="#DejaVuSans-2e" x="63.623047"/>
       <use xlink:href="#DejaVuSans-30" x="95.410156"/>
      </g>
     </g>
    </g>
    <g id="text_17">
     <!-- Probability density -->
     <g transform="translate(14.798438 186.606781)rotate(-90)scale(0.1 -0.1)">
      <defs>
       <path id="DejaVuSans-50" d="M 1259 4147 
L 1259 2394 
L 2053 2394 
Q 2494 2394 2734 2622 
Q 2975 2850 2975 3272 
Q 2975 3691 2734 3919 
Q 2494 4147 2053 4147 
L 1259 4147 
z
M 628 4666 
L 2053 4666 
Q 2838 4666 3239 4311 
Q 3641 3956 3641 3272 
Q 3641 2581 3239 2228 
Q 2838 1875 2053 1875 
L 1259 1875 
L 1259 0 
L 628 0 
L 628 4666 
z
" transform="scale(0.015625)"/>
       <path id="DejaVuSans-62" d="M 3116 1747 
Q 3116 2381 2855 2742 
Q 2594 3103 2138 3103 
Q 1681 3103 1420 2742 
Q 1159 2381 1159 1747 
Q 1159 1113 1420 752 
Q 1681 391 2138 391 
Q 2594 391 2855 752 
Q 3116 1113 3116 1747 
z
M 1159 2969 
Q 1341 3281 1617 3432 
Q 1894 3584 2278 3584 
Q 2916 3584 3314 3078 
Q 3713 2572 3713 1747 
Q 3713 922 3314 415 
Q 2916 -91 2278 -91 
Q 1894 -91 1617 61 
Q 1341 213 1159 525 
L 1159 0 
L 581 0 
L 581 4863 
L 1159 4863 
L 1159 2969 
z
" transform="scale(0.015625)"/>
       <path id="DejaVuSans-79" d="M 2059 -325 
Q 1816 -950 1584 -1140 
Q 1353 -1331 966 -1331 
L 506 -1331 
L 506 -850 
L 844 -850 
Q 1081 -850 1212 -737 
Q 1344 -625 1503 -206 
L 1606 56 
L 191 3500 
L 800 3500 
L 1894 763 
L 2988 3500 
L 3597 3500 
L 2059 -325 
z
" transform="scale(0.015625)"/>
       <path id="DejaVuSans-73" d="M 2834 3397 
L 2834 2853 
Q 2591 2978 2328 3040 
Q 2066 3103 1784 3103 
Q 1356 3103 1142 2972 
Q 928 2841 928 2578 
Q 928 2378 1081 2264 
Q 1234 2150 1697 2047 
L 1894 2003 
Q 2506 1872 2764 1633 
Q 3022 1394 3022 966 
Q 3022 478 2636 193 
Q 2250 -91 1575 -91 
Q 1294 -91 989 -36 
Q 684 19 347 128 
L 347 722 
Q 666 556 975 473 
Q 1284 391 1588 391 
Q 1994 391 2212 530 
Q 2431 669 2431 922 
Q 2431 1156 2273 1281 
Q 2116 1406 1581 1522 
L 1381 1569 
Q 847 1681 609 1914 
Q 372 2147 372 2553 
Q 372 3047 722 3315 
Q 1072 3584 1716 3584 
Q 2034 3584 2315 3537 
Q 2597 3491 2834 3397 
z
" transform="scale(0.015625)"/>
      </defs>
      <use xlink:href="#DejaVuSans-50"/>
      <use xlink:href="#DejaVuSans-72" x="58.552734"/>
      <use xlink:href="#DejaVuSans-6f" x="97.416016"/>
      <use xlink:href="#DejaVuSans-62" x="158.597656"/>
      <use xlink:href="#DejaVuSans-61" x="222.074219"/>
      <use xlink:href="#DejaVuSans-62" x="283.353516"/>
      <use xlink:href="#DejaVuSans-69" x="346.830078"/>
      <use xlink:href="#DejaVuSans-6c" x="374.613281"/>
      <use xlink:href="#DejaVuSans-69" x="402.396484"/>
      <use xlink:href="#DejaVuSans-74" x="430.179688"/>
      <use xlink:href="#DejaVuSans-79" x="469.388672"/>
      <use xlink:href="#DejaVuSans-20" x="528.568359"/>
      <use xlink:href="#DejaVuSans-64" x="560.355469"/>
      <use xlink:href="#DejaVuSans-65" x="623.832031"/>
      <use xlink:href="#DejaVuSans-6e" x="685.355469"/>
      <use xlink:href="#DejaVuSans-73" x="748.734375"/>
      <use xlink:href="#DejaVuSans-69" x="800.833984"/>
      <use xlink:href="#DejaVuSans-74" x="828.617188"/>
      <use xlink:href="#DejaVuSans-79" x="867.826172"/>
     </g>
    </g>
   </g>
   <g id="line2d_16">
    <path d="M 60.013977 273.312 
L 79.837728 229.911494 
L 90.237073 207.681474 
L 99.01152 189.432489 
L 106.811029 173.714532 
L 113.960578 159.802429 
L 120.460169 147.624638 
L 126.63478 136.515383 
L 132.484411 126.440565 
L 138.009063 117.356921 
L 143.208736 109.214232 
L 148.408408 101.486897 
L 153.283101 94.637156 
L 157.832814 88.602403 
L 162.382528 82.925618 
L 166.932241 77.617803 
L 171.156975 73.028498 
L 175.381709 68.773882 
L 179.281463 65.149762 
L 183.181217 61.822045 
L 187.080972 58.795468 
L 190.655746 56.289338 
L 194.230521 54.042874 
L 197.805296 52.058765 
L 201.380071 50.339384 
L 204.629866 49.007771 
L 207.879661 47.897963 
L 211.129456 47.011056 
L 214.379252 46.347928 
L 217.629047 45.909235 
L 220.878842 45.695411 
L 224.128637 45.706666 
L 227.378433 45.942991 
L 230.628228 46.40415 
L 233.878023 47.089689 
L 237.127818 47.998929 
L 240.377614 49.130971 
L 243.627409 50.484696 
L 247.202184 52.228233 
L 250.776958 54.236295 
L 254.351733 56.506481 
L 257.926508 59.036073 
L 261.501283 61.822045 
L 265.401037 65.149762 
L 269.300791 68.773882 
L 273.200546 72.689244 
L 277.425279 77.253068 
L 281.650013 82.144521 
L 286.199727 87.769254 
L 290.74944 93.753568 
L 295.624133 100.551171 
L 300.498826 107.733113 
L 305.698498 115.799463 
L 311.22315 124.806319 
L 316.747802 134.237507 
L 322.597433 144.656011 
L 328.772044 156.099733 
L 335.596614 169.233043 
L 342.746164 183.477418 
L 350.870652 200.182087 
L 359.970079 219.422654 
L 371.019383 243.332966 
L 384.668523 273.312 
L 384.668523 273.312 
" clip-path="url(#pb638cb3b95)" style="fill: none; stroke: #ff7f0e; stroke-width: 1.5; stroke-linecap: square"/>
   </g>
   <g id="patch_203">
    <path d="M 43.78125 273.312 
L 43.78125 7.2 
" style="fill: none; stroke: #000000; stroke-width: 0.8; stroke-linejoin: miter; stroke-linecap: square"/>
   </g>
   <g id="patch_204">
    <path d="M 400.90125 273.312 
L 400.90125 7.2 
" style="fill: none; stroke: #000000; stroke-width: 0.8; stroke-linejoin: miter; stroke-linecap: square"/>
   </g>
   <g id="patch_205">
    <path d="M 43.78125 273.312 
L 400.90125 273.312 
" style="fill: none; stroke: #000000; stroke-width: 0.8; stroke-linejoin: miter; stroke-linecap: square"/>
   </g>
   <g id="patch_206">
    <path d="M 43.78125 7.2 
L 400.90125 7.2 
" style="fill: none; stroke: #000000; stroke-width: 0.8; stroke-linejoin: miter; stroke-linecap: square"/>
   </g>
  </g>
 </g>
 <defs>
  <clipPath id="pb638cb3b95">
   <rect x="43.78125" y="7.2" width="357.12" height="266.112"/>
  </clipPath>
 </defs>
</svg>
