<?xml version="1.0" encoding="utf-8" standalone="no"?>
<!DOCTYPE svg PUBLIC "-//W3C//DTD SVG 1.1//EN"
  "http://www.w3.org/Graphics/SVG/1.1/DTD/svg11.dtd">
<svg xmlns:xlink="http://www.w3.org/1999/xlink" width="414.46375pt" height="310.86825pt" viewBox="0 0 414.46375 310.86825" xmlns="http://www.w3.org/2000/svg" version="1.1">
 <metadata>
  <rdf:RDF xmlns:dc="http://purl.org/dc/elements/1.1/" xmlns:cc="http://creativecommons.org/ns#" xmlns:rdf="http://www.w3.org/1999/02/22-rdf-syntax-ns#">
   <cc:Work>
    <dc:type rdf:resource="http://purl.org/dc/dcmitype/StillImage"/>
    <dc:date>2022-05-31T16:12:29.766004</dc:date>
    <dc:format>image/svg+xml</dc:format>
    <dc:creator>
     <cc:Agent>
      <dc:title>Matplotlib v3.5.2, https://matplotlib.org/</dc:title>
     </cc:Agent>
    </dc:creator>
   </cc:Work>
  </rdf:RDF>
 </metadata>
 <defs>
  <style type="text/css">*{stroke-linejoin: round; stroke-linecap: butt}</style>
 </defs>
 <g id="figure_1">
  <g id="patch_1">
   <path d="M 0 310.86825 
L 414.46375 310.86825 
L 414.46375 0 
L 0 0 
z
" style="fill: #ffffff"/>
  </g>
  <g id="axes_1">
   <g id="patch_2">
    <path d="M 50.14375 273.312 
L 407.26375 273.312 
L 407.26375 7.2 
L 50.14375 7.2 
z
" style="fill: #ffffff"/>
   </g>
   <g id="patch_3">
    <path d="M 67.105986 273.312 
L 68.725575 273.312 
L 68.725575 272.695358 
L 67.105986 272.695358 
z
" clip-path="url(#p7b3850d055)" style="fill: #1f77b4"/>
   </g>
   <g id="patch_4">
    <path d="M 68.725575 273.312 
L 70.345163 273.312 
L 70.345163 271.462073 
L 68.725575 271.462073 
z
" clip-path="url(#p7b3850d055)" style="fill: #1f77b4"/>
   </g>
   <g id="patch_5">
    <path d="M 70.345163 273.312 
L 71.964752 273.312 
L 71.964752 266.528934 
L 70.345163 266.528934 
z
" clip-path="url(#p7b3850d055)" style="fill: #1f77b4"/>
   </g>
   <g id="patch_6">
    <path d="M 71.964752 273.312 
L 73.58434 273.312 
L 73.58434 267.145577 
L 71.964752 267.145577 
z
" clip-path="url(#p7b3850d055)" style="fill: #1f77b4"/>
   </g>
   <g id="patch_7">
    <path d="M 73.58434 273.312 
L 75.203929 273.312 
L 75.203929 264.679007 
L 73.58434 264.679007 
z
" clip-path="url(#p7b3850d055)" style="fill: #1f77b4"/>
   </g>
   <g id="patch_8">
    <path d="M 75.203929 273.312 
L 76.823517 273.312 
L 76.823517 265.29565 
L 75.203929 265.29565 
z
" clip-path="url(#p7b3850d055)" style="fill: #1f77b4"/>
   </g>
   <g id="patch_9">
    <path d="M 76.823517 273.312 
L 78.443105 273.312 
L 78.443105 263.445723 
L 76.823517 263.445723 
z
" clip-path="url(#p7b3850d055)" style="fill: #1f77b4"/>
   </g>
   <g id="patch_10">
    <path d="M 78.443105 273.312 
L 80.062694 273.312 
L 80.062694 260.362511 
L 78.443105 260.362511 
z
" clip-path="url(#p7b3850d055)" style="fill: #1f77b4"/>
   </g>
   <g id="patch_11">
    <path d="M 80.062694 273.312 
L 81.682282 273.312 
L 81.682282 260.979153 
L 80.062694 260.979153 
z
" clip-path="url(#p7b3850d055)" style="fill: #1f77b4"/>
   </g>
   <g id="patch_12">
    <path d="M 81.682282 273.312 
L 83.301871 273.312 
L 83.301871 260.362511 
L 81.682282 260.362511 
z
" clip-path="url(#p7b3850d055)" style="fill: #1f77b4"/>
   </g>
   <g id="patch_13">
    <path d="M 83.301871 273.312 
L 84.921459 273.312 
L 84.921459 256.046015 
L 83.301871 256.046015 
z
" clip-path="url(#p7b3850d055)" style="fill: #1f77b4"/>
   </g>
   <g id="patch_14">
    <path d="M 84.921459 273.312 
L 86.541048 273.312 
L 86.541048 254.196088 
L 84.921459 254.196088 
z
" clip-path="url(#p7b3850d055)" style="fill: #1f77b4"/>
   </g>
   <g id="patch_15">
    <path d="M 86.541048 273.312 
L 88.160636 273.312 
L 88.160636 252.962803 
L 86.541048 252.962803 
z
" clip-path="url(#p7b3850d055)" style="fill: #1f77b4"/>
   </g>
   <g id="patch_16">
    <path d="M 88.160636 273.312 
L 89.780225 273.312 
L 89.780225 258.512584 
L 88.160636 258.512584 
z
" clip-path="url(#p7b3850d055)" style="fill: #1f77b4"/>
   </g>
   <g id="patch_17">
    <path d="M 89.780225 273.312 
L 91.399813 273.312 
L 91.399813 257.279299 
L 89.780225 257.279299 
z
" clip-path="url(#p7b3850d055)" style="fill: #1f77b4"/>
   </g>
   <g id="patch_18">
    <path d="M 91.399813 273.312 
L 93.019402 273.312 
L 93.019402 244.946453 
L 91.399813 244.946453 
z
" clip-path="url(#p7b3850d055)" style="fill: #1f77b4"/>
   </g>
   <g id="patch_19">
    <path d="M 93.019402 273.312 
L 94.63899 273.312 
L 94.63899 245.563095 
L 93.019402 245.563095 
z
" clip-path="url(#p7b3850d055)" style="fill: #1f77b4"/>
   </g>
   <g id="patch_20">
    <path d="M 94.63899 273.312 
L 96.258579 273.312 
L 96.258579 251.112876 
L 94.63899 251.112876 
z
" clip-path="url(#p7b3850d055)" style="fill: #1f77b4"/>
   </g>
   <g id="patch_21">
    <path d="M 96.258579 273.312 
L 97.878167 273.312 
L 97.878167 253.579445 
L 96.258579 253.579445 
z
" clip-path="url(#p7b3850d055)" style="fill: #1f77b4"/>
   </g>
   <g id="patch_22">
    <path d="M 97.878167 273.312 
L 99.497756 273.312 
L 99.497756 242.479883 
L 97.878167 242.479883 
z
" clip-path="url(#p7b3850d055)" style="fill: #1f77b4"/>
   </g>
   <g id="patch_23">
    <path d="M 99.497756 273.312 
L 101.117344 273.312 
L 101.117344 248.646307 
L 99.497756 248.646307 
z
" clip-path="url(#p7b3850d055)" style="fill: #1f77b4"/>
   </g>
   <g id="patch_24">
    <path d="M 101.117344 273.312 
L 102.736933 273.312 
L 102.736933 243.713168 
L 101.117344 243.713168 
z
" clip-path="url(#p7b3850d055)" style="fill: #1f77b4"/>
   </g>
   <g id="patch_25">
    <path d="M 102.736933 273.312 
L 104.356521 273.312 
L 104.356521 241.863241 
L 102.736933 241.863241 
z
" clip-path="url(#p7b3850d055)" style="fill: #1f77b4"/>
   </g>
   <g id="patch_26">
    <path d="M 104.356521 273.312 
L 105.97611 273.312 
L 105.97611 246.179737 
L 104.356521 246.179737 
z
" clip-path="url(#p7b3850d055)" style="fill: #1f77b4"/>
   </g>
   <g id="patch_27">
    <path d="M 105.97611 273.312 
L 107.595698 273.312 
L 107.595698 240.629956 
L 105.97611 240.629956 
z
" clip-path="url(#p7b3850d055)" style="fill: #1f77b4"/>
   </g>
   <g id="patch_28">
    <path d="M 107.595698 273.312 
L 109.215287 273.312 
L 109.215287 242.479883 
L 107.595698 242.479883 
z
" clip-path="url(#p7b3850d055)" style="fill: #1f77b4"/>
   </g>
   <g id="patch_29">
    <path d="M 109.215287 273.312 
L 110.834875 273.312 
L 110.834875 244.946453 
L 109.215287 244.946453 
z
" clip-path="url(#p7b3850d055)" style="fill: #1f77b4"/>
   </g>
   <g id="patch_30">
    <path d="M 110.834875 273.312 
L 112.454464 273.312 
L 112.454464 235.080175 
L 110.834875 235.080175 
z
" clip-path="url(#p7b3850d055)" style="fill: #1f77b4"/>
   </g>
   <g id="patch_31">
    <path d="M 112.454464 273.312 
L 114.074052 273.312 
L 114.074052 228.297109 
L 112.454464 228.297109 
z
" clip-path="url(#p7b3850d055)" style="fill: #1f77b4"/>
   </g>
   <g id="patch_32">
    <path d="M 114.074052 273.312 
L 115.693641 273.312 
L 115.693641 237.546745 
L 114.074052 237.546745 
z
" clip-path="url(#p7b3850d055)" style="fill: #1f77b4"/>
   </g>
   <g id="patch_33">
    <path d="M 115.693641 273.312 
L 117.313229 273.312 
L 117.313229 238.163387 
L 115.693641 238.163387 
z
" clip-path="url(#p7b3850d055)" style="fill: #1f77b4"/>
   </g>
   <g id="patch_34">
    <path d="M 117.313229 273.312 
L 118.932818 273.312 
L 118.932818 231.996964 
L 117.313229 231.996964 
z
" clip-path="url(#p7b3850d055)" style="fill: #1f77b4"/>
   </g>
   <g id="patch_35">
    <path d="M 118.932818 273.312 
L 120.552406 273.312 
L 120.552406 235.080175 
L 118.932818 235.080175 
z
" clip-path="url(#p7b3850d055)" style="fill: #1f77b4"/>
   </g>
   <g id="patch_36">
    <path d="M 120.552406 273.312 
L 122.171994 273.312 
L 122.171994 234.463533 
L 120.552406 234.463533 
z
" clip-path="url(#p7b3850d055)" style="fill: #1f77b4"/>
   </g>
   <g id="patch_37">
    <path d="M 122.171994 273.312 
L 123.791583 273.312 
L 123.791583 235.080175 
L 122.171994 235.080175 
z
" clip-path="url(#p7b3850d055)" style="fill: #1f77b4"/>
   </g>
   <g id="patch_38">
    <path d="M 123.791583 273.312 
L 125.411171 273.312 
L 125.411171 229.530394 
L 123.791583 229.530394 
z
" clip-path="url(#p7b3850d055)" style="fill: #1f77b4"/>
   </g>
   <g id="patch_39">
    <path d="M 125.411171 273.312 
L 127.03076 273.312 
L 127.03076 225.83054 
L 125.411171 225.83054 
z
" clip-path="url(#p7b3850d055)" style="fill: #1f77b4"/>
   </g>
   <g id="patch_40">
    <path d="M 127.03076 273.312 
L 128.650348 273.312 
L 128.650348 228.297109 
L 127.03076 228.297109 
z
" clip-path="url(#p7b3850d055)" style="fill: #1f77b4"/>
   </g>
   <g id="patch_41">
    <path d="M 128.650348 273.312 
L 130.269937 273.312 
L 130.269937 233.230248 
L 128.650348 233.230248 
z
" clip-path="url(#p7b3850d055)" style="fill: #1f77b4"/>
   </g>
   <g id="patch_42">
    <path d="M 130.269937 273.312 
L 131.889525 273.312 
L 131.889525 226.447182 
L 130.269937 226.447182 
z
" clip-path="url(#p7b3850d055)" style="fill: #1f77b4"/>
   </g>
   <g id="patch_43">
    <path d="M 131.889525 273.312 
L 133.509114 273.312 
L 133.509114 219.664117 
L 131.889525 219.664117 
z
" clip-path="url(#p7b3850d055)" style="fill: #1f77b4"/>
   </g>
   <g id="patch_44">
    <path d="M 133.509114 273.312 
L 135.128702 273.312 
L 135.128702 217.197547 
L 133.509114 217.197547 
z
" clip-path="url(#p7b3850d055)" style="fill: #1f77b4"/>
   </g>
   <g id="patch_45">
    <path d="M 135.128702 273.312 
L 136.748291 273.312 
L 136.748291 210.414482 
L 135.128702 210.414482 
z
" clip-path="url(#p7b3850d055)" style="fill: #1f77b4"/>
   </g>
   <g id="patch_46">
    <path d="M 136.748291 273.312 
L 138.367879 273.312 
L 138.367879 224.597255 
L 136.748291 224.597255 
z
" clip-path="url(#p7b3850d055)" style="fill: #1f77b4"/>
   </g>
   <g id="patch_47">
    <path d="M 138.367879 273.312 
L 139.987468 273.312 
L 139.987468 223.363971 
L 138.367879 223.363971 
z
" clip-path="url(#p7b3850d055)" style="fill: #1f77b4"/>
   </g>
   <g id="patch_48">
    <path d="M 139.987468 273.312 
L 141.607056 273.312 
L 141.607056 206.097985 
L 139.987468 206.097985 
z
" clip-path="url(#p7b3850d055)" style="fill: #1f77b4"/>
   </g>
   <g id="patch_49">
    <path d="M 141.607056 273.312 
L 143.226645 273.312 
L 143.226645 207.33127 
L 141.607056 207.33127 
z
" clip-path="url(#p7b3850d055)" style="fill: #1f77b4"/>
   </g>
   <g id="patch_50">
    <path d="M 143.226645 273.312 
L 144.846233 273.312 
L 144.846233 215.964263 
L 143.226645 215.964263 
z
" clip-path="url(#p7b3850d055)" style="fill: #1f77b4"/>
   </g>
   <g id="patch_51">
    <path d="M 144.846233 273.312 
L 146.465822 273.312 
L 146.465822 209.797839 
L 144.846233 209.797839 
z
" clip-path="url(#p7b3850d055)" style="fill: #1f77b4"/>
   </g>
   <g id="patch_52">
    <path d="M 146.465822 273.312 
L 148.08541 273.312 
L 148.08541 222.747328 
L 146.465822 222.747328 
z
" clip-path="url(#p7b3850d055)" style="fill: #1f77b4"/>
   </g>
   <g id="patch_53">
    <path d="M 148.08541 273.312 
L 149.704999 273.312 
L 149.704999 194.381781 
L 148.08541 194.381781 
z
" clip-path="url(#p7b3850d055)" style="fill: #1f77b4"/>
   </g>
   <g id="patch_54">
    <path d="M 149.704999 273.312 
L 151.324587 273.312 
L 151.324587 205.481343 
L 149.704999 205.481343 
z
" clip-path="url(#p7b3850d055)" style="fill: #1f77b4"/>
   </g>
   <g id="patch_55">
    <path d="M 151.324587 273.312 
L 152.944176 273.312 
L 152.944176 206.097985 
L 151.324587 206.097985 
z
" clip-path="url(#p7b3850d055)" style="fill: #1f77b4"/>
   </g>
   <g id="patch_56">
    <path d="M 152.944176 273.312 
L 154.563764 273.312 
L 154.563764 214.114336 
L 152.944176 214.114336 
z
" clip-path="url(#p7b3850d055)" style="fill: #1f77b4"/>
   </g>
   <g id="patch_57">
    <path d="M 154.563764 273.312 
L 156.183353 273.312 
L 156.183353 197.464993 
L 154.563764 197.464993 
z
" clip-path="url(#p7b3850d055)" style="fill: #1f77b4"/>
   </g>
   <g id="patch_58">
    <path d="M 156.183353 273.312 
L 157.802941 273.312 
L 157.802941 200.548204 
L 156.183353 200.548204 
z
" clip-path="url(#p7b3850d055)" style="fill: #1f77b4"/>
   </g>
   <g id="patch_59">
    <path d="M 157.802941 273.312 
L 159.42253 273.312 
L 159.42253 207.947912 
L 157.802941 207.947912 
z
" clip-path="url(#p7b3850d055)" style="fill: #1f77b4"/>
   </g>
   <g id="patch_60">
    <path d="M 159.42253 273.312 
L 161.042118 273.312 
L 161.042118 209.181197 
L 159.42253 209.181197 
z
" clip-path="url(#p7b3850d055)" style="fill: #1f77b4"/>
   </g>
   <g id="patch_61">
    <path d="M 161.042118 273.312 
L 162.661706 273.312 
L 162.661706 201.781489 
L 161.042118 201.781489 
z
" clip-path="url(#p7b3850d055)" style="fill: #1f77b4"/>
   </g>
   <g id="patch_62">
    <path d="M 162.661706 273.312 
L 164.281295 273.312 
L 164.281295 191.915212 
L 162.661706 191.915212 
z
" clip-path="url(#p7b3850d055)" style="fill: #1f77b4"/>
   </g>
   <g id="patch_63">
    <path d="M 164.281295 273.312 
L 165.900883 273.312 
L 165.900883 198.698277 
L 164.281295 198.698277 
z
" clip-path="url(#p7b3850d055)" style="fill: #1f77b4"/>
   </g>
   <g id="patch_64">
    <path d="M 165.900883 273.312 
L 167.520472 273.312 
L 167.520472 199.31492 
L 165.900883 199.31492 
z
" clip-path="url(#p7b3850d055)" style="fill: #1f77b4"/>
   </g>
   <g id="patch_65">
    <path d="M 167.520472 273.312 
L 169.14006 273.312 
L 169.14006 198.698277 
L 167.520472 198.698277 
z
" clip-path="url(#p7b3850d055)" style="fill: #1f77b4"/>
   </g>
   <g id="patch_66">
    <path d="M 169.14006 273.312 
L 170.759649 273.312 
L 170.759649 188.215358 
L 169.14006 188.215358 
z
" clip-path="url(#p7b3850d055)" style="fill: #1f77b4"/>
   </g>
   <g id="patch_67">
    <path d="M 170.759649 273.312 
L 172.379237 273.312 
L 172.379237 188.215358 
L 170.759649 188.215358 
z
" clip-path="url(#p7b3850d055)" style="fill: #1f77b4"/>
   </g>
   <g id="patch_68">
    <path d="M 172.379237 273.312 
L 173.998826 273.312 
L 173.998826 182.048934 
L 172.379237 182.048934 
z
" clip-path="url(#p7b3850d055)" style="fill: #1f77b4"/>
   </g>
   <g id="patch_69">
    <path d="M 173.998826 273.312 
L 175.618414 273.312 
L 175.618414 196.84835 
L 173.998826 196.84835 
z
" clip-path="url(#p7b3850d055)" style="fill: #1f77b4"/>
   </g>
   <g id="patch_70">
    <path d="M 175.618414 273.312 
L 177.238003 273.312 
L 177.238003 189.448642 
L 175.618414 189.448642 
z
" clip-path="url(#p7b3850d055)" style="fill: #1f77b4"/>
   </g>
   <g id="patch_71">
    <path d="M 177.238003 273.312 
L 178.857591 273.312 
L 178.857591 182.048934 
L 177.238003 182.048934 
z
" clip-path="url(#p7b3850d055)" style="fill: #1f77b4"/>
   </g>
   <g id="patch_72">
    <path d="M 178.857591 273.312 
L 180.47718 273.312 
L 180.47718 185.132146 
L 178.857591 185.132146 
z
" clip-path="url(#p7b3850d055)" style="fill: #1f77b4"/>
   </g>
   <g id="patch_73">
    <path d="M 180.47718 273.312 
L 182.096768 273.312 
L 182.096768 184.515504 
L 180.47718 184.515504 
z
" clip-path="url(#p7b3850d055)" style="fill: #1f77b4"/>
   </g>
   <g id="patch_74">
    <path d="M 182.096768 273.312 
L 183.716357 273.312 
L 183.716357 185.748788 
L 182.096768 185.748788 
z
" clip-path="url(#p7b3850d055)" style="fill: #1f77b4"/>
   </g>
   <g id="patch_75">
    <path d="M 183.716357 273.312 
L 185.335945 273.312 
L 185.335945 188.215358 
L 183.716357 188.215358 
z
" clip-path="url(#p7b3850d055)" style="fill: #1f77b4"/>
   </g>
   <g id="patch_76">
    <path d="M 185.335945 273.312 
L 186.955534 273.312 
L 186.955534 188.832 
L 185.335945 188.832 
z
" clip-path="url(#p7b3850d055)" style="fill: #1f77b4"/>
   </g>
   <g id="patch_77">
    <path d="M 186.955534 273.312 
L 188.575122 273.312 
L 188.575122 175.265869 
L 186.955534 175.265869 
z
" clip-path="url(#p7b3850d055)" style="fill: #1f77b4"/>
   </g>
   <g id="patch_78">
    <path d="M 188.575122 273.312 
L 190.194711 273.312 
L 190.194711 172.182657 
L 188.575122 172.182657 
z
" clip-path="url(#p7b3850d055)" style="fill: #1f77b4"/>
   </g>
   <g id="patch_79">
    <path d="M 190.194711 273.312 
L 191.814299 273.312 
L 191.814299 177.732438 
L 190.194711 177.732438 
z
" clip-path="url(#p7b3850d055)" style="fill: #1f77b4"/>
   </g>
   <g id="patch_80">
    <path d="M 191.814299 273.312 
L 193.433888 273.312 
L 193.433888 181.432292 
L 191.814299 181.432292 
z
" clip-path="url(#p7b3850d055)" style="fill: #1f77b4"/>
   </g>
   <g id="patch_81">
    <path d="M 193.433888 273.312 
L 195.053476 273.312 
L 195.053476 170.33273 
L 193.433888 170.33273 
z
" clip-path="url(#p7b3850d055)" style="fill: #1f77b4"/>
   </g>
   <g id="patch_82">
    <path d="M 195.053476 273.312 
L 196.673065 273.312 
L 196.673065 177.115796 
L 195.053476 177.115796 
z
" clip-path="url(#p7b3850d055)" style="fill: #1f77b4"/>
   </g>
   <g id="patch_83">
    <path d="M 196.673065 273.312 
L 198.292653 273.312 
L 198.292653 174.032584 
L 196.673065 174.032584 
z
" clip-path="url(#p7b3850d055)" style="fill: #1f77b4"/>
   </g>
   <g id="patch_84">
    <path d="M 198.292653 273.312 
L 199.912242 273.312 
L 199.912242 176.499153 
L 198.292653 176.499153 
z
" clip-path="url(#p7b3850d055)" style="fill: #1f77b4"/>
   </g>
   <g id="patch_85">
    <path d="M 199.912242 273.312 
L 201.53183 273.312 
L 201.53183 170.949372 
L 199.912242 170.949372 
z
" clip-path="url(#p7b3850d055)" style="fill: #1f77b4"/>
   </g>
   <g id="patch_86">
    <path d="M 201.53183 273.312 
L 203.151418 273.312 
L 203.151418 175.265869 
L 201.53183 175.265869 
z
" clip-path="url(#p7b3850d055)" style="fill: #1f77b4"/>
   </g>
   <g id="patch_87">
    <path d="M 203.151418 273.312 
L 204.771007 273.312 
L 204.771007 164.166307 
L 203.151418 164.166307 
z
" clip-path="url(#p7b3850d055)" style="fill: #1f77b4"/>
   </g>
   <g id="patch_88">
    <path d="M 204.771007 273.312 
L 206.390595 273.312 
L 206.390595 176.499153 
L 204.771007 176.499153 
z
" clip-path="url(#p7b3850d055)" style="fill: #1f77b4"/>
   </g>
   <g id="patch_89">
    <path d="M 206.390595 273.312 
L 208.010184 273.312 
L 208.010184 162.31638 
L 206.390595 162.31638 
z
" clip-path="url(#p7b3850d055)" style="fill: #1f77b4"/>
   </g>
   <g id="patch_90">
    <path d="M 208.010184 273.312 
L 209.629772 273.312 
L 209.629772 164.166307 
L 208.010184 164.166307 
z
" clip-path="url(#p7b3850d055)" style="fill: #1f77b4"/>
   </g>
   <g id="patch_91">
    <path d="M 209.629772 273.312 
L 211.249361 273.312 
L 211.249361 162.31638 
L 209.629772 162.31638 
z
" clip-path="url(#p7b3850d055)" style="fill: #1f77b4"/>
   </g>
   <g id="patch_92">
    <path d="M 211.249361 273.312 
L 212.868949 273.312 
L 212.868949 154.916672 
L 211.249361 154.916672 
z
" clip-path="url(#p7b3850d055)" style="fill: #1f77b4"/>
   </g>
   <g id="patch_93">
    <path d="M 212.868949 273.312 
L 214.488538 273.312 
L 214.488538 170.949372 
L 212.868949 170.949372 
z
" clip-path="url(#p7b3850d055)" style="fill: #1f77b4"/>
   </g>
   <g id="patch_94">
    <path d="M 214.488538 273.312 
L 216.108126 273.312 
L 216.108126 161.699737 
L 214.488538 161.699737 
z
" clip-path="url(#p7b3850d055)" style="fill: #1f77b4"/>
   </g>
   <g id="patch_95">
    <path d="M 216.108126 273.312 
L 217.727715 273.312 
L 217.727715 140.117255 
L 216.108126 140.117255 
z
" clip-path="url(#p7b3850d055)" style="fill: #1f77b4"/>
   </g>
   <g id="patch_96">
    <path d="M 217.727715 273.312 
L 219.347303 273.312 
L 219.347303 157.999883 
L 217.727715 157.999883 
z
" clip-path="url(#p7b3850d055)" style="fill: #1f77b4"/>
   </g>
   <g id="patch_97">
    <path d="M 219.347303 273.312 
L 220.966892 273.312 
L 220.966892 167.866161 
L 219.347303 167.866161 
z
" clip-path="url(#p7b3850d055)" style="fill: #1f77b4"/>
   </g>
   <g id="patch_98">
    <path d="M 220.966892 273.312 
L 222.58648 273.312 
L 222.58648 153.683387 
L 220.966892 153.683387 
z
" clip-path="url(#p7b3850d055)" style="fill: #1f77b4"/>
   </g>
   <g id="patch_99">
    <path d="M 222.58648 273.312 
L 224.206069 273.312 
L 224.206069 146.900321 
L 222.58648 146.900321 
z
" clip-path="url(#p7b3850d055)" style="fill: #1f77b4"/>
   </g>
   <g id="patch_100">
    <path d="M 224.206069 273.312 
L 225.825657 273.312 
L 225.825657 153.683387 
L 224.206069 153.683387 
z
" clip-path="url(#p7b3850d055)" style="fill: #1f77b4"/>
   </g>
   <g id="patch_101">
    <path d="M 225.825657 273.312 
L 227.445246 273.312 
L 227.445246 137.034044 
L 225.825657 137.034044 
z
" clip-path="url(#p7b3850d055)" style="fill: #1f77b4"/>
   </g>
   <g id="patch_102">
    <path d="M 227.445246 273.312 
L 229.064834 273.312 
L 229.064834 157.999883 
L 227.445246 157.999883 
z
" clip-path="url(#p7b3850d055)" style="fill: #1f77b4"/>
   </g>
   <g id="patch_103">
    <path d="M 229.064834 273.312 
L 230.684423 273.312 
L 230.684423 161.699737 
L 229.064834 161.699737 
z
" clip-path="url(#p7b3850d055)" style="fill: #1f77b4"/>
   </g>
   <g id="patch_104">
    <path d="M 230.684423 273.312 
L 232.304011 273.312 
L 232.304011 148.133606 
L 230.684423 148.133606 
z
" clip-path="url(#p7b3850d055)" style="fill: #1f77b4"/>
   </g>
   <g id="patch_105">
    <path d="M 232.304011 273.312 
L 233.9236 273.312 
L 233.9236 145.667036 
L 232.304011 145.667036 
z
" clip-path="url(#p7b3850d055)" style="fill: #1f77b4"/>
   </g>
   <g id="patch_106">
    <path d="M 233.9236 273.312 
L 235.543188 273.312 
L 235.543188 156.766599 
L 233.9236 156.766599 
z
" clip-path="url(#p7b3850d055)" style="fill: #1f77b4"/>
   </g>
   <g id="patch_107">
    <path d="M 235.543188 273.312 
L 237.162777 273.312 
L 237.162777 141.35054 
L 235.543188 141.35054 
z
" clip-path="url(#p7b3850d055)" style="fill: #1f77b4"/>
   </g>
   <g id="patch_108">
    <path d="M 237.162777 273.312 
L 238.782365 273.312 
L 238.782365 133.33419 
L 237.162777 133.33419 
z
" clip-path="url(#p7b3850d055)" style="fill: #1f77b4"/>
   </g>
   <g id="patch_109">
    <path d="M 238.782365 273.312 
L 240.401954 273.312 
L 240.401954 122.85127 
L 238.782365 122.85127 
z
" clip-path="url(#p7b3850d055)" style="fill: #1f77b4"/>
   </g>
   <g id="patch_110">
    <path d="M 240.401954 273.312 
L 242.021542 273.312 
L 242.021542 135.800759 
L 240.401954 135.800759 
z
" clip-path="url(#p7b3850d055)" style="fill: #1f77b4"/>
   </g>
   <g id="patch_111">
    <path d="M 242.021542 273.312 
L 243.64113 273.312 
L 243.64113 133.950832 
L 242.021542 133.950832 
z
" clip-path="url(#p7b3850d055)" style="fill: #1f77b4"/>
   </g>
   <g id="patch_112">
    <path d="M 243.64113 273.312 
L 245.260719 273.312 
L 245.260719 114.83492 
L 243.64113 114.83492 
z
" clip-path="url(#p7b3850d055)" style="fill: #1f77b4"/>
   </g>
   <g id="patch_113">
    <path d="M 245.260719 273.312 
L 246.880307 273.312 
L 246.880307 133.33419 
L 245.260719 133.33419 
z
" clip-path="url(#p7b3850d055)" style="fill: #1f77b4"/>
   </g>
   <g id="patch_114">
    <path d="M 246.880307 273.312 
L 248.499896 273.312 
L 248.499896 143.200467 
L 246.880307 143.200467 
z
" clip-path="url(#p7b3850d055)" style="fill: #1f77b4"/>
   </g>
   <g id="patch_115">
    <path d="M 248.499896 273.312 
L 250.119484 273.312 
L 250.119484 124.084555 
L 248.499896 124.084555 
z
" clip-path="url(#p7b3850d055)" style="fill: #1f77b4"/>
   </g>
   <g id="patch_116">
    <path d="M 250.119484 273.312 
L 251.739073 273.312 
L 251.739073 129.634336 
L 250.119484 129.634336 
z
" clip-path="url(#p7b3850d055)" style="fill: #1f77b4"/>
   </g>
   <g id="patch_117">
    <path d="M 251.739073 273.312 
L 253.358661 273.312 
L 253.358661 132.100905 
L 251.739073 132.100905 
z
" clip-path="url(#p7b3850d055)" style="fill: #1f77b4"/>
   </g>
   <g id="patch_118">
    <path d="M 253.358661 273.312 
L 254.97825 273.312 
L 254.97825 124.701197 
L 253.358661 124.701197 
z
" clip-path="url(#p7b3850d055)" style="fill: #1f77b4"/>
   </g>
   <g id="patch_119">
    <path d="M 254.97825 273.312 
L 256.597838 273.312 
L 256.597838 124.701197 
L 254.97825 124.701197 
z
" clip-path="url(#p7b3850d055)" style="fill: #1f77b4"/>
   </g>
   <g id="patch_120">
    <path d="M 256.597838 273.312 
L 258.217427 273.312 
L 258.217427 133.33419 
L 256.597838 133.33419 
z
" clip-path="url(#p7b3850d055)" style="fill: #1f77b4"/>
   </g>
   <g id="patch_121">
    <path d="M 258.217427 273.312 
L 259.837015 273.312 
L 259.837015 128.401051 
L 258.217427 128.401051 
z
" clip-path="url(#p7b3850d055)" style="fill: #1f77b4"/>
   </g>
   <g id="patch_122">
    <path d="M 259.837015 273.312 
L 261.456604 273.312 
L 261.456604 137.650686 
L 259.837015 137.650686 
z
" clip-path="url(#p7b3850d055)" style="fill: #1f77b4"/>
   </g>
   <g id="patch_123">
    <path d="M 261.456604 273.312 
L 263.076192 273.312 
L 263.076192 117.301489 
L 261.456604 117.301489 
z
" clip-path="url(#p7b3850d055)" style="fill: #1f77b4"/>
   </g>
   <g id="patch_124">
    <path d="M 263.076192 273.312 
L 264.695781 273.312 
L 264.695781 129.017693 
L 263.076192 129.017693 
z
" clip-path="url(#p7b3850d055)" style="fill: #1f77b4"/>
   </g>
   <g id="patch_125">
    <path d="M 264.695781 273.312 
L 266.315369 273.312 
L 266.315369 130.86762 
L 264.695781 130.86762 
z
" clip-path="url(#p7b3850d055)" style="fill: #1f77b4"/>
   </g>
   <g id="patch_126">
    <path d="M 266.315369 273.312 
L 267.934958 273.312 
L 267.934958 135.800759 
L 266.315369 135.800759 
z
" clip-path="url(#p7b3850d055)" style="fill: #1f77b4"/>
   </g>
   <g id="patch_127">
    <path d="M 267.934958 273.312 
L 269.554546 273.312 
L 269.554546 124.084555 
L 267.934958 124.084555 
z
" clip-path="url(#p7b3850d055)" style="fill: #1f77b4"/>
   </g>
   <g id="patch_128">
    <path d="M 269.554546 273.312 
L 271.174135 273.312 
L 271.174135 104.352 
L 269.554546 104.352 
z
" clip-path="url(#p7b3850d055)" style="fill: #1f77b4"/>
   </g>
   <g id="patch_129">
    <path d="M 271.174135 273.312 
L 272.793723 273.312 
L 272.793723 116.068204 
L 271.174135 116.068204 
z
" clip-path="url(#p7b3850d055)" style="fill: #1f77b4"/>
   </g>
   <g id="patch_130">
    <path d="M 272.793723 273.312 
L 274.413312 273.312 
L 274.413312 119.768058 
L 272.793723 119.768058 
z
" clip-path="url(#p7b3850d055)" style="fill: #1f77b4"/>
   </g>
   <g id="patch_131">
    <path d="M 274.413312 273.312 
L 276.0329 273.312 
L 276.0329 121.001343 
L 274.413312 121.001343 
z
" clip-path="url(#p7b3850d055)" style="fill: #1f77b4"/>
   </g>
   <g id="patch_132">
    <path d="M 276.0329 273.312 
L 277.652489 273.312 
L 277.652489 128.401051 
L 276.0329 128.401051 
z
" clip-path="url(#p7b3850d055)" style="fill: #1f77b4"/>
   </g>
   <g id="patch_133">
    <path d="M 277.652489 273.312 
L 279.272077 273.312 
L 279.272077 111.135066 
L 277.652489 111.135066 
z
" clip-path="url(#p7b3850d055)" style="fill: #1f77b4"/>
   </g>
   <g id="patch_134">
    <path d="M 279.272077 273.312 
L 280.891666 273.312 
L 280.891666 104.352 
L 279.272077 104.352 
z
" clip-path="url(#p7b3850d055)" style="fill: #1f77b4"/>
   </g>
   <g id="patch_135">
    <path d="M 280.891666 273.312 
L 282.511254 273.312 
L 282.511254 122.85127 
L 280.891666 122.85127 
z
" clip-path="url(#p7b3850d055)" style="fill: #1f77b4"/>
   </g>
   <g id="patch_136">
    <path d="M 282.511254 273.312 
L 284.130843 273.312 
L 284.130843 98.185577 
L 282.511254 98.185577 
z
" clip-path="url(#p7b3850d055)" style="fill: #1f77b4"/>
   </g>
   <g id="patch_137">
    <path d="M 284.130843 273.312 
L 285.750431 273.312 
L 285.750431 110.518423 
L 284.130843 110.518423 
z
" clip-path="url(#p7b3850d055)" style="fill: #1f77b4"/>
   </g>
   <g id="patch_138">
    <path d="M 285.750431 273.312 
L 287.370019 273.312 
L 287.370019 109.285139 
L 285.750431 109.285139 
z
" clip-path="url(#p7b3850d055)" style="fill: #1f77b4"/>
   </g>
   <g id="patch_139">
    <path d="M 287.370019 273.312 
L 288.989608 273.312 
L 288.989608 106.201927 
L 287.370019 106.201927 
z
" clip-path="url(#p7b3850d055)" style="fill: #1f77b4"/>
   </g>
   <g id="patch_140">
    <path d="M 288.989608 273.312 
L 290.609196 273.312 
L 290.609196 95.719007 
L 288.989608 95.719007 
z
" clip-path="url(#p7b3850d055)" style="fill: #1f77b4"/>
   </g>
   <g id="patch_141">
    <path d="M 290.609196 273.312 
L 292.228785 273.312 
L 292.228785 106.818569 
L 290.609196 106.818569 
z
" clip-path="url(#p7b3850d055)" style="fill: #1f77b4"/>
   </g>
   <g id="patch_142">
    <path d="M 292.228785 273.312 
L 293.848373 273.312 
L 293.848373 99.418861 
L 292.228785 99.418861 
z
" clip-path="url(#p7b3850d055)" style="fill: #1f77b4"/>
   </g>
   <g id="patch_143">
    <path d="M 293.848373 273.312 
L 295.467962 273.312 
L 295.467962 103.735358 
L 293.848373 103.735358 
z
" clip-path="url(#p7b3850d055)" style="fill: #1f77b4"/>
   </g>
   <g id="patch_144">
    <path d="M 295.467962 273.312 
L 297.08755 273.312 
L 297.08755 96.33565 
L 295.467962 96.33565 
z
" clip-path="url(#p7b3850d055)" style="fill: #1f77b4"/>
   </g>
   <g id="patch_145">
    <path d="M 297.08755 273.312 
L 298.707139 273.312 
L 298.707139 97.568934 
L 297.08755 97.568934 
z
" clip-path="url(#p7b3850d055)" style="fill: #1f77b4"/>
   </g>
   <g id="patch_146">
    <path d="M 298.707139 273.312 
L 300.326727 273.312 
L 300.326727 92.635796 
L 298.707139 92.635796 
z
" clip-path="url(#p7b3850d055)" style="fill: #1f77b4"/>
   </g>
   <g id="patch_147">
    <path d="M 300.326727 273.312 
L 301.946316 273.312 
L 301.946316 89.552584 
L 300.326727 89.552584 
z
" clip-path="url(#p7b3850d055)" style="fill: #1f77b4"/>
   </g>
   <g id="patch_148">
    <path d="M 301.946316 273.312 
L 303.565904 273.312 
L 303.565904 96.952292 
L 301.946316 96.952292 
z
" clip-path="url(#p7b3850d055)" style="fill: #1f77b4"/>
   </g>
   <g id="patch_149">
    <path d="M 303.565904 273.312 
L 305.185493 273.312 
L 305.185493 97.568934 
L 303.565904 97.568934 
z
" clip-path="url(#p7b3850d055)" style="fill: #1f77b4"/>
   </g>
   <g id="patch_150">
    <path d="M 305.185493 273.312 
L 306.805081 273.312 
L 306.805081 101.885431 
L 305.185493 101.885431 
z
" clip-path="url(#p7b3850d055)" style="fill: #1f77b4"/>
   </g>
   <g id="patch_151">
    <path d="M 306.805081 273.312 
L 308.42467 273.312 
L 308.42467 86.469372 
L 306.805081 86.469372 
z
" clip-path="url(#p7b3850d055)" style="fill: #1f77b4"/>
   </g>
   <g id="patch_152">
    <path d="M 308.42467 273.312 
L 310.044258 273.312 
L 310.044258 92.635796 
L 308.42467 92.635796 
z
" clip-path="url(#p7b3850d055)" style="fill: #1f77b4"/>
   </g>
   <g id="patch_153">
    <path d="M 310.044258 273.312 
L 311.663847 273.312 
L 311.663847 93.252438 
L 310.044258 93.252438 
z
" clip-path="url(#p7b3850d055)" style="fill: #1f77b4"/>
   </g>
   <g id="patch_154">
    <path d="M 311.663847 273.312 
L 313.283435 273.312 
L 313.283435 92.019153 
L 311.663847 92.019153 
z
" clip-path="url(#p7b3850d055)" style="fill: #1f77b4"/>
   </g>
   <g id="patch_155">
    <path d="M 313.283435 273.312 
L 314.903024 273.312 
L 314.903024 94.485723 
L 313.283435 94.485723 
z
" clip-path="url(#p7b3850d055)" style="fill: #1f77b4"/>
   </g>
   <g id="patch_156">
    <path d="M 314.903024 273.312 
L 316.522612 273.312 
L 316.522612 82.769518 
L 314.903024 82.769518 
z
" clip-path="url(#p7b3850d055)" style="fill: #1f77b4"/>
   </g>
   <g id="patch_157">
    <path d="M 316.522612 273.312 
L 318.142201 273.312 
L 318.142201 69.820029 
L 316.522612 69.820029 
z
" clip-path="url(#p7b3850d055)" style="fill: #1f77b4"/>
   </g>
   <g id="patch_158">
    <path d="M 318.142201 273.312 
L 319.761789 273.312 
L 319.761789 100.652146 
L 318.142201 100.652146 
z
" clip-path="url(#p7b3850d055)" style="fill: #1f77b4"/>
   </g>
   <g id="patch_159">
    <path d="M 319.761789 273.312 
L 321.381378 273.312 
L 321.381378 81.536234 
L 319.761789 81.536234 
z
" clip-path="url(#p7b3850d055)" style="fill: #1f77b4"/>
   </g>
   <g id="patch_160">
    <path d="M 321.381378 273.312 
L 323.000966 273.312 
L 323.000966 98.185577 
L 321.381378 98.185577 
z
" clip-path="url(#p7b3850d055)" style="fill: #1f77b4"/>
   </g>
   <g id="patch_161">
    <path d="M 323.000966 273.312 
L 324.620555 273.312 
L 324.620555 93.86908 
L 323.000966 93.86908 
z
" clip-path="url(#p7b3850d055)" style="fill: #1f77b4"/>
   </g>
   <g id="patch_162">
    <path d="M 324.620555 273.312 
L 326.240143 273.312 
L 326.240143 72.286599 
L 324.620555 72.286599 
z
" clip-path="url(#p7b3850d055)" style="fill: #1f77b4"/>
   </g>
   <g id="patch_163">
    <path d="M 326.240143 273.312 
L 327.859731 273.312 
L 327.859731 87.086015 
L 326.240143 87.086015 
z
" clip-path="url(#p7b3850d055)" style="fill: #1f77b4"/>
   </g>
   <g id="patch_164">
    <path d="M 327.859731 273.312 
L 329.47932 273.312 
L 329.47932 82.769518 
L 327.859731 82.769518 
z
" clip-path="url(#p7b3850d055)" style="fill: #1f77b4"/>
   </g>
   <g id="patch_165">
    <path d="M 329.47932 273.312 
L 331.098908 273.312 
L 331.098908 93.86908 
L 329.47932 93.86908 
z
" clip-path="url(#p7b3850d055)" style="fill: #1f77b4"/>
   </g>
   <g id="patch_166">
    <path d="M 331.098908 273.312 
L 332.718497 273.312 
L 332.718497 50.704117 
L 331.098908 50.704117 
z
" clip-path="url(#p7b3850d055)" style="fill: #1f77b4"/>
   </g>
   <g id="patch_167">
    <path d="M 332.718497 273.312 
L 334.338085 273.312 
L 334.338085 74.753168 
L 332.718497 74.753168 
z
" clip-path="url(#p7b3850d055)" style="fill: #1f77b4"/>
   </g>
   <g id="patch_168">
    <path d="M 334.338085 273.312 
L 335.957674 273.312 
L 335.957674 75.986453 
L 334.338085 75.986453 
z
" clip-path="url(#p7b3850d055)" style="fill: #1f77b4"/>
   </g>
   <g id="patch_169">
    <path d="M 335.957674 273.312 
L 337.577262 273.312 
L 337.577262 77.219737 
L 335.957674 77.219737 
z
" clip-path="url(#p7b3850d055)" style="fill: #1f77b4"/>
   </g>
   <g id="patch_170">
    <path d="M 337.577262 273.312 
L 339.196851 273.312 
L 339.196851 52.554044 
L 337.577262 52.554044 
z
" clip-path="url(#p7b3850d055)" style="fill: #1f77b4"/>
   </g>
   <g id="patch_171">
    <path d="M 339.196851 273.312 
L 340.816439 273.312 
L 340.816439 55.637255 
L 339.196851 55.637255 
z
" clip-path="url(#p7b3850d055)" style="fill: #1f77b4"/>
   </g>
   <g id="patch_172">
    <path d="M 340.816439 273.312 
L 342.436028 273.312 
L 342.436028 51.320759 
L 340.816439 51.320759 
z
" clip-path="url(#p7b3850d055)" style="fill: #1f77b4"/>
   </g>
   <g id="patch_173">
    <path d="M 342.436028 273.312 
L 344.055616 273.312 
L 344.055616 87.702657 
L 342.436028 87.702657 
z
" clip-path="url(#p7b3850d055)" style="fill: #1f77b4"/>
   </g>
   <g id="patch_174">
    <path d="M 344.055616 273.312 
L 345.675205 273.312 
L 345.675205 55.637255 
L 344.055616 55.637255 
z
" clip-path="url(#p7b3850d055)" style="fill: #1f77b4"/>
   </g>
   <g id="patch_175">
    <path d="M 345.675205 273.312 
L 347.294793 273.312 
L 347.294793 66.736818 
L 345.675205 66.736818 
z
" clip-path="url(#p7b3850d055)" style="fill: #1f77b4"/>
   </g>
   <g id="patch_176">
    <path d="M 347.294793 273.312 
L 348.914382 273.312 
L 348.914382 47.620905 
L 347.294793 47.620905 
z
" clip-path="url(#p7b3850d055)" style="fill: #1f77b4"/>
   </g>
   <g id="patch_177">
    <path d="M 348.914382 273.312 
L 350.53397 273.312 
L 350.53397 63.036964 
L 348.914382 63.036964 
z
" clip-path="url(#p7b3850d055)" style="fill: #1f77b4"/>
   </g>
   <g id="patch_178">
    <path d="M 350.53397 273.312 
L 352.153559 273.312 
L 352.153559 63.653606 
L 350.53397 63.653606 
z
" clip-path="url(#p7b3850d055)" style="fill: #1f77b4"/>
   </g>
   <g id="patch_179">
    <path d="M 352.153559 273.312 
L 353.773147 273.312 
L 353.773147 64.886891 
L 352.153559 64.886891 
z
" clip-path="url(#p7b3850d055)" style="fill: #1f77b4"/>
   </g>
   <g id="patch_180">
    <path d="M 353.773147 273.312 
L 355.392736 273.312 
L 355.392736 52.554044 
L 353.773147 52.554044 
z
" clip-path="url(#p7b3850d055)" style="fill: #1f77b4"/>
   </g>
   <g id="patch_181">
    <path d="M 355.392736 273.312 
L 357.012324 273.312 
L 357.012324 45.154336 
L 355.392736 45.154336 
z
" clip-path="url(#p7b3850d055)" style="fill: #1f77b4"/>
   </g>
   <g id="patch_182">
    <path d="M 357.012324 273.312 
L 358.631913 273.312 
L 358.631913 63.036964 
L 357.012324 63.036964 
z
" clip-path="url(#p7b3850d055)" style="fill: #1f77b4"/>
   </g>
   <g id="patch_183">
    <path d="M 358.631913 273.312 
L 360.251501 273.312 
L 360.251501 50.704117 
L 358.631913 50.704117 
z
" clip-path="url(#p7b3850d055)" style="fill: #1f77b4"/>
   </g>
   <g id="patch_184">
    <path d="M 360.251501 273.312 
L 361.87109 273.312 
L 361.87109 58.720467 
L 360.251501 58.720467 
z
" clip-path="url(#p7b3850d055)" style="fill: #1f77b4"/>
   </g>
   <g id="patch_185">
    <path d="M 361.87109 273.312 
L 363.490678 273.312 
L 363.490678 35.904701 
L 361.87109 35.904701 
z
" clip-path="url(#p7b3850d055)" style="fill: #1f77b4"/>
   </g>
   <g id="patch_186">
    <path d="M 363.490678 273.312 
L 365.110267 273.312 
L 365.110267 46.38762 
L 363.490678 46.38762 
z
" clip-path="url(#p7b3850d055)" style="fill: #1f77b4"/>
   </g>
   <g id="patch_187">
    <path d="M 365.110267 273.312 
L 366.729855 273.312 
L 366.729855 32.821489 
L 365.110267 32.821489 
z
" clip-path="url(#p7b3850d055)" style="fill: #1f77b4"/>
   </g>
   <g id="patch_188">
    <path d="M 366.729855 273.312 
L 368.349443 273.312 
L 368.349443 59.953752 
L 366.729855 59.953752 
z
" clip-path="url(#p7b3850d055)" style="fill: #1f77b4"/>
   </g>
   <g id="patch_189">
    <path d="M 368.349443 273.312 
L 369.969032 273.312 
L 369.969032 48.237547 
L 368.349443 48.237547 
z
" clip-path="url(#p7b3850d055)" style="fill: #1f77b4"/>
   </g>
   <g id="patch_190">
    <path d="M 369.969032 273.312 
L 371.58862 273.312 
L 371.58862 58.720467 
L 369.969032 58.720467 
z
" clip-path="url(#p7b3850d055)" style="fill: #1f77b4"/>
   </g>
   <g id="patch_191">
    <path d="M 371.58862 273.312 
L 373.208209 273.312 
L 373.208209 51.320759 
L 371.58862 51.320759 
z
" clip-path="url(#p7b3850d055)" style="fill: #1f77b4"/>
   </g>
   <g id="patch_192">
    <path d="M 373.208209 273.312 
L 374.827797 273.312 
L 374.827797 30.35492 
L 373.208209 30.35492 
z
" clip-path="url(#p7b3850d055)" style="fill: #1f77b4"/>
   </g>
   <g id="patch_193">
    <path d="M 374.827797 273.312 
L 376.447386 273.312 
L 376.447386 47.620905 
L 374.827797 47.620905 
z
" clip-path="url(#p7b3850d055)" style="fill: #1f77b4"/>
   </g>
   <g id="patch_194">
    <path d="M 376.447386 273.312 
L 378.066974 273.312 
L 378.066974 42.687766 
L 376.447386 42.687766 
z
" clip-path="url(#p7b3850d055)" style="fill: #1f77b4"/>
   </g>
   <g id="patch_195">
    <path d="M 378.066974 273.312 
L 379.686563 273.312 
L 379.686563 33.438131 
L 378.066974 33.438131 
z
" clip-path="url(#p7b3850d055)" style="fill: #1f77b4"/>
   </g>
   <g id="patch_196">
    <path d="M 379.686563 273.312 
L 381.306151 273.312 
L 381.306151 43.304409 
L 379.686563 43.304409 
z
" clip-path="url(#p7b3850d055)" style="fill: #1f77b4"/>
   </g>
   <g id="patch_197">
    <path d="M 381.306151 273.312 
L 382.92574 273.312 
L 382.92574 30.971562 
L 381.306151 30.971562 
z
" clip-path="url(#p7b3850d055)" style="fill: #1f77b4"/>
   </g>
   <g id="patch_198">
    <path d="M 382.92574 273.312 
L 384.545328 273.312 
L 384.545328 42.071124 
L 382.92574 42.071124 
z
" clip-path="url(#p7b3850d055)" style="fill: #1f77b4"/>
   </g>
   <g id="patch_199">
    <path d="M 384.545328 273.312 
L 386.164917 273.312 
L 386.164917 31.588204 
L 384.545328 31.588204 
z
" clip-path="url(#p7b3850d055)" style="fill: #1f77b4"/>
   </g>
   <g id="patch_200">
    <path d="M 386.164917 273.312 
L 387.784505 273.312 
L 387.784505 39.604555 
L 386.164917 39.604555 
z
" clip-path="url(#p7b3850d055)" style="fill: #1f77b4"/>
   </g>
   <g id="patch_201">
    <path d="M 387.784505 273.312 
L 389.404094 273.312 
L 389.404094 27.271708 
L 387.784505 27.271708 
z
" clip-path="url(#p7b3850d055)" style="fill: #1f77b4"/>
   </g>
   <g id="patch_202">
    <path d="M 389.404094 273.312 
L 391.023682 273.312 
L 391.023682 19.872 
L 389.404094 19.872 
z
" clip-path="url(#p7b3850d055)" style="fill: #1f77b4"/>
   </g>
   <g id="matplotlib.axis_1">
    <g id="xtick_1">
     <g id="line2d_1">
      <defs>
       <path id="mb5a94ee2bc" d="M 0 0 
L 0 3.5 
" style="stroke: #000000; stroke-width: 0.8"/>
      </defs>
      <g>
       <use xlink:href="#mb5a94ee2bc" x="66.376477" y="273.312" style="stroke: #000000; stroke-width: 0.8"/>
      </g>
     </g>
     <g id="text_1">
      <!-- 0.0 -->
      <g transform="translate(58.424915 287.910437)scale(0.1 -0.1)">
       <defs>
        <path id="DejaVuSans-30" d="M 2034 4250 
Q 1547 4250 1301 3770 
Q 1056 3291 1056 2328 
Q 1056 1369 1301 889 
Q 1547 409 2034 409 
Q 2525 409 2770 889 
Q 3016 1369 3016 2328 
Q 3016 3291 2770 3770 
Q 2525 4250 2034 4250 
z
M 2034 4750 
Q 2819 4750 3233 4129 
Q 3647 3509 3647 2328 
Q 3647 1150 3233 529 
Q 2819 -91 2034 -91 
Q 1250 -91 836 529 
Q 422 1150 422 2328 
Q 422 3509 836 4129 
Q 1250 4750 2034 4750 
z
" transform="scale(0.015625)"/>
        <path id="DejaVuSans-2e" d="M 684 794 
L 1344 794 
L 1344 0 
L 684 0 
L 684 794 
z
" transform="scale(0.015625)"/>
       </defs>
       <use xlink:href="#DejaVuSans-30"/>
       <use xlink:href="#DejaVuSans-2e" x="63.623047"/>
       <use xlink:href="#DejaVuSans-30" x="95.410156"/>
      </g>
     </g>
    </g>
    <g id="xtick_2">
     <g id="line2d_2">
      <g>
       <use xlink:href="#mb5a94ee2bc" x="131.307386" y="273.312" style="stroke: #000000; stroke-width: 0.8"/>
      </g>
     </g>
     <g id="text_2">
      <!-- 0.2 -->
      <g transform="translate(123.355824 287.910437)scale(0.1 -0.1)">
       <defs>
        <path id="DejaVuSans-32" d="M 1228 531 
L 3431 531 
L 3431 0 
L 469 0 
L 469 531 
Q 828 903 1448 1529 
Q 2069 2156 2228 2338 
Q 2531 2678 2651 2914 
Q 2772 3150 2772 3378 
Q 2772 3750 2511 3984 
Q 2250 4219 1831 4219 
Q 1534 4219 1204 4116 
Q 875 4013 500 3803 
L 500 4441 
Q 881 4594 1212 4672 
Q 1544 4750 1819 4750 
Q 2544 4750 2975 4387 
Q 3406 4025 3406 3419 
Q 3406 3131 3298 2873 
Q 3191 2616 2906 2266 
Q 2828 2175 2409 1742 
Q 1991 1309 1228 531 
z
" transform="scale(0.015625)"/>
       </defs>
       <use xlink:href="#DejaVuSans-30"/>
       <use xlink:href="#DejaVuSans-2e" x="63.623047"/>
       <use xlink:href="#DejaVuSans-32" x="95.410156"/>
      </g>
     </g>
    </g>
    <g id="xtick_3">
     <g id="line2d_3">
      <g>
       <use xlink:href="#mb5a94ee2bc" x="196.238295" y="273.312" style="stroke: #000000; stroke-width: 0.8"/>
      </g>
     </g>
     <g id="text_3">
      <!-- 0.4 -->
      <g transform="translate(188.286733 287.910437)scale(0.1 -0.1)">
       <defs>
        <path id="DejaVuSans-34" d="M 2419 4116 
L 825 1625 
L 2419 1625 
L 2419 4116 
z
M 2253 4666 
L 3047 4666 
L 3047 1625 
L 3713 1625 
L 3713 1100 
L 3047 1100 
L 3047 0 
L 2419 0 
L 2419 1100 
L 313 1100 
L 313 1709 
L 2253 4666 
z
" transform="scale(0.015625)"/>
       </defs>
       <use xlink:href="#DejaVuSans-30"/>
       <use xlink:href="#DejaVuSans-2e" x="63.623047"/>
       <use xlink:href="#DejaVuSans-34" x="95.410156"/>
      </g>
     </g>
    </g>
    <g id="xtick_4">
     <g id="line2d_4">
      <g>
       <use xlink:href="#mb5a94ee2bc" x="261.169205" y="273.312" style="stroke: #000000; stroke-width: 0.8"/>
      </g>
     </g>
     <g id="text_4">
      <!-- 0.6 -->
      <g transform="translate(253.217642 287.910437)scale(0.1 -0.1)">
       <defs>
        <path id="DejaVuSans-36" d="M 2113 2584 
Q 1688 2584 1439 2293 
Q 1191 2003 1191 1497 
Q 1191 994 1439 701 
Q 1688 409 2113 409 
Q 2538 409 2786 701 
Q 3034 994 3034 1497 
Q 3034 2003 2786 2293 
Q 2538 2584 2113 2584 
z
M 3366 4563 
L 3366 3988 
Q 3128 4100 2886 4159 
Q 2644 4219 2406 4219 
Q 1781 4219 1451 3797 
Q 1122 3375 1075 2522 
Q 1259 2794 1537 2939 
Q 1816 3084 2150 3084 
Q 2853 3084 3261 2657 
Q 3669 2231 3669 1497 
Q 3669 778 3244 343 
Q 2819 -91 2113 -91 
Q 1303 -91 875 529 
Q 447 1150 447 2328 
Q 447 3434 972 4092 
Q 1497 4750 2381 4750 
Q 2619 4750 2861 4703 
Q 3103 4656 3366 4563 
z
" transform="scale(0.015625)"/>
       </defs>
       <use xlink:href="#DejaVuSans-30"/>
       <use xlink:href="#DejaVuSans-2e" x="63.623047"/>
       <use xlink:href="#DejaVuSans-36" x="95.410156"/>
      </g>
     </g>
    </g>
    <g id="xtick_5">
     <g id="line2d_5">
      <g>
       <use xlink:href="#mb5a94ee2bc" x="326.100114" y="273.312" style="stroke: #000000; stroke-width: 0.8"/>
      </g>
     </g>
     <g id="text_5">
      <!-- 0.8 -->
      <g transform="translate(318.148551 287.910437)scale(0.1 -0.1)">
       <defs>
        <path id="DejaVuSans-38" d="M 2034 2216 
Q 1584 2216 1326 1975 
Q 1069 1734 1069 1313 
Q 1069 891 1326 650 
Q 1584 409 2034 409 
Q 2484 409 2743 651 
Q 3003 894 3003 1313 
Q 3003 1734 2745 1975 
Q 2488 2216 2034 2216 
z
M 1403 2484 
Q 997 2584 770 2862 
Q 544 3141 544 3541 
Q 544 4100 942 4425 
Q 1341 4750 2034 4750 
Q 2731 4750 3128 4425 
Q 3525 4100 3525 3541 
Q 3525 3141 3298 2862 
Q 3072 2584 2669 2484 
Q 3125 2378 3379 2068 
Q 3634 1759 3634 1313 
Q 3634 634 3220 271 
Q 2806 -91 2034 -91 
Q 1263 -91 848 271 
Q 434 634 434 1313 
Q 434 1759 690 2068 
Q 947 2378 1403 2484 
z
M 1172 3481 
Q 1172 3119 1398 2916 
Q 1625 2713 2034 2713 
Q 2441 2713 2670 2916 
Q 2900 3119 2900 3481 
Q 2900 3844 2670 4047 
Q 2441 4250 2034 4250 
Q 1625 4250 1398 4047 
Q 1172 3844 1172 3481 
z
" transform="scale(0.015625)"/>
       </defs>
       <use xlink:href="#DejaVuSans-30"/>
       <use xlink:href="#DejaVuSans-2e" x="63.623047"/>
       <use xlink:href="#DejaVuSans-38" x="95.410156"/>
      </g>
     </g>
    </g>
    <g id="xtick_6">
     <g id="line2d_6">
      <g>
       <use xlink:href="#mb5a94ee2bc" x="391.031023" y="273.312" style="stroke: #000000; stroke-width: 0.8"/>
      </g>
     </g>
     <g id="text_6">
      <!-- 1.0 -->
      <g transform="translate(383.07946 287.910437)scale(0.1 -0.1)">
       <defs>
        <path id="DejaVuSans-31" d="M 794 531 
L 1825 531 
L 1825 4091 
L 703 3866 
L 703 4441 
L 1819 4666 
L 2450 4666 
L 2450 531 
L 3481 531 
L 3481 0 
L 794 0 
L 794 531 
z
" transform="scale(0.015625)"/>
       </defs>
       <use xlink:href="#DejaVuSans-31"/>
       <use xlink:href="#DejaVuSans-2e" x="63.623047"/>
       <use xlink:href="#DejaVuSans-30" x="95.410156"/>
      </g>
     </g>
    </g>
    <g id="text_7">
     <!-- Propagation direction -->
     <g transform="translate(175.221719 301.588562)scale(0.1 -0.1)">
      <defs>
       <path id="DejaVuSans-50" d="M 1259 4147 
L 1259 2394 
L 2053 2394 
Q 2494 2394 2734 2622 
Q 2975 2850 2975 3272 
Q 2975 3691 2734 3919 
Q 2494 4147 2053 4147 
L 1259 4147 
z
M 628 4666 
L 2053 4666 
Q 2838 4666 3239 4311 
Q 3641 3956 3641 3272 
Q 3641 2581 3239 2228 
Q 2838 1875 2053 1875 
L 1259 1875 
L 1259 0 
L 628 0 
L 628 4666 
z
" transform="scale(0.015625)"/>
       <path id="DejaVuSans-72" d="M 2631 2963 
Q 2534 3019 2420 3045 
Q 2306 3072 2169 3072 
Q 1681 3072 1420 2755 
Q 1159 2438 1159 1844 
L 1159 0 
L 581 0 
L 581 3500 
L 1159 3500 
L 1159 2956 
Q 1341 3275 1631 3429 
Q 1922 3584 2338 3584 
Q 2397 3584 2469 3576 
Q 2541 3569 2628 3553 
L 2631 2963 
z
" transform="scale(0.015625)"/>
       <path id="DejaVuSans-6f" d="M 1959 3097 
Q 1497 3097 1228 2736 
Q 959 2375 959 1747 
Q 959 1119 1226 758 
Q 1494 397 1959 397 
Q 2419 397 2687 759 
Q 2956 1122 2956 1747 
Q 2956 2369 2687 2733 
Q 2419 3097 1959 3097 
z
M 1959 3584 
Q 2709 3584 3137 3096 
Q 3566 2609 3566 1747 
Q 3566 888 3137 398 
Q 2709 -91 1959 -91 
Q 1206 -91 779 398 
Q 353 888 353 1747 
Q 353 2609 779 3096 
Q 1206 3584 1959 3584 
z
" transform="scale(0.015625)"/>
       <path id="DejaVuSans-70" d="M 1159 525 
L 1159 -1331 
L 581 -1331 
L 581 3500 
L 1159 3500 
L 1159 2969 
Q 1341 3281 1617 3432 
Q 1894 3584 2278 3584 
Q 2916 3584 3314 3078 
Q 3713 2572 3713 1747 
Q 3713 922 3314 415 
Q 2916 -91 2278 -91 
Q 1894 -91 1617 61 
Q 1341 213 1159 525 
z
M 3116 1747 
Q 3116 2381 2855 2742 
Q 2594 3103 2138 3103 
Q 1681 3103 1420 2742 
Q 1159 2381 1159 1747 
Q 1159 1113 1420 752 
Q 1681 391 2138 391 
Q 2594 391 2855 752 
Q 3116 1113 3116 1747 
z
" transform="scale(0.015625)"/>
       <path id="DejaVuSans-61" d="M 2194 1759 
Q 1497 1759 1228 1600 
Q 959 1441 959 1056 
Q 959 750 1161 570 
Q 1363 391 1709 391 
Q 2188 391 2477 730 
Q 2766 1069 2766 1631 
L 2766 1759 
L 2194 1759 
z
M 3341 1997 
L 3341 0 
L 2766 0 
L 2766 531 
Q 2569 213 2275 61 
Q 1981 -91 1556 -91 
Q 1019 -91 701 211 
Q 384 513 384 1019 
Q 384 1609 779 1909 
Q 1175 2209 1959 2209 
L 2766 2209 
L 2766 2266 
Q 2766 2663 2505 2880 
Q 2244 3097 1772 3097 
Q 1472 3097 1187 3025 
Q 903 2953 641 2809 
L 641 3341 
Q 956 3463 1253 3523 
Q 1550 3584 1831 3584 
Q 2591 3584 2966 3190 
Q 3341 2797 3341 1997 
z
" transform="scale(0.015625)"/>
       <path id="DejaVuSans-67" d="M 2906 1791 
Q 2906 2416 2648 2759 
Q 2391 3103 1925 3103 
Q 1463 3103 1205 2759 
Q 947 2416 947 1791 
Q 947 1169 1205 825 
Q 1463 481 1925 481 
Q 2391 481 2648 825 
Q 2906 1169 2906 1791 
z
M 3481 434 
Q 3481 -459 3084 -895 
Q 2688 -1331 1869 -1331 
Q 1566 -1331 1297 -1286 
Q 1028 -1241 775 -1147 
L 775 -588 
Q 1028 -725 1275 -790 
Q 1522 -856 1778 -856 
Q 2344 -856 2625 -561 
Q 2906 -266 2906 331 
L 2906 616 
Q 2728 306 2450 153 
Q 2172 0 1784 0 
Q 1141 0 747 490 
Q 353 981 353 1791 
Q 353 2603 747 3093 
Q 1141 3584 1784 3584 
Q 2172 3584 2450 3431 
Q 2728 3278 2906 2969 
L 2906 3500 
L 3481 3500 
L 3481 434 
z
" transform="scale(0.015625)"/>
       <path id="DejaVuSans-74" d="M 1172 4494 
L 1172 3500 
L 2356 3500 
L 2356 3053 
L 1172 3053 
L 1172 1153 
Q 1172 725 1289 603 
Q 1406 481 1766 481 
L 2356 481 
L 2356 0 
L 1766 0 
Q 1100 0 847 248 
Q 594 497 594 1153 
L 594 3053 
L 172 3053 
L 172 3500 
L 594 3500 
L 594 4494 
L 1172 4494 
z
" transform="scale(0.015625)"/>
       <path id="DejaVuSans-69" d="M 603 3500 
L 1178 3500 
L 1178 0 
L 603 0 
L 603 3500 
z
M 603 4863 
L 1178 4863 
L 1178 4134 
L 603 4134 
L 603 4863 
z
" transform="scale(0.015625)"/>
       <path id="DejaVuSans-6e" d="M 3513 2113 
L 3513 0 
L 2938 0 
L 2938 2094 
Q 2938 2591 2744 2837 
Q 2550 3084 2163 3084 
Q 1697 3084 1428 2787 
Q 1159 2491 1159 1978 
L 1159 0 
L 581 0 
L 581 3500 
L 1159 3500 
L 1159 2956 
Q 1366 3272 1645 3428 
Q 1925 3584 2291 3584 
Q 2894 3584 3203 3211 
Q 3513 2838 3513 2113 
z
" transform="scale(0.015625)"/>
       <path id="DejaVuSans-20" transform="scale(0.015625)"/>
       <path id="DejaVuSans-64" d="M 2906 2969 
L 2906 4863 
L 3481 4863 
L 3481 0 
L 2906 0 
L 2906 525 
Q 2725 213 2448 61 
Q 2172 -91 1784 -91 
Q 1150 -91 751 415 
Q 353 922 353 1747 
Q 353 2572 751 3078 
Q 1150 3584 1784 3584 
Q 2172 3584 2448 3432 
Q 2725 3281 2906 2969 
z
M 947 1747 
Q 947 1113 1208 752 
Q 1469 391 1925 391 
Q 2381 391 2643 752 
Q 2906 1113 2906 1747 
Q 2906 2381 2643 2742 
Q 2381 3103 1925 3103 
Q 1469 3103 1208 2742 
Q 947 2381 947 1747 
z
" transform="scale(0.015625)"/>
       <path id="DejaVuSans-65" d="M 3597 1894 
L 3597 1613 
L 953 1613 
Q 991 1019 1311 708 
Q 1631 397 2203 397 
Q 2534 397 2845 478 
Q 3156 559 3463 722 
L 3463 178 
Q 3153 47 2828 -22 
Q 2503 -91 2169 -91 
Q 1331 -91 842 396 
Q 353 884 353 1716 
Q 353 2575 817 3079 
Q 1281 3584 2069 3584 
Q 2775 3584 3186 3129 
Q 3597 2675 3597 1894 
z
M 3022 2063 
Q 3016 2534 2758 2815 
Q 2500 3097 2075 3097 
Q 1594 3097 1305 2825 
Q 1016 2553 972 2059 
L 3022 2063 
z
" transform="scale(0.015625)"/>
       <path id="DejaVuSans-63" d="M 3122 3366 
L 3122 2828 
Q 2878 2963 2633 3030 
Q 2388 3097 2138 3097 
Q 1578 3097 1268 2742 
Q 959 2388 959 1747 
Q 959 1106 1268 751 
Q 1578 397 2138 397 
Q 2388 397 2633 464 
Q 2878 531 3122 666 
L 3122 134 
Q 2881 22 2623 -34 
Q 2366 -91 2075 -91 
Q 1284 -91 818 406 
Q 353 903 353 1747 
Q 353 2603 823 3093 
Q 1294 3584 2113 3584 
Q 2378 3584 2631 3529 
Q 2884 3475 3122 3366 
z
" transform="scale(0.015625)"/>
      </defs>
      <use xlink:href="#DejaVuSans-50"/>
      <use xlink:href="#DejaVuSans-72" x="58.552734"/>
      <use xlink:href="#DejaVuSans-6f" x="97.416016"/>
      <use xlink:href="#DejaVuSans-70" x="158.597656"/>
      <use xlink:href="#DejaVuSans-61" x="222.074219"/>
      <use xlink:href="#DejaVuSans-67" x="283.353516"/>
      <use xlink:href="#DejaVuSans-61" x="346.830078"/>
      <use xlink:href="#DejaVuSans-74" x="408.109375"/>
      <use xlink:href="#DejaVuSans-69" x="447.318359"/>
      <use xlink:href="#DejaVuSans-6f" x="475.101562"/>
      <use xlink:href="#DejaVuSans-6e" x="536.283203"/>
      <use xlink:href="#DejaVuSans-20" x="599.662109"/>
      <use xlink:href="#DejaVuSans-64" x="631.449219"/>
      <use xlink:href="#DejaVuSans-69" x="694.925781"/>
      <use xlink:href="#DejaVuSans-72" x="722.708984"/>
      <use xlink:href="#DejaVuSans-65" x="761.572266"/>
      <use xlink:href="#DejaVuSans-63" x="823.095703"/>
      <use xlink:href="#DejaVuSans-74" x="878.076172"/>
      <use xlink:href="#DejaVuSans-69" x="917.285156"/>
      <use xlink:href="#DejaVuSans-6f" x="945.068359"/>
      <use xlink:href="#DejaVuSans-6e" x="1006.25"/>
     </g>
    </g>
   </g>
   <g id="matplotlib.axis_2">
    <g id="ytick_1">
     <g id="line2d_7">
      <defs>
       <path id="m79ec26904a" d="M 0 0 
L -3.5 0 
" style="stroke: #000000; stroke-width: 0.8"/>
      </defs>
      <g>
       <use xlink:href="#m79ec26904a" x="50.14375" y="273.312" style="stroke: #000000; stroke-width: 0.8"/>
      </g>
     </g>
     <g id="text_8">
      <!-- 0.00 -->
      <g transform="translate(20.878125 277.111219)scale(0.1 -0.1)">
       <use xlink:href="#DejaVuSans-30"/>
       <use xlink:href="#DejaVuSans-2e" x="63.623047"/>
       <use xlink:href="#DejaVuSans-30" x="95.410156"/>
       <use xlink:href="#DejaVuSans-30" x="159.033203"/>
      </g>
     </g>
    </g>
    <g id="ytick_2">
     <g id="line2d_8">
      <g>
       <use xlink:href="#m79ec26904a" x="50.14375" y="242.549861" style="stroke: #000000; stroke-width: 0.8"/>
      </g>
     </g>
     <g id="text_9">
      <!-- 0.25 -->
      <g transform="translate(20.878125 246.34908)scale(0.1 -0.1)">
       <defs>
        <path id="DejaVuSans-35" d="M 691 4666 
L 3169 4666 
L 3169 4134 
L 1269 4134 
L 1269 2991 
Q 1406 3038 1543 3061 
Q 1681 3084 1819 3084 
Q 2600 3084 3056 2656 
Q 3513 2228 3513 1497 
Q 3513 744 3044 326 
Q 2575 -91 1722 -91 
Q 1428 -91 1123 -41 
Q 819 9 494 109 
L 494 744 
Q 775 591 1075 516 
Q 1375 441 1709 441 
Q 2250 441 2565 725 
Q 2881 1009 2881 1497 
Q 2881 1984 2565 2268 
Q 2250 2553 1709 2553 
Q 1456 2553 1204 2497 
Q 953 2441 691 2322 
L 691 4666 
z
" transform="scale(0.015625)"/>
       </defs>
       <use xlink:href="#DejaVuSans-30"/>
       <use xlink:href="#DejaVuSans-2e" x="63.623047"/>
       <use xlink:href="#DejaVuSans-32" x="95.410156"/>
       <use xlink:href="#DejaVuSans-35" x="159.033203"/>
      </g>
     </g>
    </g>
    <g id="ytick_3">
     <g id="line2d_9">
      <g>
       <use xlink:href="#m79ec26904a" x="50.14375" y="211.787722" style="stroke: #000000; stroke-width: 0.8"/>
      </g>
     </g>
     <g id="text_10">
      <!-- 0.50 -->
      <g transform="translate(20.878125 215.586941)scale(0.1 -0.1)">
       <use xlink:href="#DejaVuSans-30"/>
       <use xlink:href="#DejaVuSans-2e" x="63.623047"/>
       <use xlink:href="#DejaVuSans-35" x="95.410156"/>
       <use xlink:href="#DejaVuSans-30" x="159.033203"/>
      </g>
     </g>
    </g>
    <g id="ytick_4">
     <g id="line2d_10">
      <g>
       <use xlink:href="#m79ec26904a" x="50.14375" y="181.025583" style="stroke: #000000; stroke-width: 0.8"/>
      </g>
     </g>
     <g id="text_11">
      <!-- 0.75 -->
      <g transform="translate(20.878125 184.824802)scale(0.1 -0.1)">
       <defs>
        <path id="DejaVuSans-37" d="M 525 4666 
L 3525 4666 
L 3525 4397 
L 1831 0 
L 1172 0 
L 2766 4134 
L 525 4134 
L 525 4666 
z
" transform="scale(0.015625)"/>
       </defs>
       <use xlink:href="#DejaVuSans-30"/>
       <use xlink:href="#DejaVuSans-2e" x="63.623047"/>
       <use xlink:href="#DejaVuSans-37" x="95.410156"/>
       <use xlink:href="#DejaVuSans-35" x="159.033203"/>
      </g>
     </g>
    </g>
    <g id="ytick_5">
     <g id="line2d_11">
      <g>
       <use xlink:href="#m79ec26904a" x="50.14375" y="150.263444" style="stroke: #000000; stroke-width: 0.8"/>
      </g>
     </g>
     <g id="text_12">
      <!-- 1.00 -->
      <g transform="translate(20.878125 154.062663)scale(0.1 -0.1)">
       <use xlink:href="#DejaVuSans-31"/>
       <use xlink:href="#DejaVuSans-2e" x="63.623047"/>
       <use xlink:href="#DejaVuSans-30" x="95.410156"/>
       <use xlink:href="#DejaVuSans-30" x="159.033203"/>
      </g>
     </g>
    </g>
    <g id="ytick_6">
     <g id="line2d_12">
      <g>
       <use xlink:href="#m79ec26904a" x="50.14375" y="119.501305" style="stroke: #000000; stroke-width: 0.8"/>
      </g>
     </g>
     <g id="text_13">
      <!-- 1.25 -->
      <g transform="translate(20.878125 123.300524)scale(0.1 -0.1)">
       <use xlink:href="#DejaVuSans-31"/>
       <use xlink:href="#DejaVuSans-2e" x="63.623047"/>
       <use xlink:href="#DejaVuSans-32" x="95.410156"/>
       <use xlink:href="#DejaVuSans-35" x="159.033203"/>
      </g>
     </g>
    </g>
    <g id="ytick_7">
     <g id="line2d_13">
      <g>
       <use xlink:href="#m79ec26904a" x="50.14375" y="88.739166" style="stroke: #000000; stroke-width: 0.8"/>
      </g>
     </g>
     <g id="text_14">
      <!-- 1.50 -->
      <g transform="translate(20.878125 92.538385)scale(0.1 -0.1)">
       <use xlink:href="#DejaVuSans-31"/>
       <use xlink:href="#DejaVuSans-2e" x="63.623047"/>
       <use xlink:href="#DejaVuSans-35" x="95.410156"/>
       <use xlink:href="#DejaVuSans-30" x="159.033203"/>
      </g>
     </g>
    </g>
    <g id="ytick_8">
     <g id="line2d_14">
      <g>
       <use xlink:href="#m79ec26904a" x="50.14375" y="57.977027" style="stroke: #000000; stroke-width: 0.8"/>
      </g>
     </g>
     <g id="text_15">
      <!-- 1.75 -->
      <g transform="translate(20.878125 61.776246)scale(0.1 -0.1)">
       <use xlink:href="#DejaVuSans-31"/>
       <use xlink:href="#DejaVuSans-2e" x="63.623047"/>
       <use xlink:href="#DejaVuSans-37" x="95.410156"/>
       <use xlink:href="#DejaVuSans-35" x="159.033203"/>
      </g>
     </g>
    </g>
    <g id="ytick_9">
     <g id="line2d_15">
      <g>
       <use xlink:href="#m79ec26904a" x="50.14375" y="27.214888" style="stroke: #000000; stroke-width: 0.8"/>
      </g>
     </g>
     <g id="text_16">
      <!-- 2.00 -->
      <g transform="translate(20.878125 31.014107)scale(0.1 -0.1)">
       <use xlink:href="#DejaVuSans-32"/>
       <use xlink:href="#DejaVuSans-2e" x="63.623047"/>
       <use xlink:href="#DejaVuSans-30" x="95.410156"/>
       <use xlink:href="#DejaVuSans-30" x="159.033203"/>
      </g>
     </g>
    </g>
    <g id="text_17">
     <!-- Probability density -->
     <g transform="translate(14.798438 186.606781)rotate(-90)scale(0.1 -0.1)">
      <defs>
       <path id="DejaVuSans-62" d="M 3116 1747 
Q 3116 2381 2855 2742 
Q 2594 3103 2138 3103 
Q 1681 3103 1420 2742 
Q 1159 2381 1159 1747 
Q 1159 1113 1420 752 
Q 1681 391 2138 391 
Q 2594 391 2855 752 
Q 3116 1113 3116 1747 
z
M 1159 2969 
Q 1341 3281 1617 3432 
Q 1894 3584 2278 3584 
Q 2916 3584 3314 3078 
Q 3713 2572 3713 1747 
Q 3713 922 3314 415 
Q 2916 -91 2278 -91 
Q 1894 -91 1617 61 
Q 1341 213 1159 525 
L 1159 0 
L 581 0 
L 581 4863 
L 1159 4863 
L 1159 2969 
z
" transform="scale(0.015625)"/>
       <path id="DejaVuSans-6c" d="M 603 4863 
L 1178 4863 
L 1178 0 
L 603 0 
L 603 4863 
z
" transform="scale(0.015625)"/>
       <path id="DejaVuSans-79" d="M 2059 -325 
Q 1816 -950 1584 -1140 
Q 1353 -1331 966 -1331 
L 506 -1331 
L 506 -850 
L 844 -850 
Q 1081 -850 1212 -737 
Q 1344 -625 1503 -206 
L 1606 56 
L 191 3500 
L 800 3500 
L 1894 763 
L 2988 3500 
L 3597 3500 
L 2059 -325 
z
" transform="scale(0.015625)"/>
       <path id="DejaVuSans-73" d="M 2834 3397 
L 2834 2853 
Q 2591 2978 2328 3040 
Q 2066 3103 1784 3103 
Q 1356 3103 1142 2972 
Q 928 2841 928 2578 
Q 928 2378 1081 2264 
Q 1234 2150 1697 2047 
L 1894 2003 
Q 2506 1872 2764 1633 
Q 3022 1394 3022 966 
Q 3022 478 2636 193 
Q 2250 -91 1575 -91 
Q 1294 -91 989 -36 
Q 684 19 347 128 
L 347 722 
Q 666 556 975 473 
Q 1284 391 1588 391 
Q 1994 391 2212 530 
Q 2431 669 2431 922 
Q 2431 1156 2273 1281 
Q 2116 1406 1581 1522 
L 1381 1569 
Q 847 1681 609 1914 
Q 372 2147 372 2553 
Q 372 3047 722 3315 
Q 1072 3584 1716 3584 
Q 2034 3584 2315 3537 
Q 2597 3491 2834 3397 
z
" transform="scale(0.015625)"/>
      </defs>
      <use xlink:href="#DejaVuSans-50"/>
      <use xlink:href="#DejaVuSans-72" x="58.552734"/>
      <use xlink:href="#DejaVuSans-6f" x="97.416016"/>
      <use xlink:href="#DejaVuSans-62" x="158.597656"/>
      <use xlink:href="#DejaVuSans-61" x="222.074219"/>
      <use xlink:href="#DejaVuSans-62" x="283.353516"/>
      <use xlink:href="#DejaVuSans-69" x="346.830078"/>
      <use xlink:href="#DejaVuSans-6c" x="374.613281"/>
      <use xlink:href="#DejaVuSans-69" x="402.396484"/>
      <use xlink:href="#DejaVuSans-74" x="430.179688"/>
      <use xlink:href="#DejaVuSans-79" x="469.388672"/>
      <use xlink:href="#DejaVuSans-20" x="528.568359"/>
      <use xlink:href="#DejaVuSans-64" x="560.355469"/>
      <use xlink:href="#DejaVuSans-65" x="623.832031"/>
      <use xlink:href="#DejaVuSans-6e" x="685.355469"/>
      <use xlink:href="#DejaVuSans-73" x="748.734375"/>
      <use xlink:href="#DejaVuSans-69" x="800.833984"/>
      <use xlink:href="#DejaVuSans-74" x="828.617188"/>
      <use xlink:href="#DejaVuSans-79" x="867.826172"/>
     </g>
    </g>
   </g>
   <g id="line2d_16">
    <path d="M 66.376477 273.312 
L 391.031023 27.214888 
L 391.031023 27.214888 
" clip-path="url(#p7b3850d055)" style="fill: none; stroke: #ff7f0e; stroke-width: 1.5; stroke-linecap: square"/>
   </g>
   <g id="patch_203">
    <path d="M 50.14375 273.312 
L 50.14375 7.2 
" style="fill: none; stroke: #000000; stroke-width: 0.8; stroke-linejoin: miter; stroke-linecap: square"/>
   </g>
   <g id="patch_204">
    <path d="M 407.26375 273.312 
L 407.26375 7.2 
" style="fill: none; stroke: #000000; stroke-width: 0.8; stroke-linejoin: miter; stroke-linecap: square"/>
   </g>
   <g id="patch_205">
    <path d="M 50.14375 273.312 
L 407.26375 273.312 
" style="fill: none; stroke: #000000; stroke-width: 0.8; stroke-linejoin: miter; stroke-linecap: square"/>
   </g>
   <g id="patch_206">
    <path d="M 50.14375 7.2 
L 407.26375 7.2 
" style="fill: none; stroke: #000000; stroke-width: 0.8; stroke-linejoin: miter; stroke-linecap: square"/>
   </g>
  </g>
 </g>
 <defs>
  <clipPath id="p7b3850d055">
   <rect x="50.14375" y="7.2" width="357.12" height="266.112"/>
  </clipPath>
 </defs>
</svg>
