<?xml version="1.0" encoding="utf-8" standalone="no"?>
<!DOCTYPE svg PUBLIC "-//W3C//DTD SVG 1.1//EN"
  "http://www.w3.org/Graphics/SVG/1.1/DTD/svg11.dtd">
<svg xmlns:xlink="http://www.w3.org/1999/xlink" width="408.10125pt" height="310.86825pt" viewBox="0 0 408.10125 310.86825" xmlns="http://www.w3.org/2000/svg" version="1.1">
 <metadata>
  <rdf:RDF xmlns:dc="http://purl.org/dc/elements/1.1/" xmlns:cc="http://creativecommons.org/ns#" xmlns:rdf="http://www.w3.org/1999/02/22-rdf-syntax-ns#">
   <cc:Work>
    <dc:type rdf:resource="http://purl.org/dc/dcmitype/StillImage"/>
    <dc:date>2022-05-31T16:12:30.836484</dc:date>
    <dc:format>image/svg+xml</dc:format>
    <dc:creator>
     <cc:Agent>
      <dc:title>Matplotlib v3.5.2, https://matplotlib.org/</dc:title>
     </cc:Agent>
    </dc:creator>
   </cc:Work>
  </rdf:RDF>
 </metadata>
 <defs>
  <style type="text/css">*{stroke-linejoin: round; stroke-linecap: butt}</style>
 </defs>
 <g id="figure_1">
  <g id="patch_1">
   <path d="M 0 310.86825 
L 408.10125 310.86825 
L 408.10125 0 
L 0 0 
z
" style="fill: #ffffff"/>
  </g>
  <g id="axes_1">
   <g id="patch_2">
    <path d="M 43.78125 273.312 
L 400.90125 273.312 
L 400.90125 7.2 
L 43.78125 7.2 
z
" style="fill: #ffffff"/>
   </g>
   <g id="patch_3">
    <path d="M 61.403834 273.312 
L 63.017835 273.312 
L 63.017835 266.523429 
L 61.403834 266.523429 
z
" clip-path="url(#pfe245529cc)" style="fill: #1f77b4"/>
   </g>
   <g id="patch_4">
    <path d="M 63.017835 273.312 
L 64.631837 273.312 
L 64.631837 266.523429 
L 63.017835 266.523429 
z
" clip-path="url(#pfe245529cc)" style="fill: #1f77b4"/>
   </g>
   <g id="patch_5">
    <path d="M 64.631837 273.312 
L 66.245838 273.312 
L 66.245838 262.752 
L 64.631837 262.752 
z
" clip-path="url(#pfe245529cc)" style="fill: #1f77b4"/>
   </g>
   <g id="patch_6">
    <path d="M 66.245838 273.312 
L 67.859839 273.312 
L 67.859839 258.226286 
L 66.245838 258.226286 
z
" clip-path="url(#pfe245529cc)" style="fill: #1f77b4"/>
   </g>
   <g id="patch_7">
    <path d="M 67.859839 273.312 
L 69.473841 273.312 
L 69.473841 249.174857 
L 67.859839 249.174857 
z
" clip-path="url(#pfe245529cc)" style="fill: #1f77b4"/>
   </g>
   <g id="patch_8">
    <path d="M 69.473841 273.312 
L 71.087842 273.312 
L 71.087842 248.420571 
L 69.473841 248.420571 
z
" clip-path="url(#pfe245529cc)" style="fill: #1f77b4"/>
   </g>
   <g id="patch_9">
    <path d="M 71.087842 273.312 
L 72.701843 273.312 
L 72.701843 243.894857 
L 71.087842 243.894857 
z
" clip-path="url(#pfe245529cc)" style="fill: #1f77b4"/>
   </g>
   <g id="patch_10">
    <path d="M 72.701843 273.312 
L 74.315845 273.312 
L 74.315845 240.877714 
L 72.701843 240.877714 
z
" clip-path="url(#pfe245529cc)" style="fill: #1f77b4"/>
   </g>
   <g id="patch_11">
    <path d="M 74.315845 273.312 
L 75.929846 273.312 
L 75.929846 246.912 
L 74.315845 246.912 
z
" clip-path="url(#pfe245529cc)" style="fill: #1f77b4"/>
   </g>
   <g id="patch_12">
    <path d="M 75.929846 273.312 
L 77.543847 273.312 
L 77.543847 233.334857 
L 75.929846 233.334857 
z
" clip-path="url(#pfe245529cc)" style="fill: #1f77b4"/>
   </g>
   <g id="patch_13">
    <path d="M 77.543847 273.312 
L 79.157849 273.312 
L 79.157849 230.317714 
L 77.543847 230.317714 
z
" clip-path="url(#pfe245529cc)" style="fill: #1f77b4"/>
   </g>
   <g id="patch_14">
    <path d="M 79.157849 273.312 
L 80.77185 273.312 
L 80.77185 222.020571 
L 79.157849 222.020571 
z
" clip-path="url(#pfe245529cc)" style="fill: #1f77b4"/>
   </g>
   <g id="patch_15">
    <path d="M 80.77185 273.312 
L 82.385851 273.312 
L 82.385851 219.757714 
L 80.77185 219.757714 
z
" clip-path="url(#pfe245529cc)" style="fill: #1f77b4"/>
   </g>
   <g id="patch_16">
    <path d="M 82.385851 273.312 
L 83.999853 273.312 
L 83.999853 221.266286 
L 82.385851 221.266286 
z
" clip-path="url(#pfe245529cc)" style="fill: #1f77b4"/>
   </g>
   <g id="patch_17">
    <path d="M 83.999853 273.312 
L 85.613854 273.312 
L 85.613854 222.020571 
L 83.999853 222.020571 
z
" clip-path="url(#pfe245529cc)" style="fill: #1f77b4"/>
   </g>
   <g id="patch_18">
    <path d="M 85.613854 273.312 
L 87.227856 273.312 
L 87.227856 219.757714 
L 85.613854 219.757714 
z
" clip-path="url(#pfe245529cc)" style="fill: #1f77b4"/>
   </g>
   <g id="patch_19">
    <path d="M 87.227856 273.312 
L 88.841857 273.312 
L 88.841857 195.620571 
L 87.227856 195.620571 
z
" clip-path="url(#pfe245529cc)" style="fill: #1f77b4"/>
   </g>
   <g id="patch_20">
    <path d="M 88.841857 273.312 
L 90.455858 273.312 
L 90.455858 209.952 
L 88.841857 209.952 
z
" clip-path="url(#pfe245529cc)" style="fill: #1f77b4"/>
   </g>
   <g id="patch_21">
    <path d="M 90.455858 273.312 
L 92.06986 273.312 
L 92.06986 206.180571 
L 90.455858 206.180571 
z
" clip-path="url(#pfe245529cc)" style="fill: #1f77b4"/>
   </g>
   <g id="patch_22">
    <path d="M 92.06986 273.312 
L 93.683861 273.312 
L 93.683861 213.723429 
L 92.06986 213.723429 
z
" clip-path="url(#pfe245529cc)" style="fill: #1f77b4"/>
   </g>
   <g id="patch_23">
    <path d="M 93.683861 273.312 
L 95.297862 273.312 
L 95.297862 198.637714 
L 93.683861 198.637714 
z
" clip-path="url(#pfe245529cc)" style="fill: #1f77b4"/>
   </g>
   <g id="patch_24">
    <path d="M 95.297862 273.312 
L 96.911864 273.312 
L 96.911864 194.112 
L 95.297862 194.112 
z
" clip-path="url(#pfe245529cc)" style="fill: #1f77b4"/>
   </g>
   <g id="patch_25">
    <path d="M 96.911864 273.312 
L 98.525865 273.312 
L 98.525865 192.603429 
L 96.911864 192.603429 
z
" clip-path="url(#pfe245529cc)" style="fill: #1f77b4"/>
   </g>
   <g id="patch_26">
    <path d="M 98.525865 273.312 
L 100.139866 273.312 
L 100.139866 177.517714 
L 98.525865 177.517714 
z
" clip-path="url(#pfe245529cc)" style="fill: #1f77b4"/>
   </g>
   <g id="patch_27">
    <path d="M 100.139866 273.312 
L 101.753868 273.312 
L 101.753868 182.043429 
L 100.139866 182.043429 
z
" clip-path="url(#pfe245529cc)" style="fill: #1f77b4"/>
   </g>
   <g id="patch_28">
    <path d="M 101.753868 273.312 
L 103.367869 273.312 
L 103.367869 180.534857 
L 101.753868 180.534857 
z
" clip-path="url(#pfe245529cc)" style="fill: #1f77b4"/>
   </g>
   <g id="patch_29">
    <path d="M 103.367869 273.312 
L 104.98187 273.312 
L 104.98187 177.517714 
L 103.367869 177.517714 
z
" clip-path="url(#pfe245529cc)" style="fill: #1f77b4"/>
   </g>
   <g id="patch_30">
    <path d="M 104.98187 273.312 
L 106.595872 273.312 
L 106.595872 175.254857 
L 104.98187 175.254857 
z
" clip-path="url(#pfe245529cc)" style="fill: #1f77b4"/>
   </g>
   <g id="patch_31">
    <path d="M 106.595872 273.312 
L 108.209873 273.312 
L 108.209873 164.694857 
L 106.595872 164.694857 
z
" clip-path="url(#pfe245529cc)" style="fill: #1f77b4"/>
   </g>
   <g id="patch_32">
    <path d="M 108.209873 273.312 
L 109.823874 273.312 
L 109.823874 169.974857 
L 108.209873 169.974857 
z
" clip-path="url(#pfe245529cc)" style="fill: #1f77b4"/>
   </g>
   <g id="patch_33">
    <path d="M 109.823874 273.312 
L 111.437876 273.312 
L 111.437876 175.254857 
L 109.823874 175.254857 
z
" clip-path="url(#pfe245529cc)" style="fill: #1f77b4"/>
   </g>
   <g id="patch_34">
    <path d="M 111.437876 273.312 
L 113.051877 273.312 
L 113.051877 163.940571 
L 111.437876 163.940571 
z
" clip-path="url(#pfe245529cc)" style="fill: #1f77b4"/>
   </g>
   <g id="patch_35">
    <path d="M 113.051877 273.312 
L 114.665878 273.312 
L 114.665878 146.592 
L 113.051877 146.592 
z
" clip-path="url(#pfe245529cc)" style="fill: #1f77b4"/>
   </g>
   <g id="patch_36">
    <path d="M 114.665878 273.312 
L 116.27988 273.312 
L 116.27988 136.786286 
L 114.665878 136.786286 
z
" clip-path="url(#pfe245529cc)" style="fill: #1f77b4"/>
   </g>
   <g id="patch_37">
    <path d="M 116.27988 273.312 
L 117.893881 273.312 
L 117.893881 151.872 
L 116.27988 151.872 
z
" clip-path="url(#pfe245529cc)" style="fill: #1f77b4"/>
   </g>
   <g id="patch_38">
    <path d="M 117.893881 273.312 
L 119.507882 273.312 
L 119.507882 162.432 
L 117.893881 162.432 
z
" clip-path="url(#pfe245529cc)" style="fill: #1f77b4"/>
   </g>
   <g id="patch_39">
    <path d="M 119.507882 273.312 
L 121.121884 273.312 
L 121.121884 143.574857 
L 119.507882 143.574857 
z
" clip-path="url(#pfe245529cc)" style="fill: #1f77b4"/>
   </g>
   <g id="patch_40">
    <path d="M 121.121884 273.312 
L 122.735885 273.312 
L 122.735885 141.312 
L 121.121884 141.312 
z
" clip-path="url(#pfe245529cc)" style="fill: #1f77b4"/>
   </g>
   <g id="patch_41">
    <path d="M 122.735885 273.312 
L 124.349886 273.312 
L 124.349886 129.997714 
L 122.735885 129.997714 
z
" clip-path="url(#pfe245529cc)" style="fill: #1f77b4"/>
   </g>
   <g id="patch_42">
    <path d="M 124.349886 273.312 
L 125.963888 273.312 
L 125.963888 149.609143 
L 124.349886 149.609143 
z
" clip-path="url(#pfe245529cc)" style="fill: #1f77b4"/>
   </g>
   <g id="patch_43">
    <path d="M 125.963888 273.312 
L 127.577889 273.312 
L 127.577889 121.700571 
L 125.963888 121.700571 
z
" clip-path="url(#pfe245529cc)" style="fill: #1f77b4"/>
   </g>
   <g id="patch_44">
    <path d="M 127.577889 273.312 
L 129.19189 273.312 
L 129.19189 131.506286 
L 127.577889 131.506286 
z
" clip-path="url(#pfe245529cc)" style="fill: #1f77b4"/>
   </g>
   <g id="patch_45">
    <path d="M 129.19189 273.312 
L 130.805892 273.312 
L 130.805892 127.734857 
L 129.19189 127.734857 
z
" clip-path="url(#pfe245529cc)" style="fill: #1f77b4"/>
   </g>
   <g id="patch_46">
    <path d="M 130.805892 273.312 
L 132.419893 273.312 
L 132.419893 139.049143 
L 130.805892 139.049143 
z
" clip-path="url(#pfe245529cc)" style="fill: #1f77b4"/>
   </g>
   <g id="patch_47">
    <path d="M 132.419893 273.312 
L 134.033894 273.312 
L 134.033894 136.786286 
L 132.419893 136.786286 
z
" clip-path="url(#pfe245529cc)" style="fill: #1f77b4"/>
   </g>
   <g id="patch_48">
    <path d="M 134.033894 273.312 
L 135.647896 273.312 
L 135.647896 114.157714 
L 134.033894 114.157714 
z
" clip-path="url(#pfe245529cc)" style="fill: #1f77b4"/>
   </g>
   <g id="patch_49">
    <path d="M 135.647896 273.312 
L 137.261897 273.312 
L 137.261897 112.649143 
L 135.647896 112.649143 
z
" clip-path="url(#pfe245529cc)" style="fill: #1f77b4"/>
   </g>
   <g id="patch_50">
    <path d="M 137.261897 273.312 
L 138.875898 273.312 
L 138.875898 122.454857 
L 137.261897 122.454857 
z
" clip-path="url(#pfe245529cc)" style="fill: #1f77b4"/>
   </g>
   <g id="patch_51">
    <path d="M 138.875898 273.312 
L 140.4899 273.312 
L 140.4899 122.454857 
L 138.875898 122.454857 
z
" clip-path="url(#pfe245529cc)" style="fill: #1f77b4"/>
   </g>
   <g id="patch_52">
    <path d="M 140.4899 273.312 
L 142.103901 273.312 
L 142.103901 97.563429 
L 140.4899 97.563429 
z
" clip-path="url(#pfe245529cc)" style="fill: #1f77b4"/>
   </g>
   <g id="patch_53">
    <path d="M 142.103901 273.312 
L 143.717903 273.312 
L 143.717903 95.300571 
L 142.103901 95.300571 
z
" clip-path="url(#pfe245529cc)" style="fill: #1f77b4"/>
   </g>
   <g id="patch_54">
    <path d="M 143.717903 273.312 
L 145.331904 273.312 
L 145.331904 96.054857 
L 143.717903 96.054857 
z
" clip-path="url(#pfe245529cc)" style="fill: #1f77b4"/>
   </g>
   <g id="patch_55">
    <path d="M 145.331904 273.312 
L 146.945905 273.312 
L 146.945905 96.054857 
L 145.331904 96.054857 
z
" clip-path="url(#pfe245529cc)" style="fill: #1f77b4"/>
   </g>
   <g id="patch_56">
    <path d="M 146.945905 273.312 
L 148.559907 273.312 
L 148.559907 78.706286 
L 146.945905 78.706286 
z
" clip-path="url(#pfe245529cc)" style="fill: #1f77b4"/>
   </g>
   <g id="patch_57">
    <path d="M 148.559907 273.312 
L 150.173908 273.312 
L 150.173908 121.700571 
L 148.559907 121.700571 
z
" clip-path="url(#pfe245529cc)" style="fill: #1f77b4"/>
   </g>
   <g id="patch_58">
    <path d="M 150.173908 273.312 
L 151.787909 273.312 
L 151.787909 80.969143 
L 150.173908 80.969143 
z
" clip-path="url(#pfe245529cc)" style="fill: #1f77b4"/>
   </g>
   <g id="patch_59">
    <path d="M 151.787909 273.312 
L 153.401911 273.312 
L 153.401911 93.792 
L 151.787909 93.792 
z
" clip-path="url(#pfe245529cc)" style="fill: #1f77b4"/>
   </g>
   <g id="patch_60">
    <path d="M 153.401911 273.312 
L 155.015912 273.312 
L 155.015912 89.266286 
L 153.401911 89.266286 
z
" clip-path="url(#pfe245529cc)" style="fill: #1f77b4"/>
   </g>
   <g id="patch_61">
    <path d="M 155.015912 273.312 
L 156.629913 273.312 
L 156.629913 89.266286 
L 155.015912 89.266286 
z
" clip-path="url(#pfe245529cc)" style="fill: #1f77b4"/>
   </g>
   <g id="patch_62">
    <path d="M 156.629913 273.312 
L 158.243915 273.312 
L 158.243915 77.197714 
L 156.629913 77.197714 
z
" clip-path="url(#pfe245529cc)" style="fill: #1f77b4"/>
   </g>
   <g id="patch_63">
    <path d="M 158.243915 273.312 
L 159.857916 273.312 
L 159.857916 75.689143 
L 158.243915 75.689143 
z
" clip-path="url(#pfe245529cc)" style="fill: #1f77b4"/>
   </g>
   <g id="patch_64">
    <path d="M 159.857916 273.312 
L 161.471917 273.312 
L 161.471917 88.512 
L 159.857916 88.512 
z
" clip-path="url(#pfe245529cc)" style="fill: #1f77b4"/>
   </g>
   <g id="patch_65">
    <path d="M 161.471917 273.312 
L 163.085919 273.312 
L 163.085919 74.934857 
L 161.471917 74.934857 
z
" clip-path="url(#pfe245529cc)" style="fill: #1f77b4"/>
   </g>
   <g id="patch_66">
    <path d="M 163.085919 273.312 
L 164.69992 273.312 
L 164.69992 89.266286 
L 163.085919 89.266286 
z
" clip-path="url(#pfe245529cc)" style="fill: #1f77b4"/>
   </g>
   <g id="patch_67">
    <path d="M 164.69992 273.312 
L 166.313921 273.312 
L 166.313921 74.934857 
L 164.69992 74.934857 
z
" clip-path="url(#pfe245529cc)" style="fill: #1f77b4"/>
   </g>
   <g id="patch_68">
    <path d="M 166.313921 273.312 
L 167.927923 273.312 
L 167.927923 66.637714 
L 166.313921 66.637714 
z
" clip-path="url(#pfe245529cc)" style="fill: #1f77b4"/>
   </g>
   <g id="patch_69">
    <path d="M 167.927923 273.312 
L 169.541924 273.312 
L 169.541924 64.374857 
L 167.927923 64.374857 
z
" clip-path="url(#pfe245529cc)" style="fill: #1f77b4"/>
   </g>
   <g id="patch_70">
    <path d="M 169.541924 273.312 
L 171.155925 273.312 
L 171.155925 70.409143 
L 169.541924 70.409143 
z
" clip-path="url(#pfe245529cc)" style="fill: #1f77b4"/>
   </g>
   <g id="patch_71">
    <path d="M 171.155925 273.312 
L 172.769927 273.312 
L 172.769927 56.077714 
L 171.155925 56.077714 
z
" clip-path="url(#pfe245529cc)" style="fill: #1f77b4"/>
   </g>
   <g id="patch_72">
    <path d="M 172.769927 273.312 
L 174.383928 273.312 
L 174.383928 91.529143 
L 172.769927 91.529143 
z
" clip-path="url(#pfe245529cc)" style="fill: #1f77b4"/>
   </g>
   <g id="patch_73">
    <path d="M 174.383928 273.312 
L 175.997929 273.312 
L 175.997929 38.729143 
L 174.383928 38.729143 
z
" clip-path="url(#pfe245529cc)" style="fill: #1f77b4"/>
   </g>
   <g id="patch_74">
    <path d="M 175.997929 273.312 
L 177.611931 273.312 
L 177.611931 66.637714 
L 175.997929 66.637714 
z
" clip-path="url(#pfe245529cc)" style="fill: #1f77b4"/>
   </g>
   <g id="patch_75">
    <path d="M 177.611931 273.312 
L 179.225932 273.312 
L 179.225932 37.974857 
L 177.611931 37.974857 
z
" clip-path="url(#pfe245529cc)" style="fill: #1f77b4"/>
   </g>
   <g id="patch_76">
    <path d="M 179.225932 273.312 
L 180.839933 273.312 
L 180.839933 59.849143 
L 179.225932 59.849143 
z
" clip-path="url(#pfe245529cc)" style="fill: #1f77b4"/>
   </g>
   <g id="patch_77">
    <path d="M 180.839933 273.312 
L 182.453935 273.312 
L 182.453935 59.849143 
L 180.839933 59.849143 
z
" clip-path="url(#pfe245529cc)" style="fill: #1f77b4"/>
   </g>
   <g id="patch_78">
    <path d="M 182.453935 273.312 
L 184.067936 273.312 
L 184.067936 59.094857 
L 182.453935 59.094857 
z
" clip-path="url(#pfe245529cc)" style="fill: #1f77b4"/>
   </g>
   <g id="patch_79">
    <path d="M 184.067936 273.312 
L 185.681937 273.312 
L 185.681937 56.077714 
L 184.067936 56.077714 
z
" clip-path="url(#pfe245529cc)" style="fill: #1f77b4"/>
   </g>
   <g id="patch_80">
    <path d="M 185.681937 273.312 
L 187.295939 273.312 
L 187.295939 38.729143 
L 185.681937 38.729143 
z
" clip-path="url(#pfe245529cc)" style="fill: #1f77b4"/>
   </g>
   <g id="patch_81">
    <path d="M 187.295939 273.312 
L 188.90994 273.312 
L 188.90994 52.306286 
L 187.295939 52.306286 
z
" clip-path="url(#pfe245529cc)" style="fill: #1f77b4"/>
   </g>
   <g id="patch_82">
    <path d="M 188.90994 273.312 
L 190.523941 273.312 
L 190.523941 57.586286 
L 188.90994 57.586286 
z
" clip-path="url(#pfe245529cc)" style="fill: #1f77b4"/>
   </g>
   <g id="patch_83">
    <path d="M 190.523941 273.312 
L 192.137943 273.312 
L 192.137943 77.197714 
L 190.523941 77.197714 
z
" clip-path="url(#pfe245529cc)" style="fill: #1f77b4"/>
   </g>
   <g id="patch_84">
    <path d="M 192.137943 273.312 
L 193.751944 273.312 
L 193.751944 19.872 
L 192.137943 19.872 
z
" clip-path="url(#pfe245529cc)" style="fill: #1f77b4"/>
   </g>
   <g id="patch_85">
    <path d="M 193.751944 273.312 
L 195.365945 273.312 
L 195.365945 86.249143 
L 193.751944 86.249143 
z
" clip-path="url(#pfe245529cc)" style="fill: #1f77b4"/>
   </g>
   <g id="patch_86">
    <path d="M 195.365945 273.312 
L 196.979947 273.312 
L 196.979947 50.797714 
L 195.365945 50.797714 
z
" clip-path="url(#pfe245529cc)" style="fill: #1f77b4"/>
   </g>
   <g id="patch_87">
    <path d="M 196.979947 273.312 
L 198.593948 273.312 
L 198.593948 56.077714 
L 196.979947 56.077714 
z
" clip-path="url(#pfe245529cc)" style="fill: #1f77b4"/>
   </g>
   <g id="patch_88">
    <path d="M 198.593948 273.312 
L 200.207949 273.312 
L 200.207949 45.517714 
L 198.593948 45.517714 
z
" clip-path="url(#pfe245529cc)" style="fill: #1f77b4"/>
   </g>
   <g id="patch_89">
    <path d="M 200.207949 273.312 
L 201.821951 273.312 
L 201.821951 70.409143 
L 200.207949 70.409143 
z
" clip-path="url(#pfe245529cc)" style="fill: #1f77b4"/>
   </g>
   <g id="patch_90">
    <path d="M 201.821951 273.312 
L 203.435952 273.312 
L 203.435952 27.414857 
L 201.821951 27.414857 
z
" clip-path="url(#pfe245529cc)" style="fill: #1f77b4"/>
   </g>
   <g id="patch_91">
    <path d="M 203.435952 273.312 
L 205.049954 273.312 
L 205.049954 39.483429 
L 203.435952 39.483429 
z
" clip-path="url(#pfe245529cc)" style="fill: #1f77b4"/>
   </g>
   <g id="patch_92">
    <path d="M 205.049954 273.312 
L 206.663955 273.312 
L 206.663955 48.534857 
L 205.049954 48.534857 
z
" clip-path="url(#pfe245529cc)" style="fill: #1f77b4"/>
   </g>
   <g id="patch_93">
    <path d="M 206.663955 273.312 
L 208.277956 273.312 
L 208.277956 47.026286 
L 206.663955 47.026286 
z
" clip-path="url(#pfe245529cc)" style="fill: #1f77b4"/>
   </g>
   <g id="patch_94">
    <path d="M 208.277956 273.312 
L 209.891958 273.312 
L 209.891958 40.992 
L 208.277956 40.992 
z
" clip-path="url(#pfe245529cc)" style="fill: #1f77b4"/>
   </g>
   <g id="patch_95">
    <path d="M 209.891958 273.312 
L 211.505959 273.312 
L 211.505959 47.780571 
L 209.891958 47.780571 
z
" clip-path="url(#pfe245529cc)" style="fill: #1f77b4"/>
   </g>
   <g id="patch_96">
    <path d="M 211.505959 273.312 
L 213.11996 273.312 
L 213.11996 37.974857 
L 211.505959 37.974857 
z
" clip-path="url(#pfe245529cc)" style="fill: #1f77b4"/>
   </g>
   <g id="patch_97">
    <path d="M 213.11996 273.312 
L 214.733962 273.312 
L 214.733962 44.009143 
L 213.11996 44.009143 
z
" clip-path="url(#pfe245529cc)" style="fill: #1f77b4"/>
   </g>
   <g id="patch_98">
    <path d="M 214.733962 273.312 
L 216.347963 273.312 
L 216.347963 52.306286 
L 214.733962 52.306286 
z
" clip-path="url(#pfe245529cc)" style="fill: #1f77b4"/>
   </g>
   <g id="patch_99">
    <path d="M 216.347963 273.312 
L 217.961964 273.312 
L 217.961964 34.203429 
L 216.347963 34.203429 
z
" clip-path="url(#pfe245529cc)" style="fill: #1f77b4"/>
   </g>
   <g id="patch_100">
    <path d="M 217.961964 273.312 
L 219.575966 273.312 
L 219.575966 29.677714 
L 217.961964 29.677714 
z
" clip-path="url(#pfe245529cc)" style="fill: #1f77b4"/>
   </g>
   <g id="patch_101">
    <path d="M 219.575966 273.312 
L 221.189967 273.312 
L 221.189967 34.957714 
L 219.575966 34.957714 
z
" clip-path="url(#pfe245529cc)" style="fill: #1f77b4"/>
   </g>
   <g id="patch_102">
    <path d="M 221.189967 273.312 
L 222.803968 273.312 
L 222.803968 34.203429 
L 221.189967 34.203429 
z
" clip-path="url(#pfe245529cc)" style="fill: #1f77b4"/>
   </g>
   <g id="patch_103">
    <path d="M 222.803968 273.312 
L 224.41797 273.312 
L 224.41797 45.517714 
L 222.803968 45.517714 
z
" clip-path="url(#pfe245529cc)" style="fill: #1f77b4"/>
   </g>
   <g id="patch_104">
    <path d="M 224.41797 273.312 
L 226.031971 273.312 
L 226.031971 22.889143 
L 224.41797 22.889143 
z
" clip-path="url(#pfe245529cc)" style="fill: #1f77b4"/>
   </g>
   <g id="patch_105">
    <path d="M 226.031971 273.312 
L 227.645972 273.312 
L 227.645972 38.729143 
L 226.031971 38.729143 
z
" clip-path="url(#pfe245529cc)" style="fill: #1f77b4"/>
   </g>
   <g id="patch_106">
    <path d="M 227.645972 273.312 
L 229.259974 273.312 
L 229.259974 37.220571 
L 227.645972 37.220571 
z
" clip-path="url(#pfe245529cc)" style="fill: #1f77b4"/>
   </g>
   <g id="patch_107">
    <path d="M 229.259974 273.312 
L 230.873975 273.312 
L 230.873975 47.780571 
L 229.259974 47.780571 
z
" clip-path="url(#pfe245529cc)" style="fill: #1f77b4"/>
   </g>
   <g id="patch_108">
    <path d="M 230.873975 273.312 
L 232.487976 273.312 
L 232.487976 36.466286 
L 230.873975 36.466286 
z
" clip-path="url(#pfe245529cc)" style="fill: #1f77b4"/>
   </g>
   <g id="patch_109">
    <path d="M 232.487976 273.312 
L 234.101978 273.312 
L 234.101978 30.432 
L 232.487976 30.432 
z
" clip-path="url(#pfe245529cc)" style="fill: #1f77b4"/>
   </g>
   <g id="patch_110">
    <path d="M 234.101978 273.312 
L 235.715979 273.312 
L 235.715979 63.620571 
L 234.101978 63.620571 
z
" clip-path="url(#pfe245529cc)" style="fill: #1f77b4"/>
   </g>
   <g id="patch_111">
    <path d="M 235.715979 273.312 
L 237.32998 273.312 
L 237.32998 19.872 
L 235.715979 19.872 
z
" clip-path="url(#pfe245529cc)" style="fill: #1f77b4"/>
   </g>
   <g id="patch_112">
    <path d="M 237.32998 273.312 
L 238.943982 273.312 
L 238.943982 52.306286 
L 237.32998 52.306286 
z
" clip-path="url(#pfe245529cc)" style="fill: #1f77b4"/>
   </g>
   <g id="patch_113">
    <path d="M 238.943982 273.312 
L 240.557983 273.312 
L 240.557983 53.814857 
L 238.943982 53.814857 
z
" clip-path="url(#pfe245529cc)" style="fill: #1f77b4"/>
   </g>
   <g id="patch_114">
    <path d="M 240.557983 273.312 
L 242.171984 273.312 
L 242.171984 48.534857 
L 240.557983 48.534857 
z
" clip-path="url(#pfe245529cc)" style="fill: #1f77b4"/>
   </g>
   <g id="patch_115">
    <path d="M 242.171984 273.312 
L 243.785986 273.312 
L 243.785986 40.237714 
L 242.171984 40.237714 
z
" clip-path="url(#pfe245529cc)" style="fill: #1f77b4"/>
   </g>
   <g id="patch_116">
    <path d="M 243.785986 273.312 
L 245.399987 273.312 
L 245.399987 25.152 
L 243.785986 25.152 
z
" clip-path="url(#pfe245529cc)" style="fill: #1f77b4"/>
   </g>
   <g id="patch_117">
    <path d="M 245.399987 273.312 
L 247.013988 273.312 
L 247.013988 57.586286 
L 245.399987 57.586286 
z
" clip-path="url(#pfe245529cc)" style="fill: #1f77b4"/>
   </g>
   <g id="patch_118">
    <path d="M 247.013988 273.312 
L 248.62799 273.312 
L 248.62799 65.883429 
L 247.013988 65.883429 
z
" clip-path="url(#pfe245529cc)" style="fill: #1f77b4"/>
   </g>
   <g id="patch_119">
    <path d="M 248.62799 273.312 
L 250.241991 273.312 
L 250.241991 50.043429 
L 248.62799 50.043429 
z
" clip-path="url(#pfe245529cc)" style="fill: #1f77b4"/>
   </g>
   <g id="patch_120">
    <path d="M 250.241991 273.312 
L 251.855992 273.312 
L 251.855992 45.517714 
L 250.241991 45.517714 
z
" clip-path="url(#pfe245529cc)" style="fill: #1f77b4"/>
   </g>
   <g id="patch_121">
    <path d="M 251.855992 273.312 
L 253.469994 273.312 
L 253.469994 56.077714 
L 251.855992 56.077714 
z
" clip-path="url(#pfe245529cc)" style="fill: #1f77b4"/>
   </g>
   <g id="patch_122">
    <path d="M 253.469994 273.312 
L 255.083995 273.312 
L 255.083995 61.357714 
L 253.469994 61.357714 
z
" clip-path="url(#pfe245529cc)" style="fill: #1f77b4"/>
   </g>
   <g id="patch_123">
    <path d="M 255.083995 273.312 
L 256.697996 273.312 
L 256.697996 28.169143 
L 255.083995 28.169143 
z
" clip-path="url(#pfe245529cc)" style="fill: #1f77b4"/>
   </g>
   <g id="patch_124">
    <path d="M 256.697996 273.312 
L 258.311998 273.312 
L 258.311998 53.814857 
L 256.697996 53.814857 
z
" clip-path="url(#pfe245529cc)" style="fill: #1f77b4"/>
   </g>
   <g id="patch_125">
    <path d="M 258.311998 273.312 
L 259.925999 273.312 
L 259.925999 50.797714 
L 258.311998 50.797714 
z
" clip-path="url(#pfe245529cc)" style="fill: #1f77b4"/>
   </g>
   <g id="patch_126">
    <path d="M 259.925999 273.312 
L 261.540001 273.312 
L 261.540001 34.957714 
L 259.925999 34.957714 
z
" clip-path="url(#pfe245529cc)" style="fill: #1f77b4"/>
   </g>
   <g id="patch_127">
    <path d="M 261.540001 273.312 
L 263.154002 273.312 
L 263.154002 67.392 
L 261.540001 67.392 
z
" clip-path="url(#pfe245529cc)" style="fill: #1f77b4"/>
   </g>
   <g id="patch_128">
    <path d="M 263.154002 273.312 
L 264.768003 273.312 
L 264.768003 31.186286 
L 263.154002 31.186286 
z
" clip-path="url(#pfe245529cc)" style="fill: #1f77b4"/>
   </g>
   <g id="patch_129">
    <path d="M 264.768003 273.312 
L 266.382005 273.312 
L 266.382005 38.729143 
L 264.768003 38.729143 
z
" clip-path="url(#pfe245529cc)" style="fill: #1f77b4"/>
   </g>
   <g id="patch_130">
    <path d="M 266.382005 273.312 
L 267.996006 273.312 
L 267.996006 54.569143 
L 266.382005 54.569143 
z
" clip-path="url(#pfe245529cc)" style="fill: #1f77b4"/>
   </g>
   <g id="patch_131">
    <path d="M 267.996006 273.312 
L 269.610007 273.312 
L 269.610007 31.940571 
L 267.996006 31.940571 
z
" clip-path="url(#pfe245529cc)" style="fill: #1f77b4"/>
   </g>
   <g id="patch_132">
    <path d="M 269.610007 273.312 
L 271.224009 273.312 
L 271.224009 56.832 
L 269.610007 56.832 
z
" clip-path="url(#pfe245529cc)" style="fill: #1f77b4"/>
   </g>
   <g id="patch_133">
    <path d="M 271.224009 273.312 
L 272.83801 273.312 
L 272.83801 76.443429 
L 271.224009 76.443429 
z
" clip-path="url(#pfe245529cc)" style="fill: #1f77b4"/>
   </g>
   <g id="patch_134">
    <path d="M 272.83801 273.312 
L 274.452011 273.312 
L 274.452011 64.374857 
L 272.83801 64.374857 
z
" clip-path="url(#pfe245529cc)" style="fill: #1f77b4"/>
   </g>
   <g id="patch_135">
    <path d="M 274.452011 273.312 
L 276.066013 273.312 
L 276.066013 83.232 
L 274.452011 83.232 
z
" clip-path="url(#pfe245529cc)" style="fill: #1f77b4"/>
   </g>
   <g id="patch_136">
    <path d="M 276.066013 273.312 
L 277.680014 273.312 
L 277.680014 73.426286 
L 276.066013 73.426286 
z
" clip-path="url(#pfe245529cc)" style="fill: #1f77b4"/>
   </g>
   <g id="patch_137">
    <path d="M 277.680014 273.312 
L 279.294015 273.312 
L 279.294015 61.357714 
L 277.680014 61.357714 
z
" clip-path="url(#pfe245529cc)" style="fill: #1f77b4"/>
   </g>
   <g id="patch_138">
    <path d="M 279.294015 273.312 
L 280.908017 273.312 
L 280.908017 62.866286 
L 279.294015 62.866286 
z
" clip-path="url(#pfe245529cc)" style="fill: #1f77b4"/>
   </g>
   <g id="patch_139">
    <path d="M 280.908017 273.312 
L 282.522018 273.312 
L 282.522018 80.214857 
L 280.908017 80.214857 
z
" clip-path="url(#pfe245529cc)" style="fill: #1f77b4"/>
   </g>
   <g id="patch_140">
    <path d="M 282.522018 273.312 
L 284.136019 273.312 
L 284.136019 81.723429 
L 282.522018 81.723429 
z
" clip-path="url(#pfe245529cc)" style="fill: #1f77b4"/>
   </g>
   <g id="patch_141">
    <path d="M 284.136019 273.312 
L 285.750021 273.312 
L 285.750021 58.340571 
L 284.136019 58.340571 
z
" clip-path="url(#pfe245529cc)" style="fill: #1f77b4"/>
   </g>
   <g id="patch_142">
    <path d="M 285.750021 273.312 
L 287.364022 273.312 
L 287.364022 96.809143 
L 285.750021 96.809143 
z
" clip-path="url(#pfe245529cc)" style="fill: #1f77b4"/>
   </g>
   <g id="patch_143">
    <path d="M 287.364022 273.312 
L 288.978023 273.312 
L 288.978023 71.917714 
L 287.364022 71.917714 
z
" clip-path="url(#pfe245529cc)" style="fill: #1f77b4"/>
   </g>
   <g id="patch_144">
    <path d="M 288.978023 273.312 
L 290.592025 273.312 
L 290.592025 88.512 
L 288.978023 88.512 
z
" clip-path="url(#pfe245529cc)" style="fill: #1f77b4"/>
   </g>
   <g id="patch_145">
    <path d="M 290.592025 273.312 
L 292.206026 273.312 
L 292.206026 73.426286 
L 290.592025 73.426286 
z
" clip-path="url(#pfe245529cc)" style="fill: #1f77b4"/>
   </g>
   <g id="patch_146">
    <path d="M 292.206026 273.312 
L 293.820027 273.312 
L 293.820027 103.597714 
L 292.206026 103.597714 
z
" clip-path="url(#pfe245529cc)" style="fill: #1f77b4"/>
   </g>
   <g id="patch_147">
    <path d="M 293.820027 273.312 
L 295.434029 273.312 
L 295.434029 97.563429 
L 293.820027 97.563429 
z
" clip-path="url(#pfe245529cc)" style="fill: #1f77b4"/>
   </g>
   <g id="patch_148">
    <path d="M 295.434029 273.312 
L 297.04803 273.312 
L 297.04803 93.037714 
L 295.434029 93.037714 
z
" clip-path="url(#pfe245529cc)" style="fill: #1f77b4"/>
   </g>
   <g id="patch_149">
    <path d="M 297.04803 273.312 
L 298.662031 273.312 
L 298.662031 103.597714 
L 297.04803 103.597714 
z
" clip-path="url(#pfe245529cc)" style="fill: #1f77b4"/>
   </g>
   <g id="patch_150">
    <path d="M 298.662031 273.312 
L 300.276033 273.312 
L 300.276033 102.089143 
L 298.662031 102.089143 
z
" clip-path="url(#pfe245529cc)" style="fill: #1f77b4"/>
   </g>
   <g id="patch_151">
    <path d="M 300.276033 273.312 
L 301.890034 273.312 
L 301.890034 97.563429 
L 300.276033 97.563429 
z
" clip-path="url(#pfe245529cc)" style="fill: #1f77b4"/>
   </g>
   <g id="patch_152">
    <path d="M 301.890034 273.312 
L 303.504035 273.312 
L 303.504035 103.597714 
L 301.890034 103.597714 
z
" clip-path="url(#pfe245529cc)" style="fill: #1f77b4"/>
   </g>
   <g id="patch_153">
    <path d="M 303.504035 273.312 
L 305.118037 273.312 
L 305.118037 94.546286 
L 303.504035 94.546286 
z
" clip-path="url(#pfe245529cc)" style="fill: #1f77b4"/>
   </g>
   <g id="patch_154">
    <path d="M 305.118037 273.312 
L 306.732038 273.312 
L 306.732038 117.174857 
L 305.118037 117.174857 
z
" clip-path="url(#pfe245529cc)" style="fill: #1f77b4"/>
   </g>
   <g id="patch_155">
    <path d="M 306.732038 273.312 
L 308.346039 273.312 
L 308.346039 117.174857 
L 306.732038 117.174857 
z
" clip-path="url(#pfe245529cc)" style="fill: #1f77b4"/>
   </g>
   <g id="patch_156">
    <path d="M 308.346039 273.312 
L 309.960041 273.312 
L 309.960041 116.420571 
L 308.346039 116.420571 
z
" clip-path="url(#pfe245529cc)" style="fill: #1f77b4"/>
   </g>
   <g id="patch_157">
    <path d="M 309.960041 273.312 
L 311.574042 273.312 
L 311.574042 115.666286 
L 309.960041 115.666286 
z
" clip-path="url(#pfe245529cc)" style="fill: #1f77b4"/>
   </g>
   <g id="patch_158">
    <path d="M 311.574042 273.312 
L 313.188043 273.312 
L 313.188043 108.123429 
L 311.574042 108.123429 
z
" clip-path="url(#pfe245529cc)" style="fill: #1f77b4"/>
   </g>
   <g id="patch_159">
    <path d="M 313.188043 273.312 
L 314.802045 273.312 
L 314.802045 134.523429 
L 313.188043 134.523429 
z
" clip-path="url(#pfe245529cc)" style="fill: #1f77b4"/>
   </g>
   <g id="patch_160">
    <path d="M 314.802045 273.312 
L 316.416046 273.312 
L 316.416046 111.894857 
L 314.802045 111.894857 
z
" clip-path="url(#pfe245529cc)" style="fill: #1f77b4"/>
   </g>
   <g id="patch_161">
    <path d="M 316.416046 273.312 
L 318.030048 273.312 
L 318.030048 117.929143 
L 316.416046 117.929143 
z
" clip-path="url(#pfe245529cc)" style="fill: #1f77b4"/>
   </g>
   <g id="patch_162">
    <path d="M 318.030048 273.312 
L 319.644049 273.312 
L 319.644049 139.803429 
L 318.030048 139.803429 
z
" clip-path="url(#pfe245529cc)" style="fill: #1f77b4"/>
   </g>
   <g id="patch_163">
    <path d="M 319.644049 273.312 
L 321.25805 273.312 
L 321.25805 136.786286 
L 319.644049 136.786286 
z
" clip-path="url(#pfe245529cc)" style="fill: #1f77b4"/>
   </g>
   <g id="patch_164">
    <path d="M 321.25805 273.312 
L 322.872052 273.312 
L 322.872052 129.243429 
L 321.25805 129.243429 
z
" clip-path="url(#pfe245529cc)" style="fill: #1f77b4"/>
   </g>
   <g id="patch_165">
    <path d="M 322.872052 273.312 
L 324.486053 273.312 
L 324.486053 151.872 
L 322.872052 151.872 
z
" clip-path="url(#pfe245529cc)" style="fill: #1f77b4"/>
   </g>
   <g id="patch_166">
    <path d="M 324.486053 273.312 
L 326.100054 273.312 
L 326.100054 156.397714 
L 324.486053 156.397714 
z
" clip-path="url(#pfe245529cc)" style="fill: #1f77b4"/>
   </g>
   <g id="patch_167">
    <path d="M 326.100054 273.312 
L 327.714056 273.312 
L 327.714056 129.997714 
L 326.100054 129.997714 
z
" clip-path="url(#pfe245529cc)" style="fill: #1f77b4"/>
   </g>
   <g id="patch_168">
    <path d="M 327.714056 273.312 
L 329.328057 273.312 
L 329.328057 160.923429 
L 327.714056 160.923429 
z
" clip-path="url(#pfe245529cc)" style="fill: #1f77b4"/>
   </g>
   <g id="patch_169">
    <path d="M 329.328057 273.312 
L 330.942058 273.312 
L 330.942058 150.363429 
L 329.328057 150.363429 
z
" clip-path="url(#pfe245529cc)" style="fill: #1f77b4"/>
   </g>
   <g id="patch_170">
    <path d="M 330.942058 273.312 
L 332.55606 273.312 
L 332.55606 141.312 
L 330.942058 141.312 
z
" clip-path="url(#pfe245529cc)" style="fill: #1f77b4"/>
   </g>
   <g id="patch_171">
    <path d="M 332.55606 273.312 
L 334.170061 273.312 
L 334.170061 161.677714 
L 332.55606 161.677714 
z
" clip-path="url(#pfe245529cc)" style="fill: #1f77b4"/>
   </g>
   <g id="patch_172">
    <path d="M 334.170061 273.312 
L 335.784062 273.312 
L 335.784062 159.414857 
L 334.170061 159.414857 
z
" clip-path="url(#pfe245529cc)" style="fill: #1f77b4"/>
   </g>
   <g id="patch_173">
    <path d="M 335.784062 273.312 
L 337.398064 273.312 
L 337.398064 151.117714 
L 335.784062 151.117714 
z
" clip-path="url(#pfe245529cc)" style="fill: #1f77b4"/>
   </g>
   <g id="patch_174">
    <path d="M 337.398064 273.312 
L 339.012065 273.312 
L 339.012065 175.254857 
L 337.398064 175.254857 
z
" clip-path="url(#pfe245529cc)" style="fill: #1f77b4"/>
   </g>
   <g id="patch_175">
    <path d="M 339.012065 273.312 
L 340.626066 273.312 
L 340.626066 169.974857 
L 339.012065 169.974857 
z
" clip-path="url(#pfe245529cc)" style="fill: #1f77b4"/>
   </g>
   <g id="patch_176">
    <path d="M 340.626066 273.312 
L 342.240068 273.312 
L 342.240068 166.957714 
L 340.626066 166.957714 
z
" clip-path="url(#pfe245529cc)" style="fill: #1f77b4"/>
   </g>
   <g id="patch_177">
    <path d="M 342.240068 273.312 
L 343.854069 273.312 
L 343.854069 183.552 
L 342.240068 183.552 
z
" clip-path="url(#pfe245529cc)" style="fill: #1f77b4"/>
   </g>
   <g id="patch_178">
    <path d="M 343.854069 273.312 
L 345.46807 273.312 
L 345.46807 194.866286 
L 343.854069 194.866286 
z
" clip-path="url(#pfe245529cc)" style="fill: #1f77b4"/>
   </g>
   <g id="patch_179">
    <path d="M 345.46807 273.312 
L 347.082072 273.312 
L 347.082072 187.323429 
L 345.46807 187.323429 
z
" clip-path="url(#pfe245529cc)" style="fill: #1f77b4"/>
   </g>
   <g id="patch_180">
    <path d="M 347.082072 273.312 
L 348.696073 273.312 
L 348.696073 203.163429 
L 347.082072 203.163429 
z
" clip-path="url(#pfe245529cc)" style="fill: #1f77b4"/>
   </g>
   <g id="patch_181">
    <path d="M 348.696073 273.312 
L 350.310074 273.312 
L 350.310074 192.603429 
L 348.696073 192.603429 
z
" clip-path="url(#pfe245529cc)" style="fill: #1f77b4"/>
   </g>
   <g id="patch_182">
    <path d="M 350.310074 273.312 
L 351.924076 273.312 
L 351.924076 196.374857 
L 350.310074 196.374857 
z
" clip-path="url(#pfe245529cc)" style="fill: #1f77b4"/>
   </g>
   <g id="patch_183">
    <path d="M 351.924076 273.312 
L 353.538077 273.312 
L 353.538077 205.426286 
L 351.924076 205.426286 
z
" clip-path="url(#pfe245529cc)" style="fill: #1f77b4"/>
   </g>
   <g id="patch_184">
    <path d="M 353.538077 273.312 
L 355.152078 273.312 
L 355.152078 196.374857 
L 353.538077 196.374857 
z
" clip-path="url(#pfe245529cc)" style="fill: #1f77b4"/>
   </g>
   <g id="patch_185">
    <path d="M 355.152078 273.312 
L 356.76608 273.312 
L 356.76608 206.934857 
L 355.152078 206.934857 
z
" clip-path="url(#pfe245529cc)" style="fill: #1f77b4"/>
   </g>
   <g id="patch_186">
    <path d="M 356.76608 273.312 
L 358.380081 273.312 
L 358.380081 216.740571 
L 356.76608 216.740571 
z
" clip-path="url(#pfe245529cc)" style="fill: #1f77b4"/>
   </g>
   <g id="patch_187">
    <path d="M 358.380081 273.312 
L 359.994082 273.312 
L 359.994082 213.723429 
L 358.380081 213.723429 
z
" clip-path="url(#pfe245529cc)" style="fill: #1f77b4"/>
   </g>
   <g id="patch_188">
    <path d="M 359.994082 273.312 
L 361.608084 273.312 
L 361.608084 215.232 
L 359.994082 215.232 
z
" clip-path="url(#pfe245529cc)" style="fill: #1f77b4"/>
   </g>
   <g id="patch_189">
    <path d="M 361.608084 273.312 
L 363.222085 273.312 
L 363.222085 222.774857 
L 361.608084 222.774857 
z
" clip-path="url(#pfe245529cc)" style="fill: #1f77b4"/>
   </g>
   <g id="patch_190">
    <path d="M 363.222085 273.312 
L 364.836086 273.312 
L 364.836086 219.757714 
L 363.222085 219.757714 
z
" clip-path="url(#pfe245529cc)" style="fill: #1f77b4"/>
   </g>
   <g id="patch_191">
    <path d="M 364.836086 273.312 
L 366.450088 273.312 
L 366.450088 231.826286 
L 364.836086 231.826286 
z
" clip-path="url(#pfe245529cc)" style="fill: #1f77b4"/>
   </g>
   <g id="patch_192">
    <path d="M 366.450088 273.312 
L 368.064089 273.312 
L 368.064089 225.037714 
L 366.450088 225.037714 
z
" clip-path="url(#pfe245529cc)" style="fill: #1f77b4"/>
   </g>
   <g id="patch_193">
    <path d="M 368.064089 273.312 
L 369.67809 273.312 
L 369.67809 231.072 
L 368.064089 231.072 
z
" clip-path="url(#pfe245529cc)" style="fill: #1f77b4"/>
   </g>
   <g id="patch_194">
    <path d="M 369.67809 273.312 
L 371.292092 273.312 
L 371.292092 240.123429 
L 369.67809 240.123429 
z
" clip-path="url(#pfe245529cc)" style="fill: #1f77b4"/>
   </g>
   <g id="patch_195">
    <path d="M 371.292092 273.312 
L 372.906093 273.312 
L 372.906093 236.352 
L 371.292092 236.352 
z
" clip-path="url(#pfe245529cc)" style="fill: #1f77b4"/>
   </g>
   <g id="patch_196">
    <path d="M 372.906093 273.312 
L 374.520095 273.312 
L 374.520095 245.403429 
L 372.906093 245.403429 
z
" clip-path="url(#pfe245529cc)" style="fill: #1f77b4"/>
   </g>
   <g id="patch_197">
    <path d="M 374.520095 273.312 
L 376.134096 273.312 
L 376.134096 247.666286 
L 374.520095 247.666286 
z
" clip-path="url(#pfe245529cc)" style="fill: #1f77b4"/>
   </g>
   <g id="patch_198">
    <path d="M 376.134096 273.312 
L 377.748097 273.312 
L 377.748097 252.192 
L 376.134096 252.192 
z
" clip-path="url(#pfe245529cc)" style="fill: #1f77b4"/>
   </g>
   <g id="patch_199">
    <path d="M 377.748097 273.312 
L 379.362099 273.312 
L 379.362099 259.734857 
L 377.748097 259.734857 
z
" clip-path="url(#pfe245529cc)" style="fill: #1f77b4"/>
   </g>
   <g id="patch_200">
    <path d="M 379.362099 273.312 
L 380.9761 273.312 
L 380.9761 257.472 
L 379.362099 257.472 
z
" clip-path="url(#pfe245529cc)" style="fill: #1f77b4"/>
   </g>
   <g id="patch_201">
    <path d="M 380.9761 273.312 
L 382.590101 273.312 
L 382.590101 262.752 
L 380.9761 262.752 
z
" clip-path="url(#pfe245529cc)" style="fill: #1f77b4"/>
   </g>
   <g id="patch_202">
    <path d="M 382.590101 273.312 
L 384.204103 273.312 
L 384.204103 271.049143 
L 382.590101 271.049143 
z
" clip-path="url(#pfe245529cc)" style="fill: #1f77b4"/>
   </g>
   <g id="matplotlib.axis_1">
    <g id="xtick_1">
     <g id="line2d_1">
      <defs>
       <path id="m9bdd3f8917" d="M 0 0 
L 0 3.5 
" style="stroke: #000000; stroke-width: 0.8"/>
      </defs>
      <g>
       <use xlink:href="#m9bdd3f8917" x="60.013977" y="273.312" style="stroke: #000000; stroke-width: 0.8"/>
      </g>
     </g>
     <g id="text_1">
      <!-- 0.0 -->
      <g transform="translate(52.062415 287.910437)scale(0.1 -0.1)">
       <defs>
        <path id="DejaVuSans-30" d="M 2034 4250 
Q 1547 4250 1301 3770 
Q 1056 3291 1056 2328 
Q 1056 1369 1301 889 
Q 1547 409 2034 409 
Q 2525 409 2770 889 
Q 3016 1369 3016 2328 
Q 3016 3291 2770 3770 
Q 2525 4250 2034 4250 
z
M 2034 4750 
Q 2819 4750 3233 4129 
Q 3647 3509 3647 2328 
Q 3647 1150 3233 529 
Q 2819 -91 2034 -91 
Q 1250 -91 836 529 
Q 422 1150 422 2328 
Q 422 3509 836 4129 
Q 1250 4750 2034 4750 
z
" transform="scale(0.015625)"/>
        <path id="DejaVuSans-2e" d="M 684 794 
L 1344 794 
L 1344 0 
L 684 0 
L 684 794 
z
" transform="scale(0.015625)"/>
       </defs>
       <use xlink:href="#DejaVuSans-30"/>
       <use xlink:href="#DejaVuSans-2e" x="63.623047"/>
       <use xlink:href="#DejaVuSans-30" x="95.410156"/>
      </g>
     </g>
    </g>
    <g id="xtick_2">
     <g id="line2d_2">
      <g>
       <use xlink:href="#m9bdd3f8917" x="101.350278" y="273.312" style="stroke: #000000; stroke-width: 0.8"/>
      </g>
     </g>
     <g id="text_2">
      <!-- 0.2 -->
      <g transform="translate(93.398715 287.910437)scale(0.1 -0.1)">
       <defs>
        <path id="DejaVuSans-32" d="M 1228 531 
L 3431 531 
L 3431 0 
L 469 0 
L 469 531 
Q 828 903 1448 1529 
Q 2069 2156 2228 2338 
Q 2531 2678 2651 2914 
Q 2772 3150 2772 3378 
Q 2772 3750 2511 3984 
Q 2250 4219 1831 4219 
Q 1534 4219 1204 4116 
Q 875 4013 500 3803 
L 500 4441 
Q 881 4594 1212 4672 
Q 1544 4750 1819 4750 
Q 2544 4750 2975 4387 
Q 3406 4025 3406 3419 
Q 3406 3131 3298 2873 
Q 3191 2616 2906 2266 
Q 2828 2175 2409 1742 
Q 1991 1309 1228 531 
z
" transform="scale(0.015625)"/>
       </defs>
       <use xlink:href="#DejaVuSans-30"/>
       <use xlink:href="#DejaVuSans-2e" x="63.623047"/>
       <use xlink:href="#DejaVuSans-32" x="95.410156"/>
      </g>
     </g>
    </g>
    <g id="xtick_3">
     <g id="line2d_3">
      <g>
       <use xlink:href="#m9bdd3f8917" x="142.686578" y="273.312" style="stroke: #000000; stroke-width: 0.8"/>
      </g>
     </g>
     <g id="text_3">
      <!-- 0.4 -->
      <g transform="translate(134.735016 287.910437)scale(0.1 -0.1)">
       <defs>
        <path id="DejaVuSans-34" d="M 2419 4116 
L 825 1625 
L 2419 1625 
L 2419 4116 
z
M 2253 4666 
L 3047 4666 
L 3047 1625 
L 3713 1625 
L 3713 1100 
L 3047 1100 
L 3047 0 
L 2419 0 
L 2419 1100 
L 313 1100 
L 313 1709 
L 2253 4666 
z
" transform="scale(0.015625)"/>
       </defs>
       <use xlink:href="#DejaVuSans-30"/>
       <use xlink:href="#DejaVuSans-2e" x="63.623047"/>
       <use xlink:href="#DejaVuSans-34" x="95.410156"/>
      </g>
     </g>
    </g>
    <g id="xtick_4">
     <g id="line2d_4">
      <g>
       <use xlink:href="#m9bdd3f8917" x="184.022879" y="273.312" style="stroke: #000000; stroke-width: 0.8"/>
      </g>
     </g>
     <g id="text_4">
      <!-- 0.6 -->
      <g transform="translate(176.071316 287.910437)scale(0.1 -0.1)">
       <defs>
        <path id="DejaVuSans-36" d="M 2113 2584 
Q 1688 2584 1439 2293 
Q 1191 2003 1191 1497 
Q 1191 994 1439 701 
Q 1688 409 2113 409 
Q 2538 409 2786 701 
Q 3034 994 3034 1497 
Q 3034 2003 2786 2293 
Q 2538 2584 2113 2584 
z
M 3366 4563 
L 3366 3988 
Q 3128 4100 2886 4159 
Q 2644 4219 2406 4219 
Q 1781 4219 1451 3797 
Q 1122 3375 1075 2522 
Q 1259 2794 1537 2939 
Q 1816 3084 2150 3084 
Q 2853 3084 3261 2657 
Q 3669 2231 3669 1497 
Q 3669 778 3244 343 
Q 2819 -91 2113 -91 
Q 1303 -91 875 529 
Q 447 1150 447 2328 
Q 447 3434 972 4092 
Q 1497 4750 2381 4750 
Q 2619 4750 2861 4703 
Q 3103 4656 3366 4563 
z
" transform="scale(0.015625)"/>
       </defs>
       <use xlink:href="#DejaVuSans-30"/>
       <use xlink:href="#DejaVuSans-2e" x="63.623047"/>
       <use xlink:href="#DejaVuSans-36" x="95.410156"/>
      </g>
     </g>
    </g>
    <g id="xtick_5">
     <g id="line2d_5">
      <g>
       <use xlink:href="#m9bdd3f8917" x="225.35918" y="273.312" style="stroke: #000000; stroke-width: 0.8"/>
      </g>
     </g>
     <g id="text_5">
      <!-- 0.8 -->
      <g transform="translate(217.407617 287.910437)scale(0.1 -0.1)">
       <defs>
        <path id="DejaVuSans-38" d="M 2034 2216 
Q 1584 2216 1326 1975 
Q 1069 1734 1069 1313 
Q 1069 891 1326 650 
Q 1584 409 2034 409 
Q 2484 409 2743 651 
Q 3003 894 3003 1313 
Q 3003 1734 2745 1975 
Q 2488 2216 2034 2216 
z
M 1403 2484 
Q 997 2584 770 2862 
Q 544 3141 544 3541 
Q 544 4100 942 4425 
Q 1341 4750 2034 4750 
Q 2731 4750 3128 4425 
Q 3525 4100 3525 3541 
Q 3525 3141 3298 2862 
Q 3072 2584 2669 2484 
Q 3125 2378 3379 2068 
Q 3634 1759 3634 1313 
Q 3634 634 3220 271 
Q 2806 -91 2034 -91 
Q 1263 -91 848 271 
Q 434 634 434 1313 
Q 434 1759 690 2068 
Q 947 2378 1403 2484 
z
M 1172 3481 
Q 1172 3119 1398 2916 
Q 1625 2713 2034 2713 
Q 2441 2713 2670 2916 
Q 2900 3119 2900 3481 
Q 2900 3844 2670 4047 
Q 2441 4250 2034 4250 
Q 1625 4250 1398 4047 
Q 1172 3844 1172 3481 
z
" transform="scale(0.015625)"/>
       </defs>
       <use xlink:href="#DejaVuSans-30"/>
       <use xlink:href="#DejaVuSans-2e" x="63.623047"/>
       <use xlink:href="#DejaVuSans-38" x="95.410156"/>
      </g>
     </g>
    </g>
    <g id="xtick_6">
     <g id="line2d_6">
      <g>
       <use xlink:href="#m9bdd3f8917" x="266.69548" y="273.312" style="stroke: #000000; stroke-width: 0.8"/>
      </g>
     </g>
     <g id="text_6">
      <!-- 1.0 -->
      <g transform="translate(258.743918 287.910437)scale(0.1 -0.1)">
       <defs>
        <path id="DejaVuSans-31" d="M 794 531 
L 1825 531 
L 1825 4091 
L 703 3866 
L 703 4441 
L 1819 4666 
L 2450 4666 
L 2450 531 
L 3481 531 
L 3481 0 
L 794 0 
L 794 531 
z
" transform="scale(0.015625)"/>
       </defs>
       <use xlink:href="#DejaVuSans-31"/>
       <use xlink:href="#DejaVuSans-2e" x="63.623047"/>
       <use xlink:href="#DejaVuSans-30" x="95.410156"/>
      </g>
     </g>
    </g>
    <g id="xtick_7">
     <g id="line2d_7">
      <g>
       <use xlink:href="#m9bdd3f8917" x="308.031781" y="273.312" style="stroke: #000000; stroke-width: 0.8"/>
      </g>
     </g>
     <g id="text_7">
      <!-- 1.2 -->
      <g transform="translate(300.080218 287.910437)scale(0.1 -0.1)">
       <use xlink:href="#DejaVuSans-31"/>
       <use xlink:href="#DejaVuSans-2e" x="63.623047"/>
       <use xlink:href="#DejaVuSans-32" x="95.410156"/>
      </g>
     </g>
    </g>
    <g id="xtick_8">
     <g id="line2d_8">
      <g>
       <use xlink:href="#m9bdd3f8917" x="349.368081" y="273.312" style="stroke: #000000; stroke-width: 0.8"/>
      </g>
     </g>
     <g id="text_8">
      <!-- 1.4 -->
      <g transform="translate(341.416519 287.910437)scale(0.1 -0.1)">
       <use xlink:href="#DejaVuSans-31"/>
       <use xlink:href="#DejaVuSans-2e" x="63.623047"/>
       <use xlink:href="#DejaVuSans-34" x="95.410156"/>
      </g>
     </g>
    </g>
    <g id="xtick_9">
     <g id="line2d_9">
      <g>
       <use xlink:href="#m9bdd3f8917" x="390.704382" y="273.312" style="stroke: #000000; stroke-width: 0.8"/>
      </g>
     </g>
     <g id="text_9">
      <!-- 1.6 -->
      <g transform="translate(382.752819 287.910437)scale(0.1 -0.1)">
       <use xlink:href="#DejaVuSans-31"/>
       <use xlink:href="#DejaVuSans-2e" x="63.623047"/>
       <use xlink:href="#DejaVuSans-36" x="95.410156"/>
      </g>
     </g>
    </g>
    <g id="text_10">
     <!-- Angle with normal (rad) -->
     <g transform="translate(163.023281 301.588562)scale(0.1 -0.1)">
      <defs>
       <path id="DejaVuSans-41" d="M 2188 4044 
L 1331 1722 
L 3047 1722 
L 2188 4044 
z
M 1831 4666 
L 2547 4666 
L 4325 0 
L 3669 0 
L 3244 1197 
L 1141 1197 
L 716 0 
L 50 0 
L 1831 4666 
z
" transform="scale(0.015625)"/>
       <path id="DejaVuSans-6e" d="M 3513 2113 
L 3513 0 
L 2938 0 
L 2938 2094 
Q 2938 2591 2744 2837 
Q 2550 3084 2163 3084 
Q 1697 3084 1428 2787 
Q 1159 2491 1159 1978 
L 1159 0 
L 581 0 
L 581 3500 
L 1159 3500 
L 1159 2956 
Q 1366 3272 1645 3428 
Q 1925 3584 2291 3584 
Q 2894 3584 3203 3211 
Q 3513 2838 3513 2113 
z
" transform="scale(0.015625)"/>
       <path id="DejaVuSans-67" d="M 2906 1791 
Q 2906 2416 2648 2759 
Q 2391 3103 1925 3103 
Q 1463 3103 1205 2759 
Q 947 2416 947 1791 
Q 947 1169 1205 825 
Q 1463 481 1925 481 
Q 2391 481 2648 825 
Q 2906 1169 2906 1791 
z
M 3481 434 
Q 3481 -459 3084 -895 
Q 2688 -1331 1869 -1331 
Q 1566 -1331 1297 -1286 
Q 1028 -1241 775 -1147 
L 775 -588 
Q 1028 -725 1275 -790 
Q 1522 -856 1778 -856 
Q 2344 -856 2625 -561 
Q 2906 -266 2906 331 
L 2906 616 
Q 2728 306 2450 153 
Q 2172 0 1784 0 
Q 1141 0 747 490 
Q 353 981 353 1791 
Q 353 2603 747 3093 
Q 1141 3584 1784 3584 
Q 2172 3584 2450 3431 
Q 2728 3278 2906 2969 
L 2906 3500 
L 3481 3500 
L 3481 434 
z
" transform="scale(0.015625)"/>
       <path id="DejaVuSans-6c" d="M 603 4863 
L 1178 4863 
L 1178 0 
L 603 0 
L 603 4863 
z
" transform="scale(0.015625)"/>
       <path id="DejaVuSans-65" d="M 3597 1894 
L 3597 1613 
L 953 1613 
Q 991 1019 1311 708 
Q 1631 397 2203 397 
Q 2534 397 2845 478 
Q 3156 559 3463 722 
L 3463 178 
Q 3153 47 2828 -22 
Q 2503 -91 2169 -91 
Q 1331 -91 842 396 
Q 353 884 353 1716 
Q 353 2575 817 3079 
Q 1281 3584 2069 3584 
Q 2775 3584 3186 3129 
Q 3597 2675 3597 1894 
z
M 3022 2063 
Q 3016 2534 2758 2815 
Q 2500 3097 2075 3097 
Q 1594 3097 1305 2825 
Q 1016 2553 972 2059 
L 3022 2063 
z
" transform="scale(0.015625)"/>
       <path id="DejaVuSans-20" transform="scale(0.015625)"/>
       <path id="DejaVuSans-77" d="M 269 3500 
L 844 3500 
L 1563 769 
L 2278 3500 
L 2956 3500 
L 3675 769 
L 4391 3500 
L 4966 3500 
L 4050 0 
L 3372 0 
L 2619 2869 
L 1863 0 
L 1184 0 
L 269 3500 
z
" transform="scale(0.015625)"/>
       <path id="DejaVuSans-69" d="M 603 3500 
L 1178 3500 
L 1178 0 
L 603 0 
L 603 3500 
z
M 603 4863 
L 1178 4863 
L 1178 4134 
L 603 4134 
L 603 4863 
z
" transform="scale(0.015625)"/>
       <path id="DejaVuSans-74" d="M 1172 4494 
L 1172 3500 
L 2356 3500 
L 2356 3053 
L 1172 3053 
L 1172 1153 
Q 1172 725 1289 603 
Q 1406 481 1766 481 
L 2356 481 
L 2356 0 
L 1766 0 
Q 1100 0 847 248 
Q 594 497 594 1153 
L 594 3053 
L 172 3053 
L 172 3500 
L 594 3500 
L 594 4494 
L 1172 4494 
z
" transform="scale(0.015625)"/>
       <path id="DejaVuSans-68" d="M 3513 2113 
L 3513 0 
L 2938 0 
L 2938 2094 
Q 2938 2591 2744 2837 
Q 2550 3084 2163 3084 
Q 1697 3084 1428 2787 
Q 1159 2491 1159 1978 
L 1159 0 
L 581 0 
L 581 4863 
L 1159 4863 
L 1159 2956 
Q 1366 3272 1645 3428 
Q 1925 3584 2291 3584 
Q 2894 3584 3203 3211 
Q 3513 2838 3513 2113 
z
" transform="scale(0.015625)"/>
       <path id="DejaVuSans-6f" d="M 1959 3097 
Q 1497 3097 1228 2736 
Q 959 2375 959 1747 
Q 959 1119 1226 758 
Q 1494 397 1959 397 
Q 2419 397 2687 759 
Q 2956 1122 2956 1747 
Q 2956 2369 2687 2733 
Q 2419 3097 1959 3097 
z
M 1959 3584 
Q 2709 3584 3137 3096 
Q 3566 2609 3566 1747 
Q 3566 888 3137 398 
Q 2709 -91 1959 -91 
Q 1206 -91 779 398 
Q 353 888 353 1747 
Q 353 2609 779 3096 
Q 1206 3584 1959 3584 
z
" transform="scale(0.015625)"/>
       <path id="DejaVuSans-72" d="M 2631 2963 
Q 2534 3019 2420 3045 
Q 2306 3072 2169 3072 
Q 1681 3072 1420 2755 
Q 1159 2438 1159 1844 
L 1159 0 
L 581 0 
L 581 3500 
L 1159 3500 
L 1159 2956 
Q 1341 3275 1631 3429 
Q 1922 3584 2338 3584 
Q 2397 3584 2469 3576 
Q 2541 3569 2628 3553 
L 2631 2963 
z
" transform="scale(0.015625)"/>
       <path id="DejaVuSans-6d" d="M 3328 2828 
Q 3544 3216 3844 3400 
Q 4144 3584 4550 3584 
Q 5097 3584 5394 3201 
Q 5691 2819 5691 2113 
L 5691 0 
L 5113 0 
L 5113 2094 
Q 5113 2597 4934 2840 
Q 4756 3084 4391 3084 
Q 3944 3084 3684 2787 
Q 3425 2491 3425 1978 
L 3425 0 
L 2847 0 
L 2847 2094 
Q 2847 2600 2669 2842 
Q 2491 3084 2119 3084 
Q 1678 3084 1418 2786 
Q 1159 2488 1159 1978 
L 1159 0 
L 581 0 
L 581 3500 
L 1159 3500 
L 1159 2956 
Q 1356 3278 1631 3431 
Q 1906 3584 2284 3584 
Q 2666 3584 2933 3390 
Q 3200 3197 3328 2828 
z
" transform="scale(0.015625)"/>
       <path id="DejaVuSans-61" d="M 2194 1759 
Q 1497 1759 1228 1600 
Q 959 1441 959 1056 
Q 959 750 1161 570 
Q 1363 391 1709 391 
Q 2188 391 2477 730 
Q 2766 1069 2766 1631 
L 2766 1759 
L 2194 1759 
z
M 3341 1997 
L 3341 0 
L 2766 0 
L 2766 531 
Q 2569 213 2275 61 
Q 1981 -91 1556 -91 
Q 1019 -91 701 211 
Q 384 513 384 1019 
Q 384 1609 779 1909 
Q 1175 2209 1959 2209 
L 2766 2209 
L 2766 2266 
Q 2766 2663 2505 2880 
Q 2244 3097 1772 3097 
Q 1472 3097 1187 3025 
Q 903 2953 641 2809 
L 641 3341 
Q 956 3463 1253 3523 
Q 1550 3584 1831 3584 
Q 2591 3584 2966 3190 
Q 3341 2797 3341 1997 
z
" transform="scale(0.015625)"/>
       <path id="DejaVuSans-28" d="M 1984 4856 
Q 1566 4138 1362 3434 
Q 1159 2731 1159 2009 
Q 1159 1288 1364 580 
Q 1569 -128 1984 -844 
L 1484 -844 
Q 1016 -109 783 600 
Q 550 1309 550 2009 
Q 550 2706 781 3412 
Q 1013 4119 1484 4856 
L 1984 4856 
z
" transform="scale(0.015625)"/>
       <path id="DejaVuSans-64" d="M 2906 2969 
L 2906 4863 
L 3481 4863 
L 3481 0 
L 2906 0 
L 2906 525 
Q 2725 213 2448 61 
Q 2172 -91 1784 -91 
Q 1150 -91 751 415 
Q 353 922 353 1747 
Q 353 2572 751 3078 
Q 1150 3584 1784 3584 
Q 2172 3584 2448 3432 
Q 2725 3281 2906 2969 
z
M 947 1747 
Q 947 1113 1208 752 
Q 1469 391 1925 391 
Q 2381 391 2643 752 
Q 2906 1113 2906 1747 
Q 2906 2381 2643 2742 
Q 2381 3103 1925 3103 
Q 1469 3103 1208 2742 
Q 947 2381 947 1747 
z
" transform="scale(0.015625)"/>
       <path id="DejaVuSans-29" d="M 513 4856 
L 1013 4856 
Q 1481 4119 1714 3412 
Q 1947 2706 1947 2009 
Q 1947 1309 1714 600 
Q 1481 -109 1013 -844 
L 513 -844 
Q 928 -128 1133 580 
Q 1338 1288 1338 2009 
Q 1338 2731 1133 3434 
Q 928 4138 513 4856 
z
" transform="scale(0.015625)"/>
      </defs>
      <use xlink:href="#DejaVuSans-41"/>
      <use xlink:href="#DejaVuSans-6e" x="68.408203"/>
      <use xlink:href="#DejaVuSans-67" x="131.787109"/>
      <use xlink:href="#DejaVuSans-6c" x="195.263672"/>
      <use xlink:href="#DejaVuSans-65" x="223.046875"/>
      <use xlink:href="#DejaVuSans-20" x="284.570312"/>
      <use xlink:href="#DejaVuSans-77" x="316.357422"/>
      <use xlink:href="#DejaVuSans-69" x="398.144531"/>
      <use xlink:href="#DejaVuSans-74" x="425.927734"/>
      <use xlink:href="#DejaVuSans-68" x="465.136719"/>
      <use xlink:href="#DejaVuSans-20" x="528.515625"/>
      <use xlink:href="#DejaVuSans-6e" x="560.302734"/>
      <use xlink:href="#DejaVuSans-6f" x="623.681641"/>
      <use xlink:href="#DejaVuSans-72" x="684.863281"/>
      <use xlink:href="#DejaVuSans-6d" x="724.226562"/>
      <use xlink:href="#DejaVuSans-61" x="821.638672"/>
      <use xlink:href="#DejaVuSans-6c" x="882.917969"/>
      <use xlink:href="#DejaVuSans-20" x="910.701172"/>
      <use xlink:href="#DejaVuSans-28" x="942.488281"/>
      <use xlink:href="#DejaVuSans-72" x="981.501953"/>
      <use xlink:href="#DejaVuSans-61" x="1022.615234"/>
      <use xlink:href="#DejaVuSans-64" x="1083.894531"/>
      <use xlink:href="#DejaVuSans-29" x="1147.371094"/>
     </g>
    </g>
   </g>
   <g id="matplotlib.axis_2">
    <g id="ytick_1">
     <g id="line2d_10">
      <defs>
       <path id="m3493f8695d" d="M 0 0 
L -3.5 0 
" style="stroke: #000000; stroke-width: 0.8"/>
      </defs>
      <g>
       <use xlink:href="#m3493f8695d" x="43.78125" y="273.312" style="stroke: #000000; stroke-width: 0.8"/>
      </g>
     </g>
     <g id="text_11">
      <!-- 0.0 -->
      <g transform="translate(20.878125 277.111219)scale(0.1 -0.1)">
       <use xlink:href="#DejaVuSans-30"/>
       <use xlink:href="#DejaVuSans-2e" x="63.623047"/>
       <use xlink:href="#DejaVuSans-30" x="95.410156"/>
      </g>
     </g>
    </g>
    <g id="ytick_2">
     <g id="line2d_11">
      <g>
       <use xlink:href="#m3493f8695d" x="43.78125" y="226.189519" style="stroke: #000000; stroke-width: 0.8"/>
      </g>
     </g>
     <g id="text_12">
      <!-- 0.2 -->
      <g transform="translate(20.878125 229.988737)scale(0.1 -0.1)">
       <use xlink:href="#DejaVuSans-30"/>
       <use xlink:href="#DejaVuSans-2e" x="63.623047"/>
       <use xlink:href="#DejaVuSans-32" x="95.410156"/>
      </g>
     </g>
    </g>
    <g id="ytick_3">
     <g id="line2d_12">
      <g>
       <use xlink:href="#m3493f8695d" x="43.78125" y="179.067037" style="stroke: #000000; stroke-width: 0.8"/>
      </g>
     </g>
     <g id="text_13">
      <!-- 0.4 -->
      <g transform="translate(20.878125 182.866256)scale(0.1 -0.1)">
       <use xlink:href="#DejaVuSans-30"/>
       <use xlink:href="#DejaVuSans-2e" x="63.623047"/>
       <use xlink:href="#DejaVuSans-34" x="95.410156"/>
      </g>
     </g>
    </g>
    <g id="ytick_4">
     <g id="line2d_13">
      <g>
       <use xlink:href="#m3493f8695d" x="43.78125" y="131.944556" style="stroke: #000000; stroke-width: 0.8"/>
      </g>
     </g>
     <g id="text_14">
      <!-- 0.6 -->
      <g transform="translate(20.878125 135.743775)scale(0.1 -0.1)">
       <use xlink:href="#DejaVuSans-30"/>
       <use xlink:href="#DejaVuSans-2e" x="63.623047"/>
       <use xlink:href="#DejaVuSans-36" x="95.410156"/>
      </g>
     </g>
    </g>
    <g id="ytick_5">
     <g id="line2d_14">
      <g>
       <use xlink:href="#m3493f8695d" x="43.78125" y="84.822075" style="stroke: #000000; stroke-width: 0.8"/>
      </g>
     </g>
     <g id="text_15">
      <!-- 0.8 -->
      <g transform="translate(20.878125 88.621294)scale(0.1 -0.1)">
       <use xlink:href="#DejaVuSans-30"/>
       <use xlink:href="#DejaVuSans-2e" x="63.623047"/>
       <use xlink:href="#DejaVuSans-38" x="95.410156"/>
      </g>
     </g>
    </g>
    <g id="ytick_6">
     <g id="line2d_15">
      <g>
       <use xlink:href="#m3493f8695d" x="43.78125" y="37.699594" style="stroke: #000000; stroke-width: 0.8"/>
      </g>
     </g>
     <g id="text_16">
      <!-- 1.0 -->
      <g transform="translate(20.878125 41.498812)scale(0.1 -0.1)">
       <use xlink:href="#DejaVuSans-31"/>
       <use xlink:href="#DejaVuSans-2e" x="63.623047"/>
       <use xlink:href="#DejaVuSans-30" x="95.410156"/>
      </g>
     </g>
    </g>
    <g id="text_17">
     <!-- Probability density -->
     <g transform="translate(14.798438 186.606781)rotate(-90)scale(0.1 -0.1)">
      <defs>
       <path id="DejaVuSans-50" d="M 1259 4147 
L 1259 2394 
L 2053 2394 
Q 2494 2394 2734 2622 
Q 2975 2850 2975 3272 
Q 2975 3691 2734 3919 
Q 2494 4147 2053 4147 
L 1259 4147 
z
M 628 4666 
L 2053 4666 
Q 2838 4666 3239 4311 
Q 3641 3956 3641 3272 
Q 3641 2581 3239 2228 
Q 2838 1875 2053 1875 
L 1259 1875 
L 1259 0 
L 628 0 
L 628 4666 
z
" transform="scale(0.015625)"/>
       <path id="DejaVuSans-62" d="M 3116 1747 
Q 3116 2381 2855 2742 
Q 2594 3103 2138 3103 
Q 1681 3103 1420 2742 
Q 1159 2381 1159 1747 
Q 1159 1113 1420 752 
Q 1681 391 2138 391 
Q 2594 391 2855 752 
Q 3116 1113 3116 1747 
z
M 1159 2969 
Q 1341 3281 1617 3432 
Q 1894 3584 2278 3584 
Q 2916 3584 3314 3078 
Q 3713 2572 3713 1747 
Q 3713 922 3314 415 
Q 2916 -91 2278 -91 
Q 1894 -91 1617 61 
Q 1341 213 1159 525 
L 1159 0 
L 581 0 
L 581 4863 
L 1159 4863 
L 1159 2969 
z
" transform="scale(0.015625)"/>
       <path id="DejaVuSans-79" d="M 2059 -325 
Q 1816 -950 1584 -1140 
Q 1353 -1331 966 -1331 
L 506 -1331 
L 506 -850 
L 844 -850 
Q 1081 -850 1212 -737 
Q 1344 -625 1503 -206 
L 1606 56 
L 191 3500 
L 800 3500 
L 1894 763 
L 2988 3500 
L 3597 3500 
L 2059 -325 
z
" transform="scale(0.015625)"/>
       <path id="DejaVuSans-73" d="M 2834 3397 
L 2834 2853 
Q 2591 2978 2328 3040 
Q 2066 3103 1784 3103 
Q 1356 3103 1142 2972 
Q 928 2841 928 2578 
Q 928 2378 1081 2264 
Q 1234 2150 1697 2047 
L 1894 2003 
Q 2506 1872 2764 1633 
Q 3022 1394 3022 966 
Q 3022 478 2636 193 
Q 2250 -91 1575 -91 
Q 1294 -91 989 -36 
Q 684 19 347 128 
L 347 722 
Q 666 556 975 473 
Q 1284 391 1588 391 
Q 1994 391 2212 530 
Q 2431 669 2431 922 
Q 2431 1156 2273 1281 
Q 2116 1406 1581 1522 
L 1381 1569 
Q 847 1681 609 1914 
Q 372 2147 372 2553 
Q 372 3047 722 3315 
Q 1072 3584 1716 3584 
Q 2034 3584 2315 3537 
Q 2597 3491 2834 3397 
z
" transform="scale(0.015625)"/>
      </defs>
      <use xlink:href="#DejaVuSans-50"/>
      <use xlink:href="#DejaVuSans-72" x="58.552734"/>
      <use xlink:href="#DejaVuSans-6f" x="97.416016"/>
      <use xlink:href="#DejaVuSans-62" x="158.597656"/>
      <use xlink:href="#DejaVuSans-61" x="222.074219"/>
      <use xlink:href="#DejaVuSans-62" x="283.353516"/>
      <use xlink:href="#DejaVuSans-69" x="346.830078"/>
      <use xlink:href="#DejaVuSans-6c" x="374.613281"/>
      <use xlink:href="#DejaVuSans-69" x="402.396484"/>
      <use xlink:href="#DejaVuSans-74" x="430.179688"/>
      <use xlink:href="#DejaVuSans-79" x="469.388672"/>
      <use xlink:href="#DejaVuSans-20" x="528.568359"/>
      <use xlink:href="#DejaVuSans-64" x="560.355469"/>
      <use xlink:href="#DejaVuSans-65" x="623.832031"/>
      <use xlink:href="#DejaVuSans-6e" x="685.355469"/>
      <use xlink:href="#DejaVuSans-73" x="748.734375"/>
      <use xlink:href="#DejaVuSans-69" x="800.833984"/>
      <use xlink:href="#DejaVuSans-74" x="828.617188"/>
      <use xlink:href="#DejaVuSans-79" x="867.826172"/>
     </g>
    </g>
   </g>
   <g id="line2d_16">
    <path d="M 60.013977 273.312 
L 79.837728 228.3914 
L 90.237073 205.382778 
L 99.01152 186.494626 
L 106.811029 170.226151 
L 113.960578 155.826778 
L 120.460169 143.222463 
L 126.63478 131.724109 
L 132.484411 121.296422 
L 138.009063 111.894626 
L 143.208736 103.46674 
L 148.408408 95.468757 
L 153.283101 88.379106 
L 157.832814 82.132987 
L 162.382528 76.257373 
L 166.607261 71.143165 
L 170.831995 66.366796 
L 175.056729 61.936246 
L 178.956483 58.159862 
L 182.856238 54.689833 
L 186.755992 51.531101 
L 190.330767 48.91291 
L 193.905542 46.563212 
L 197.480316 44.484818 
L 201.055091 42.680214 
L 204.304886 41.279076 
L 207.554682 40.107384 
L 210.804477 39.166298 
L 214.054272 38.456748 
L 217.304067 37.979437 
L 220.553863 37.734835 
L 223.803658 37.723185 
L 227.053453 37.944499 
L 230.303248 38.398557 
L 233.553044 39.08491 
L 236.802839 40.002881 
L 240.052634 41.15156 
L 243.302429 42.529813 
L 246.552225 44.136276 
L 250.126999 46.165066 
L 253.701774 48.465635 
L 257.276549 51.035233 
L 260.851324 53.870783 
L 264.751078 57.263434 
L 268.650832 60.963716 
L 272.550587 64.966362 
L 276.77532 69.637149 
L 281.000054 74.648291 
L 285.224788 79.991414 
L 289.774501 86.106562 
L 294.324215 92.584515 
L 299.198908 99.913505 
L 304.39858 108.15587 
L 309.598252 116.81627 
L 315.122904 126.451449 
L 320.972536 137.110179 
L 327.147147 148.83368 
L 333.646737 161.653343 
L 340.796287 176.262956 
L 348.595795 192.727811 
L 357.370243 211.794423 
L 367.769587 234.954651 
L 382.393666 268.125845 
L 384.668523 273.312 
L 384.668523 273.312 
" clip-path="url(#pfe245529cc)" style="fill: none; stroke: #ff7f0e; stroke-width: 1.5; stroke-linecap: square"/>
   </g>
   <g id="patch_203">
    <path d="M 43.78125 273.312 
L 43.78125 7.2 
" style="fill: none; stroke: #000000; stroke-width: 0.8; stroke-linejoin: miter; stroke-linecap: square"/>
   </g>
   <g id="patch_204">
    <path d="M 400.90125 273.312 
L 400.90125 7.2 
" style="fill: none; stroke: #000000; stroke-width: 0.8; stroke-linejoin: miter; stroke-linecap: square"/>
   </g>
   <g id="patch_205">
    <path d="M 43.78125 273.312 
L 400.90125 273.312 
" style="fill: none; stroke: #000000; stroke-width: 0.8; stroke-linejoin: miter; stroke-linecap: square"/>
   </g>
   <g id="patch_206">
    <path d="M 43.78125 7.2 
L 400.90125 7.2 
" style="fill: none; stroke: #000000; stroke-width: 0.8; stroke-linejoin: miter; stroke-linecap: square"/>
   </g>
  </g>
 </g>
 <defs>
  <clipPath id="pfe245529cc">
   <rect x="43.78125" y="7.2" width="357.12" height="266.112"/>
  </clipPath>
 </defs>
</svg>
